<?xml version="1.0" encoding="UTF-8" standalone="no"?>
<!DOCTYPE svg PUBLIC "-//W3C//DTD SVG 1.1//EN"
 "http://www.w3.org/Graphics/SVG/1.1/DTD/svg11.dtd">
<!-- Generated by graphviz version 2.40.1 (20161225.0304)
 -->
<!-- Title: snakemake_dag Pages: 1 -->
<svg width="857pt" height="836pt"
 viewBox="0.00 0.00 857.00 836.00" xmlns="http://www.w3.org/2000/svg" xmlns:xlink="http://www.w3.org/1999/xlink">
<g id="graph0" class="graph" transform="scale(1 1) rotate(0) translate(4 832)">
<title>snakemake_dag</title>
<polygon fill="#ffffff" stroke="transparent" points="-4,4 -4,-832 853,-832 853,4 -4,4"/>
<!-- 0 -->
<g id="node1" class="node">
<title>0</title>
<path fill="none" stroke="#56d8b9" stroke-width="2" d="M298,-36C298,-36 236,-36 236,-36 230,-36 224,-30 224,-24 224,-24 224,-12 224,-12 224,-6 230,0 236,0 236,0 298,0 298,0 304,0 310,-6 310,-12 310,-12 310,-24 310,-24 310,-30 304,-36 298,-36"/>
<text text-anchor="middle" x="267" y="-15.5" font-family="sans" font-size="10.00" fill="#000000">call_peaks_all</text>
</g>
<!-- 1 -->
<g id="node2" class="node">
<title>1</title>
<path fill="none" stroke="#d88556" stroke-width="2" d="M656.5,-108C656.5,-108 621.5,-108 621.5,-108 615.5,-108 609.5,-102 609.5,-96 609.5,-96 609.5,-84 609.5,-84 609.5,-78 615.5,-72 621.5,-72 621.5,-72 656.5,-72 656.5,-72 662.5,-72 668.5,-78 668.5,-84 668.5,-84 668.5,-96 668.5,-96 668.5,-102 662.5,-108 656.5,-108"/>
<text text-anchor="middle" x="639" y="-87.5" font-family="sans" font-size="10.00" fill="#000000">trackhub</text>
</g>
<!-- 1&#45;&gt;0 -->
<g id="edge3" class="edge">
<title>1&#45;&gt;0</title>
<path fill="none" stroke="#c0c0c0" stroke-width="2" d="M609.4988,-84.2901C546.9205,-72.1782 400.1045,-43.7622 320.531,-28.3608"/>
<polygon fill="#c0c0c0" stroke="#c0c0c0" stroke-width="2" points="320.7162,-24.8318 310.2333,-26.3677 319.386,-31.7043 320.7162,-24.8318"/>
</g>
<!-- 2 -->
<g id="node3" class="node">
<title>2</title>
<path fill="none" stroke="#d89c56" stroke-width="2" d="M284.5,-108C284.5,-108 249.5,-108 249.5,-108 243.5,-108 237.5,-102 237.5,-96 237.5,-96 237.5,-84 237.5,-84 237.5,-78 243.5,-72 249.5,-72 249.5,-72 284.5,-72 284.5,-72 290.5,-72 296.5,-78 296.5,-84 296.5,-84 296.5,-96 296.5,-96 296.5,-102 290.5,-108 284.5,-108"/>
<text text-anchor="middle" x="267" y="-87.5" font-family="sans" font-size="10.00" fill="#000000">multicov</text>
</g>
<!-- 2&#45;&gt;0 -->
<g id="edge2" class="edge">
<title>2&#45;&gt;0</title>
<path fill="none" stroke="#c0c0c0" stroke-width="2" d="M267,-71.8314C267,-64.131 267,-54.9743 267,-46.4166"/>
<polygon fill="#c0c0c0" stroke="#c0c0c0" stroke-width="2" points="270.5001,-46.4132 267,-36.4133 263.5001,-46.4133 270.5001,-46.4132"/>
</g>
<!-- 3 -->
<g id="node4" class="node">
<title>3</title>
<path fill="none" stroke="#59d856" stroke-width="2" d="M131,-108C131,-108 101,-108 101,-108 95,-108 89,-102 89,-96 89,-96 89,-84 89,-84 89,-78 95,-72 101,-72 101,-72 131,-72 131,-72 137,-72 143,-78 143,-84 143,-84 143,-96 143,-96 143,-102 137,-108 131,-108"/>
<text text-anchor="middle" x="116" y="-87.5" font-family="sans" font-size="10.00" fill="#000000">multiqc</text>
</g>
<!-- 3&#45;&gt;0 -->
<g id="edge1" class="edge">
<title>3&#45;&gt;0</title>
<path fill="none" stroke="#c0c0c0" stroke-width="2" d="M143.345,-76.9613C164.6903,-66.7834 194.8492,-52.403 220.0385,-40.3922"/>
<polygon fill="#c0c0c0" stroke="#c0c0c0" stroke-width="2" points="221.5484,-43.5499 229.0684,-36.0866 218.5356,-37.2314 221.5484,-43.5499"/>
</g>
<!-- 4 -->
<g id="node5" class="node">
<title>4</title>
<path fill="none" stroke="#56a9d8" stroke-width="2" d="M749,-180C749,-180 673,-180 673,-180 667,-180 661,-174 661,-168 661,-168 661,-156 661,-156 661,-150 667,-144 673,-144 673,-144 749,-144 749,-144 755,-144 761,-150 761,-156 761,-156 761,-168 761,-168 761,-174 755,-180 749,-180"/>
<text text-anchor="middle" x="711" y="-159.5" font-family="sans" font-size="10.00" fill="#000000">bedgraph_bigwig</text>
</g>
<!-- 4&#45;&gt;1 -->
<g id="edge6" class="edge">
<title>4&#45;&gt;1</title>
<path fill="none" stroke="#c0c0c0" stroke-width="2" d="M692.8314,-143.8314C684.2848,-135.2848 673.9443,-124.9443 664.6198,-115.6198"/>
<polygon fill="#c0c0c0" stroke="#c0c0c0" stroke-width="2" points="666.9592,-113.0095 657.4133,-108.4133 662.0095,-117.9592 666.9592,-113.0095"/>
</g>
<!-- 5 -->
<g id="node6" class="node">
<title>5</title>
<path fill="none" stroke="#80d856" stroke-width="2" d="M631,-180C631,-180 503,-180 503,-180 497,-180 491,-174 491,-168 491,-168 491,-156 491,-156 491,-150 497,-144 503,-144 503,-144 631,-144 631,-144 637,-144 643,-150 643,-156 643,-156 643,-168 643,-168 643,-174 637,-180 631,-180"/>
<text text-anchor="middle" x="567" y="-159.5" font-family="sans" font-size="10.00" fill="#000000">narrowpeak_bignarrowpeak</text>
</g>
<!-- 5&#45;&gt;1 -->
<g id="edge5" class="edge">
<title>5&#45;&gt;1</title>
<path fill="none" stroke="#c0c0c0" stroke-width="2" d="M585.1686,-143.8314C593.7152,-135.2848 604.0557,-124.9443 613.3802,-115.6198"/>
<polygon fill="#c0c0c0" stroke="#c0c0c0" stroke-width="2" points="615.9905,-117.9592 620.5867,-108.4133 611.0408,-113.0095 615.9905,-117.9592"/>
</g>
<!-- 6 -->
<g id="node7" class="node">
<title>6</title>
<path fill="none" stroke="#56d882" stroke-width="2" d="M837,-396C837,-396 807,-396 807,-396 801,-396 795,-390 795,-384 795,-384 795,-372 795,-372 795,-366 801,-360 807,-360 807,-360 837,-360 837,-360 843,-360 849,-366 849,-372 849,-372 849,-384 849,-384 849,-390 843,-396 837,-396"/>
<text text-anchor="middle" x="822" y="-375.5" font-family="sans" font-size="10.00" fill="#000000">twobit</text>
</g>
<!-- 6&#45;&gt;1 -->
<g id="edge4" class="edge">
<title>6&#45;&gt;1</title>
<path fill="none" stroke="#c0c0c0" stroke-width="2" d="M823.2573,-359.7452C825.2025,-316.8353 824.1067,-208.3372 770,-144 747.0556,-116.7173 708.1104,-103.0189 678.6318,-96.2678"/>
<polygon fill="#c0c0c0" stroke="#c0c0c0" stroke-width="2" points="679.1487,-92.7999 668.6414,-94.1588 677.7027,-99.6489 679.1487,-92.7999"/>
</g>
<!-- 7 -->
<g id="node8" class="node">
<title>7</title>
<path fill="none" stroke="#d8cb56" stroke-width="2" d="M460.5,-180C460.5,-180 411.5,-180 411.5,-180 405.5,-180 399.5,-174 399.5,-168 399.5,-168 399.5,-156 399.5,-156 399.5,-150 405.5,-144 411.5,-144 411.5,-144 460.5,-144 460.5,-144 466.5,-144 472.5,-150 472.5,-156 472.5,-156 472.5,-168 472.5,-168 472.5,-174 466.5,-180 460.5,-180"/>
<text text-anchor="middle" x="436" y="-159.5" font-family="sans" font-size="10.00" fill="#000000">peak_union</text>
</g>
<!-- 7&#45;&gt;2 -->
<g id="edge8" class="edge">
<title>7&#45;&gt;2</title>
<path fill="none" stroke="#c0c0c0" stroke-width="2" d="M399.3295,-146.3771C371.8013,-134.6491 334.1749,-118.6189 306.0798,-106.6494"/>
<polygon fill="#c0c0c0" stroke="#c0c0c0" stroke-width="2" points="307.1437,-103.2983 296.572,-102.5987 304.4,-109.7382 307.1437,-103.2983"/>
</g>
<!-- 8 -->
<g id="node9" class="node">
<title>8</title>
<path fill="none" stroke="#5692d8" stroke-width="2" d="M386,-396C386,-396 312,-396 312,-396 306,-396 300,-390 300,-384 300,-384 300,-372 300,-372 300,-366 306,-360 312,-360 312,-360 386,-360 386,-360 392,-360 398,-366 398,-372 398,-372 398,-384 398,-384 398,-390 392,-396 386,-396"/>
<text text-anchor="middle" x="349" y="-375.5" font-family="sans" font-size="10.00" fill="#000000">mark_duplicates</text>
</g>
<!-- 8&#45;&gt;2 -->
<g id="edge9" class="edge">
<title>8&#45;&gt;2</title>
<path fill="none" stroke="#c0c0c0" stroke-width="2" d="M299.9965,-366.7179C277.3061,-358.7764 252.4444,-345.577 239,-324 198.3975,-258.8368 232.3645,-163.4736 253.3958,-117.1977"/>
<polygon fill="#c0c0c0" stroke="#c0c0c0" stroke-width="2" points="256.5864,-118.6373 257.6558,-108.0966 250.2465,-115.6697 256.5864,-118.6373"/>
</g>
<!-- 9 -->
<g id="node10" class="node">
<title>9</title>
<path fill="none" stroke="#56c9d8" stroke-width="2" d="M342,-324C342,-324 272,-324 272,-324 266,-324 260,-318 260,-312 260,-312 260,-300 260,-300 260,-294 266,-288 272,-288 272,-288 342,-288 342,-288 348,-288 354,-294 354,-300 354,-300 354,-312 354,-312 354,-318 348,-324 342,-324"/>
<text text-anchor="middle" x="307" y="-303.5" font-family="sans" font-size="10.00" fill="#000000">samtools_index</text>
</g>
<!-- 8&#45;&gt;9 -->
<g id="edge25" class="edge">
<title>8&#45;&gt;9</title>
<path fill="none" stroke="#c0c0c0" stroke-width="2" d="M338.4016,-359.8314C333.7123,-351.7925 328.0972,-342.1666 322.9202,-333.2918"/>
<polygon fill="#c0c0c0" stroke="#c0c0c0" stroke-width="2" points="325.8031,-331.2875 317.7411,-324.4133 319.7566,-334.8146 325.8031,-331.2875"/>
</g>
<!-- 12 -->
<g id="node13" class="node">
<title>12</title>
<path fill="none" stroke="#56d8d8" stroke-width="2" d="M154,-324C154,-324 78,-324 78,-324 72,-324 66,-318 66,-312 66,-312 66,-300 66,-300 66,-294 72,-288 78,-288 78,-288 154,-288 154,-288 160,-288 166,-294 166,-300 166,-300 166,-312 166,-312 166,-318 160,-324 154,-324"/>
<text text-anchor="middle" x="116" y="-303.5" font-family="sans" font-size="10.00" fill="#000000">InsertSizeMetrics</text>
</g>
<!-- 8&#45;&gt;12 -->
<g id="edge30" class="edge">
<title>8&#45;&gt;12</title>
<path fill="none" stroke="#c0c0c0" stroke-width="2" d="M299.8714,-362.8186C263.8381,-351.6839 214.7035,-336.5006 176.2912,-324.6308"/>
<polygon fill="#c0c0c0" stroke="#c0c0c0" stroke-width="2" points="176.8549,-321.1417 166.2673,-321.5332 174.7882,-327.8297 176.8549,-321.1417"/>
</g>
<!-- 13 -->
<g id="node14" class="node">
<title>13</title>
<path fill="none" stroke="#bed856" stroke-width="2" d="M369,-180C369,-180 307,-180 307,-180 301,-180 295,-174 295,-168 295,-168 295,-156 295,-156 295,-150 301,-144 307,-144 307,-144 369,-144 369,-144 375,-144 381,-150 381,-156 381,-156 381,-168 381,-168 381,-174 375,-180 369,-180"/>
<text text-anchor="middle" x="338" y="-159.5" font-family="sans" font-size="10.00" fill="#000000">featureCounts</text>
</g>
<!-- 8&#45;&gt;13 -->
<g id="edge31" class="edge">
<title>8&#45;&gt;13</title>
<path fill="none" stroke="#c0c0c0" stroke-width="2" d="M299.8231,-363.0659C281.1347,-354.7265 261.7697,-342.2307 251,-324 222.8466,-276.3423 272.7383,-218.9276 307.8712,-186.8343"/>
<polygon fill="#c0c0c0" stroke="#c0c0c0" stroke-width="2" points="310.4051,-189.2647 315.5491,-180.0024 305.7518,-184.0352 310.4051,-189.2647"/>
</g>
<!-- 14 -->
<g id="node15" class="node">
<title>14</title>
<path fill="none" stroke="#d86656" stroke-width="2" d="M526.5,-252C526.5,-252 455.5,-252 455.5,-252 449.5,-252 443.5,-246 443.5,-240 443.5,-240 443.5,-228 443.5,-228 443.5,-222 449.5,-216 455.5,-216 455.5,-216 526.5,-216 526.5,-216 532.5,-216 538.5,-222 538.5,-228 538.5,-228 538.5,-240 538.5,-240 538.5,-246 532.5,-252 526.5,-252"/>
<text text-anchor="middle" x="491" y="-231.5" font-family="sans" font-size="10.00" fill="#000000">macs2_callpeak</text>
</g>
<!-- 8&#45;&gt;14 -->
<g id="edge34" class="edge">
<title>8&#45;&gt;14</title>
<path fill="none" stroke="#c0c0c0" stroke-width="2" d="M398.2639,-366.8138C422.8569,-358.8046 451.1032,-345.5153 469,-324 483.3205,-306.7841 488.5717,-281.6761 490.3826,-262.3513"/>
<polygon fill="#c0c0c0" stroke="#c0c0c0" stroke-width="2" points="493.8797,-262.5127 491.0705,-252.2971 486.896,-262.0348 493.8797,-262.5127"/>
</g>
<!-- 20 -->
<g id="node21" class="node">
<title>20</title>
<path fill="none" stroke="#56d863" stroke-width="2" d="M448,-324C448,-324 384,-324 384,-324 378,-324 372,-318 372,-312 372,-312 372,-300 372,-300 372,-294 378,-288 384,-288 384,-288 448,-288 448,-288 454,-288 460,-294 460,-300 460,-300 460,-312 460,-312 460,-318 454,-324 448,-324"/>
<text text-anchor="middle" x="416" y="-303.5" font-family="sans" font-size="10.00" fill="#000000">genrich_pileup</text>
</g>
<!-- 8&#45;&gt;20 -->
<g id="edge40" class="edge">
<title>8&#45;&gt;20</title>
<path fill="none" stroke="#c0c0c0" stroke-width="2" d="M365.9069,-359.8314C373.7813,-351.3694 383.292,-341.1489 391.9013,-331.8971"/>
<polygon fill="#c0c0c0" stroke="#c0c0c0" stroke-width="2" points="394.6153,-334.1183 398.8654,-324.4133 389.4908,-329.3497 394.6153,-334.1183"/>
</g>
<!-- 9&#45;&gt;2 -->
<g id="edge7" class="edge">
<title>9&#45;&gt;2</title>
<path fill="none" stroke="#c0c0c0" stroke-width="2" d="M303.6584,-287.9555C296.6878,-250.3144 280.5531,-163.1867 272.2083,-118.1246"/>
<polygon fill="#c0c0c0" stroke="#c0c0c0" stroke-width="2" points="275.6227,-117.3405 270.3602,-108.1451 268.7397,-118.6152 275.6227,-117.3405"/>
</g>
<!-- 10 -->
<g id="node11" class="node">
<title>10</title>
<path fill="none" stroke="#c6d856" stroke-width="2" d="M210,-540C210,-540 180,-540 180,-540 174,-540 168,-534 168,-528 168,-528 168,-516 168,-516 168,-510 174,-504 180,-504 180,-504 210,-504 210,-504 216,-504 222,-510 222,-516 222,-516 222,-528 222,-528 222,-534 216,-540 210,-540"/>
<text text-anchor="middle" x="195" y="-519.5" font-family="sans" font-size="10.00" fill="#000000">fastqc</text>
</g>
<!-- 10&#45;&gt;3 -->
<g id="edge13" class="edge">
<title>10&#45;&gt;3</title>
<path fill="none" stroke="#c0c0c0" stroke-width="2" d="M167.6527,-511.6352C122.6711,-492.5996 38,-447.5331 38,-378 38,-378 38,-378 38,-234 38,-188.3933 68.6237,-143.4038 91.4942,-116.1636"/>
<polygon fill="#c0c0c0" stroke="#c0c0c0" stroke-width="2" points="94.4033,-118.1506 98.3006,-108.2986 89.1102,-113.5699 94.4033,-118.1506"/>
</g>
<!-- 10&#45;&gt;14 -->
<g id="edge35" class="edge">
<title>10&#45;&gt;14</title>
<path fill="none" stroke="#c0c0c0" stroke-width="2" d="M219.6631,-503.9137C246.1986,-484.8501 289.9884,-454.5213 330,-432 405.4083,-389.5549 455.612,-402.5106 492,-324 500.94,-304.7112 500.0949,-280.5041 497.3405,-262.0548"/>
<polygon fill="#c0c0c0" stroke="#c0c0c0" stroke-width="2" points="500.7874,-261.4465 495.6111,-252.2022 493.8928,-262.6568 500.7874,-261.4465"/>
</g>
<!-- 11 -->
<g id="node12" class="node">
<title>11</title>
<path fill="none" stroke="#d8bc56" stroke-width="2" d="M246,-684C246,-684 180,-684 180,-684 174,-684 168,-678 168,-672 168,-672 168,-660 168,-660 168,-654 174,-648 180,-648 180,-648 246,-648 246,-648 252,-648 258,-654 258,-660 258,-660 258,-672 258,-672 258,-678 252,-684 246,-684"/>
<text text-anchor="middle" x="213" y="-663.5" font-family="sans" font-size="10.00" fill="#000000">trim_galore_PE</text>
</g>
<!-- 11&#45;&gt;3 -->
<g id="edge12" class="edge">
<title>11&#45;&gt;3</title>
<path fill="none" stroke="#c0c0c0" stroke-width="2" d="M167.8282,-656.7053C105.304,-640.8972 0,-602.3465 0,-522 0,-522 0,-522 0,-234 0,-182.0616 46.3315,-138.2571 80.4325,-113.0502"/>
<polygon fill="#c0c0c0" stroke="#c0c0c0" stroke-width="2" points="82.7155,-115.7201 88.8032,-107.0488 78.6367,-110.0312 82.7155,-115.7201"/>
</g>
<!-- 11&#45;&gt;10 -->
<g id="edge28" class="edge">
<title>11&#45;&gt;10</title>
<path fill="none" stroke="#c0c0c0" stroke-width="2" d="M210.7203,-647.7623C207.6501,-623.201 202.1559,-579.2474 198.5443,-550.3541"/>
<polygon fill="#c0c0c0" stroke="#c0c0c0" stroke-width="2" points="201.9746,-549.5782 197.2612,-540.0896 195.0287,-550.4465 201.9746,-549.5782"/>
</g>
<!-- 24 -->
<g id="node25" class="node">
<title>24</title>
<path fill="none" stroke="#56d8a2" stroke-width="2" d="M312.5,-612C312.5,-612 235.5,-612 235.5,-612 229.5,-612 223.5,-606 223.5,-600 223.5,-600 223.5,-588 223.5,-588 223.5,-582 229.5,-576 235.5,-576 235.5,-576 312.5,-576 312.5,-576 318.5,-576 324.5,-582 324.5,-588 324.5,-588 324.5,-600 324.5,-600 324.5,-606 318.5,-612 312.5,-612"/>
<text text-anchor="middle" x="274" y="-591.5" font-family="sans" font-size="10.00" fill="#000000">merge_replicates</text>
</g>
<!-- 11&#45;&gt;24 -->
<g id="edge44" class="edge">
<title>11&#45;&gt;24</title>
<path fill="none" stroke="#c0c0c0" stroke-width="2" d="M228.3929,-647.8314C235.4904,-639.454 244.048,-629.3531 251.824,-620.1749"/>
<polygon fill="#c0c0c0" stroke="#c0c0c0" stroke-width="2" points="254.6061,-622.3056 258.3999,-612.4133 249.2652,-617.7807 254.6061,-622.3056"/>
</g>
<!-- 12&#45;&gt;3 -->
<g id="edge10" class="edge">
<title>12&#45;&gt;3</title>
<path fill="none" stroke="#c0c0c0" stroke-width="2" d="M116,-287.9555C116,-250.3938 116,-163.5541 116,-118.4103"/>
<polygon fill="#c0c0c0" stroke="#c0c0c0" stroke-width="2" points="119.5001,-118.145 116,-108.1451 112.5001,-118.1451 119.5001,-118.145"/>
</g>
<!-- 13&#45;&gt;3 -->
<g id="edge11" class="edge">
<title>13&#45;&gt;3</title>
<path fill="none" stroke="#c0c0c0" stroke-width="2" d="M294.9329,-148.0323C253.639,-134.6397 191.964,-114.637 152.8755,-101.9596"/>
<polygon fill="#c0c0c0" stroke="#c0c0c0" stroke-width="2" points="153.8014,-98.5805 143.2094,-98.8247 151.6418,-105.2391 153.8014,-98.5805"/>
</g>
<!-- 14&#45;&gt;4 -->
<g id="edge15" class="edge">
<title>14&#45;&gt;4</title>
<path fill="none" stroke="#c0c0c0" stroke-width="2" d="M538.7367,-218.3771C571.6583,-207.6027 615.6744,-193.1975 650.9724,-181.6454"/>
<polygon fill="#c0c0c0" stroke="#c0c0c0" stroke-width="2" points="652.2653,-184.905 660.6806,-178.4682 650.0879,-178.2522 652.2653,-184.905"/>
</g>
<!-- 14&#45;&gt;5 -->
<g id="edge17" class="edge">
<title>14&#45;&gt;5</title>
<path fill="none" stroke="#c0c0c0" stroke-width="2" d="M510.178,-215.8314C519.3588,-207.1337 530.5006,-196.5783 540.4776,-187.1265"/>
<polygon fill="#c0c0c0" stroke="#c0c0c0" stroke-width="2" points="542.9757,-189.5811 547.8281,-180.1628 538.1615,-184.4995 542.9757,-189.5811"/>
</g>
<!-- 14&#45;&gt;7 -->
<g id="edge21" class="edge">
<title>14&#45;&gt;7</title>
<path fill="none" stroke="#c0c0c0" stroke-width="2" d="M477.1212,-215.8314C470.7864,-207.5386 463.1616,-197.557 456.2074,-188.4533"/>
<polygon fill="#c0c0c0" stroke="#c0c0c0" stroke-width="2" points="458.9175,-186.2353 450.0657,-180.4133 453.3548,-190.4847 458.9175,-186.2353"/>
</g>
<!-- 14&#45;&gt;13 -->
<g id="edge32" class="edge">
<title>14&#45;&gt;13</title>
<path fill="none" stroke="#c0c0c0" stroke-width="2" d="M452.3916,-215.8314C432.1107,-206.2874 407.0762,-194.5065 385.6029,-184.4013"/>
<polygon fill="#c0c0c0" stroke="#c0c0c0" stroke-width="2" points="386.8692,-181.1291 376.3307,-180.038 383.8886,-187.4629 386.8692,-181.1291"/>
</g>
<!-- 15 -->
<g id="node16" class="node">
<title>15</title>
<path fill="none" stroke="#56d873" stroke-width="2" d="M693.5,-684C693.5,-684 640.5,-684 640.5,-684 634.5,-684 628.5,-678 628.5,-672 628.5,-672 628.5,-660 628.5,-660 628.5,-654 634.5,-648 640.5,-648 640.5,-648 693.5,-648 693.5,-648 699.5,-648 705.5,-654 705.5,-660 705.5,-660 705.5,-672 705.5,-672 705.5,-678 699.5,-684 693.5,-684"/>
<text text-anchor="middle" x="667" y="-663.5" font-family="sans" font-size="10.00" fill="#000000">get_genome</text>
</g>
<!-- 15&#45;&gt;4 -->
<g id="edge16" class="edge">
<title>15&#45;&gt;4</title>
<path fill="none" stroke="#c0c0c0" stroke-width="2" d="M690.6986,-647.8715C720.27,-622.9978 767,-575.2647 767,-522 767,-522 767,-522 767,-306 767,-265.1184 764.085,-253.5843 748,-216 743.9513,-206.5397 738.1378,-197.016 732.3145,-188.6574"/>
<polygon fill="#c0c0c0" stroke="#c0c0c0" stroke-width="2" points="735.0319,-186.4434 726.3159,-180.4199 729.3733,-190.5641 735.0319,-186.4434"/>
</g>
<!-- 15&#45;&gt;5 -->
<g id="edge18" class="edge">
<title>15&#45;&gt;5</title>
<path fill="none" stroke="#c0c0c0" stroke-width="2" d="M643.3014,-647.8715C613.73,-622.9978 567,-575.2647 567,-522 567,-522 567,-522 567,-306 567,-265.876 567,-219.4631 567,-190.4177"/>
<polygon fill="#c0c0c0" stroke="#c0c0c0" stroke-width="2" points="570.5001,-190.1853 567,-180.1854 563.5001,-190.1854 570.5001,-190.1853"/>
</g>
<!-- 15&#45;&gt;6 -->
<g id="edge20" class="edge">
<title>15&#45;&gt;6</title>
<path fill="none" stroke="#c0c0c0" stroke-width="2" d="M705.6618,-657.4817C730.9913,-649.8554 762.6877,-636.0419 781,-612 827.7178,-550.6652 828.0688,-454.1306 824.8583,-406.5097"/>
<polygon fill="#c0c0c0" stroke="#c0c0c0" stroke-width="2" points="828.33,-406.0094 824.0634,-396.3116 821.3512,-406.5534 828.33,-406.0094"/>
</g>
<!-- 25 -->
<g id="node26" class="node">
<title>25</title>
<path fill="none" stroke="#9fd856" stroke-width="2" d="M521.5,-612C521.5,-612 476.5,-612 476.5,-612 470.5,-612 464.5,-606 464.5,-600 464.5,-600 464.5,-588 464.5,-588 464.5,-582 470.5,-576 476.5,-576 476.5,-576 521.5,-576 521.5,-576 527.5,-576 533.5,-582 533.5,-588 533.5,-588 533.5,-600 533.5,-600 533.5,-606 527.5,-612 521.5,-612"/>
<text text-anchor="middle" x="499" y="-591.5" font-family="sans" font-size="10.00" fill="#000000">bwa_index</text>
</g>
<!-- 15&#45;&gt;25 -->
<g id="edge45" class="edge">
<title>15&#45;&gt;25</title>
<path fill="none" stroke="#c0c0c0" stroke-width="2" d="M628.4574,-649.4817C603.0054,-638.5737 569.5854,-624.2509 543.0772,-612.8902"/>
<polygon fill="#c0c0c0" stroke="#c0c0c0" stroke-width="2" points="544.2215,-609.5728 533.6513,-608.8506 541.464,-616.0068 544.2215,-609.5728"/>
</g>
<!-- 16 -->
<g id="node17" class="node">
<title>16</title>
<path fill="none" stroke="#afd856" stroke-width="2" d="M726.5,-252C726.5,-252 607.5,-252 607.5,-252 601.5,-252 595.5,-246 595.5,-240 595.5,-240 595.5,-228 595.5,-228 595.5,-222 601.5,-216 607.5,-216 607.5,-216 726.5,-216 726.5,-216 732.5,-216 738.5,-222 738.5,-228 738.5,-228 738.5,-240 738.5,-240 738.5,-246 732.5,-252 726.5,-252"/>
<text text-anchor="middle" x="667" y="-231.5" font-family="sans" font-size="10.00" fill="#000000">bedgraphish_to_bedgraph</text>
</g>
<!-- 16&#45;&gt;4 -->
<g id="edge14" class="edge">
<title>16&#45;&gt;4</title>
<path fill="none" stroke="#c0c0c0" stroke-width="2" d="M678.1031,-215.8314C683.0674,-207.7079 689.0222,-197.9637 694.4928,-189.0118"/>
<polygon fill="#c0c0c0" stroke="#c0c0c0" stroke-width="2" points="697.5194,-190.7712 699.7474,-180.4133 691.5464,-187.121 697.5194,-190.7712"/>
</g>
<!-- 17 -->
<g id="node18" class="node">
<title>17</title>
<path fill="none" stroke="#d85656" stroke-width="2" d="M413,-252C413,-252 333,-252 333,-252 327,-252 321,-246 321,-240 321,-240 321,-228 321,-228 321,-222 327,-216 333,-216 333,-216 413,-216 413,-216 419,-216 425,-222 425,-228 425,-228 425,-240 425,-240 425,-246 419,-252 413,-252"/>
<text text-anchor="middle" x="373" y="-231.5" font-family="sans" font-size="10.00" fill="#000000">call_peak_genrich</text>
</g>
<!-- 17&#45;&gt;5 -->
<g id="edge19" class="edge">
<title>17&#45;&gt;5</title>
<path fill="none" stroke="#c0c0c0" stroke-width="2" d="M421.9544,-215.8314C448.362,-206.0306 481.1256,-193.8709 508.8286,-183.5894"/>
<polygon fill="#c0c0c0" stroke="#c0c0c0" stroke-width="2" points="510.2403,-186.7988 518.3976,-180.038 507.8047,-180.2362 510.2403,-186.7988"/>
</g>
<!-- 17&#45;&gt;7 -->
<g id="edge22" class="edge">
<title>17&#45;&gt;7</title>
<path fill="none" stroke="#c0c0c0" stroke-width="2" d="M388.8976,-215.8314C396.2278,-207.454 405.066,-197.3531 413.0969,-188.1749"/>
<polygon fill="#c0c0c0" stroke="#c0c0c0" stroke-width="2" points="415.9373,-190.2438 419.8884,-180.4133 410.6693,-185.6343 415.9373,-190.2438"/>
</g>
<!-- 17&#45;&gt;13 -->
<g id="edge33" class="edge">
<title>17&#45;&gt;13</title>
<path fill="none" stroke="#c0c0c0" stroke-width="2" d="M364.168,-215.8314C360.3014,-207.8771 355.6794,-198.369 351.4032,-189.5723"/>
<polygon fill="#c0c0c0" stroke="#c0c0c0" stroke-width="2" points="354.4707,-187.8768 346.9509,-180.4133 348.1751,-190.9371 354.4707,-187.8768"/>
</g>
<!-- 18 -->
<g id="node19" class="node">
<title>18</title>
<path fill="none" stroke="#68d856" stroke-width="2" d="M527,-468C527,-468 465,-468 465,-468 459,-468 453,-462 453,-456 453,-456 453,-444 453,-444 453,-438 459,-432 465,-432 465,-432 527,-432 527,-432 533,-432 539,-438 539,-444 539,-444 539,-456 539,-456 539,-462 533,-468 527,-468"/>
<text text-anchor="middle" x="496" y="-447.5" font-family="sans" font-size="10.00" fill="#000000">samtools_sort</text>
</g>
<!-- 18&#45;&gt;8 -->
<g id="edge24" class="edge">
<title>18&#45;&gt;8</title>
<path fill="none" stroke="#c0c0c0" stroke-width="2" d="M458.9057,-431.8314C439.5074,-422.3302 415.583,-410.6121 395.0138,-400.5374"/>
<polygon fill="#c0c0c0" stroke="#c0c0c0" stroke-width="2" points="396.3478,-397.2935 385.8276,-396.038 393.2686,-403.5799 396.3478,-397.2935"/>
</g>
<!-- 19 -->
<g id="node20" class="node">
<title>19</title>
<path fill="none" stroke="#d88d56" stroke-width="2" d="M204,-756C204,-756 148,-756 148,-756 142,-756 136,-750 136,-744 136,-744 136,-732 136,-732 136,-726 142,-720 148,-720 148,-720 204,-720 204,-720 210,-720 216,-726 216,-732 216,-732 216,-744 216,-744 216,-750 210,-756 204,-756"/>
<text text-anchor="middle" x="176" y="-735.5" font-family="sans" font-size="10.00" fill="#000000">sra2fastq_PE</text>
</g>
<!-- 19&#45;&gt;10 -->
<g id="edge26" class="edge">
<title>19&#45;&gt;10</title>
<path fill="none" stroke="#c0c0c0" stroke-width="2" d="M168.7561,-719.8366C165.0288,-709.513 160.8812,-696.2403 159,-684 151.694,-636.4628 169.224,-582.0374 182.3062,-549.9208"/>
<polygon fill="#c0c0c0" stroke="#c0c0c0" stroke-width="2" points="185.6968,-550.8882 186.3603,-540.3141 179.2476,-548.1665 185.6968,-550.8882"/>
</g>
<!-- 19&#45;&gt;11 -->
<g id="edge29" class="edge">
<title>19&#45;&gt;11</title>
<path fill="none" stroke="#c0c0c0" stroke-width="2" d="M185.3367,-719.8314C189.4243,-711.8771 194.3104,-702.369 198.8309,-693.5723"/>
<polygon fill="#c0c0c0" stroke="#c0c0c0" stroke-width="2" points="202.0799,-694.9074 203.5376,-684.4133 195.8539,-691.7078 202.0799,-694.9074"/>
</g>
<!-- 20&#45;&gt;16 -->
<g id="edge36" class="edge">
<title>20&#45;&gt;16</title>
<path fill="none" stroke="#c0c0c0" stroke-width="2" d="M460.0081,-293.3762C497.1301,-282.7276 551.0113,-267.2717 594.4948,-254.7983"/>
<polygon fill="#c0c0c0" stroke="#c0c0c0" stroke-width="2" points="595.5234,-258.1445 604.1706,-252.0228 593.5932,-251.4158 595.5234,-258.1445"/>
</g>
<!-- 20&#45;&gt;17 -->
<g id="edge37" class="edge">
<title>20&#45;&gt;17</title>
<path fill="none" stroke="#c0c0c0" stroke-width="2" d="M405.1493,-287.8314C400.2977,-279.7079 394.4783,-269.9637 389.132,-261.0118"/>
<polygon fill="#c0c0c0" stroke="#c0c0c0" stroke-width="2" points="392.1292,-259.2041 383.9968,-252.4133 386.1194,-262.7933 392.1292,-259.2041"/>
</g>
<!-- 21 -->
<g id="node22" class="node">
<title>21</title>
<path fill="none" stroke="#5663d8" stroke-width="2" d="M465,-540C465,-540 421,-540 421,-540 415,-540 409,-534 409,-528 409,-528 409,-516 409,-516 409,-510 415,-504 421,-504 421,-504 465,-504 465,-504 471,-504 477,-510 477,-516 477,-516 477,-528 477,-528 477,-534 471,-540 465,-540"/>
<text text-anchor="middle" x="443" y="-519.5" font-family="sans" font-size="10.00" fill="#000000">bwa_mem</text>
</g>
<!-- 21&#45;&gt;18 -->
<g id="edge38" class="edge">
<title>21&#45;&gt;18</title>
<path fill="none" stroke="#c0c0c0" stroke-width="2" d="M456.3741,-503.8314C462.4162,-495.6232 469.6763,-485.7606 476.3221,-476.7323"/>
<polygon fill="#c0c0c0" stroke="#c0c0c0" stroke-width="2" points="479.3363,-478.5415 482.4458,-468.4133 473.6989,-474.3918 479.3363,-478.5415"/>
</g>
<!-- 23 -->
<g id="node24" class="node">
<title>23</title>
<path fill="none" stroke="#5673d8" stroke-width="2" d="M422.5,-468C422.5,-468 351.5,-468 351.5,-468 345.5,-468 339.5,-462 339.5,-456 339.5,-456 339.5,-444 339.5,-444 339.5,-438 345.5,-432 351.5,-432 351.5,-432 422.5,-432 422.5,-432 428.5,-432 434.5,-438 434.5,-444 434.5,-444 434.5,-456 434.5,-456 434.5,-462 428.5,-468 422.5,-468"/>
<text text-anchor="middle" x="387" y="-447.5" font-family="sans" font-size="10.00" fill="#000000">sambamba_sort</text>
</g>
<!-- 21&#45;&gt;23 -->
<g id="edge43" class="edge">
<title>21&#45;&gt;23</title>
<path fill="none" stroke="#c0c0c0" stroke-width="2" d="M428.8688,-503.8314C422.4189,-495.5386 414.6555,-485.557 407.5748,-476.4533"/>
<polygon fill="#c0c0c0" stroke="#c0c0c0" stroke-width="2" points="410.2236,-474.158 401.3214,-468.4133 404.6981,-478.4556 410.2236,-474.158"/>
</g>
<!-- 22 -->
<g id="node23" class="node">
<title>22</title>
<path fill="none" stroke="#56b9d8" stroke-width="2" d="M191,-828C191,-828 161,-828 161,-828 155,-828 149,-822 149,-816 149,-816 149,-804 149,-804 149,-798 155,-792 161,-792 161,-792 191,-792 191,-792 197,-792 203,-798 203,-804 203,-804 203,-816 203,-816 203,-822 197,-828 191,-828"/>
<text text-anchor="middle" x="176" y="-807.5" font-family="sans" font-size="10.00" fill="#000000">id2sra</text>
</g>
<!-- 22&#45;&gt;19 -->
<g id="edge39" class="edge">
<title>22&#45;&gt;19</title>
<path fill="none" stroke="#c0c0c0" stroke-width="2" d="M176,-791.8314C176,-784.131 176,-774.9743 176,-766.4166"/>
<polygon fill="#c0c0c0" stroke="#c0c0c0" stroke-width="2" points="179.5001,-766.4132 176,-756.4133 172.5001,-766.4133 179.5001,-766.4132"/>
</g>
<!-- 23&#45;&gt;8 -->
<g id="edge23" class="edge">
<title>23&#45;&gt;8</title>
<path fill="none" stroke="#c0c0c0" stroke-width="2" d="M377.411,-431.8314C373.1683,-423.7925 368.0879,-414.1666 363.404,-405.2918"/>
<polygon fill="#c0c0c0" stroke="#c0c0c0" stroke-width="2" points="366.4811,-403.6235 358.7181,-396.4133 360.2904,-406.8908 366.4811,-403.6235"/>
</g>
<!-- 24&#45;&gt;10 -->
<g id="edge27" class="edge">
<title>24&#45;&gt;10</title>
<path fill="none" stroke="#c0c0c0" stroke-width="2" d="M254.065,-575.8314C244.5217,-567.1337 232.9401,-556.5783 222.5694,-547.1265"/>
<polygon fill="#c0c0c0" stroke="#c0c0c0" stroke-width="2" points="224.6772,-544.3121 214.9287,-540.1628 219.962,-549.4857 224.6772,-544.3121"/>
</g>
<!-- 24&#45;&gt;21 -->
<g id="edge41" class="edge">
<title>24&#45;&gt;21</title>
<path fill="none" stroke="#c0c0c0" stroke-width="2" d="M316.6458,-575.8314C341.964,-565.0449 373.9887,-551.4012 399.4621,-540.5487"/>
<polygon fill="#c0c0c0" stroke="#c0c0c0" stroke-width="2" points="401.0486,-543.6773 408.8766,-536.5378 398.3049,-537.2373 401.0486,-543.6773"/>
</g>
<!-- 25&#45;&gt;21 -->
<g id="edge42" class="edge">
<title>25&#45;&gt;21</title>
<path fill="none" stroke="#c0c0c0" stroke-width="2" d="M484.8688,-575.8314C478.4189,-567.5386 470.6555,-557.557 463.5748,-548.4533"/>
<polygon fill="#c0c0c0" stroke="#c0c0c0" stroke-width="2" points="466.2236,-546.158 457.3214,-540.4133 460.6981,-550.4556 466.2236,-546.158"/>
</g>
</g>
</svg>
