<?xml version="1.0" encoding="UTF-8" standalone="no"?>
<!DOCTYPE svg PUBLIC "-//W3C//DTD SVG 1.1//EN"
 "http://www.w3.org/Graphics/SVG/1.1/DTD/svg11.dtd">
<!-- Generated by graphviz version 2.42.3 (20191010.1750)
 -->
<!-- Title: snakemake_dag Pages: 1 -->
<svg width="1338pt" height="836pt"
 viewBox="0.00 0.00 1338.00 836.00" xmlns="http://www.w3.org/2000/svg" xmlns:xlink="http://www.w3.org/1999/xlink">
<g id="graph0" class="graph" transform="scale(1 1) rotate(0) translate(4 832)">
<title>snakemake_dag</title>
<polygon fill="white" stroke="transparent" points="-4,4 -4,-832 1334,-832 1334,4 -4,4"/>
<!-- 0 -->
<g id="node1" class="node">
<title>0</title>
<path fill="none" stroke="#5663d8" stroke-width="2" d="M594,-36C594,-36 532,-36 532,-36 526,-36 520,-30 520,-24 520,-24 520,-12 520,-12 520,-6 526,0 532,0 532,0 594,0 594,0 600,0 606,-6 606,-12 606,-12 606,-24 606,-24 606,-30 600,-36 594,-36"/>
<text text-anchor="middle" x="563" y="-15.5" font-family="sans" font-size="10.00">call_peaks_all</text>
</g>
<!-- 1 -->
<g id="node2" class="node">
<title>1</title>
<path fill="none" stroke="#61d856" stroke-width="2" d="M189.5,-108C189.5,-108 154.5,-108 154.5,-108 148.5,-108 142.5,-102 142.5,-96 142.5,-96 142.5,-84 142.5,-84 142.5,-78 148.5,-72 154.5,-72 154.5,-72 189.5,-72 189.5,-72 195.5,-72 201.5,-78 201.5,-84 201.5,-84 201.5,-96 201.5,-96 201.5,-102 195.5,-108 189.5,-108"/>
<text text-anchor="middle" x="172" y="-87.5" font-family="sans" font-size="10.00">trackhub</text>
</g>
<!-- 1&#45;&gt;0 -->
<g id="edge2" class="edge">
<title>1&#45;&gt;0</title>
<path fill="none" stroke="grey" stroke-width="2" d="M201.71,-83.68C267.49,-71.9 426.19,-43.49 509.65,-28.55"/>
<polygon fill="grey" stroke="grey" stroke-width="2" points="510.47,-31.96 519.69,-26.75 509.23,-25.07 510.47,-31.96"/>
</g>
<!-- 2 -->
<g id="node3" class="node">
<title>2</title>
<path fill="none" stroke="#568ad8" stroke-width="2" d="M597,-108C597,-108 529,-108 529,-108 523,-108 517,-102 517,-96 517,-96 517,-84 517,-84 517,-78 523,-72 529,-72 529,-72 597,-72 597,-72 603,-72 609,-78 609,-84 609,-84 609,-96 609,-96 609,-102 603,-108 597,-108"/>
<text text-anchor="middle" x="563" y="-87.5" font-family="sans" font-size="10.00">coverage_table</text>
</g>
<!-- 2&#45;&gt;0 -->
<g id="edge1" class="edge">
<title>2&#45;&gt;0</title>
<path fill="none" stroke="grey" stroke-width="2" d="M563,-71.7C563,-63.98 563,-54.71 563,-46.11"/>
<polygon fill="grey" stroke="grey" stroke-width="2" points="566.5,-46.1 563,-36.1 559.5,-46.1 566.5,-46.1"/>
</g>
<!-- 3 -->
<g id="node4" class="node">
<title>3</title>
<path fill="none" stroke="#56d8d0" stroke-width="2" d="M995,-180C995,-180 965,-180 965,-180 959,-180 953,-174 953,-168 953,-168 953,-156 953,-156 953,-150 959,-144 965,-144 965,-144 995,-144 995,-144 1001,-144 1007,-150 1007,-156 1007,-156 1007,-168 1007,-168 1007,-174 1001,-180 995,-180"/>
<text text-anchor="middle" x="980" y="-159.5" font-family="sans" font-size="10.00">multiqc</text>
</g>
<!-- 3&#45;&gt;0 -->
<g id="edge3" class="edge">
<title>3&#45;&gt;0</title>
<path fill="none" stroke="grey" stroke-width="2" d="M952.96,-151.79C884.94,-128.63 705.77,-67.62 615.94,-37.03"/>
<polygon fill="grey" stroke="grey" stroke-width="2" points="616.82,-33.63 606.22,-33.72 614.56,-40.25 616.82,-33.63"/>
</g>
<!-- 4 -->
<g id="node5" class="node">
<title>4</title>
<path fill="none" stroke="#56d0d8" stroke-width="2" d="M458,-180C458,-180 382,-180 382,-180 376,-180 370,-174 370,-168 370,-168 370,-156 370,-156 370,-150 376,-144 382,-144 382,-144 458,-144 458,-144 464,-144 470,-150 470,-156 470,-156 470,-168 470,-168 470,-174 464,-180 458,-180"/>
<text text-anchor="middle" x="420" y="-159.5" font-family="sans" font-size="10.00">bedgraph_bigwig</text>
</g>
<!-- 4&#45;&gt;1 -->
<g id="edge5" class="edge">
<title>4&#45;&gt;1</title>
<path fill="none" stroke="grey" stroke-width="2" d="M369.79,-146.51C366.82,-145.66 363.87,-144.82 361,-144 309.39,-129.33 249.78,-112.66 211.53,-102"/>
<polygon fill="grey" stroke="grey" stroke-width="2" points="212.38,-98.6 201.81,-99.29 210.5,-105.34 212.38,-98.6"/>
</g>
<!-- 5 -->
<g id="node6" class="node">
<title>5</title>
<path fill="none" stroke="#c6d856" stroke-width="2" d="M340,-180C340,-180 212,-180 212,-180 206,-180 200,-174 200,-168 200,-168 200,-156 200,-156 200,-150 206,-144 212,-144 212,-144 340,-144 340,-144 346,-144 352,-150 352,-156 352,-156 352,-168 352,-168 352,-174 346,-180 340,-180"/>
<text text-anchor="middle" x="276" y="-159.5" font-family="sans" font-size="10.00">narrowpeak_bignarrowpeak</text>
</g>
<!-- 5&#45;&gt;1 -->
<g id="edge6" class="edge">
<title>5&#45;&gt;1</title>
<path fill="none" stroke="grey" stroke-width="2" d="M250.56,-143.88C237.21,-134.89 220.68,-123.76 206.22,-114.03"/>
<polygon fill="grey" stroke="grey" stroke-width="2" points="207.79,-110.87 197.54,-108.19 203.88,-116.68 207.79,-110.87"/>
</g>
<!-- 6 -->
<g id="node7" class="node">
<title>6</title>
<path fill="none" stroke="#d85656" stroke-width="2" d="M44,-684C44,-684 14,-684 14,-684 8,-684 2,-678 2,-672 2,-672 2,-660 2,-660 2,-654 8,-648 14,-648 14,-648 44,-648 44,-648 50,-648 56,-654 56,-660 56,-660 56,-672 56,-672 56,-678 50,-684 44,-684"/>
<text text-anchor="middle" x="29" y="-663.5" font-family="sans" font-size="10.00">twobit</text>
</g>
<!-- 6&#45;&gt;1 -->
<g id="edge4" class="edge">
<title>6&#45;&gt;1</title>
<path fill="none" stroke="grey" stroke-width="2" d="M23.13,-647.74C14.66,-621.25 0,-568.79 0,-523 0,-523 0,-523 0,-233 0,-164.57 81.96,-122.95 132.73,-103.73"/>
<polygon fill="grey" stroke="grey" stroke-width="2" points="134.24,-106.91 142.43,-100.19 131.84,-100.33 134.24,-106.91"/>
</g>
<!-- 7 -->
<g id="node8" class="node">
<title>7</title>
<path fill="none" stroke="#56d882" stroke-width="2" d="M81.5,-612C81.5,-612 40.5,-612 40.5,-612 34.5,-612 28.5,-606 28.5,-600 28.5,-600 28.5,-588 28.5,-588 28.5,-582 34.5,-576 40.5,-576 40.5,-576 81.5,-576 81.5,-576 87.5,-576 93.5,-582 93.5,-588 93.5,-588 93.5,-600 93.5,-600 93.5,-606 87.5,-612 81.5,-612"/>
<text text-anchor="middle" x="61" y="-591.5" font-family="sans" font-size="10.00">gcPercent</text>
</g>
<!-- 6&#45;&gt;7 -->
<g id="edge26" class="edge">
<title>6&#45;&gt;7</title>
<path fill="none" stroke="grey" stroke-width="2" d="M36.91,-647.7C40.55,-639.73 44.95,-630.1 48.99,-621.26"/>
<polygon fill="grey" stroke="grey" stroke-width="2" points="52.21,-622.65 53.18,-612.1 45.84,-619.74 52.21,-622.65"/>
</g>
<!-- 7&#45;&gt;1 -->
<g id="edge7" class="edge">
<title>7&#45;&gt;1</title>
<path fill="none" stroke="grey" stroke-width="2" d="M61,-575.95C61,-549.29 61,-496.11 61,-451 61,-451 61,-451 61,-233 61,-182.59 104.96,-139.39 137.55,-114.29"/>
<polygon fill="grey" stroke="grey" stroke-width="2" points="140.05,-116.79 145.98,-108 135.87,-111.18 140.05,-116.79"/>
</g>
<!-- 8 -->
<g id="node9" class="node">
<title>8</title>
<path fill="none" stroke="#78d856" stroke-width="2" d="M139,-540C139,-540 101,-540 101,-540 95,-540 89,-534 89,-528 89,-528 89,-516 89,-516 89,-510 95,-504 101,-504 101,-504 139,-504 139,-504 145,-504 151,-510 151,-516 151,-516 151,-528 151,-528 151,-534 145,-540 139,-540"/>
<text text-anchor="middle" x="120" y="-519.5" font-family="sans" font-size="10.00">cytoband</text>
</g>
<!-- 8&#45;&gt;1 -->
<g id="edge9" class="edge">
<title>8&#45;&gt;1</title>
<path fill="none" stroke="grey" stroke-width="2" d="M121.38,-503.96C123.42,-477.32 127,-424.17 127,-379 127,-379 127,-379 127,-233 127,-191.13 145,-145.42 158.23,-117.48"/>
<polygon fill="grey" stroke="grey" stroke-width="2" points="161.44,-118.89 162.68,-108.37 155.15,-115.82 161.44,-118.89"/>
</g>
<!-- 9 -->
<g id="node10" class="node">
<title>9</title>
<path fill="none" stroke="#566bd8" stroke-width="2" d="M242,-612C242,-612 162,-612 162,-612 156,-612 150,-606 150,-600 150,-600 150,-588 150,-588 150,-582 156,-576 162,-576 162,-576 242,-576 242,-576 248,-576 254,-582 254,-588 254,-588 254,-600 254,-600 254,-606 248,-612 242,-612"/>
<text text-anchor="middle" x="202" y="-591.5" font-family="sans" font-size="10.00">softmask_track_2</text>
</g>
<!-- 9&#45;&gt;1 -->
<g id="edge8" class="edge">
<title>9&#45;&gt;1</title>
<path fill="none" stroke="grey" stroke-width="2" d="M200.97,-575.72C196.53,-501.5 179.08,-209.4 173.63,-118.29"/>
<polygon fill="grey" stroke="grey" stroke-width="2" points="177.12,-117.98 173.03,-108.21 170.13,-118.4 177.12,-117.98"/>
</g>
<!-- 10 -->
<g id="node11" class="node">
<title>10</title>
<path fill="none" stroke="#88d856" stroke-width="2" d="M587.5,-180C587.5,-180 538.5,-180 538.5,-180 532.5,-180 526.5,-174 526.5,-168 526.5,-168 526.5,-156 526.5,-156 526.5,-150 532.5,-144 538.5,-144 538.5,-144 587.5,-144 587.5,-144 593.5,-144 599.5,-150 599.5,-156 599.5,-156 599.5,-168 599.5,-168 599.5,-174 593.5,-180 587.5,-180"/>
<text text-anchor="middle" x="563" y="-159.5" font-family="sans" font-size="10.00">peak_union</text>
</g>
<!-- 10&#45;&gt;2 -->
<g id="edge11" class="edge">
<title>10&#45;&gt;2</title>
<path fill="none" stroke="grey" stroke-width="2" d="M563,-143.7C563,-135.98 563,-126.71 563,-118.11"/>
<polygon fill="grey" stroke="grey" stroke-width="2" points="566.5,-118.1 563,-108.1 559.5,-118.1 566.5,-118.1"/>
</g>
<!-- 11 -->
<g id="node12" class="node">
<title>11</title>
<path fill="none" stroke="#d88d56" stroke-width="2" d="M666,-324C666,-324 592,-324 592,-324 586,-324 580,-318 580,-312 580,-312 580,-300 580,-300 580,-294 586,-288 592,-288 592,-288 666,-288 666,-288 672,-288 678,-294 678,-300 678,-300 678,-312 678,-312 678,-318 672,-324 666,-324"/>
<text text-anchor="middle" x="629" y="-303.5" font-family="sans" font-size="10.00">mark_duplicates</text>
</g>
<!-- 11&#45;&gt;2 -->
<g id="edge10" class="edge">
<title>11&#45;&gt;2</title>
<path fill="none" stroke="grey" stroke-width="2" d="M629.87,-287.7C630.74,-257.25 629.57,-192.71 608,-144 603.48,-133.8 596.36,-124.05 589.1,-115.76"/>
<polygon fill="grey" stroke="grey" stroke-width="2" points="591.54,-113.25 582.18,-108.29 586.41,-118.01 591.54,-113.25"/>
</g>
<!-- 11&#45;&gt;3 -->
<g id="edge17" class="edge">
<title>11&#45;&gt;3</title>
<path fill="none" stroke="grey" stroke-width="2" d="M678.05,-291C704.93,-282.1 738.14,-269.03 765,-252 784.65,-239.54 782.86,-227.65 803,-216 847.54,-190.22 905.76,-175.94 943.03,-168.87"/>
<polygon fill="grey" stroke="grey" stroke-width="2" points="943.74,-172.3 952.95,-167.06 942.49,-165.41 943.74,-172.3"/>
</g>
<!-- 12 -->
<g id="node13" class="node">
<title>12</title>
<path fill="none" stroke="#56d863" stroke-width="2" d="M474,-252C474,-252 404,-252 404,-252 398,-252 392,-246 392,-240 392,-240 392,-228 392,-228 392,-222 398,-216 404,-216 404,-216 474,-216 474,-216 480,-216 486,-222 486,-228 486,-228 486,-240 486,-240 486,-246 480,-252 474,-252"/>
<text text-anchor="middle" x="439" y="-231.5" font-family="sans" font-size="10.00">samtools_index</text>
</g>
<!-- 11&#45;&gt;12 -->
<g id="edge33" class="edge">
<title>11&#45;&gt;12</title>
<path fill="none" stroke="grey" stroke-width="2" d="M582.52,-287.88C556.08,-278.14 522.8,-265.87 494.94,-255.61"/>
<polygon fill="grey" stroke="grey" stroke-width="2" points="495.92,-252.24 485.33,-252.07 493.5,-258.81 495.92,-252.24"/>
</g>
<!-- 17 -->
<g id="node18" class="node">
<title>17</title>
<path fill="none" stroke="#56a9d8" stroke-width="2" d="M891.5,-252C891.5,-252 824.5,-252 824.5,-252 818.5,-252 812.5,-246 812.5,-240 812.5,-240 812.5,-228 812.5,-228 812.5,-222 818.5,-216 824.5,-216 824.5,-216 891.5,-216 891.5,-216 897.5,-216 903.5,-222 903.5,-228 903.5,-228 903.5,-240 903.5,-240 903.5,-246 897.5,-252 891.5,-252"/>
<text text-anchor="middle" x="858" y="-231.5" font-family="sans" font-size="10.00">samtools_stats</text>
</g>
<!-- 11&#45;&gt;17 -->
<g id="edge38" class="edge">
<title>11&#45;&gt;17</title>
<path fill="none" stroke="grey" stroke-width="2" d="M678.13,-289.98C714.68,-278.81 764.6,-263.55 802.58,-251.94"/>
<polygon fill="grey" stroke="grey" stroke-width="2" points="803.92,-255.19 812.46,-248.92 801.87,-248.5 803.92,-255.19"/>
</g>
<!-- 18 -->
<g id="node19" class="node">
<title>18</title>
<path fill="none" stroke="#d86e56" stroke-width="2" d="M744,-252C744,-252 668,-252 668,-252 662,-252 656,-246 656,-240 656,-240 656,-228 656,-228 656,-222 662,-216 668,-216 668,-216 744,-216 744,-216 750,-216 756,-222 756,-228 756,-228 756,-240 756,-240 756,-246 750,-252 744,-252"/>
<text text-anchor="middle" x="706" y="-231.5" font-family="sans" font-size="10.00">InsertSizeMetrics</text>
</g>
<!-- 11&#45;&gt;18 -->
<g id="edge39" class="edge">
<title>11&#45;&gt;18</title>
<path fill="none" stroke="grey" stroke-width="2" d="M648.03,-287.7C657.54,-279.05 669.21,-268.45 679.57,-259.03"/>
<polygon fill="grey" stroke="grey" stroke-width="2" points="682.14,-261.42 687.19,-252.1 677.43,-256.24 682.14,-261.42"/>
</g>
<!-- 20 -->
<g id="node21" class="node">
<title>20</title>
<path fill="none" stroke="#d8cb56" stroke-width="2" d="M587.5,-252C587.5,-252 516.5,-252 516.5,-252 510.5,-252 504.5,-246 504.5,-240 504.5,-240 504.5,-228 504.5,-228 504.5,-222 510.5,-216 516.5,-216 516.5,-216 587.5,-216 587.5,-216 593.5,-216 599.5,-222 599.5,-228 599.5,-228 599.5,-240 599.5,-240 599.5,-246 593.5,-252 587.5,-252"/>
<text text-anchor="middle" x="552" y="-231.5" font-family="sans" font-size="10.00">macs2_callpeak</text>
</g>
<!-- 11&#45;&gt;20 -->
<g id="edge42" class="edge">
<title>11&#45;&gt;20</title>
<path fill="none" stroke="grey" stroke-width="2" d="M609.97,-287.7C600.46,-279.05 588.79,-268.45 578.43,-259.03"/>
<polygon fill="grey" stroke="grey" stroke-width="2" points="580.57,-256.24 570.81,-252.1 575.86,-261.42 580.57,-256.24"/>
</g>
<!-- 12&#45;&gt;2 -->
<g id="edge12" class="edge">
<title>12&#45;&gt;2</title>
<path fill="none" stroke="grey" stroke-width="2" d="M453.96,-215.87C475.74,-190.92 516.33,-144.45 541.37,-115.77"/>
<polygon fill="grey" stroke="grey" stroke-width="2" points="544.05,-118.02 547.99,-108.19 538.78,-113.42 544.05,-118.02"/>
</g>
<!-- 26 -->
<g id="node27" class="node">
<title>26</title>
<path fill="none" stroke="#d87d56" stroke-width="2" d="M473,-468C473,-468 405,-468 405,-468 399,-468 393,-462 393,-456 393,-456 393,-444 393,-444 393,-438 399,-432 405,-432 405,-432 473,-432 473,-432 479,-432 485,-438 485,-444 485,-444 485,-456 485,-456 485,-462 479,-468 473,-468"/>
<text text-anchor="middle" x="439" y="-447.5" font-family="sans" font-size="10.00">alignmentsieve</text>
</g>
<!-- 12&#45;&gt;26 -->
<g id="edge50" class="edge">
<title>12&#45;&gt;26</title>
<path fill="none" stroke="grey" stroke-width="2" d="M439,-252.23C439,-289.32 439,-376.98 439,-421.71"/>
<polygon fill="grey" stroke="grey" stroke-width="2" points="435.5,-421.85 439,-431.85 442.5,-421.85 435.5,-421.85"/>
</g>
<!-- 13 -->
<g id="node14" class="node">
<title>13</title>
<path fill="none" stroke="#b6d856" stroke-width="2" d="M1026,-252C1026,-252 934,-252 934,-252 928,-252 922,-246 922,-240 922,-240 922,-228 922,-228 922,-222 928,-216 934,-216 934,-216 1026,-216 1026,-216 1032,-216 1038,-222 1038,-228 1038,-228 1038,-240 1038,-240 1038,-246 1032,-252 1026,-252"/>
<text text-anchor="middle" x="980" y="-231.5" font-family="sans" font-size="10.00">multiqc_header_info</text>
</g>
<!-- 13&#45;&gt;3 -->
<g id="edge15" class="edge">
<title>13&#45;&gt;3</title>
<path fill="none" stroke="grey" stroke-width="2" d="M980,-215.7C980,-207.98 980,-198.71 980,-190.11"/>
<polygon fill="grey" stroke="grey" stroke-width="2" points="983.5,-190.1 980,-180.1 976.5,-190.1 983.5,-190.1"/>
</g>
<!-- 14 -->
<g id="node15" class="node">
<title>14</title>
<path fill="none" stroke="#56d8c1" stroke-width="2" d="M1182,-252C1182,-252 1068,-252 1068,-252 1062,-252 1056,-246 1056,-240 1056,-240 1056,-228 1056,-228 1056,-222 1062,-216 1068,-216 1068,-216 1182,-216 1182,-216 1188,-216 1194,-222 1194,-228 1194,-228 1194,-240 1194,-240 1194,-246 1188,-252 1182,-252"/>
<text text-anchor="middle" x="1125" y="-231.5" font-family="sans" font-size="10.00">multiqc_rename_buttons</text>
</g>
<!-- 14&#45;&gt;3 -->
<g id="edge20" class="edge">
<title>14&#45;&gt;3</title>
<path fill="none" stroke="grey" stroke-width="2" d="M1089.53,-215.88C1067.37,-205.18 1038.91,-191.44 1016.56,-180.65"/>
<polygon fill="grey" stroke="grey" stroke-width="2" points="1017.91,-177.42 1007.38,-176.22 1014.87,-183.72 1017.91,-177.42"/>
</g>
<!-- 15 -->
<g id="node16" class="node">
<title>15</title>
<path fill="none" stroke="#5682d8" stroke-width="2" d="M1275,-396C1275,-396 1245,-396 1245,-396 1239,-396 1233,-390 1233,-384 1233,-384 1233,-372 1233,-372 1233,-366 1239,-360 1245,-360 1245,-360 1275,-360 1275,-360 1281,-360 1287,-366 1287,-372 1287,-372 1287,-384 1287,-384 1287,-390 1281,-396 1275,-396"/>
<text text-anchor="middle" x="1260" y="-375.5" font-family="sans" font-size="10.00">fastqc</text>
</g>
<!-- 15&#45;&gt;3 -->
<g id="edge19" class="edge">
<title>15&#45;&gt;3</title>
<path fill="none" stroke="grey" stroke-width="2" d="M1263.16,-359.75C1268.08,-327.02 1273.47,-255.63 1236,-216 1206.54,-184.84 1081.07,-170.8 1017.39,-165.59"/>
<polygon fill="grey" stroke="grey" stroke-width="2" points="1017.6,-162.09 1007.36,-164.8 1017.05,-169.07 1017.6,-162.09"/>
</g>
<!-- 15&#45;&gt;20 -->
<g id="edge43" class="edge">
<title>15&#45;&gt;20</title>
<path fill="none" stroke="grey" stroke-width="2" d="M1232.77,-376.8C1111.16,-375.64 621.57,-368.23 571,-324 553.76,-308.92 549.95,-282.39 549.89,-262.2"/>
<polygon fill="grey" stroke="grey" stroke-width="2" points="553.4,-262.13 550.17,-252.04 546.4,-261.94 553.4,-262.13"/>
</g>
<!-- 16 -->
<g id="node17" class="node">
<title>16</title>
<path fill="none" stroke="#56d88a" stroke-width="2" d="M1318,-684C1318,-684 1252,-684 1252,-684 1246,-684 1240,-678 1240,-672 1240,-672 1240,-660 1240,-660 1240,-654 1246,-648 1252,-648 1252,-648 1318,-648 1318,-648 1324,-648 1330,-654 1330,-660 1330,-660 1330,-672 1330,-672 1330,-678 1324,-684 1318,-684"/>
<text text-anchor="middle" x="1285" y="-663.5" font-family="sans" font-size="10.00">trim_galore_PE</text>
</g>
<!-- 16&#45;&gt;3 -->
<g id="edge16" class="edge">
<title>16&#45;&gt;3</title>
<path fill="none" stroke="grey" stroke-width="2" d="M1291.07,-647.76C1299.84,-621.28 1315,-568.86 1315,-523 1315,-523 1315,-523 1315,-305 1315,-176.77 1104.36,-162.61 1017.13,-162.25"/>
<polygon fill="grey" stroke="grey" stroke-width="2" points="1017.12,-158.75 1007.13,-162.27 1017.14,-165.75 1017.12,-158.75"/>
</g>
<!-- 16&#45;&gt;15 -->
<g id="edge35" class="edge">
<title>16&#45;&gt;15</title>
<path fill="none" stroke="grey" stroke-width="2" d="M1283.51,-647.97C1279.34,-600.29 1267.53,-465.18 1262.42,-406.63"/>
<polygon fill="grey" stroke="grey" stroke-width="2" points="1265.87,-405.96 1261.51,-396.31 1258.9,-406.57 1265.87,-405.96"/>
</g>
<!-- 28 -->
<g id="node29" class="node">
<title>28</title>
<path fill="none" stroke="#97d856" stroke-width="2" d="M567,-612C567,-612 523,-612 523,-612 517,-612 511,-606 511,-600 511,-600 511,-588 511,-588 511,-582 517,-576 523,-576 523,-576 567,-576 567,-576 573,-576 579,-582 579,-588 579,-588 579,-600 579,-600 579,-606 573,-612 567,-612"/>
<text text-anchor="middle" x="545" y="-591.5" font-family="sans" font-size="10.00">bwa_mem</text>
</g>
<!-- 16&#45;&gt;28 -->
<g id="edge51" class="edge">
<title>16&#45;&gt;28</title>
<path fill="none" stroke="grey" stroke-width="2" d="M1239.82,-660.73C1107.38,-648.2 721.12,-611.66 589.52,-599.21"/>
<polygon fill="grey" stroke="grey" stroke-width="2" points="589.68,-595.71 579.4,-598.25 589.02,-602.68 589.68,-595.71"/>
</g>
<!-- 17&#45;&gt;3 -->
<g id="edge14" class="edge">
<title>17&#45;&gt;3</title>
<path fill="none" stroke="grey" stroke-width="2" d="M887.84,-215.88C904.78,-206.16 926.11,-193.92 943.97,-183.67"/>
<polygon fill="grey" stroke="grey" stroke-width="2" points="946.03,-186.53 952.96,-178.51 942.55,-180.46 946.03,-186.53"/>
</g>
<!-- 18&#45;&gt;3 -->
<g id="edge13" class="edge">
<title>18&#45;&gt;3</title>
<path fill="none" stroke="grey" stroke-width="2" d="M756.29,-219.58C760.93,-218.36 765.55,-217.15 770,-216 830.53,-200.32 901.03,-182.65 943.01,-172.19"/>
<polygon fill="grey" stroke="grey" stroke-width="2" points="943.93,-175.57 952.79,-169.75 942.24,-168.77 943.93,-175.57"/>
</g>
<!-- 19 -->
<g id="node20" class="node">
<title>19</title>
<path fill="none" stroke="#d89556" stroke-width="2" d="M674.5,-468C674.5,-468 573.5,-468 573.5,-468 567.5,-468 561.5,-462 561.5,-456 561.5,-456 561.5,-444 561.5,-444 561.5,-438 567.5,-432 573.5,-432 573.5,-432 674.5,-432 674.5,-432 680.5,-432 686.5,-438 686.5,-444 686.5,-444 686.5,-456 686.5,-456 686.5,-462 680.5,-468 674.5,-468"/>
<text text-anchor="middle" x="624" y="-447.5" font-family="sans" font-size="10.00">MTNucRatioCalculator</text>
</g>
<!-- 19&#45;&gt;3 -->
<g id="edge18" class="edge">
<title>19&#45;&gt;3</title>
<path fill="none" stroke="grey" stroke-width="2" d="M686.9,-449.44C810.31,-446.46 1082.61,-420.13 1203,-252 1250.92,-185.08 1092.24,-168.44 1017.16,-164.33"/>
<polygon fill="grey" stroke="grey" stroke-width="2" points="1017.32,-160.84 1007.16,-163.83 1016.97,-167.83 1017.32,-160.84"/>
</g>
<!-- 20&#45;&gt;4 -->
<g id="edge22" class="edge">
<title>20&#45;&gt;4</title>
<path fill="none" stroke="grey" stroke-width="2" d="M519.71,-215.88C502.13,-206.55 480.19,-194.92 461.37,-184.94"/>
<polygon fill="grey" stroke="grey" stroke-width="2" points="462.89,-181.78 452.41,-180.19 459.61,-187.97 462.89,-181.78"/>
</g>
<!-- 20&#45;&gt;5 -->
<g id="edge24" class="edge">
<title>20&#45;&gt;5</title>
<path fill="none" stroke="grey" stroke-width="2" d="M504.47,-218.62C501.27,-217.72 498.09,-216.83 495,-216 450.78,-204.06 401.19,-191.96 360.4,-182.34"/>
<polygon fill="grey" stroke="grey" stroke-width="2" points="361.03,-178.89 350.5,-180.01 359.43,-185.7 361.03,-178.89"/>
</g>
<!-- 20&#45;&gt;10 -->
<g id="edge31" class="edge">
<title>20&#45;&gt;10</title>
<path fill="none" stroke="grey" stroke-width="2" d="M554.72,-215.7C555.93,-207.98 557.39,-198.71 558.74,-190.11"/>
<polygon fill="grey" stroke="grey" stroke-width="2" points="562.22,-190.53 560.31,-180.1 555.3,-189.44 562.22,-190.53"/>
</g>
<!-- 21 -->
<g id="node22" class="node">
<title>21</title>
<path fill="none" stroke="#9fd856" stroke-width="2" d="M306.5,-756C306.5,-756 253.5,-756 253.5,-756 247.5,-756 241.5,-750 241.5,-744 241.5,-744 241.5,-732 241.5,-732 241.5,-726 247.5,-720 253.5,-720 253.5,-720 306.5,-720 306.5,-720 312.5,-720 318.5,-726 318.5,-732 318.5,-732 318.5,-744 318.5,-744 318.5,-750 312.5,-756 306.5,-756"/>
<text text-anchor="middle" x="280" y="-735.5" font-family="sans" font-size="10.00">get_genome</text>
</g>
<!-- 21&#45;&gt;4 -->
<g id="edge21" class="edge">
<title>21&#45;&gt;4</title>
<path fill="none" stroke="grey" stroke-width="2" d="M296.92,-719.85C319.87,-694.71 358,-645.35 358,-595 358,-595 358,-595 358,-305 358,-263.91 365.44,-253.14 383,-216 387.49,-206.51 393.63,-196.88 399.63,-188.48"/>
<polygon fill="grey" stroke="grey" stroke-width="2" points="402.6,-190.35 405.74,-180.23 396.98,-186.18 402.6,-190.35"/>
</g>
<!-- 21&#45;&gt;5 -->
<g id="edge23" class="edge">
<title>21&#45;&gt;5</title>
<path fill="none" stroke="grey" stroke-width="2" d="M288.09,-719.95C299.78,-693.72 320,-641.61 320,-595 320,-595 320,-595 320,-305 320,-263.21 302.4,-217.48 289.46,-189.51"/>
<polygon fill="grey" stroke="grey" stroke-width="2" points="292.58,-187.92 285.12,-180.39 286.26,-190.93 292.58,-187.92"/>
</g>
<!-- 21&#45;&gt;6 -->
<g id="edge25" class="edge">
<title>21&#45;&gt;6</title>
<path fill="none" stroke="grey" stroke-width="2" d="M241.2,-728.99C198.68,-719.8 128.71,-703.47 70,-684 68.58,-683.53 67.15,-683.03 65.7,-682.52"/>
<polygon fill="grey" stroke="grey" stroke-width="2" points="66.73,-679.17 56.14,-678.9 64.25,-685.71 66.73,-679.17"/>
</g>
<!-- 21&#45;&gt;7 -->
<g id="edge27" class="edge">
<title>21&#45;&gt;7</title>
<path fill="none" stroke="grey" stroke-width="2" d="M241.46,-733.64C203.7,-728.55 146.38,-715.8 108,-684 88.64,-667.96 76.19,-641.82 69,-622.02"/>
<polygon fill="grey" stroke="grey" stroke-width="2" points="72.24,-620.67 65.72,-612.32 65.61,-622.92 72.24,-620.67"/>
</g>
<!-- 21&#45;&gt;8 -->
<g id="edge28" class="edge">
<title>21&#45;&gt;8</title>
<path fill="none" stroke="grey" stroke-width="2" d="M241.3,-726.21C217.99,-717.98 189.19,-704.51 170,-684 135.2,-646.82 124.61,-585.8 121.39,-550.53"/>
<polygon fill="grey" stroke="grey" stroke-width="2" points="124.87,-550.16 120.61,-540.46 117.89,-550.7 124.87,-550.16"/>
</g>
<!-- 21&#45;&gt;9 -->
<g id="edge30" class="edge">
<title>21&#45;&gt;9</title>
<path fill="none" stroke="grey" stroke-width="2" d="M241.39,-727.49C218.95,-719.76 192.52,-706.37 179,-684 167.35,-664.72 175.54,-639.65 185.23,-621.03"/>
<polygon fill="grey" stroke="grey" stroke-width="2" points="188.34,-622.63 190.18,-612.2 182.24,-619.21 188.34,-622.63"/>
</g>
<!-- 21&#45;&gt;19 -->
<g id="edge40" class="edge">
<title>21&#45;&gt;19</title>
<path fill="none" stroke="grey" stroke-width="2" d="M318.57,-734.43C386.99,-729.12 525.82,-714.79 562,-684 622.91,-632.17 627.44,-527.93 625.81,-478.38"/>
<polygon fill="grey" stroke="grey" stroke-width="2" points="629.3,-477.95 625.36,-468.12 622.31,-478.26 629.3,-477.95"/>
</g>
<!-- 22 -->
<g id="node23" class="node">
<title>22</title>
<path fill="none" stroke="#d8b456" stroke-width="2" d="M280,-684C280,-684 200,-684 200,-684 194,-684 188,-678 188,-672 188,-672 188,-660 188,-660 188,-654 194,-648 200,-648 200,-648 280,-648 280,-648 286,-648 292,-654 292,-660 292,-660 292,-672 292,-672 292,-678 286,-684 280,-684"/>
<text text-anchor="middle" x="240" y="-663.5" font-family="sans" font-size="10.00">softmask_track_1</text>
</g>
<!-- 21&#45;&gt;22 -->
<g id="edge44" class="edge">
<title>21&#45;&gt;22</title>
<path fill="none" stroke="grey" stroke-width="2" d="M270.11,-719.7C265.51,-711.64 259.94,-701.89 254.85,-692.98"/>
<polygon fill="grey" stroke="grey" stroke-width="2" points="257.77,-691.05 249.77,-684.1 251.7,-694.52 257.77,-691.05"/>
</g>
<!-- 29 -->
<g id="node30" class="node">
<title>29</title>
<path fill="none" stroke="#a7d856" stroke-width="2" d="M464,-540C464,-540 398,-540 398,-540 392,-540 386,-534 386,-528 386,-528 386,-516 386,-516 386,-510 392,-504 398,-504 398,-504 464,-504 464,-504 470,-504 476,-510 476,-516 476,-516 476,-528 476,-528 476,-534 470,-540 464,-540"/>
<text text-anchor="middle" x="431" y="-519.5" font-family="sans" font-size="10.00">setup_blacklist</text>
</g>
<!-- 21&#45;&gt;29 -->
<g id="edge53" class="edge">
<title>21&#45;&gt;29</title>
<path fill="none" stroke="grey" stroke-width="2" d="M318.71,-722.13C337,-713.41 357.87,-700.78 372,-684 405.13,-644.65 420.41,-585.07 426.85,-550.49"/>
<polygon fill="grey" stroke="grey" stroke-width="2" points="430.38,-550.66 428.64,-540.21 423.48,-549.46 430.38,-550.66"/>
</g>
<!-- 30 -->
<g id="node31" class="node">
<title>30</title>
<path fill="none" stroke="#d89c56" stroke-width="2" d="M541.5,-684C541.5,-684 496.5,-684 496.5,-684 490.5,-684 484.5,-678 484.5,-672 484.5,-672 484.5,-660 484.5,-660 484.5,-654 490.5,-648 496.5,-648 496.5,-648 541.5,-648 541.5,-648 547.5,-648 553.5,-654 553.5,-660 553.5,-660 553.5,-672 553.5,-672 553.5,-678 547.5,-684 541.5,-684"/>
<text text-anchor="middle" x="519" y="-663.5" font-family="sans" font-size="10.00">bwa_index</text>
</g>
<!-- 21&#45;&gt;30 -->
<g id="edge54" class="edge">
<title>21&#45;&gt;30</title>
<path fill="none" stroke="grey" stroke-width="2" d="M318.67,-725.68C361.29,-713.19 429.73,-693.15 474.54,-680.02"/>
<polygon fill="grey" stroke="grey" stroke-width="2" points="475.66,-683.34 484.28,-677.17 473.7,-676.62 475.66,-683.34"/>
</g>
<!-- 22&#45;&gt;9 -->
<g id="edge29" class="edge">
<title>22&#45;&gt;9</title>
<path fill="none" stroke="grey" stroke-width="2" d="M230.61,-647.7C226.24,-639.64 220.94,-629.89 216.1,-620.98"/>
<polygon fill="grey" stroke="grey" stroke-width="2" points="219.13,-619.22 211.29,-612.1 212.98,-622.56 219.13,-619.22"/>
</g>
<!-- 23 -->
<g id="node24" class="node">
<title>23</title>
<path fill="none" stroke="#56a2d8" stroke-width="2" d="M638,-396C638,-396 576,-396 576,-396 570,-396 564,-390 564,-384 564,-384 564,-372 564,-372 564,-366 570,-360 576,-360 576,-360 638,-360 638,-360 644,-360 650,-366 650,-372 650,-372 650,-384 650,-384 650,-390 644,-396 638,-396"/>
<text text-anchor="middle" x="607" y="-375.5" font-family="sans" font-size="10.00">samtools_sort</text>
</g>
<!-- 23&#45;&gt;11 -->
<g id="edge32" class="edge">
<title>23&#45;&gt;11</title>
<path fill="none" stroke="grey" stroke-width="2" d="M612.44,-359.7C614.89,-351.9 617.84,-342.51 620.57,-333.83"/>
<polygon fill="grey" stroke="grey" stroke-width="2" points="623.96,-334.69 623.62,-324.1 617.29,-332.59 623.96,-334.69"/>
</g>
<!-- 24 -->
<g id="node25" class="node">
<title>24</title>
<path fill="none" stroke="#5673d8" stroke-width="2" d="M1276,-756C1276,-756 1220,-756 1220,-756 1214,-756 1208,-750 1208,-744 1208,-744 1208,-732 1208,-732 1208,-726 1214,-720 1220,-720 1220,-720 1276,-720 1276,-720 1282,-720 1288,-726 1288,-732 1288,-732 1288,-744 1288,-744 1288,-750 1282,-756 1276,-756"/>
<text text-anchor="middle" x="1248" y="-735.5" font-family="sans" font-size="10.00">sra2fastq_PE</text>
</g>
<!-- 24&#45;&gt;15 -->
<g id="edge36" class="edge">
<title>24&#45;&gt;15</title>
<path fill="none" stroke="grey" stroke-width="2" d="M1240.71,-719.87C1230.2,-693.53 1212,-641.29 1212,-595 1212,-595 1212,-595 1212,-521 1212,-478.87 1231.2,-433.23 1245.31,-405.37"/>
<polygon fill="grey" stroke="grey" stroke-width="2" points="1248.53,-406.78 1250.05,-396.29 1242.32,-403.54 1248.53,-406.78"/>
</g>
<!-- 24&#45;&gt;16 -->
<g id="edge37" class="edge">
<title>24&#45;&gt;16</title>
<path fill="none" stroke="grey" stroke-width="2" d="M1257.15,-719.7C1261.4,-711.64 1266.56,-701.89 1271.27,-692.98"/>
<polygon fill="grey" stroke="grey" stroke-width="2" points="1274.38,-694.58 1275.96,-684.1 1268.19,-691.31 1274.38,-694.58"/>
</g>
<!-- 25 -->
<g id="node26" class="node">
<title>25</title>
<path fill="none" stroke="#d8d356" stroke-width="2" d="M583.5,-540C583.5,-540 506.5,-540 506.5,-540 500.5,-540 494.5,-534 494.5,-528 494.5,-528 494.5,-516 494.5,-516 494.5,-510 500.5,-504 506.5,-504 506.5,-504 583.5,-504 583.5,-504 589.5,-504 595.5,-510 595.5,-516 595.5,-516 595.5,-528 595.5,-528 595.5,-534 589.5,-540 583.5,-540"/>
<text text-anchor="middle" x="545" y="-519.5" font-family="sans" font-size="10.00">samtools_presort</text>
</g>
<!-- 25&#45;&gt;12 -->
<g id="edge34" class="edge">
<title>25&#45;&gt;12</title>
<path fill="none" stroke="grey" stroke-width="2" d="M538.69,-503.97C520.94,-456.09 470.53,-320.06 448.97,-261.9"/>
<polygon fill="grey" stroke="grey" stroke-width="2" points="452.17,-260.47 445.41,-252.31 445.61,-262.9 452.17,-260.47"/>
</g>
<!-- 25&#45;&gt;19 -->
<g id="edge41" class="edge">
<title>25&#45;&gt;19</title>
<path fill="none" stroke="grey" stroke-width="2" d="M564.53,-503.7C574.38,-494.97 586.49,-484.24 597.2,-474.75"/>
<polygon fill="grey" stroke="grey" stroke-width="2" points="599.53,-477.36 604.7,-468.1 594.89,-472.12 599.53,-477.36"/>
</g>
<!-- 25&#45;&gt;26 -->
<g id="edge49" class="edge">
<title>25&#45;&gt;26</title>
<path fill="none" stroke="grey" stroke-width="2" d="M519.07,-503.88C505.34,-494.81 488.29,-483.55 473.46,-473.76"/>
<polygon fill="grey" stroke="grey" stroke-width="2" points="475.3,-470.78 465.03,-468.19 471.45,-476.62 475.3,-470.78"/>
</g>
<!-- 26&#45;&gt;23 -->
<g id="edge45" class="edge">
<title>26&#45;&gt;23</title>
<path fill="none" stroke="grey" stroke-width="2" d="M480.1,-431.88C503.17,-422.26 532.14,-410.19 556.57,-400.01"/>
<polygon fill="grey" stroke="grey" stroke-width="2" points="558.15,-403.15 566.04,-396.07 555.46,-396.68 558.15,-403.15"/>
</g>
<!-- 27 -->
<g id="node28" class="node">
<title>27</title>
<path fill="none" stroke="#56c1d8" stroke-width="2" d="M1263,-828C1263,-828 1233,-828 1233,-828 1227,-828 1221,-822 1221,-816 1221,-816 1221,-804 1221,-804 1221,-798 1227,-792 1233,-792 1233,-792 1263,-792 1263,-792 1269,-792 1275,-798 1275,-804 1275,-804 1275,-816 1275,-816 1275,-822 1269,-828 1263,-828"/>
<text text-anchor="middle" x="1248" y="-807.5" font-family="sans" font-size="10.00">id2sra</text>
</g>
<!-- 27&#45;&gt;24 -->
<g id="edge46" class="edge">
<title>27&#45;&gt;24</title>
<path fill="none" stroke="grey" stroke-width="2" d="M1248,-791.7C1248,-783.98 1248,-774.71 1248,-766.11"/>
<polygon fill="grey" stroke="grey" stroke-width="2" points="1251.5,-766.1 1248,-756.1 1244.5,-766.1 1251.5,-766.1"/>
</g>
<!-- 28&#45;&gt;25 -->
<g id="edge47" class="edge">
<title>28&#45;&gt;25</title>
<path fill="none" stroke="grey" stroke-width="2" d="M545,-575.7C545,-567.98 545,-558.71 545,-550.11"/>
<polygon fill="grey" stroke="grey" stroke-width="2" points="548.5,-550.1 545,-540.1 541.5,-550.1 548.5,-550.1"/>
</g>
<!-- 29&#45;&gt;26 -->
<g id="edge48" class="edge">
<title>29&#45;&gt;26</title>
<path fill="none" stroke="grey" stroke-width="2" d="M432.98,-503.7C433.86,-495.98 434.92,-486.71 435.9,-478.11"/>
<polygon fill="grey" stroke="grey" stroke-width="2" points="439.39,-478.44 437.05,-468.1 432.43,-477.64 439.39,-478.44"/>
</g>
<!-- 30&#45;&gt;28 -->
<g id="edge52" class="edge">
<title>30&#45;&gt;28</title>
<path fill="none" stroke="grey" stroke-width="2" d="M525.43,-647.7C528.36,-639.81 531.89,-630.3 535.14,-621.55"/>
<polygon fill="grey" stroke="grey" stroke-width="2" points="538.45,-622.7 538.65,-612.1 531.88,-620.26 538.45,-622.7"/>
</g>
</g>
</svg>
