<?xml version="1.0" encoding="UTF-8" standalone="no"?>
<!DOCTYPE svg PUBLIC "-//W3C//DTD SVG 1.1//EN" "http://www.w3.org/Graphics/SVG/1.1/DTD/svg11.dtd">
<!-- Generated by graphviz version 2.40.1 (20161225.0304)
 -->
<!-- Title: snakemake_dag Pages: 1 -->
<svg width="864pt" height="764pt" viewBox="0.00 0.00 863.89 764.00" xmlns="http://www.w3.org/2000/svg" xmlns:xlink="http://www.w3.org/1999/xlink">
<g id="graph0" class="graph" transform="scale(1 1) rotate(0) translate(4 760)">
<title>snakemake_dag</title>
<polygon fill="#ffffff" stroke="transparent" points="-4,4 -4,-760 859.8867,-760 859.8867,4 -4,4"/>
<!-- 0 -->
<g id="node1" class="node">
<title>0</title>
<path fill="none" stroke="#70d856" stroke-width="2" d="M569.2156,-36C569.2156,-36 519.8151,-36 519.8151,-36 513.8151,-36 507.8151,-30 507.8151,-24 507.8151,-24 507.8151,-12 507.8151,-12 507.8151,-6 513.8151,0 519.8151,0 519.8151,0 569.2156,0 569.2156,0 575.2156,0 581.2156,-6 581.2156,-12 581.2156,-12 581.2156,-24 581.2156,-24 581.2156,-30 575.2156,-36 569.2156,-36"/>
<text text-anchor="middle" x="544.5154" y="-15" font-family="sans" font-size="10.00" fill="#000000">call_peaks_all</text>
</g>
<!-- 1 -->
<g id="node2" class="node">
<title>1</title>
<path fill="none" stroke="#5673d8" stroke-width="2" d="M559.5154,-108C559.5154,-108 529.5154,-108 529.5154,-108 523.5154,-108 517.5154,-102 517.5154,-96 517.5154,-96 517.5154,-84 517.5154,-84 517.5154,-78 523.5154,-72 529.5154,-72 529.5154,-72 559.5154,-72 559.5154,-72 565.5154,-72 571.5154,-78 571.5154,-84 571.5154,-84 571.5154,-96 571.5154,-96 571.5154,-102 565.5154,-108 559.5154,-108"/>
<text text-anchor="middle" x="544.5154" y="-87" font-family="sans" font-size="10.00" fill="#000000">trackhub</text>
</g>
<!-- 1&#45;&gt;0 -->
<g id="edge3" class="edge">
<title>1-&gt;0</title>
<path fill="none" stroke="#c0c0c0" stroke-width="2" d="M544.5154,-71.8314C544.5154,-64.131 544.5154,-54.9743 544.5154,-46.4166"/>
<polygon fill="#c0c0c0" stroke="#c0c0c0" stroke-width="2" points="548.0155,-46.4132 544.5154,-36.4133 541.0155,-46.4133 548.0155,-46.4132"/>
</g>
<!-- 2 -->
<g id="node3" class="node">
<title>2</title>
<path fill="none" stroke="#56d863" stroke-width="2" d="M743.5154,-108C743.5154,-108 713.5154,-108 713.5154,-108 707.5154,-108 701.5154,-102 701.5154,-96 701.5154,-96 701.5154,-84 701.5154,-84 701.5154,-78 707.5154,-72 713.5154,-72 713.5154,-72 743.5154,-72 743.5154,-72 749.5154,-72 755.5154,-78 755.5154,-84 755.5154,-84 755.5154,-96 755.5154,-96 755.5154,-102 749.5154,-108 743.5154,-108"/>
<text text-anchor="middle" x="728.5154" y="-87" font-family="sans" font-size="10.00" fill="#000000">multicov</text>
</g>
<!-- 2&#45;&gt;0 -->
<g id="edge2" class="edge">
<title>2-&gt;0</title>
<path fill="none" stroke="#c0c0c0" stroke-width="2" d="M701.3655,-79.3762C672.3082,-68.0059 625.6901,-49.764 590.8158,-36.1175"/>
<polygon fill="#c0c0c0" stroke="#c0c0c0" stroke-width="2" points="591.903,-32.7846 581.3152,-32.3999 589.3522,-39.3033 591.903,-32.7846"/>
</g>
<!-- 3 -->
<g id="node4" class="node">
<title>3</title>
<path fill="none" stroke="#d85656" stroke-width="2" d="M272.5154,-108C272.5154,-108 242.5154,-108 242.5154,-108 236.5154,-108 230.5154,-102 230.5154,-96 230.5154,-96 230.5154,-84 230.5154,-84 230.5154,-78 236.5154,-72 242.5154,-72 242.5154,-72 272.5154,-72 272.5154,-72 278.5154,-72 284.5154,-78 284.5154,-84 284.5154,-84 284.5154,-96 284.5154,-96 284.5154,-102 278.5154,-108 272.5154,-108"/>
<text text-anchor="middle" x="257.5154" y="-87" font-family="sans" font-size="10.00" fill="#000000">multiqc</text>
</g>
<!-- 3&#45;&gt;0 -->
<g id="edge1" class="edge">
<title>3-&gt;0</title>
<path fill="none" stroke="#c0c0c0" stroke-width="2" d="M284.5156,-83.2264C333.4229,-70.957 437.2087,-44.9201 497.8209,-29.7143"/>
<polygon fill="#c0c0c0" stroke="#c0c0c0" stroke-width="2" points="498.6777,-33.1079 507.5255,-27.2797 496.9743,-26.3183 498.6777,-33.1079"/>
</g>
<!-- 4 -->
<g id="node5" class="node">
<title>4</title>
<path fill="none" stroke="#d6d856" stroke-width="2" d="M565.4994,-180C565.4994,-180 503.5314,-180 503.5314,-180 497.5314,-180 491.5314,-174 491.5314,-168 491.5314,-168 491.5314,-156 491.5314,-156 491.5314,-150 497.5314,-144 503.5314,-144 503.5314,-144 565.4994,-144 565.4994,-144 571.4994,-144 577.4994,-150 577.4994,-156 577.4994,-156 577.4994,-168 577.4994,-168 577.4994,-174 571.4994,-180 565.4994,-180"/>
<text text-anchor="middle" x="534.5154" y="-159" font-family="sans" font-size="10.00" fill="#000000">bedgraph_bigwig</text>
</g>
<!-- 4&#45;&gt;1 -->
<g id="edge4" class="edge">
<title>4-&gt;1</title>
<path fill="none" stroke="#c0c0c0" stroke-width="2" d="M537.0388,-143.8314C538.1083,-136.131 539.38,-126.9743 540.5686,-118.4166"/>
<polygon fill="#c0c0c0" stroke="#c0c0c0" stroke-width="2" points="544.0489,-118.7997 541.958,-108.4133 537.1155,-117.8367 544.0489,-118.7997"/>
</g>
<!-- 5 -->
<g id="node6" class="node">
<title>5</title>
<path fill="none" stroke="#80d856" stroke-width="2" d="M791.6825,-180C791.6825,-180 687.3483,-180 687.3483,-180 681.3483,-180 675.3483,-174 675.3483,-168 675.3483,-168 675.3483,-156 675.3483,-156 675.3483,-150 681.3483,-144 687.3483,-144 687.3483,-144 791.6825,-144 791.6825,-144 797.6825,-144 803.6825,-150 803.6825,-156 803.6825,-156 803.6825,-168 803.6825,-168 803.6825,-174 797.6825,-180 791.6825,-180"/>
<text text-anchor="middle" x="739.5154" y="-159" font-family="sans" font-size="10.00" fill="#000000">narrowpeak_bignarrowpeak</text>
</g>
<!-- 5&#45;&gt;1 -->
<g id="edge5" class="edge">
<title>5-&gt;1</title>
<path fill="none" stroke="#c0c0c0" stroke-width="2" d="M690.5603,-143.9243C656.559,-131.3699 611.9827,-114.911 581.0625,-103.4943"/>
<polygon fill="#c0c0c0" stroke="#c0c0c0" stroke-width="2" points="582.1273,-100.1566 571.534,-99.9761 579.7027,-106.7233 582.1273,-100.1566"/>
</g>
<!-- 6 -->
<g id="node7" class="node">
<title>6</title>
<path fill="none" stroke="#56d8c9" stroke-width="2" d="M645.6733,-180C645.6733,-180 607.3574,-180 607.3574,-180 601.3574,-180 595.3574,-174 595.3574,-168 595.3574,-168 595.3574,-156 595.3574,-156 595.3574,-150 601.3574,-144 607.3574,-144 607.3574,-144 645.6733,-144 645.6733,-144 651.6733,-144 657.6733,-150 657.6733,-156 657.6733,-156 657.6733,-168 657.6733,-168 657.6733,-174 651.6733,-180 645.6733,-180"/>
<text text-anchor="middle" x="626.5154" y="-159" font-family="sans" font-size="10.00" fill="#000000">peak_union</text>
</g>
<!-- 6&#45;&gt;2 -->
<g id="edge7" class="edge">
<title>6-&gt;2</title>
<path fill="none" stroke="#c0c0c0" stroke-width="2" d="M652.2543,-143.8314C665.0591,-134.7927 680.7063,-123.7476 694.4873,-114.0198"/>
<polygon fill="#c0c0c0" stroke="#c0c0c0" stroke-width="2" points="696.6334,-116.7891 702.7847,-108.1628 692.5966,-111.0703 696.6334,-116.7891"/>
</g>
<!-- 7 -->
<g id="node8" class="node">
<title>7</title>
<path fill="none" stroke="#d86656" stroke-width="2" d="M503.6054,-324C503.6054,-324 445.4253,-324 445.4253,-324 439.4253,-324 433.4253,-318 433.4253,-312 433.4253,-312 433.4253,-300 433.4253,-300 433.4253,-294 439.4253,-288 445.4253,-288 445.4253,-288 503.6054,-288 503.6054,-288 509.6054,-288 515.6054,-294 515.6054,-300 515.6054,-300 515.6054,-312 515.6054,-312 515.6054,-318 509.6054,-324 503.6054,-324"/>
<text text-anchor="middle" x="474.5154" y="-303" font-family="sans" font-size="10.00" fill="#000000">mark_duplicates</text>
</g>
<!-- 7&#45;&gt;2 -->
<g id="edge8" class="edge">
<title>7-&gt;2</title>
<path fill="none" stroke="#c0c0c0" stroke-width="2" d="M515.662,-303.0789C608.4951,-296.071 827.8465,-277.0127 849.5154,-252 868.7226,-229.8288 838.4354,-155.1355 829.5154,-144 813.1296,-123.5446 786.8411,-109.8377 765.1917,-101.3528"/>
<polygon fill="#c0c0c0" stroke="#c0c0c0" stroke-width="2" points="766.2166,-98.0003 755.6233,-97.8163 763.7897,-104.5661 766.2166,-98.0003"/>
</g>
<!-- 7&#45;&gt;3 -->
<g id="edge12" class="edge">
<title>7-&gt;3</title>
<path fill="none" stroke="#c0c0c0" stroke-width="2" d="M433.0944,-292.6191C413.5989,-284.1283 391.9478,-271.0711 379.5154,-252 353.1666,-211.5817 396.1458,-183.5533 368.5154,-144 351.3651,-119.4491 319.8622,-105.6107 294.7869,-98.1051"/>
<polygon fill="#c0c0c0" stroke="#c0c0c0" stroke-width="2" points="295.4143,-94.6472 284.8429,-95.352 293.5465,-101.3934 295.4143,-94.6472"/>
</g>
<!-- 8 -->
<g id="node9" class="node">
<title>8</title>
<path fill="none" stroke="#d87d56" stroke-width="2" d="M828.7877,-252C828.7877,-252 774.243,-252 774.243,-252 768.243,-252 762.243,-246 762.243,-240 762.243,-240 762.243,-228 762.243,-228 762.243,-222 768.243,-216 774.243,-216 774.243,-216 828.7877,-216 828.7877,-216 834.7877,-216 840.7877,-222 840.7877,-228 840.7877,-228 840.7877,-240 840.7877,-240 840.7877,-246 834.7877,-252 828.7877,-252"/>
<text text-anchor="middle" x="801.5154" y="-231" font-family="sans" font-size="10.00" fill="#000000">samtools_index</text>
</g>
<!-- 7&#45;&gt;8 -->
<g id="edge24" class="edge">
<title>7-&gt;8</title>
<path fill="none" stroke="#c0c0c0" stroke-width="2" d="M515.599,-296.9541C575.7623,-283.7071 687.6696,-259.067 752.1956,-244.8594"/>
<polygon fill="#c0c0c0" stroke="#c0c0c0" stroke-width="2" points="753.1162,-248.2406 762.1296,-242.6721 751.6109,-241.4044 753.1162,-248.2406"/>
</g>
<!-- 11 -->
<g id="node12" class="node">
<title>11</title>
<path fill="none" stroke="#d89556" stroke-width="2" d="M450.8451,-252C450.8451,-252 400.1856,-252 400.1856,-252 394.1856,-252 388.1856,-246 388.1856,-240 388.1856,-240 388.1856,-228 388.1856,-228 388.1856,-222 394.1856,-216 400.1856,-216 400.1856,-216 450.8451,-216 450.8451,-216 456.8451,-216 462.8451,-222 462.8451,-228 462.8451,-228 462.8451,-240 462.8451,-240 462.8451,-246 456.8451,-252 450.8451,-252"/>
<text text-anchor="middle" x="425.5154" y="-231" font-family="sans" font-size="10.00" fill="#000000">samtools_stats</text>
</g>
<!-- 7&#45;&gt;11 -->
<g id="edge30" class="edge">
<title>7-&gt;11</title>
<path fill="none" stroke="#c0c0c0" stroke-width="2" d="M462.1506,-287.8314C456.5645,-279.6232 449.8524,-269.7606 443.7082,-260.7323"/>
<polygon fill="#c0c0c0" stroke="#c0c0c0" stroke-width="2" points="446.5664,-258.7112 438.0466,-252.4133 440.7794,-262.6496 446.5664,-258.7112"/>
</g>
<!-- 13 -->
<g id="node14" class="node">
<title>13</title>
<path fill="none" stroke="#56d87b" stroke-width="2" d="M229.6064,-180C229.6064,-180 181.4243,-180 181.4243,-180 175.4243,-180 169.4243,-174 169.4243,-168 169.4243,-168 169.4243,-156 169.4243,-156 169.4243,-150 175.4243,-144 181.4243,-144 181.4243,-144 229.6064,-144 229.6064,-144 235.6064,-144 241.6064,-150 241.6064,-156 241.6064,-156 241.6064,-168 241.6064,-168 241.6064,-174 235.6064,-180 229.6064,-180"/>
<text text-anchor="middle" x="205.5154" y="-159" font-family="sans" font-size="10.00" fill="#000000">featureCounts</text>
</g>
<!-- 7&#45;&gt;13 -->
<g id="edge34" class="edge">
<title>7-&gt;13</title>
<path fill="none" stroke="#c0c0c0" stroke-width="2" d="M433.3527,-290.6858C407.8509,-280.6992 374.7005,-266.8049 346.5154,-252 308.4207,-231.9898 267.1884,-204.9928 239.2125,-185.8004"/>
<polygon fill="#c0c0c0" stroke="#c0c0c0" stroke-width="2" points="241.1915,-182.9136 230.974,-180.111 237.2137,-188.6736 241.1915,-182.9136"/>
</g>
<!-- 15 -->
<g id="node16" class="node">
<title>15</title>
<path fill="none" stroke="#afd856" stroke-width="2" d="M554.5407,-252C554.5407,-252 492.4901,-252 492.4901,-252 486.4901,-252 480.4901,-246 480.4901,-240 480.4901,-240 480.4901,-228 480.4901,-228 480.4901,-222 486.4901,-216 492.4901,-216 492.4901,-216 554.5407,-216 554.5407,-216 560.5407,-216 566.5407,-222 566.5407,-228 566.5407,-228 566.5407,-240 566.5407,-240 566.5407,-246 560.5407,-252 554.5407,-252"/>
<text text-anchor="middle" x="523.5154" y="-231" font-family="sans" font-size="10.00" fill="#000000">InsertSizeMetrics</text>
</g>
<!-- 7&#45;&gt;15 -->
<g id="edge36" class="edge">
<title>7-&gt;15</title>
<path fill="none" stroke="#c0c0c0" stroke-width="2" d="M486.8801,-287.8314C492.4662,-279.6232 499.1783,-269.7606 505.3225,-260.7323"/>
<polygon fill="#c0c0c0" stroke="#c0c0c0" stroke-width="2" points="508.2513,-262.6496 510.9841,-252.4133 502.4643,-258.7112 508.2513,-262.6496"/>
</g>
<!-- 17 -->
<g id="node18" class="node">
<title>17</title>
<path fill="none" stroke="#d88d56" stroke-width="2" d="M652.3755,-252C652.3755,-252 596.6552,-252 596.6552,-252 590.6552,-252 584.6552,-246 584.6552,-240 584.6552,-240 584.6552,-228 584.6552,-228 584.6552,-222 590.6552,-216 596.6552,-216 596.6552,-216 652.3755,-216 652.3755,-216 658.3755,-216 664.3755,-222 664.3755,-228 664.3755,-228 664.3755,-240 664.3755,-240 664.3755,-246 658.3755,-252 652.3755,-252"/>
<text text-anchor="middle" x="624.5154" y="-231" font-family="sans" font-size="10.00" fill="#000000">macs2_callpeak</text>
</g>
<!-- 7&#45;&gt;17 -->
<g id="edge38" class="edge">
<title>7-&gt;17</title>
<path fill="none" stroke="#c0c0c0" stroke-width="2" d="M512.3667,-287.8314C532.25,-278.2874 556.7936,-266.5065 577.8459,-256.4013"/>
<polygon fill="#c0c0c0" stroke="#c0c0c0" stroke-width="2" points="579.4356,-259.5207 586.9362,-252.038 576.4064,-253.21 579.4356,-259.5207"/>
</g>
<!-- 8&#45;&gt;2 -->
<g id="edge6" class="edge">
<title>8-&gt;2</title>
<path fill="none" stroke="#c0c0c0" stroke-width="2" d="M809.6836,-215.9134C816.989,-196.8496 824.8105,-166.5206 812.5154,-144 802.4217,-125.5117 782.9877,-112.4091 765.3532,-103.7446"/>
<polygon fill="#c0c0c0" stroke="#c0c0c0" stroke-width="2" points="766.3619,-100.3573 755.812,-99.3815 763.4507,-106.7233 766.3619,-100.3573"/>
</g>
<!-- 9 -->
<g id="node10" class="node">
<title>9</title>
<path fill="none" stroke="#d86e56" stroke-width="2" d="M80.5154,-540C80.5154,-540 50.5154,-540 50.5154,-540 44.5154,-540 38.5154,-534 38.5154,-528 38.5154,-528 38.5154,-516 38.5154,-516 38.5154,-510 44.5154,-504 50.5154,-504 50.5154,-504 80.5154,-504 80.5154,-504 86.5154,-504 92.5154,-510 92.5154,-516 92.5154,-516 92.5154,-528 92.5154,-528 92.5154,-534 86.5154,-540 80.5154,-540"/>
<text text-anchor="middle" x="65.5154" y="-519" font-family="sans" font-size="10.00" fill="#000000">fastqc</text>
</g>
<!-- 9&#45;&gt;3 -->
<g id="edge13" class="edge">
<title>9-&gt;3</title>
<path fill="none" stroke="#c0c0c0" stroke-width="2" d="M65.5154,-503.8146C65.5154,-476.4983 65.5154,-423.25 65.5154,-378 65.5154,-378 65.5154,-378 65.5154,-234 65.5154,-192.6022 60.9895,-174.0009 89.5154,-144 107.5933,-124.9873 176.6773,-107.2446 220.4275,-97.5824"/>
<polygon fill="#c0c0c0" stroke="#c0c0c0" stroke-width="2" points="221.3893,-100.9553 230.4219,-95.4179 219.9076,-94.1139 221.3893,-100.9553"/>
</g>
<!-- 9&#45;&gt;17 -->
<g id="edge37" class="edge">
<title>9-&gt;17</title>
<path fill="none" stroke="#c0c0c0" stroke-width="2" d="M92.8418,-519.3628C145.4776,-513.7656 264.1541,-498.6253 359.5154,-468 431.0691,-445.0205 455.1741,-444.5797 512.5154,-396 557.9426,-357.5139 593.3894,-296.4327 611.4155,-261.3003"/>
<polygon fill="#c0c0c0" stroke="#c0c0c0" stroke-width="2" points="614.6664,-262.6262 616.0317,-252.1197 608.4124,-259.4816 614.6664,-262.6262"/>
</g>
<!-- 10 -->
<g id="node11" class="node">
<title>10</title>
<path fill="none" stroke="#56c9d8" stroke-width="2" d="M81.336,-612C81.336,-612 25.6947,-612 25.6947,-612 19.6947,-612 13.6947,-606 13.6947,-600 13.6947,-600 13.6947,-588 13.6947,-588 13.6947,-582 19.6947,-576 25.6947,-576 25.6947,-576 81.336,-576 81.336,-576 87.336,-576 93.336,-582 93.336,-588 93.336,-588 93.336,-600 93.336,-600 93.336,-606 87.336,-612 81.336,-612"/>
<text text-anchor="middle" x="53.5154" y="-591" font-family="sans" font-size="10.00" fill="#000000">trim_galore_SE</text>
</g>
<!-- 10&#45;&gt;3 -->
<g id="edge16" class="edge">
<title>10-&gt;3</title>
<path fill="none" stroke="#c0c0c0" stroke-width="2" d="M44.3962,-575.8786C31.7739,-549.076 10.5154,-496.9635 10.5154,-450 10.5154,-450 10.5154,-450 10.5154,-234 10.5154,-187.3524 27.4251,-172.2898 64.5154,-144 88.9228,-125.3838 171.3733,-106.7763 220.2586,-97.0096"/>
<polygon fill="#c0c0c0" stroke="#c0c0c0" stroke-width="2" points="221.0121,-100.4285 230.1478,-95.0628 219.66,-93.5603 221.0121,-100.4285"/>
</g>
<!-- 10&#45;&gt;9 -->
<g id="edge27" class="edge">
<title>10-&gt;9</title>
<path fill="none" stroke="#c0c0c0" stroke-width="2" d="M56.5435,-575.8314C57.8269,-568.131 59.353,-558.9743 60.7793,-550.4166"/>
<polygon fill="#c0c0c0" stroke="#c0c0c0" stroke-width="2" points="64.2548,-550.8526 62.4465,-540.4133 57.35,-549.7018 64.2548,-550.8526"/>
</g>
<!-- 24 -->
<g id="node25" class="node">
<title>24</title>
<path fill="none" stroke="#56d8b1" stroke-width="2" d="M268.1714,-540C268.1714,-540 234.8593,-540 234.8593,-540 228.8593,-540 222.8593,-534 222.8593,-528 222.8593,-528 222.8593,-516 222.8593,-516 222.8593,-510 228.8593,-504 234.8593,-504 234.8593,-504 268.1714,-504 268.1714,-504 274.1714,-504 280.1714,-510 280.1714,-516 280.1714,-516 280.1714,-528 280.1714,-528 280.1714,-534 274.1714,-540 268.1714,-540"/>
<text text-anchor="middle" x="251.5154" y="-519" font-family="sans" font-size="10.00" fill="#000000">bwa_mem</text>
</g>
<!-- 10&#45;&gt;24 -->
<g id="edge44" class="edge">
<title>10-&gt;24</title>
<path fill="none" stroke="#c0c0c0" stroke-width="2" d="M93.5836,-579.4297C128.4491,-566.7514 178.6467,-548.4977 213.0359,-535.9925"/>
<polygon fill="#c0c0c0" stroke="#c0c0c0" stroke-width="2" points="214.526,-539.175 222.7278,-532.4682 212.1337,-532.5964 214.526,-539.175"/>
</g>
<!-- 11&#45;&gt;3 -->
<g id="edge15" class="edge">
<title>11-&gt;3</title>
<path fill="none" stroke="#c0c0c0" stroke-width="2" d="M425.3864,-215.8253C424.2821,-195.8275 419.5427,-163.8899 401.5154,-144 373.9291,-113.5634 327.4915,-100.2068 294.8243,-94.3938"/>
<polygon fill="#c0c0c0" stroke="#c0c0c0" stroke-width="2" points="295.1746,-90.9049 284.7433,-92.7594 294.0543,-97.8147 295.1746,-90.9049"/>
</g>
<!-- 12 -->
<g id="node13" class="node">
<title>12</title>
<path fill="none" stroke="#56d8d8" stroke-width="2" d="M357.9894,-396C357.9894,-396 271.0414,-396 271.0414,-396 265.0414,-396 259.0414,-390 259.0414,-384 259.0414,-384 259.0414,-372 259.0414,-372 259.0414,-366 265.0414,-360 271.0414,-360 271.0414,-360 357.9894,-360 357.9894,-360 363.9894,-360 369.9894,-366 369.9894,-372 369.9894,-372 369.9894,-384 369.9894,-384 369.9894,-390 363.9894,-396 357.9894,-396"/>
<text text-anchor="middle" x="314.5154" y="-375" font-family="sans" font-size="10.00" fill="#000000">MTNucRatioCalculator</text>
</g>
<!-- 12&#45;&gt;3 -->
<g id="edge17" class="edge">
<title>12-&gt;3</title>
<path fill="none" stroke="#c0c0c0" stroke-width="2" d="M293.3147,-359.9026C257.684,-327.9225 187.0855,-257.4395 160.5154,-180 155.3228,-164.866 152.4074,-157.7935 160.5154,-144 173.4743,-121.954 199.0561,-108.2549 220.6955,-100.1724"/>
<polygon fill="#c0c0c0" stroke="#c0c0c0" stroke-width="2" points="221.9979,-103.4253 230.3009,-96.8443 219.7061,-96.8111 221.9979,-103.4253"/>
</g>
<!-- 13&#45;&gt;3 -->
<g id="edge10" class="edge">
<title>13-&gt;3</title>
<path fill="none" stroke="#c0c0c0" stroke-width="2" d="M218.6372,-143.8314C224.5652,-135.6232 231.6883,-125.7606 238.2087,-116.7323"/>
<polygon fill="#c0c0c0" stroke="#c0c0c0" stroke-width="2" points="241.1993,-118.5693 244.2169,-108.4133 235.5246,-114.4708 241.1993,-118.5693"/>
</g>
<!-- 14 -->
<g id="node15" class="node">
<title>14</title>
<path fill="none" stroke="#56a2d8" stroke-width="2" d="M217.336,-612C217.336,-612 161.6947,-612 161.6947,-612 155.6947,-612 149.6947,-606 149.6947,-600 149.6947,-600 149.6947,-588 149.6947,-588 149.6947,-582 155.6947,-576 161.6947,-576 161.6947,-576 217.336,-576 217.336,-576 223.336,-576 229.336,-582 229.336,-588 229.336,-588 229.336,-600 229.336,-600 229.336,-606 223.336,-612 217.336,-612"/>
<text text-anchor="middle" x="189.5154" y="-591" font-family="sans" font-size="10.00" fill="#000000">trim_galore_PE</text>
</g>
<!-- 14&#45;&gt;3 -->
<g id="edge11" class="edge">
<title>14-&gt;3</title>
<path fill="none" stroke="#c0c0c0" stroke-width="2" d="M180.9485,-575.9504C151.7323,-511.5326 62.615,-289.0604 151.5154,-144 166.5017,-119.5464 196.4201,-105.7329 220.661,-98.2116"/>
<polygon fill="#c0c0c0" stroke="#c0c0c0" stroke-width="2" points="221.6537,-101.5681 230.3033,-95.4497 219.7261,-94.8387 221.6537,-101.5681"/>
</g>
<!-- 14&#45;&gt;9 -->
<g id="edge28" class="edge">
<title>14-&gt;9</title>
<path fill="none" stroke="#c0c0c0" stroke-width="2" d="M158.2249,-575.8314C140.9958,-565.8273 119.5338,-553.3655 101.5997,-542.9522"/>
<polygon fill="#c0c0c0" stroke="#c0c0c0" stroke-width="2" points="102.9894,-539.7119 92.584,-537.7173 99.4744,-545.7655 102.9894,-539.7119"/>
</g>
<!-- 14&#45;&gt;24 -->
<g id="edge46" class="edge">
<title>14-&gt;24</title>
<path fill="none" stroke="#c0c0c0" stroke-width="2" d="M205.1606,-575.8314C212.3744,-567.454 221.0724,-557.3531 228.9758,-548.1749"/>
<polygon fill="#c0c0c0" stroke="#c0c0c0" stroke-width="2" points="231.7864,-550.2748 235.6595,-540.4133 226.482,-545.7071 231.7864,-550.2748"/>
</g>
<!-- 15&#45;&gt;3 -->
<g id="edge14" class="edge">
<title>15-&gt;3</title>
<path fill="none" stroke="#c0c0c0" stroke-width="2" d="M508.3073,-215.9643C490.4042,-195.7887 458.8596,-163.3999 425.5154,-144 383.8198,-119.7412 329.8598,-104.8954 294.4959,-97.0606"/>
<polygon fill="#c0c0c0" stroke="#c0c0c0" stroke-width="2" points="295.1076,-93.6124 284.5967,-94.9431 293.6433,-100.4575 295.1076,-93.6124"/>
</g>
<!-- 16 -->
<g id="node17" class="node">
<title>16</title>
<path fill="none" stroke="#56c1d8" stroke-width="2" d="M347.3248,-180C347.3248,-180 271.7059,-180 271.7059,-180 265.7059,-180 259.7059,-174 259.7059,-168 259.7059,-168 259.7059,-156 259.7059,-156 259.7059,-150 265.7059,-144 271.7059,-144 271.7059,-144 347.3248,-144 347.3248,-144 353.3248,-144 359.3248,-150 359.3248,-156 359.3248,-156 359.3248,-168 359.3248,-168 359.3248,-174 353.3248,-180 347.3248,-180"/>
<text text-anchor="middle" x="309.5154" y="-159" font-family="sans" font-size="10.00" fill="#000000">multiqc_header_info</text>
</g>
<!-- 16&#45;&gt;3 -->
<g id="edge9" class="edge">
<title>16-&gt;3</title>
<path fill="none" stroke="#c0c0c0" stroke-width="2" d="M296.3936,-143.8314C290.4655,-135.6232 283.3424,-125.7606 276.822,-116.7323"/>
<polygon fill="#c0c0c0" stroke="#c0c0c0" stroke-width="2" points="279.5062,-114.4708 270.8138,-108.4133 273.8314,-118.5693 279.5062,-114.4708"/>
</g>
<!-- 17&#45;&gt;4 -->
<g id="edge18" class="edge">
<title>17-&gt;4</title>
<path fill="none" stroke="#c0c0c0" stroke-width="2" d="M601.8046,-215.8314C590.7194,-206.9632 577.22,-196.1637 565.2302,-186.5718"/>
<polygon fill="#c0c0c0" stroke="#c0c0c0" stroke-width="2" points="567.2141,-183.6768 557.2189,-180.1628 562.8412,-189.1429 567.2141,-183.6768"/>
</g>
<!-- 17&#45;&gt;5 -->
<g id="edge20" class="edge">
<title>17-&gt;5</title>
<path fill="none" stroke="#c0c0c0" stroke-width="2" d="M653.5347,-215.8314C668.2439,-206.6221 686.2798,-195.3301 702.0276,-185.4706"/>
<polygon fill="#c0c0c0" stroke="#c0c0c0" stroke-width="2" points="703.8868,-188.436 710.5053,-180.1628 700.1721,-182.5029 703.8868,-188.436"/>
</g>
<!-- 17&#45;&gt;6 -->
<g id="edge22" class="edge">
<title>17-&gt;6</title>
<path fill="none" stroke="#c0c0c0" stroke-width="2" d="M625.02,-215.8314C625.2339,-208.131 625.4883,-198.9743 625.726,-190.4166"/>
<polygon fill="#c0c0c0" stroke="#c0c0c0" stroke-width="2" points="629.2248,-190.5066 626.0039,-180.4133 622.2275,-190.3122 629.2248,-190.5066"/>
</g>
<!-- 17&#45;&gt;13 -->
<g id="edge33" class="edge">
<title>17-&gt;13</title>
<path fill="none" stroke="#c0c0c0" stroke-width="2" d="M584.6454,-218.461C581.5817,-217.542 578.5147,-216.706 575.5154,-216 437.2311,-183.4492 393.4508,-213.8769 251.5265,-179.8508"/>
<polygon fill="#c0c0c0" stroke="#c0c0c0" stroke-width="2" points="252.1327,-176.3955 241.5857,-177.4017 250.4581,-183.1923 252.1327,-176.3955"/>
</g>
<!-- 18 -->
<g id="node19" class="node">
<title>18</title>
<path fill="none" stroke="#5663d8" stroke-width="2" d="M481.8905,-684C481.8905,-684 441.1402,-684 441.1402,-684 435.1402,-684 429.1402,-678 429.1402,-672 429.1402,-672 429.1402,-660 429.1402,-660 429.1402,-654 435.1402,-648 441.1402,-648 441.1402,-648 481.8905,-648 481.8905,-648 487.8905,-648 493.8905,-654 493.8905,-660 493.8905,-660 493.8905,-672 493.8905,-672 493.8905,-678 487.8905,-684 481.8905,-684"/>
<text text-anchor="middle" x="461.5154" y="-663" font-family="sans" font-size="10.00" fill="#000000">get_genome</text>
</g>
<!-- 18&#45;&gt;4 -->
<g id="edge19" class="edge">
<title>18-&gt;4</title>
<path fill="none" stroke="#c0c0c0" stroke-width="2" d="M494.1221,-661.1539C557.7974,-649.6487 692.5154,-614.3899 692.5154,-522 692.5154,-522 692.5154,-522 692.5154,-306 692.5154,-265.1184 699.9817,-247.1583 673.5154,-216 670.4445,-212.3847 625.3208,-195.2062 587.3075,-181.1816"/>
<polygon fill="#c0c0c0" stroke="#c0c0c0" stroke-width="2" points="588.4197,-177.8615 577.8262,-177.6941 586.0032,-184.4311 588.4197,-177.8615"/>
</g>
<!-- 18&#45;&gt;5 -->
<g id="edge21" class="edge">
<title>18-&gt;5</title>
<path fill="none" stroke="#c0c0c0" stroke-width="2" d="M493.9351,-663.7188C565.8672,-656.7176 732.5154,-628.9561 732.5154,-522 732.5154,-522 732.5154,-522 732.5154,-306 732.5154,-265.8286 735.2667,-219.4278 737.3196,-190.3979"/>
<polygon fill="#c0c0c0" stroke="#c0c0c0" stroke-width="2" points="740.8286,-190.3996 738.065,-180.1716 733.8472,-189.8907 740.8286,-190.3996"/>
</g>
<!-- 18&#45;&gt;12 -->
<g id="edge32" class="edge">
<title>18-&gt;12</title>
<path fill="none" stroke="#c0c0c0" stroke-width="2" d="M455.5881,-647.8315C441.955,-607.32 405.9457,-507.239 359.5154,-432 353.5902,-422.3985 346.0756,-412.6891 338.8924,-404.202"/>
<polygon fill="#c0c0c0" stroke="#c0c0c0" stroke-width="2" points="341.3766,-401.7251 332.1696,-396.4828 336.0979,-406.3225 341.3766,-401.7251"/>
</g>
<!-- 19 -->
<g id="node20" class="node">
<title>19</title>
<path fill="none" stroke="#567bd8" stroke-width="2" d="M491.8845,-396C491.8845,-396 431.1463,-396 431.1463,-396 425.1463,-396 419.1463,-390 419.1463,-384 419.1463,-384 419.1463,-372 419.1463,-372 419.1463,-366 425.1463,-360 431.1463,-360 431.1463,-360 491.8845,-360 491.8845,-360 497.8845,-360 503.8845,-366 503.8845,-372 503.8845,-372 503.8845,-384 503.8845,-384 503.8845,-390 497.8845,-396 491.8845,-396"/>
<text text-anchor="middle" x="461.5154" y="-375" font-family="sans" font-size="10.00" fill="#000000">remove_blacklist</text>
</g>
<!-- 18&#45;&gt;19 -->
<g id="edge40" class="edge">
<title>18-&gt;19</title>
<path fill="none" stroke="#c0c0c0" stroke-width="2" d="M461.5154,-647.9843C461.5154,-599.2939 461.5154,-464.7961 461.5154,-406.0573"/>
<polygon fill="#c0c0c0" stroke="#c0c0c0" stroke-width="2" points="465.0155,-406.0088 461.5154,-396.0089 458.0155,-406.0089 465.0155,-406.0088"/>
</g>
<!-- 25 -->
<g id="node26" class="node">
<title>25</title>
<path fill="none" stroke="#56d873" stroke-width="2" d="M345.3915,-612C345.3915,-612 309.6392,-612 309.6392,-612 303.6392,-612 297.6392,-606 297.6392,-600 297.6392,-600 297.6392,-588 297.6392,-588 297.6392,-582 303.6392,-576 309.6392,-576 309.6392,-576 345.3915,-576 345.3915,-576 351.3915,-576 357.3915,-582 357.3915,-588 357.3915,-588 357.3915,-600 357.3915,-600 357.3915,-606 351.3915,-612 345.3915,-612"/>
<text text-anchor="middle" x="327.5154" y="-591" font-family="sans" font-size="10.00" fill="#000000">bwa_index</text>
</g>
<!-- 18&#45;&gt;25 -->
<g id="edge47" class="edge">
<title>18-&gt;25</title>
<path fill="none" stroke="#c0c0c0" stroke-width="2" d="M429.0777,-648.5708C410.355,-638.5109 386.6739,-625.7867 366.8891,-615.156"/>
<polygon fill="#c0c0c0" stroke="#c0c0c0" stroke-width="2" points="368.283,-611.9318 357.8174,-610.2817 364.9697,-618.098 368.283,-611.9318"/>
</g>
<!-- 19&#45;&gt;7 -->
<g id="edge23" class="edge">
<title>19-&gt;7</title>
<path fill="none" stroke="#c0c0c0" stroke-width="2" d="M464.7958,-359.8314C466.1862,-352.131 467.8394,-342.9743 469.3846,-334.4166"/>
<polygon fill="#c0c0c0" stroke="#c0c0c0" stroke-width="2" points="472.8581,-334.8761 471.1907,-324.4133 465.9695,-333.6322 472.8581,-334.8761"/>
</g>
<!-- 20 -->
<g id="node21" class="node">
<title>20</title>
<path fill="none" stroke="#56d89a" stroke-width="2" d="M65.7768,-684C65.7768,-684 21.2539,-684 21.2539,-684 15.2539,-684 9.2539,-678 9.2539,-672 9.2539,-672 9.2539,-660 9.2539,-660 9.2539,-654 15.2539,-648 21.2539,-648 21.2539,-648 65.7768,-648 65.7768,-648 71.7768,-648 77.7768,-654 77.7768,-660 77.7768,-660 77.7768,-672 77.7768,-672 77.7768,-678 71.7768,-684 65.7768,-684"/>
<text text-anchor="middle" x="43.5154" y="-663" font-family="sans" font-size="10.00" fill="#000000">sra2fastq_SE</text>
</g>
<!-- 20&#45;&gt;9 -->
<g id="edge26" class="edge">
<title>20-&gt;9</title>
<path fill="none" stroke="#c0c0c0" stroke-width="2" d="M25.8046,-647.6517C17.6212,-637.8946 8.785,-625.2041 4.5154,-612 -.4073,-596.7761 -2.054,-590.5892 4.5154,-576 10.0599,-563.6868 19.9535,-553.047 30.181,-544.5451"/>
<polygon fill="#c0c0c0" stroke="#c0c0c0" stroke-width="2" points="32.6169,-547.0854 38.3781,-538.1939 28.3295,-541.552 32.6169,-547.0854"/>
</g>
<!-- 20&#45;&gt;10 -->
<g id="edge29" class="edge">
<title>20-&gt;10</title>
<path fill="none" stroke="#c0c0c0" stroke-width="2" d="M46.0388,-647.8314C47.1083,-640.131 48.38,-630.9743 49.5686,-622.4166"/>
<polygon fill="#c0c0c0" stroke="#c0c0c0" stroke-width="2" points="53.0489,-622.7997 50.958,-612.4133 46.1155,-621.8367 53.0489,-622.7997"/>
</g>
<!-- 21 -->
<g id="node22" class="node">
<title>21</title>
<path fill="none" stroke="#56d8c1" stroke-width="2" d="M338.0678,-468C338.0678,-468 290.963,-468 290.963,-468 284.963,-468 278.963,-462 278.963,-456 278.963,-456 278.963,-444 278.963,-444 278.963,-438 284.963,-432 290.963,-432 290.963,-432 338.0678,-432 338.0678,-432 344.0678,-432 350.0678,-438 350.0678,-444 350.0678,-444 350.0678,-456 350.0678,-456 350.0678,-462 344.0678,-468 338.0678,-468"/>
<text text-anchor="middle" x="314.5154" y="-447" font-family="sans" font-size="10.00" fill="#000000">samtools_sort</text>
</g>
<!-- 21&#45;&gt;12 -->
<g id="edge31" class="edge">
<title>21-&gt;12</title>
<path fill="none" stroke="#c0c0c0" stroke-width="2" d="M314.5154,-431.8314C314.5154,-424.131 314.5154,-414.9743 314.5154,-406.4166"/>
<polygon fill="#c0c0c0" stroke="#c0c0c0" stroke-width="2" points="318.0155,-406.4132 314.5154,-396.4133 311.0155,-406.4133 318.0155,-406.4132"/>
</g>
<!-- 21&#45;&gt;19 -->
<g id="edge39" class="edge">
<title>21-&gt;19</title>
<path fill="none" stroke="#c0c0c0" stroke-width="2" d="M350.1,-432.5708C369.7886,-422.9274 394.4758,-410.8357 415.6047,-400.4869"/>
<polygon fill="#c0c0c0" stroke="#c0c0c0" stroke-width="2" points="417.2822,-403.5625 424.7233,-396.0206 414.2031,-397.2761 417.2822,-403.5625"/>
</g>
<!-- 22 -->
<g id="node23" class="node">
<title>22</title>
<path fill="none" stroke="#bed856" stroke-width="2" d="M152.7768,-684C152.7768,-684 108.2539,-684 108.2539,-684 102.2539,-684 96.2539,-678 96.2539,-672 96.2539,-672 96.2539,-660 96.2539,-660 96.2539,-654 102.2539,-648 108.2539,-648 108.2539,-648 152.7768,-648 152.7768,-648 158.7768,-648 164.7768,-654 164.7768,-660 164.7768,-660 164.7768,-672 164.7768,-672 164.7768,-678 158.7768,-684 152.7768,-684"/>
<text text-anchor="middle" x="130.5154" y="-663" font-family="sans" font-size="10.00" fill="#000000">sra2fastq_PE</text>
</g>
<!-- 22&#45;&gt;9 -->
<g id="edge25" class="edge">
<title>22-&gt;9</title>
<path fill="none" stroke="#c0c0c0" stroke-width="2" d="M126.5551,-647.8119C122.1156,-629.1939 114.0024,-599.7094 102.5154,-576 97.9551,-566.5876 91.8918,-556.9638 85.9956,-548.497"/>
<polygon fill="#c0c0c0" stroke="#c0c0c0" stroke-width="2" points="88.667,-546.2174 79.9815,-540.15 82.9876,-550.3094 88.667,-546.2174"/>
</g>
<!-- 22&#45;&gt;14 -->
<g id="edge35" class="edge">
<title>22-&gt;14</title>
<path fill="none" stroke="#c0c0c0" stroke-width="2" d="M145.4036,-647.8314C152.2683,-639.454 160.5454,-629.3531 168.0665,-620.1749"/>
<polygon fill="#c0c0c0" stroke="#c0c0c0" stroke-width="2" points="170.7956,-622.3665 174.4267,-612.4133 165.3813,-617.9297 170.7956,-622.3665"/>
</g>
<!-- 23 -->
<g id="node24" class="node">
<title>23</title>
<path fill="none" stroke="#56d8a2" stroke-width="2" d="M101.5154,-756C101.5154,-756 71.5154,-756 71.5154,-756 65.5154,-756 59.5154,-750 59.5154,-744 59.5154,-744 59.5154,-732 59.5154,-732 59.5154,-726 65.5154,-720 71.5154,-720 71.5154,-720 101.5154,-720 101.5154,-720 107.5154,-720 113.5154,-726 113.5154,-732 113.5154,-732 113.5154,-744 113.5154,-744 113.5154,-750 107.5154,-756 101.5154,-756"/>
<text text-anchor="middle" x="86.5154" y="-735" font-family="sans" font-size="10.00" fill="#000000">id2sra</text>
</g>
<!-- 23&#45;&gt;20 -->
<g id="edge41" class="edge">
<title>23-&gt;20</title>
<path fill="none" stroke="#c0c0c0" stroke-width="2" d="M75.6646,-719.8314C70.8131,-711.7079 64.9937,-701.9637 59.6474,-693.0118"/>
<polygon fill="#c0c0c0" stroke="#c0c0c0" stroke-width="2" points="62.6445,-691.2041 54.5122,-684.4133 56.6347,-694.7933 62.6445,-691.2041"/>
</g>
<!-- 23&#45;&gt;22 -->
<g id="edge43" class="edge">
<title>23-&gt;22</title>
<path fill="none" stroke="#c0c0c0" stroke-width="2" d="M97.6184,-719.8314C102.5828,-711.7079 108.5375,-701.9637 114.0082,-693.0118"/>
<polygon fill="#c0c0c0" stroke="#c0c0c0" stroke-width="2" points="117.0348,-694.7712 119.2628,-684.4133 111.0618,-691.121 117.0348,-694.7712"/>
</g>
<!-- 24&#45;&gt;21 -->
<g id="edge42" class="edge">
<title>24-&gt;21</title>
<path fill="none" stroke="#c0c0c0" stroke-width="2" d="M267.4129,-503.8314C274.7431,-495.454 283.5814,-485.3531 291.6123,-476.1749"/>
<polygon fill="#c0c0c0" stroke="#c0c0c0" stroke-width="2" points="294.4527,-478.2438 298.4038,-468.4133 289.1846,-473.6343 294.4527,-478.2438"/>
</g>
<!-- 25&#45;&gt;24 -->
<g id="edge45" class="edge">
<title>25-&gt;24</title>
<path fill="none" stroke="#c0c0c0" stroke-width="2" d="M308.3374,-575.8314C299.1565,-567.1337 288.0147,-556.5783 278.0378,-547.1265"/>
<polygon fill="#c0c0c0" stroke="#c0c0c0" stroke-width="2" points="280.3539,-544.4995 270.6872,-540.1628 275.5397,-549.5811 280.3539,-544.4995"/>
</g>
</g>
</svg>