<?xml version="1.0" encoding="UTF-8" standalone="no"?>
<!DOCTYPE svg PUBLIC "-//W3C//DTD SVG 1.1//EN"
 "http://www.w3.org/Graphics/SVG/1.1/DTD/svg11.dtd">
<!-- Generated by graphviz version 2.40.1 (20161225.0304)
 -->
<!-- Title: snakemake_dag Pages: 1 -->
<svg width="186pt" height="188pt"
 viewBox="0.00 0.00 186.00 188.00" xmlns="http://www.w3.org/2000/svg" xmlns:xlink="http://www.w3.org/1999/xlink">
<g id="graph0" class="graph" transform="scale(1 1) rotate(0) translate(4 184)">
<title>snakemake_dag</title>
<polygon fill="#ffffff" stroke="transparent" points="-4,4 -4,-184 182,-184 182,4 -4,4"/>
<!-- 0 -->
<g id="node1" class="node">
<title>0</title>
<path fill="none" stroke="#56d8d8" stroke-width="2" d="M117.5,-36C117.5,-36 60.5,-36 60.5,-36 54.5,-36 48.5,-30 48.5,-24 48.5,-24 48.5,-12 48.5,-12 48.5,-6 54.5,0 60.5,0 60.5,0 117.5,0 117.5,0 123.5,0 129.5,-6 129.5,-12 129.5,-12 129.5,-24 129.5,-24 129.5,-30 123.5,-36 117.5,-36"/>
<text text-anchor="middle" x="89" y="-15.5" font-family="sans" font-size="10.00" fill="#000000">download_all</text>
</g>
<!-- 1 -->
<g id="node2" class="node">
<title>1</title>
<path fill="none" stroke="#59d856" stroke-width="2" d="M68,-108C68,-108 12,-108 12,-108 6,-108 0,-102 0,-96 0,-96 0,-84 0,-84 0,-78 6,-72 12,-72 12,-72 68,-72 68,-72 74,-72 80,-78 80,-84 80,-84 80,-96 80,-96 80,-102 74,-108 68,-108"/>
<text text-anchor="middle" x="40" y="-87.5" font-family="sans" font-size="10.00" fill="#000000">sra2fastq_SE</text>
</g>
<!-- 1&#45;&gt;0 -->
<g id="edge2" class="edge">
<title>1&#45;&gt;0</title>
<path fill="none" stroke="#c0c0c0" stroke-width="2" d="M52.3648,-71.8314C57.9509,-63.6232 64.663,-53.7606 70.8072,-44.7323"/>
<polygon fill="#c0c0c0" stroke="#c0c0c0" stroke-width="2" points="73.736,-46.6496 76.4687,-36.4133 67.949,-42.7112 73.736,-46.6496"/>
</g>
<!-- 2 -->
<g id="node3" class="node">
<title>2</title>
<path fill="none" stroke="#d85656" stroke-width="2" d="M166,-108C166,-108 110,-108 110,-108 104,-108 98,-102 98,-96 98,-96 98,-84 98,-84 98,-78 104,-72 110,-72 110,-72 166,-72 166,-72 172,-72 178,-78 178,-84 178,-84 178,-96 178,-96 178,-102 172,-108 166,-108"/>
<text text-anchor="middle" x="138" y="-87.5" font-family="sans" font-size="10.00" fill="#000000">sra2fastq_PE</text>
</g>
<!-- 2&#45;&gt;0 -->
<g id="edge1" class="edge">
<title>2&#45;&gt;0</title>
<path fill="none" stroke="#c0c0c0" stroke-width="2" d="M125.6352,-71.8314C120.0491,-63.6232 113.337,-53.7606 107.1928,-44.7323"/>
<polygon fill="#c0c0c0" stroke="#c0c0c0" stroke-width="2" points="110.051,-42.7112 101.5313,-36.4133 104.264,-46.6496 110.051,-42.7112"/>
</g>
<!-- 3 -->
<g id="node4" class="node">
<title>3</title>
<path fill="none" stroke="#d6d856" stroke-width="2" d="M104,-180C104,-180 74,-180 74,-180 68,-180 62,-174 62,-168 62,-168 62,-156 62,-156 62,-150 68,-144 74,-144 74,-144 104,-144 104,-144 110,-144 116,-150 116,-156 116,-156 116,-168 116,-168 116,-174 110,-180 104,-180"/>
<text text-anchor="middle" x="89" y="-159.5" font-family="sans" font-size="10.00" fill="#000000">id2sra</text>
</g>
<!-- 3&#45;&gt;1 -->
<g id="edge3" class="edge">
<title>3&#45;&gt;1</title>
<path fill="none" stroke="#c0c0c0" stroke-width="2" d="M76.6352,-143.8314C71.0491,-135.6232 64.337,-125.7606 58.1928,-116.7323"/>
<polygon fill="#c0c0c0" stroke="#c0c0c0" stroke-width="2" points="61.051,-114.7112 52.5313,-108.4133 55.264,-118.6496 61.051,-114.7112"/>
</g>
<!-- 3&#45;&gt;2 -->
<g id="edge4" class="edge">
<title>3&#45;&gt;2</title>
<path fill="none" stroke="#c0c0c0" stroke-width="2" d="M101.3648,-143.8314C106.9509,-135.6232 113.663,-125.7606 119.8072,-116.7323"/>
<polygon fill="#c0c0c0" stroke="#c0c0c0" stroke-width="2" points="122.736,-118.6496 125.4687,-108.4133 116.949,-114.7112 122.736,-118.6496"/>
</g>
</g>
</svg>
