<?xml version="1.0" encoding="UTF-8" standalone="no"?>
<!DOCTYPE svg PUBLIC "-//W3C//DTD SVG 1.1//EN"
 "http://www.w3.org/Graphics/SVG/1.1/DTD/svg11.dtd">
<!-- Generated by graphviz version 2.42.3 (20191010.1750)
 -->
<!-- Title: snakemake_dag Pages: 1 -->
<svg width="776pt" height="620pt"
 viewBox="0.00 0.00 776.30 620.00" xmlns="http://www.w3.org/2000/svg" xmlns:xlink="http://www.w3.org/1999/xlink">
<g id="graph0" class="graph" transform="scale(1 1) rotate(0) translate(4 616)">
<title>snakemake_dag</title>
<polygon fill="white" stroke="transparent" points="-4,4 -4,-616 772.3,-616 772.3,4 -4,4"/>
<!-- 0 -->
<g id="node1" class="node">
<title>0</title>
<path fill="none" stroke="#d86656" stroke-width="2" d="M690.8,-36C690.8,-36 656.8,-36 656.8,-36 650.8,-36 644.8,-30 644.8,-24 644.8,-24 644.8,-12 644.8,-12 644.8,-6 650.8,0 656.8,0 656.8,0 690.8,0 690.8,0 696.8,0 702.8,-6 702.8,-12 702.8,-12 702.8,-24 702.8,-24 702.8,-30 696.8,-36 690.8,-36"/>
<text text-anchor="middle" x="673.8" y="-15.5" font-family="sans" font-size="10.00">align_all</text>
</g>
<!-- 1 -->
<g id="node2" class="node">
<title>1</title>
<path fill="none" stroke="#56d8a2" stroke-width="2" d="M612.8,-252C612.8,-252 538.8,-252 538.8,-252 532.8,-252 526.8,-246 526.8,-240 526.8,-240 526.8,-228 526.8,-228 526.8,-222 532.8,-216 538.8,-216 538.8,-216 612.8,-216 612.8,-216 618.8,-216 624.8,-222 624.8,-228 624.8,-228 624.8,-240 624.8,-240 624.8,-246 618.8,-252 612.8,-252"/>
<text text-anchor="middle" x="575.8" y="-231.5" font-family="sans" font-size="10.00">mark_duplicates</text>
</g>
<!-- 1&#45;&gt;0 -->
<g id="edge3" class="edge">
<title>1&#45;&gt;0</title>
<path fill="none" stroke="grey" stroke-width="2" d="M625.07,-218.37C657.87,-207.73 697.02,-192.97 708.8,-180 741.69,-143.81 749.14,-116.92 729.8,-72 725.02,-60.87 716.61,-50.99 707.75,-42.86"/>
<polygon fill="grey" stroke="grey" stroke-width="2" points="709.81,-40.01 699.93,-36.18 705.26,-45.34 709.81,-40.01"/>
</g>
<!-- 2 -->
<g id="node3" class="node">
<title>2</title>
<path fill="none" stroke="#d8c356" stroke-width="2" d="M708.8,-108C708.8,-108 638.8,-108 638.8,-108 632.8,-108 626.8,-102 626.8,-96 626.8,-96 626.8,-84 626.8,-84 626.8,-78 632.8,-72 638.8,-72 638.8,-72 708.8,-72 708.8,-72 714.8,-72 720.8,-78 720.8,-84 720.8,-84 720.8,-96 720.8,-96 720.8,-102 714.8,-108 708.8,-108"/>
<text text-anchor="middle" x="673.8" y="-87.5" font-family="sans" font-size="10.00">samtools_index</text>
</g>
<!-- 1&#45;&gt;2 -->
<g id="edge5" class="edge">
<title>1&#45;&gt;2</title>
<path fill="none" stroke="grey" stroke-width="2" d="M624.9,-216.63C652.85,-206.21 683.85,-192.39 691.8,-180 703.85,-161.25 697.1,-136.07 688.65,-117.28"/>
<polygon fill="grey" stroke="grey" stroke-width="2" points="691.7,-115.55 684.16,-108.1 685.41,-118.62 691.7,-115.55"/>
</g>
<!-- 3 -->
<g id="node4" class="node">
<title>3</title>
<path fill="none" stroke="#56d87b" stroke-width="2" d="M328.8,-108C328.8,-108 298.8,-108 298.8,-108 292.8,-108 286.8,-102 286.8,-96 286.8,-96 286.8,-84 286.8,-84 286.8,-78 292.8,-72 298.8,-72 298.8,-72 328.8,-72 328.8,-72 334.8,-72 340.8,-78 340.8,-84 340.8,-84 340.8,-96 340.8,-96 340.8,-102 334.8,-108 328.8,-108"/>
<text text-anchor="middle" x="313.8" y="-87.5" font-family="sans" font-size="10.00">multiqc</text>
</g>
<!-- 1&#45;&gt;3 -->
<g id="edge14" class="edge">
<title>1&#45;&gt;3</title>
<path fill="none" stroke="grey" stroke-width="2" d="M526.79,-230.11C424.69,-223.58 196.78,-206.2 173.8,-180 163.26,-167.97 164.71,-157.17 173.8,-144 196.73,-110.81 243.31,-98.38 276.44,-93.74"/>
<polygon fill="grey" stroke="grey" stroke-width="2" points="277.18,-97.18 286.68,-92.49 276.33,-90.23 277.18,-97.18"/>
</g>
<!-- 9 -->
<g id="node10" class="node">
<title>9</title>
<path fill="none" stroke="#56a2d8" stroke-width="2" d="M552.3,-180C552.3,-180 485.3,-180 485.3,-180 479.3,-180 473.3,-174 473.3,-168 473.3,-168 473.3,-156 473.3,-156 473.3,-150 479.3,-144 485.3,-144 485.3,-144 552.3,-144 552.3,-144 558.3,-144 564.3,-150 564.3,-156 564.3,-156 564.3,-168 564.3,-168 564.3,-174 558.3,-180 552.3,-180"/>
<text text-anchor="middle" x="518.8" y="-159.5" font-family="sans" font-size="10.00">samtools_stats</text>
</g>
<!-- 1&#45;&gt;9 -->
<g id="edge21" class="edge">
<title>1&#45;&gt;9</title>
<path fill="none" stroke="grey" stroke-width="2" d="M561.71,-215.7C554.88,-207.3 546.55,-197.07 539.05,-187.86"/>
<polygon fill="grey" stroke="grey" stroke-width="2" points="541.76,-185.65 532.73,-180.1 536.33,-190.07 541.76,-185.65"/>
</g>
<!-- 10 -->
<g id="node11" class="node">
<title>10</title>
<path fill="none" stroke="#56d8a9" stroke-width="2" d="M670.8,-180C670.8,-180 594.8,-180 594.8,-180 588.8,-180 582.8,-174 582.8,-168 582.8,-168 582.8,-156 582.8,-156 582.8,-150 588.8,-144 594.8,-144 594.8,-144 670.8,-144 670.8,-144 676.8,-144 682.8,-150 682.8,-156 682.8,-156 682.8,-168 682.8,-168 682.8,-174 676.8,-180 670.8,-180"/>
<text text-anchor="middle" x="632.8" y="-159.5" font-family="sans" font-size="10.00">InsertSizeMetrics</text>
</g>
<!-- 1&#45;&gt;10 -->
<g id="edge22" class="edge">
<title>1&#45;&gt;10</title>
<path fill="none" stroke="grey" stroke-width="2" d="M589.89,-215.7C596.73,-207.3 605.06,-197.07 612.56,-187.86"/>
<polygon fill="grey" stroke="grey" stroke-width="2" points="615.28,-190.07 618.88,-180.1 609.85,-185.65 615.28,-190.07"/>
</g>
<!-- 2&#45;&gt;0 -->
<g id="edge2" class="edge">
<title>2&#45;&gt;0</title>
<path fill="none" stroke="grey" stroke-width="2" d="M673.8,-71.7C673.8,-63.98 673.8,-54.71 673.8,-46.11"/>
<polygon fill="grey" stroke="grey" stroke-width="2" points="677.3,-46.1 673.8,-36.1 670.3,-46.1 677.3,-46.1"/>
</g>
<!-- 3&#45;&gt;0 -->
<g id="edge1" class="edge">
<title>3&#45;&gt;0</title>
<path fill="none" stroke="grey" stroke-width="2" d="M340.86,-83.74C403.91,-71.48 560.79,-40.98 634.44,-26.65"/>
<polygon fill="grey" stroke="grey" stroke-width="2" points="635.54,-30.01 644.68,-24.66 634.2,-23.14 635.54,-30.01"/>
</g>
<!-- 4 -->
<g id="node5" class="node">
<title>4</title>
<path fill="none" stroke="#56d88a" stroke-width="2" d="M614.3,-324C614.3,-324 537.3,-324 537.3,-324 531.3,-324 525.3,-318 525.3,-312 525.3,-312 525.3,-300 525.3,-300 525.3,-294 531.3,-288 537.3,-288 537.3,-288 614.3,-288 614.3,-288 620.3,-288 626.3,-294 626.3,-300 626.3,-300 626.3,-312 626.3,-312 626.3,-318 620.3,-324 614.3,-324"/>
<text text-anchor="middle" x="575.8" y="-303.5" font-family="sans" font-size="10.00">samtools_presort</text>
</g>
<!-- 4&#45;&gt;1 -->
<g id="edge4" class="edge">
<title>4&#45;&gt;1</title>
<path fill="none" stroke="grey" stroke-width="2" d="M575.8,-287.7C575.8,-279.98 575.8,-270.71 575.8,-262.11"/>
<polygon fill="grey" stroke="grey" stroke-width="2" points="579.3,-262.1 575.8,-252.1 572.3,-262.1 579.3,-262.1"/>
</g>
<!-- 11 -->
<g id="node12" class="node">
<title>11</title>
<path fill="none" stroke="#56d863" stroke-width="2" d="M756.3,-252C756.3,-252 655.3,-252 655.3,-252 649.3,-252 643.3,-246 643.3,-240 643.3,-240 643.3,-228 643.3,-228 643.3,-222 649.3,-216 655.3,-216 655.3,-216 756.3,-216 756.3,-216 762.3,-216 768.3,-222 768.3,-228 768.3,-228 768.3,-240 768.3,-240 768.3,-246 762.3,-252 756.3,-252"/>
<text text-anchor="middle" x="705.8" y="-231.5" font-family="sans" font-size="10.00">MTNucRatioCalculator</text>
</g>
<!-- 4&#45;&gt;11 -->
<g id="edge23" class="edge">
<title>4&#45;&gt;11</title>
<path fill="none" stroke="grey" stroke-width="2" d="M607.61,-287.88C624.92,-278.55 646.53,-266.92 665.06,-256.94"/>
<polygon fill="grey" stroke="grey" stroke-width="2" points="666.74,-260.01 673.88,-252.19 663.42,-253.85 666.74,-260.01"/>
</g>
<!-- 5 -->
<g id="node6" class="node">
<title>5</title>
<path fill="none" stroke="#d85656" stroke-width="2" d="M286.8,-180C286.8,-180 194.8,-180 194.8,-180 188.8,-180 182.8,-174 182.8,-168 182.8,-168 182.8,-156 182.8,-156 182.8,-150 188.8,-144 194.8,-144 194.8,-144 286.8,-144 286.8,-144 292.8,-144 298.8,-150 298.8,-156 298.8,-156 298.8,-168 298.8,-168 298.8,-174 292.8,-180 286.8,-180"/>
<text text-anchor="middle" x="240.8" y="-159.5" font-family="sans" font-size="10.00">multiqc_header_info</text>
</g>
<!-- 5&#45;&gt;3 -->
<g id="edge7" class="edge">
<title>5&#45;&gt;3</title>
<path fill="none" stroke="grey" stroke-width="2" d="M258.85,-143.7C267.87,-135.05 278.92,-124.45 288.75,-115.03"/>
<polygon fill="grey" stroke="grey" stroke-width="2" points="291.17,-117.55 295.97,-108.1 286.33,-112.5 291.17,-117.55"/>
</g>
<!-- 6 -->
<g id="node7" class="node">
<title>6</title>
<path fill="none" stroke="#5692d8" stroke-width="2" d="M442.8,-180C442.8,-180 328.8,-180 328.8,-180 322.8,-180 316.8,-174 316.8,-168 316.8,-168 316.8,-156 316.8,-156 316.8,-150 322.8,-144 328.8,-144 328.8,-144 442.8,-144 442.8,-144 448.8,-144 454.8,-150 454.8,-156 454.8,-156 454.8,-168 454.8,-168 454.8,-174 448.8,-180 442.8,-180"/>
<text text-anchor="middle" x="385.8" y="-159.5" font-family="sans" font-size="10.00">multiqc_rename_buttons</text>
</g>
<!-- 6&#45;&gt;3 -->
<g id="edge11" class="edge">
<title>6&#45;&gt;3</title>
<path fill="none" stroke="grey" stroke-width="2" d="M368.01,-143.7C359.2,-135.14 348.42,-124.66 338.8,-115.3"/>
<polygon fill="grey" stroke="grey" stroke-width="2" points="341.01,-112.57 331.4,-108.1 336.13,-117.58 341.01,-112.57"/>
</g>
<!-- 7 -->
<g id="node8" class="node">
<title>7</title>
<path fill="none" stroke="#56b9d8" stroke-width="2" d="M87.8,-396C87.8,-396 57.8,-396 57.8,-396 51.8,-396 45.8,-390 45.8,-384 45.8,-384 45.8,-372 45.8,-372 45.8,-366 51.8,-360 57.8,-360 57.8,-360 87.8,-360 87.8,-360 93.8,-360 99.8,-366 99.8,-372 99.8,-372 99.8,-384 99.8,-384 99.8,-390 93.8,-396 87.8,-396"/>
<text text-anchor="middle" x="72.8" y="-375.5" font-family="sans" font-size="10.00">fastqc</text>
</g>
<!-- 7&#45;&gt;3 -->
<g id="edge9" class="edge">
<title>7&#45;&gt;3</title>
<path fill="none" stroke="grey" stroke-width="2" d="M69.17,-359.76C61.3,-317.23 47.54,-206.2 102.8,-144 125.61,-118.34 222.42,-102.4 276.63,-95.31"/>
<polygon fill="grey" stroke="grey" stroke-width="2" points="277.08,-98.78 286.56,-94.05 276.19,-91.84 277.08,-98.78"/>
</g>
<!-- 8 -->
<g id="node9" class="node">
<title>8</title>
<path fill="none" stroke="#5663d8" stroke-width="2" d="M91.8,-468C91.8,-468 25.8,-468 25.8,-468 19.8,-468 13.8,-462 13.8,-456 13.8,-456 13.8,-444 13.8,-444 13.8,-438 19.8,-432 25.8,-432 25.8,-432 91.8,-432 91.8,-432 97.8,-432 103.8,-438 103.8,-444 103.8,-444 103.8,-456 103.8,-456 103.8,-462 97.8,-468 91.8,-468"/>
<text text-anchor="middle" x="58.8" y="-447.5" font-family="sans" font-size="10.00">trim_galore_PE</text>
</g>
<!-- 8&#45;&gt;3 -->
<g id="edge13" class="edge">
<title>8&#45;&gt;3</title>
<path fill="none" stroke="grey" stroke-width="2" d="M50.51,-431.97C38.53,-405.77 17.8,-353.7 17.8,-307 17.8,-307 17.8,-307 17.8,-233 17.8,-119.41 197.21,-96.62 276.68,-92.09"/>
<polygon fill="grey" stroke="grey" stroke-width="2" points="276.94,-95.59 286.75,-91.59 276.59,-88.59 276.94,-95.59"/>
</g>
<!-- 8&#45;&gt;7 -->
<g id="edge16" class="edge">
<title>8&#45;&gt;7</title>
<path fill="none" stroke="grey" stroke-width="2" d="M62.27,-431.7C63.81,-423.98 65.66,-414.71 67.38,-406.11"/>
<polygon fill="grey" stroke="grey" stroke-width="2" points="70.85,-406.6 69.38,-396.1 63.99,-405.22 70.85,-406.6"/>
</g>
<!-- 13 -->
<g id="node14" class="node">
<title>13</title>
<path fill="none" stroke="#5673d8" stroke-width="2" d="M374.8,-396C374.8,-396 330.8,-396 330.8,-396 324.8,-396 318.8,-390 318.8,-384 318.8,-384 318.8,-372 318.8,-372 318.8,-366 324.8,-360 330.8,-360 330.8,-360 374.8,-360 374.8,-360 380.8,-360 386.8,-366 386.8,-372 386.8,-372 386.8,-384 386.8,-384 386.8,-390 380.8,-396 374.8,-396"/>
<text text-anchor="middle" x="352.8" y="-375.5" font-family="sans" font-size="10.00">bwa_mem</text>
</g>
<!-- 8&#45;&gt;13 -->
<g id="edge27" class="edge">
<title>8&#45;&gt;13</title>
<path fill="none" stroke="grey" stroke-width="2" d="M104.1,-438.22C159.75,-424.97 253.54,-402.63 308.66,-389.51"/>
<polygon fill="grey" stroke="grey" stroke-width="2" points="309.57,-392.89 318.48,-387.17 307.95,-386.08 309.57,-392.89"/>
</g>
<!-- 9&#45;&gt;3 -->
<g id="edge12" class="edge">
<title>9&#45;&gt;3</title>
<path fill="none" stroke="grey" stroke-width="2" d="M473.05,-145.38C436.11,-132.76 384.8,-115.24 350.51,-103.53"/>
<polygon fill="grey" stroke="grey" stroke-width="2" points="351.47,-100.16 340.88,-100.24 349.21,-106.79 351.47,-100.16"/>
</g>
<!-- 10&#45;&gt;3 -->
<g id="edge10" class="edge">
<title>10&#45;&gt;3</title>
<path fill="none" stroke="grey" stroke-width="2" d="M582.67,-146.26C579.67,-145.47 576.7,-144.71 573.8,-144 495.07,-124.67 401.72,-106.87 351.05,-97.63"/>
<polygon fill="grey" stroke="grey" stroke-width="2" points="351.38,-94.13 340.91,-95.79 350.13,-101.02 351.38,-94.13"/>
</g>
<!-- 11&#45;&gt;3 -->
<g id="edge8" class="edge">
<title>11&#45;&gt;3</title>
<path fill="none" stroke="grey" stroke-width="2" d="M708.54,-215.93C710.72,-195.77 710.76,-162.64 691.8,-144 644.12,-97.11 436.67,-91.21 351.01,-90.82"/>
<polygon fill="grey" stroke="grey" stroke-width="2" points="350.96,-87.32 340.95,-90.79 350.94,-94.32 350.96,-87.32"/>
</g>
<!-- 12 -->
<g id="node13" class="node">
<title>12</title>
<path fill="none" stroke="#61d856" stroke-width="2" d="M237.8,-468C237.8,-468 171.8,-468 171.8,-468 165.8,-468 159.8,-462 159.8,-456 159.8,-456 159.8,-444 159.8,-444 159.8,-438 165.8,-432 171.8,-432 171.8,-432 237.8,-432 237.8,-432 243.8,-432 249.8,-438 249.8,-444 249.8,-444 249.8,-456 249.8,-456 249.8,-462 243.8,-468 237.8,-468"/>
<text text-anchor="middle" x="204.8" y="-447.5" font-family="sans" font-size="10.00">trim_galore_SE</text>
</g>
<!-- 12&#45;&gt;3 -->
<g id="edge6" class="edge">
<title>12&#45;&gt;3</title>
<path fill="none" stroke="grey" stroke-width="2" d="M194.94,-431.87C167.74,-382.15 97.89,-235.58 162.8,-144 188.47,-107.79 240.89,-96.14 276.69,-92.49"/>
<polygon fill="grey" stroke="grey" stroke-width="2" points="277.1,-95.97 286.77,-91.63 276.5,-88.99 277.1,-95.97"/>
</g>
<!-- 12&#45;&gt;7 -->
<g id="edge17" class="edge">
<title>12&#45;&gt;7</title>
<path fill="none" stroke="grey" stroke-width="2" d="M172.51,-431.88C153.27,-421.67 128.81,-408.7 108.93,-398.16"/>
<polygon fill="grey" stroke="grey" stroke-width="2" points="110.34,-394.94 99.87,-393.35 107.06,-401.13 110.34,-394.94"/>
</g>
<!-- 12&#45;&gt;13 -->
<g id="edge26" class="edge">
<title>12&#45;&gt;13</title>
<path fill="none" stroke="grey" stroke-width="2" d="M241.01,-431.88C261.75,-422.07 287.91,-409.69 309.7,-399.38"/>
<polygon fill="grey" stroke="grey" stroke-width="2" points="311.21,-402.55 318.75,-395.11 308.21,-396.22 311.21,-402.55"/>
</g>
<!-- 13&#45;&gt;4 -->
<g id="edge15" class="edge">
<title>13&#45;&gt;4</title>
<path fill="none" stroke="grey" stroke-width="2" d="M387.16,-366.22C421.32,-355.49 474.42,-338.82 515.6,-325.9"/>
<polygon fill="grey" stroke="grey" stroke-width="2" points="516.76,-329.2 525.25,-322.87 514.66,-322.52 516.76,-329.2"/>
</g>
<!-- 14 -->
<g id="node15" class="node">
<title>14</title>
<path fill="none" stroke="#d86e56" stroke-width="2" d="M73.8,-540C73.8,-540 17.8,-540 17.8,-540 11.8,-540 5.8,-534 5.8,-528 5.8,-528 5.8,-516 5.8,-516 5.8,-510 11.8,-504 17.8,-504 17.8,-504 73.8,-504 73.8,-504 79.8,-504 85.8,-510 85.8,-516 85.8,-516 85.8,-528 85.8,-528 85.8,-534 79.8,-540 73.8,-540"/>
<text text-anchor="middle" x="45.8" y="-519.5" font-family="sans" font-size="10.00">sra2fastq_PE</text>
</g>
<!-- 14&#45;&gt;7 -->
<g id="edge18" class="edge">
<title>14&#45;&gt;7</title>
<path fill="none" stroke="grey" stroke-width="2" d="M27.64,-503.68C18.92,-494.1 9.39,-481.43 4.8,-468 -0.37,-452.86 -2.22,-446.38 4.8,-432 11.69,-417.9 24.34,-406.47 36.87,-397.87"/>
<polygon fill="grey" stroke="grey" stroke-width="2" points="38.92,-400.72 45.46,-392.38 35.15,-394.82 38.92,-400.72"/>
</g>
<!-- 14&#45;&gt;8 -->
<g id="edge20" class="edge">
<title>14&#45;&gt;8</title>
<path fill="none" stroke="grey" stroke-width="2" d="M49.02,-503.7C50.45,-495.98 52.17,-486.71 53.77,-478.11"/>
<polygon fill="grey" stroke="grey" stroke-width="2" points="57.24,-478.58 55.63,-468.1 50.36,-477.3 57.24,-478.58"/>
</g>
<!-- 15 -->
<g id="node16" class="node">
<title>15</title>
<path fill="none" stroke="#56d0d8" stroke-width="2" d="M617.3,-540C617.3,-540 564.3,-540 564.3,-540 558.3,-540 552.3,-534 552.3,-528 552.3,-528 552.3,-516 552.3,-516 552.3,-510 558.3,-504 564.3,-504 564.3,-504 617.3,-504 617.3,-504 623.3,-504 629.3,-510 629.3,-516 629.3,-516 629.3,-528 629.3,-528 629.3,-534 623.3,-540 617.3,-540"/>
<text text-anchor="middle" x="590.8" y="-519.5" font-family="sans" font-size="10.00">get_genome</text>
</g>
<!-- 15&#45;&gt;11 -->
<g id="edge24" class="edge">
<title>15&#45;&gt;11</title>
<path fill="none" stroke="grey" stroke-width="2" d="M597.65,-503.97C616.9,-456.09 671.6,-320.06 694.99,-261.9"/>
<polygon fill="grey" stroke="grey" stroke-width="2" points="698.36,-262.89 698.85,-252.31 691.87,-260.28 698.36,-262.89"/>
</g>
<!-- 17 -->
<g id="node18" class="node">
<title>17</title>
<path fill="none" stroke="#56d8c9" stroke-width="2" d="M524.3,-468C524.3,-468 479.3,-468 479.3,-468 473.3,-468 467.3,-462 467.3,-456 467.3,-456 467.3,-444 467.3,-444 467.3,-438 473.3,-432 479.3,-432 479.3,-432 524.3,-432 524.3,-432 530.3,-432 536.3,-438 536.3,-444 536.3,-444 536.3,-456 536.3,-456 536.3,-462 530.3,-468 524.3,-468"/>
<text text-anchor="middle" x="501.8" y="-447.5" font-family="sans" font-size="10.00">bwa_index</text>
</g>
<!-- 15&#45;&gt;17 -->
<g id="edge31" class="edge">
<title>15&#45;&gt;17</title>
<path fill="none" stroke="grey" stroke-width="2" d="M568.8,-503.7C557.6,-494.88 543.8,-484.03 531.65,-474.47"/>
<polygon fill="grey" stroke="grey" stroke-width="2" points="533.58,-471.54 523.55,-468.1 529.25,-477.04 533.58,-471.54"/>
</g>
<!-- 16 -->
<g id="node17" class="node">
<title>16</title>
<path fill="none" stroke="#9fd856" stroke-width="2" d="M171.8,-540C171.8,-540 115.8,-540 115.8,-540 109.8,-540 103.8,-534 103.8,-528 103.8,-528 103.8,-516 103.8,-516 103.8,-510 109.8,-504 115.8,-504 115.8,-504 171.8,-504 171.8,-504 177.8,-504 183.8,-510 183.8,-516 183.8,-516 183.8,-528 183.8,-528 183.8,-534 177.8,-540 171.8,-540"/>
<text text-anchor="middle" x="143.8" y="-519.5" font-family="sans" font-size="10.00">sra2fastq_SE</text>
</g>
<!-- 16&#45;&gt;7 -->
<g id="edge19" class="edge">
<title>16&#45;&gt;7</title>
<path fill="none" stroke="grey" stroke-width="2" d="M139.57,-503.95C134.62,-485.54 125.45,-455.67 112.8,-432 107.67,-422.39 100.87,-412.66 94.35,-404.19"/>
<polygon fill="grey" stroke="grey" stroke-width="2" points="96.95,-401.85 87.98,-396.21 91.48,-406.21 96.95,-401.85"/>
</g>
<!-- 16&#45;&gt;12 -->
<g id="edge25" class="edge">
<title>16&#45;&gt;12</title>
<path fill="none" stroke="grey" stroke-width="2" d="M158.88,-503.7C166.2,-495.3 175.11,-485.07 183.14,-475.86"/>
<polygon fill="grey" stroke="grey" stroke-width="2" points="185.97,-477.94 189.9,-468.1 180.69,-473.34 185.97,-477.94"/>
</g>
<!-- 17&#45;&gt;13 -->
<g id="edge28" class="edge">
<title>17&#45;&gt;13</title>
<path fill="none" stroke="grey" stroke-width="2" d="M467.25,-432.76C446.01,-422.79 418.64,-409.93 395.98,-399.29"/>
<polygon fill="grey" stroke="grey" stroke-width="2" points="397.46,-396.11 386.92,-395.03 394.48,-402.45 397.46,-396.11"/>
</g>
<!-- 18 -->
<g id="node19" class="node">
<title>18</title>
<path fill="none" stroke="#afd856" stroke-width="2" d="M109.8,-612C109.8,-612 79.8,-612 79.8,-612 73.8,-612 67.8,-606 67.8,-600 67.8,-600 67.8,-588 67.8,-588 67.8,-582 73.8,-576 79.8,-576 79.8,-576 109.8,-576 109.8,-576 115.8,-576 121.8,-582 121.8,-588 121.8,-588 121.8,-600 121.8,-600 121.8,-606 115.8,-612 109.8,-612"/>
<text text-anchor="middle" x="94.8" y="-591.5" font-family="sans" font-size="10.00">id2sra</text>
</g>
<!-- 18&#45;&gt;14 -->
<g id="edge29" class="edge">
<title>18&#45;&gt;14</title>
<path fill="none" stroke="grey" stroke-width="2" d="M82.69,-575.7C76.94,-567.47 69.94,-557.48 63.6,-548.42"/>
<polygon fill="grey" stroke="grey" stroke-width="2" points="66.38,-546.29 57.78,-540.1 60.64,-550.3 66.38,-546.29"/>
</g>
<!-- 18&#45;&gt;16 -->
<g id="edge30" class="edge">
<title>18&#45;&gt;16</title>
<path fill="none" stroke="grey" stroke-width="2" d="M106.92,-575.7C112.67,-567.47 119.67,-557.48 126.01,-548.42"/>
<polygon fill="grey" stroke="grey" stroke-width="2" points="128.96,-550.3 131.83,-540.1 123.23,-546.29 128.96,-550.3"/>
</g>
</g>
</svg>
