<?xml version="1.0" encoding="UTF-8" standalone="no"?>
<!DOCTYPE svg PUBLIC "-//W3C//DTD SVG 1.1//EN"
 "http://www.w3.org/Graphics/SVG/1.1/DTD/svg11.dtd">
<!-- Generated by graphviz version 2.42.3 (20191010.1750)
 -->
<!-- Title: snakemake_dag Pages: 1 -->
<svg width="416pt" height="620pt"
 viewBox="0.00 0.00 415.50 620.00" xmlns="http://www.w3.org/2000/svg" xmlns:xlink="http://www.w3.org/1999/xlink">
<g id="graph0" class="graph" transform="scale(1 1) rotate(0) translate(4 616)">
<title>snakemake_dag</title>
<polygon fill="white" stroke="transparent" points="-4,4 -4,-616 411.5,-616 411.5,4 -4,4"/>
<!-- 0 -->
<g id="node1" class="node">
<title>0</title>
<path fill="none" stroke="#56a9d8" stroke-width="2" d="M136,-36C136,-36 99,-36 99,-36 93,-36 87,-30 87,-24 87,-24 87,-12 87,-12 87,-6 93,0 99,0 99,0 136,0 136,0 142,0 148,-6 148,-12 148,-12 148,-24 148,-24 148,-30 142,-36 136,-36"/>
<text text-anchor="middle" x="117.5" y="-15.5" font-family="sans" font-size="10.00">count_all</text>
</g>
<!-- 1 -->
<g id="node2" class="node">
<title>1</title>
<path fill="none" stroke="#d8d356" stroke-width="2" d="M137.5,-180C137.5,-180 75.5,-180 75.5,-180 69.5,-180 63.5,-174 63.5,-168 63.5,-168 63.5,-156 63.5,-156 63.5,-150 69.5,-144 75.5,-144 75.5,-144 137.5,-144 137.5,-144 143.5,-144 149.5,-150 149.5,-156 149.5,-156 149.5,-168 149.5,-168 149.5,-174 143.5,-180 137.5,-180"/>
<text text-anchor="middle" x="106.5" y="-159.5" font-family="sans" font-size="10.00">counts_matrix</text>
</g>
<!-- 1&#45;&gt;0 -->
<g id="edge3" class="edge">
<title>1&#45;&gt;0</title>
<path fill="none" stroke="grey" stroke-width="2" d="M95.77,-143.87C85.9,-125.89 73.86,-96.85 81.5,-72 84.51,-62.22 90.01,-52.62 95.82,-44.33"/>
<polygon fill="grey" stroke="grey" stroke-width="2" points="98.69,-46.33 101.89,-36.23 93.09,-42.13 98.69,-46.33"/>
</g>
<!-- 3 -->
<g id="node4" class="node">
<title>3</title>
<path fill="none" stroke="#56d8a2" stroke-width="2" d="M132.5,-108C132.5,-108 102.5,-108 102.5,-108 96.5,-108 90.5,-102 90.5,-96 90.5,-96 90.5,-84 90.5,-84 90.5,-78 96.5,-72 102.5,-72 102.5,-72 132.5,-72 132.5,-72 138.5,-72 144.5,-78 144.5,-84 144.5,-84 144.5,-96 144.5,-96 144.5,-102 138.5,-108 132.5,-108"/>
<text text-anchor="middle" x="117.5" y="-87.5" font-family="sans" font-size="10.00">deseq2</text>
</g>
<!-- 1&#45;&gt;3 -->
<g id="edge11" class="edge">
<title>1&#45;&gt;3</title>
<path fill="none" stroke="grey" stroke-width="2" d="M109.22,-143.7C110.43,-135.98 111.89,-126.71 113.24,-118.11"/>
<polygon fill="grey" stroke="grey" stroke-width="2" points="116.72,-118.53 114.81,-108.1 109.8,-117.44 116.72,-118.53"/>
</g>
<!-- 4 -->
<g id="node5" class="node">
<title>4</title>
<path fill="none" stroke="#d86656" stroke-width="2" d="M244.5,-108C244.5,-108 174.5,-108 174.5,-108 168.5,-108 162.5,-102 162.5,-96 162.5,-96 162.5,-84 162.5,-84 162.5,-78 168.5,-72 174.5,-72 174.5,-72 244.5,-72 244.5,-72 250.5,-72 256.5,-78 256.5,-84 256.5,-84 256.5,-96 256.5,-96 256.5,-102 250.5,-108 244.5,-108"/>
<text text-anchor="middle" x="209.5" y="-87.5" font-family="sans" font-size="10.00">blind_clustering</text>
</g>
<!-- 1&#45;&gt;4 -->
<g id="edge12" class="edge">
<title>1&#45;&gt;4</title>
<path fill="none" stroke="grey" stroke-width="2" d="M131.7,-143.88C144.91,-134.89 161.29,-123.76 175.61,-114.03"/>
<polygon fill="grey" stroke="grey" stroke-width="2" points="177.9,-116.71 184.21,-108.19 173.97,-110.92 177.9,-116.71"/>
</g>
<!-- 2 -->
<g id="node3" class="node">
<title>2</title>
<path fill="none" stroke="#56d8b1" stroke-width="2" d="M316.5,-108C316.5,-108 286.5,-108 286.5,-108 280.5,-108 274.5,-102 274.5,-96 274.5,-96 274.5,-84 274.5,-84 274.5,-78 280.5,-72 286.5,-72 286.5,-72 316.5,-72 316.5,-72 322.5,-72 328.5,-78 328.5,-84 328.5,-84 328.5,-96 328.5,-96 328.5,-102 322.5,-108 316.5,-108"/>
<text text-anchor="middle" x="301.5" y="-87.5" font-family="sans" font-size="10.00">multiqc</text>
</g>
<!-- 2&#45;&gt;0 -->
<g id="edge4" class="edge">
<title>2&#45;&gt;0</title>
<path fill="none" stroke="grey" stroke-width="2" d="M274.5,-75.9C271.48,-74.54 268.44,-73.22 265.5,-72 229.59,-57.13 187.84,-42.41 157.85,-32.26"/>
<polygon fill="grey" stroke="grey" stroke-width="2" points="158.75,-28.87 148.16,-29.01 156.52,-35.51 158.75,-28.87"/>
</g>
<!-- 3&#45;&gt;0 -->
<g id="edge1" class="edge">
<title>3&#45;&gt;0</title>
<path fill="none" stroke="grey" stroke-width="2" d="M117.5,-71.7C117.5,-63.98 117.5,-54.71 117.5,-46.11"/>
<polygon fill="grey" stroke="grey" stroke-width="2" points="121,-46.1 117.5,-36.1 114,-46.1 121,-46.1"/>
</g>
<!-- 4&#45;&gt;0 -->
<g id="edge2" class="edge">
<title>4&#45;&gt;0</title>
<path fill="none" stroke="grey" stroke-width="2" d="M186.76,-71.7C175.06,-62.8 160.64,-51.82 147.99,-42.2"/>
<polygon fill="grey" stroke="grey" stroke-width="2" points="150.06,-39.37 139.98,-36.1 145.82,-44.94 150.06,-39.37"/>
</g>
<!-- 5 -->
<g id="node6" class="node">
<title>5</title>
<path fill="none" stroke="#d87556" stroke-width="2" d="M47,-324C47,-324 12,-324 12,-324 6,-324 0,-318 0,-312 0,-312 0,-300 0,-300 0,-294 6,-288 12,-288 12,-288 47,-288 47,-288 53,-288 59,-294 59,-300 59,-300 59,-312 59,-312 59,-318 53,-324 47,-324"/>
<text text-anchor="middle" x="29.5" y="-303.5" font-family="sans" font-size="10.00">trackhub</text>
</g>
<!-- 5&#45;&gt;0 -->
<g id="edge5" class="edge">
<title>5&#45;&gt;0</title>
<path fill="none" stroke="grey" stroke-width="2" d="M29.58,-287.85C30.42,-247.77 36.44,-145.78 74.5,-72 79.6,-62.1 86.76,-52.33 93.76,-43.93"/>
<polygon fill="grey" stroke="grey" stroke-width="2" points="96.45,-46.17 100.37,-36.33 91.16,-41.58 96.45,-46.17"/>
</g>
<!-- 6 -->
<g id="node7" class="node">
<title>6</title>
<path fill="none" stroke="#d89c56" stroke-width="2" d="M200,-396C200,-396 159,-396 159,-396 153,-396 147,-390 147,-384 147,-384 147,-372 147,-372 147,-366 153,-360 159,-360 159,-360 200,-360 200,-360 206,-360 212,-366 212,-372 212,-372 212,-384 212,-384 212,-390 206,-396 200,-396"/>
<text text-anchor="middle" x="179.5" y="-375.5" font-family="sans" font-size="10.00">star_align</text>
</g>
<!-- 6&#45;&gt;1 -->
<g id="edge6" class="edge">
<title>6&#45;&gt;1</title>
<path fill="none" stroke="grey" stroke-width="2" d="M157.53,-359.93C147,-350.51 135.23,-337.91 128.5,-324 107.62,-280.89 104.76,-224.13 105.2,-190.8"/>
<polygon fill="grey" stroke="grey" stroke-width="2" points="108.71,-190.53 105.46,-180.45 101.71,-190.36 108.71,-190.53"/>
</g>
<!-- 14 -->
<g id="node15" class="node">
<title>14</title>
<path fill="none" stroke="#56d8d8" stroke-width="2" d="M211.5,-324C211.5,-324 149.5,-324 149.5,-324 143.5,-324 137.5,-318 137.5,-312 137.5,-312 137.5,-300 137.5,-300 137.5,-294 143.5,-288 149.5,-288 149.5,-288 211.5,-288 211.5,-288 217.5,-288 223.5,-294 223.5,-300 223.5,-300 223.5,-312 223.5,-312 223.5,-318 217.5,-324 211.5,-324"/>
<text text-anchor="middle" x="180.5" y="-303.5" font-family="sans" font-size="10.00">samtools_sort</text>
</g>
<!-- 6&#45;&gt;14 -->
<g id="edge24" class="edge">
<title>6&#45;&gt;14</title>
<path fill="none" stroke="grey" stroke-width="2" d="M179.75,-359.7C179.86,-351.98 179.99,-342.71 180.11,-334.11"/>
<polygon fill="grey" stroke="grey" stroke-width="2" points="183.61,-334.15 180.26,-324.1 176.61,-334.05 183.61,-334.15"/>
</g>
<!-- 7 -->
<g id="node8" class="node">
<title>7</title>
<path fill="none" stroke="#5682d8" stroke-width="2" d="M395.5,-396C395.5,-396 365.5,-396 365.5,-396 359.5,-396 353.5,-390 353.5,-384 353.5,-384 353.5,-372 353.5,-372 353.5,-366 359.5,-360 365.5,-360 365.5,-360 395.5,-360 395.5,-360 401.5,-360 407.5,-366 407.5,-372 407.5,-372 407.5,-384 407.5,-384 407.5,-390 401.5,-396 395.5,-396"/>
<text text-anchor="middle" x="380.5" y="-375.5" font-family="sans" font-size="10.00">fastqc</text>
</g>
<!-- 7&#45;&gt;2 -->
<g id="edge9" class="edge">
<title>7&#45;&gt;2</title>
<path fill="none" stroke="grey" stroke-width="2" d="M380.07,-359.89C378.53,-320.34 371.51,-220.1 339.5,-144 335.46,-134.4 329.41,-124.85 323.33,-116.55"/>
<polygon fill="grey" stroke="grey" stroke-width="2" points="325.93,-114.2 317.05,-108.42 320.39,-118.47 325.93,-114.2"/>
</g>
<!-- 8 -->
<g id="node9" class="node">
<title>8</title>
<path fill="none" stroke="#d87d56" stroke-width="2" d="M349.5,-468C349.5,-468 283.5,-468 283.5,-468 277.5,-468 271.5,-462 271.5,-456 271.5,-456 271.5,-444 271.5,-444 271.5,-438 277.5,-432 283.5,-432 283.5,-432 349.5,-432 349.5,-432 355.5,-432 361.5,-438 361.5,-444 361.5,-444 361.5,-456 361.5,-456 361.5,-462 355.5,-468 349.5,-468"/>
<text text-anchor="middle" x="316.5" y="-447.5" font-family="sans" font-size="10.00">trim_galore_SE</text>
</g>
<!-- 8&#45;&gt;2 -->
<g id="edge8" class="edge">
<title>8&#45;&gt;2</title>
<path fill="none" stroke="grey" stroke-width="2" d="M318.28,-431.97C320.9,-405.34 325.5,-352.21 325.5,-307 325.5,-307 325.5,-307 325.5,-233 325.5,-192.65 315.96,-146.74 308.91,-118.32"/>
<polygon fill="grey" stroke="grey" stroke-width="2" points="312.23,-117.15 306.36,-108.33 305.44,-118.88 312.23,-117.15"/>
</g>
<!-- 8&#45;&gt;6 -->
<g id="edge14" class="edge">
<title>8&#45;&gt;6</title>
<path fill="none" stroke="grey" stroke-width="2" d="M282.99,-431.88C264.39,-422.37 241.08,-410.46 221.3,-400.36"/>
<polygon fill="grey" stroke="grey" stroke-width="2" points="222.69,-397.14 212.2,-395.71 219.51,-403.37 222.69,-397.14"/>
</g>
<!-- 8&#45;&gt;7 -->
<g id="edge16" class="edge">
<title>8&#45;&gt;7</title>
<path fill="none" stroke="grey" stroke-width="2" d="M332.32,-431.7C340.07,-423.22 349.54,-412.86 358.02,-403.58"/>
<polygon fill="grey" stroke="grey" stroke-width="2" points="360.7,-405.85 364.86,-396.1 355.53,-401.12 360.7,-405.85"/>
</g>
<!-- 9 -->
<g id="node10" class="node">
<title>9</title>
<path fill="none" stroke="#bed856" stroke-width="2" d="M220.5,-252C220.5,-252 146.5,-252 146.5,-252 140.5,-252 134.5,-246 134.5,-240 134.5,-240 134.5,-228 134.5,-228 134.5,-222 140.5,-216 146.5,-216 146.5,-216 220.5,-216 220.5,-216 226.5,-216 232.5,-222 232.5,-228 232.5,-228 232.5,-240 232.5,-240 232.5,-246 226.5,-252 220.5,-252"/>
<text text-anchor="middle" x="183.5" y="-231.5" font-family="sans" font-size="10.00">mark_duplicates</text>
</g>
<!-- 9&#45;&gt;2 -->
<g id="edge7" class="edge">
<title>9&#45;&gt;2</title>
<path fill="none" stroke="grey" stroke-width="2" d="M181.84,-215.87C180.87,-196.57 182.16,-165.14 197.5,-144 199.76,-140.88 236.02,-122.77 265.1,-108.58"/>
<polygon fill="grey" stroke="grey" stroke-width="2" points="266.78,-111.66 274.23,-104.13 263.71,-105.36 266.78,-111.66"/>
</g>
<!-- 10 -->
<g id="node11" class="node">
<title>10</title>
<path fill="none" stroke="#68d856" stroke-width="2" d="M285,-180C285,-180 218,-180 218,-180 212,-180 206,-174 206,-168 206,-168 206,-156 206,-156 206,-150 212,-144 218,-144 218,-144 285,-144 285,-144 291,-144 297,-150 297,-156 297,-156 297,-168 297,-168 297,-174 291,-180 285,-180"/>
<text text-anchor="middle" x="251.5" y="-159.5" font-family="sans" font-size="10.00">samtools_stats</text>
</g>
<!-- 9&#45;&gt;10 -->
<g id="edge20" class="edge">
<title>9&#45;&gt;10</title>
<path fill="none" stroke="grey" stroke-width="2" d="M200.31,-215.7C208.63,-207.14 218.81,-196.66 227.89,-187.3"/>
<polygon fill="grey" stroke="grey" stroke-width="2" points="230.43,-189.72 234.88,-180.1 225.41,-184.84 230.43,-189.72"/>
</g>
<!-- 10&#45;&gt;2 -->
<g id="edge10" class="edge">
<title>10&#45;&gt;2</title>
<path fill="none" stroke="grey" stroke-width="2" d="M263.86,-143.7C269.73,-135.47 276.87,-125.48 283.34,-116.42"/>
<polygon fill="grey" stroke="grey" stroke-width="2" points="286.32,-118.28 289.28,-108.1 280.62,-114.21 286.32,-118.28"/>
</g>
<!-- 11 -->
<g id="node12" class="node">
<title>11</title>
<path fill="none" stroke="#569ad8" stroke-width="2" d="M129,-612C129,-612 76,-612 76,-612 70,-612 64,-606 64,-600 64,-600 64,-588 64,-588 64,-582 70,-576 76,-576 76,-576 129,-576 129,-576 135,-576 141,-582 141,-588 141,-588 141,-600 141,-600 141,-606 135,-612 129,-612"/>
<text text-anchor="middle" x="102.5" y="-591.5" font-family="sans" font-size="10.00">get_genome</text>
</g>
<!-- 11&#45;&gt;5 -->
<g id="edge13" class="edge">
<title>11&#45;&gt;5</title>
<path fill="none" stroke="grey" stroke-width="2" d="M78.35,-575.87C67.27,-566.6 55.13,-554.16 48.5,-540 16.45,-471.58 20.97,-379.47 25.81,-334.29"/>
<polygon fill="grey" stroke="grey" stroke-width="2" points="29.32,-334.45 27,-324.11 22.37,-333.64 29.32,-334.45"/>
</g>
<!-- 12 -->
<g id="node13" class="node">
<title>12</title>
<path fill="none" stroke="#d88d56" stroke-width="2" d="M197.5,-468C197.5,-468 153.5,-468 153.5,-468 147.5,-468 141.5,-462 141.5,-456 141.5,-456 141.5,-444 141.5,-444 141.5,-438 147.5,-432 153.5,-432 153.5,-432 197.5,-432 197.5,-432 203.5,-432 209.5,-438 209.5,-444 209.5,-444 209.5,-456 209.5,-456 209.5,-462 203.5,-468 197.5,-468"/>
<text text-anchor="middle" x="175.5" y="-447.5" font-family="sans" font-size="10.00">star_index</text>
</g>
<!-- 11&#45;&gt;12 -->
<g id="edge21" class="edge">
<title>11&#45;&gt;12</title>
<path fill="none" stroke="grey" stroke-width="2" d="M125.33,-575.95C136.36,-566.53 148.84,-553.93 156.5,-540 167,-520.9 171.7,-496.55 173.8,-478.14"/>
<polygon fill="grey" stroke="grey" stroke-width="2" points="177.3,-478.37 174.76,-468.08 170.33,-477.7 177.3,-478.37"/>
</g>
<!-- 15 -->
<g id="node16" class="node">
<title>15</title>
<path fill="none" stroke="#5663d8" stroke-width="2" d="M135.5,-540C135.5,-540 69.5,-540 69.5,-540 63.5,-540 57.5,-534 57.5,-528 57.5,-528 57.5,-516 57.5,-516 57.5,-510 63.5,-504 69.5,-504 69.5,-504 135.5,-504 135.5,-504 141.5,-504 147.5,-510 147.5,-516 147.5,-516 147.5,-528 147.5,-528 147.5,-534 141.5,-540 135.5,-540"/>
<text text-anchor="middle" x="102.5" y="-519.5" font-family="sans" font-size="10.00">get_annotation</text>
</g>
<!-- 11&#45;&gt;15 -->
<g id="edge25" class="edge">
<title>11&#45;&gt;15</title>
<path fill="none" stroke="grey" stroke-width="2" d="M102.5,-575.7C102.5,-567.98 102.5,-558.71 102.5,-550.11"/>
<polygon fill="grey" stroke="grey" stroke-width="2" points="106,-550.1 102.5,-540.1 99,-550.1 106,-550.1"/>
</g>
<!-- 12&#45;&gt;6 -->
<g id="edge15" class="edge">
<title>12&#45;&gt;6</title>
<path fill="none" stroke="grey" stroke-width="2" d="M176.49,-431.7C176.93,-423.98 177.46,-414.71 177.95,-406.11"/>
<polygon fill="grey" stroke="grey" stroke-width="2" points="181.45,-406.29 178.52,-396.1 174.46,-405.89 181.45,-406.29"/>
</g>
<!-- 13 -->
<g id="node14" class="node">
<title>13</title>
<path fill="none" stroke="#97d856" stroke-width="2" d="M380.5,-540C380.5,-540 324.5,-540 324.5,-540 318.5,-540 312.5,-534 312.5,-528 312.5,-528 312.5,-516 312.5,-516 312.5,-510 318.5,-504 324.5,-504 324.5,-504 380.5,-504 380.5,-504 386.5,-504 392.5,-510 392.5,-516 392.5,-516 392.5,-528 392.5,-528 392.5,-534 386.5,-540 380.5,-540"/>
<text text-anchor="middle" x="352.5" y="-519.5" font-family="sans" font-size="10.00">sra2fastq_SE</text>
</g>
<!-- 13&#45;&gt;7 -->
<g id="edge17" class="edge">
<title>13&#45;&gt;7</title>
<path fill="none" stroke="grey" stroke-width="2" d="M359.47,-503.6C363.29,-493.39 367.79,-480.14 370.5,-468 375.04,-447.64 377.57,-424.18 378.95,-406.46"/>
<polygon fill="grey" stroke="grey" stroke-width="2" points="382.46,-406.46 379.67,-396.24 375.47,-405.97 382.46,-406.46"/>
</g>
<!-- 13&#45;&gt;8 -->
<g id="edge18" class="edge">
<title>13&#45;&gt;8</title>
<path fill="none" stroke="grey" stroke-width="2" d="M343.6,-503.7C339.5,-495.73 334.55,-486.1 330.01,-477.26"/>
<polygon fill="grey" stroke="grey" stroke-width="2" points="332.98,-475.4 325.3,-468.1 326.76,-478.6 332.98,-475.4"/>
</g>
<!-- 14&#45;&gt;9 -->
<g id="edge19" class="edge">
<title>14&#45;&gt;9</title>
<path fill="none" stroke="grey" stroke-width="2" d="M181.24,-287.7C181.57,-279.98 181.97,-270.71 182.34,-262.11"/>
<polygon fill="grey" stroke="grey" stroke-width="2" points="185.84,-262.25 182.77,-252.1 178.84,-261.95 185.84,-262.25"/>
</g>
<!-- 15&#45;&gt;12 -->
<g id="edge22" class="edge">
<title>15&#45;&gt;12</title>
<path fill="none" stroke="grey" stroke-width="2" d="M120.54,-503.7C129.56,-495.05 140.62,-484.45 150.44,-475.03"/>
<polygon fill="grey" stroke="grey" stroke-width="2" points="152.87,-477.55 157.66,-468.1 148.02,-472.5 152.87,-477.55"/>
</g>
<!-- 16 -->
<g id="node17" class="node">
<title>16</title>
<path fill="none" stroke="#56d88a" stroke-width="2" d="M367.5,-612C367.5,-612 337.5,-612 337.5,-612 331.5,-612 325.5,-606 325.5,-600 325.5,-600 325.5,-588 325.5,-588 325.5,-582 331.5,-576 337.5,-576 337.5,-576 367.5,-576 367.5,-576 373.5,-576 379.5,-582 379.5,-588 379.5,-588 379.5,-600 379.5,-600 379.5,-606 373.5,-612 367.5,-612"/>
<text text-anchor="middle" x="352.5" y="-591.5" font-family="sans" font-size="10.00">id2sra</text>
</g>
<!-- 16&#45;&gt;13 -->
<g id="edge23" class="edge">
<title>16&#45;&gt;13</title>
<path fill="none" stroke="grey" stroke-width="2" d="M352.5,-575.7C352.5,-567.98 352.5,-558.71 352.5,-550.11"/>
<polygon fill="grey" stroke="grey" stroke-width="2" points="356,-550.1 352.5,-540.1 349,-550.1 356,-550.1"/>
</g>
</g>
</svg>
