<?xml version="1.0" encoding="UTF-8" standalone="no"?>
<!DOCTYPE svg PUBLIC "-//W3C//DTD SVG 1.1//EN"
 "http://www.w3.org/Graphics/SVG/1.1/DTD/svg11.dtd">
<!-- Generated by graphviz version 2.40.1 (20161225.0304)
 -->
<!-- Title: snakemake_dag Pages: 1 -->
<svg width="418pt" height="692pt"
 viewBox="0.00 0.00 418.00 692.00" xmlns="http://www.w3.org/2000/svg" xmlns:xlink="http://www.w3.org/1999/xlink">
<g id="graph0" class="graph" transform="scale(1 1) rotate(0) translate(4 688)">
<title>snakemake_dag</title>
<polygon fill="#ffffff" stroke="transparent" points="-4,4 -4,-688 414,-688 414,4 -4,4"/>
<!-- 0 -->
<g id="node1" class="node">
<title>0</title>
<path fill="none" stroke="#d8bc56" stroke-width="2" d="M175.5,-36C175.5,-36 138.5,-36 138.5,-36 132.5,-36 126.5,-30 126.5,-24 126.5,-24 126.5,-12 126.5,-12 126.5,-6 132.5,0 138.5,0 138.5,0 175.5,0 175.5,0 181.5,0 187.5,-6 187.5,-12 187.5,-12 187.5,-24 187.5,-24 187.5,-30 181.5,-36 175.5,-36"/>
<text text-anchor="middle" x="157" y="-15.5" font-family="sans" font-size="10.00" fill="#000000">count_all</text>
</g>
<!-- 1 -->
<g id="node2" class="node">
<title>1</title>
<path fill="none" stroke="#88d856" stroke-width="2" d="M95,-180C95,-180 33,-180 33,-180 27,-180 21,-174 21,-168 21,-168 21,-156 21,-156 21,-150 27,-144 33,-144 33,-144 95,-144 95,-144 101,-144 107,-150 107,-156 107,-156 107,-168 107,-168 107,-174 101,-180 95,-180"/>
<text text-anchor="middle" x="64" y="-159.5" font-family="sans" font-size="10.00" fill="#000000">counts_matrix</text>
</g>
<!-- 1&#45;&gt;0 -->
<g id="edge1" class="edge">
<title>1&#45;&gt;0</title>
<path fill="none" stroke="#c0c0c0" stroke-width="2" d="M58.969,-143.7359C54.7675,-124.5239 51.2928,-94.0723 64,-72 75.4475,-52.1158 97.3353,-38.8783 117.002,-30.4883"/>
<polygon fill="#c0c0c0" stroke="#c0c0c0" stroke-width="2" points="118.418,-33.692 126.4226,-26.751 115.8367,-27.1853 118.418,-33.692"/>
</g>
<!-- 3 -->
<g id="node4" class="node">
<title>3</title>
<path fill="none" stroke="#ced856" stroke-width="2" d="M155,-108C155,-108 85,-108 85,-108 79,-108 73,-102 73,-96 73,-96 73,-84 73,-84 73,-78 79,-72 85,-72 85,-72 155,-72 155,-72 161,-72 167,-78 167,-84 167,-84 167,-96 167,-96 167,-102 161,-108 155,-108"/>
<text text-anchor="middle" x="120" y="-87.5" font-family="sans" font-size="10.00" fill="#000000">blind_clustering</text>
</g>
<!-- 1&#45;&gt;3 -->
<g id="edge10" class="edge">
<title>1&#45;&gt;3</title>
<path fill="none" stroke="#c0c0c0" stroke-width="2" d="M78.1312,-143.8314C84.5811,-135.5386 92.3445,-125.557 99.4252,-116.4533"/>
<polygon fill="#c0c0c0" stroke="#c0c0c0" stroke-width="2" points="102.3019,-118.4556 105.6786,-108.4133 96.7764,-114.158 102.3019,-118.4556"/>
</g>
<!-- 2 -->
<g id="node3" class="node">
<title>2</title>
<path fill="none" stroke="#56d89a" stroke-width="2" d="M191,-180C191,-180 161,-180 161,-180 155,-180 149,-174 149,-168 149,-168 149,-156 149,-156 149,-150 155,-144 161,-144 161,-144 191,-144 191,-144 197,-144 203,-150 203,-156 203,-156 203,-168 203,-168 203,-174 197,-180 191,-180"/>
<text text-anchor="middle" x="176" y="-159.5" font-family="sans" font-size="10.00" fill="#000000">multiqc</text>
</g>
<!-- 2&#45;&gt;0 -->
<g id="edge3" class="edge">
<title>2&#45;&gt;0</title>
<path fill="none" stroke="#c0c0c0" stroke-width="2" d="M177.7756,-143.9198C179.1567,-125.6386 180.2089,-96.6432 176,-72 174.5012,-63.2245 171.7249,-53.9785 168.7487,-45.6659"/>
<polygon fill="#c0c0c0" stroke="#c0c0c0" stroke-width="2" points="171.9273,-44.1782 165.0917,-36.0835 165.3874,-46.6742 171.9273,-44.1782"/>
</g>
<!-- 3&#45;&gt;0 -->
<g id="edge2" class="edge">
<title>3&#45;&gt;0</title>
<path fill="none" stroke="#c0c0c0" stroke-width="2" d="M129.3367,-71.8314C133.4243,-63.8771 138.3104,-54.369 142.8309,-45.5723"/>
<polygon fill="#c0c0c0" stroke="#c0c0c0" stroke-width="2" points="146.0799,-46.9074 147.5376,-36.4133 139.8539,-43.7078 146.0799,-46.9074"/>
</g>
<!-- 4 -->
<g id="node5" class="node">
<title>4</title>
<path fill="none" stroke="#d87556" stroke-width="2" d="M288.5,-108C288.5,-108 253.5,-108 253.5,-108 247.5,-108 241.5,-102 241.5,-96 241.5,-96 241.5,-84 241.5,-84 241.5,-78 247.5,-72 253.5,-72 253.5,-72 288.5,-72 288.5,-72 294.5,-72 300.5,-78 300.5,-84 300.5,-84 300.5,-96 300.5,-96 300.5,-102 294.5,-108 288.5,-108"/>
<text text-anchor="middle" x="271" y="-87.5" font-family="sans" font-size="10.00" fill="#000000">trackhub</text>
</g>
<!-- 4&#45;&gt;0 -->
<g id="edge4" class="edge">
<title>4&#45;&gt;0</title>
<path fill="none" stroke="#c0c0c0" stroke-width="2" d="M242.233,-71.8314C227.7867,-62.7074 210.1035,-51.539 194.596,-41.7449"/>
<polygon fill="#c0c0c0" stroke="#c0c0c0" stroke-width="2" points="196.0817,-38.5436 185.7578,-36.1628 192.3437,-44.462 196.0817,-38.5436"/>
</g>
<!-- 5 -->
<g id="node6" class="node">
<title>5</title>
<path fill="none" stroke="#56d8a9" stroke-width="2" d="M202,-468C202,-468 158,-468 158,-468 152,-468 146,-462 146,-456 146,-456 146,-444 146,-444 146,-438 152,-432 158,-432 158,-432 202,-432 202,-432 208,-432 214,-438 214,-444 214,-444 214,-456 214,-456 214,-462 208,-468 202,-468"/>
<text text-anchor="middle" x="180" y="-447.5" font-family="sans" font-size="10.00" fill="#000000">star_quant</text>
</g>
<!-- 5&#45;&gt;1 -->
<g id="edge5" class="edge">
<title>5&#45;&gt;1</title>
<path fill="none" stroke="#c0c0c0" stroke-width="2" d="M172.7437,-431.9843C153.0509,-383.0919 98.5094,-247.6785 75.0079,-189.33"/>
<polygon fill="#c0c0c0" stroke="#c0c0c0" stroke-width="2" points="78.2363,-187.9771 71.2536,-180.0089 71.7432,-190.5924 78.2363,-187.9771"/>
</g>
<!-- 13 -->
<g id="node14" class="node">
<title>13</title>
<path fill="none" stroke="#56d8d0" stroke-width="2" d="M261,-396C261,-396 199,-396 199,-396 193,-396 187,-390 187,-384 187,-384 187,-372 187,-372 187,-366 193,-360 199,-360 199,-360 261,-360 261,-360 267,-360 273,-366 273,-372 273,-372 273,-384 273,-384 273,-390 267,-396 261,-396"/>
<text text-anchor="middle" x="230" y="-375.5" font-family="sans" font-size="10.00" fill="#000000">samtools_sort</text>
</g>
<!-- 5&#45;&gt;13 -->
<g id="edge24" class="edge">
<title>5&#45;&gt;13</title>
<path fill="none" stroke="#c0c0c0" stroke-width="2" d="M192.6171,-431.8314C198.3172,-423.6232 205.1663,-413.7606 211.4359,-404.7323"/>
<polygon fill="#c0c0c0" stroke="#c0c0c0" stroke-width="2" points="214.3838,-406.6234 217.213,-396.4133 208.6342,-402.6306 214.3838,-406.6234"/>
</g>
<!-- 6 -->
<g id="node7" class="node">
<title>6</title>
<path fill="none" stroke="#568ad8" stroke-width="2" d="M42,-468C42,-468 12,-468 12,-468 6,-468 0,-462 0,-456 0,-456 0,-444 0,-444 0,-438 6,-432 12,-432 12,-432 42,-432 42,-432 48,-432 54,-438 54,-444 54,-444 54,-456 54,-456 54,-462 48,-468 42,-468"/>
<text text-anchor="middle" x="27" y="-447.5" font-family="sans" font-size="10.00" fill="#000000">fastqc</text>
</g>
<!-- 6&#45;&gt;2 -->
<g id="edge8" class="edge">
<title>6&#45;&gt;2</title>
<path fill="none" stroke="#c0c0c0" stroke-width="2" d="M27.269,-431.9408C28.7638,-389.9125 37.6358,-283.9689 88,-216 100.9953,-198.4623 121.5391,-185.3906 139.5097,-176.5044"/>
<polygon fill="#c0c0c0" stroke="#c0c0c0" stroke-width="2" points="141.0479,-179.649 148.619,-172.2376 138.0786,-173.3099 141.0479,-179.649"/>
</g>
<!-- 7 -->
<g id="node8" class="node">
<title>7</title>
<path fill="none" stroke="#9fd856" stroke-width="2" d="M133,-540C133,-540 67,-540 67,-540 61,-540 55,-534 55,-528 55,-528 55,-516 55,-516 55,-510 61,-504 67,-504 67,-504 133,-504 133,-504 139,-504 145,-510 145,-516 145,-516 145,-528 145,-528 145,-534 139,-540 133,-540"/>
<text text-anchor="middle" x="100" y="-519.5" font-family="sans" font-size="10.00" fill="#000000">trim_galore_SE</text>
</g>
<!-- 7&#45;&gt;2 -->
<g id="edge9" class="edge">
<title>7&#45;&gt;2</title>
<path fill="none" stroke="#c0c0c0" stroke-width="2" d="M96.9462,-503.6637C89.62,-454.398 74.8946,-316.1218 121,-216 126.0217,-205.0949 134.279,-195.2009 142.887,-186.9488"/>
<polygon fill="#c0c0c0" stroke="#c0c0c0" stroke-width="2" points="145.3706,-189.4226 150.4695,-180.1354 140.6919,-184.2158 145.3706,-189.4226"/>
</g>
<!-- 7&#45;&gt;5 -->
<g id="edge13" class="edge">
<title>7&#45;&gt;5</title>
<path fill="none" stroke="#c0c0c0" stroke-width="2" d="M120.1874,-503.8314C129.8514,-495.1337 141.5796,-484.5783 152.0816,-475.1265"/>
<polygon fill="#c0c0c0" stroke="#c0c0c0" stroke-width="2" points="154.7275,-477.454 159.8191,-468.1628 150.0447,-472.251 154.7275,-477.454"/>
</g>
<!-- 7&#45;&gt;6 -->
<g id="edge15" class="edge">
<title>7&#45;&gt;6</title>
<path fill="none" stroke="#c0c0c0" stroke-width="2" d="M81.579,-503.8314C72.8471,-495.219 62.2683,-484.7851 52.7577,-475.4048"/>
<polygon fill="#c0c0c0" stroke="#c0c0c0" stroke-width="2" points="54.9925,-472.6931 45.4151,-468.1628 50.077,-477.6769 54.9925,-472.6931"/>
</g>
<!-- 8 -->
<g id="node9" class="node">
<title>8</title>
<path fill="none" stroke="#566bd8" stroke-width="2" d="M287,-324C287,-324 213,-324 213,-324 207,-324 201,-318 201,-312 201,-312 201,-300 201,-300 201,-294 207,-288 213,-288 213,-288 287,-288 287,-288 293,-288 299,-294 299,-300 299,-300 299,-312 299,-312 299,-318 293,-324 287,-324"/>
<text text-anchor="middle" x="250" y="-303.5" font-family="sans" font-size="10.00" fill="#000000">mark_duplicates</text>
</g>
<!-- 8&#45;&gt;2 -->
<g id="edge7" class="edge">
<title>8&#45;&gt;2</title>
<path fill="none" stroke="#c0c0c0" stroke-width="2" d="M249.2249,-287.6845C247.7389,-268.7015 243.4328,-238.6871 231,-216 225.1308,-205.29 216.4561,-195.3531 207.7222,-186.9993"/>
<polygon fill="#c0c0c0" stroke="#c0c0c0" stroke-width="2" points="209.8591,-184.2123 200.1007,-180.086 205.156,-189.397 209.8591,-184.2123"/>
</g>
<!-- 9 -->
<g id="node10" class="node">
<title>9</title>
<path fill="none" stroke="#56d8c1" stroke-width="2" d="M209.5,-252C209.5,-252 142.5,-252 142.5,-252 136.5,-252 130.5,-246 130.5,-240 130.5,-240 130.5,-228 130.5,-228 130.5,-222 136.5,-216 142.5,-216 142.5,-216 209.5,-216 209.5,-216 215.5,-216 221.5,-222 221.5,-228 221.5,-228 221.5,-240 221.5,-240 221.5,-246 215.5,-252 209.5,-252"/>
<text text-anchor="middle" x="176" y="-231.5" font-family="sans" font-size="10.00" fill="#000000">samtools_stats</text>
</g>
<!-- 8&#45;&gt;9 -->
<g id="edge18" class="edge">
<title>8&#45;&gt;9</title>
<path fill="none" stroke="#c0c0c0" stroke-width="2" d="M231.3267,-287.8314C222.4751,-279.219 211.7514,-268.7851 202.1105,-259.4048"/>
<polygon fill="#c0c0c0" stroke="#c0c0c0" stroke-width="2" points="204.2754,-256.6279 194.6674,-252.1628 199.3939,-261.645 204.2754,-256.6279"/>
</g>
<!-- 10 -->
<g id="node11" class="node">
<title>10</title>
<path fill="none" stroke="#d88d56" stroke-width="2" d="M314,-180C314,-180 262,-180 262,-180 256,-180 250,-174 250,-168 250,-168 250,-156 250,-156 250,-150 256,-144 262,-144 262,-144 314,-144 314,-144 320,-144 326,-150 326,-156 326,-156 326,-168 326,-168 326,-174 320,-180 314,-180"/>
<text text-anchor="middle" x="288" y="-159.5" font-family="sans" font-size="10.00" fill="#000000">bam_bigwig</text>
</g>
<!-- 8&#45;&gt;10 -->
<g id="edge19" class="edge">
<title>8&#45;&gt;10</title>
<path fill="none" stroke="#c0c0c0" stroke-width="2" d="M254.8127,-287.7623C261.3227,-263.0928 272.9953,-218.8598 280.6182,-189.9731"/>
<polygon fill="#c0c0c0" stroke="#c0c0c0" stroke-width="2" points="284.0589,-190.6517 283.2264,-180.0896 277.2906,-188.8656 284.0589,-190.6517"/>
</g>
<!-- 14 -->
<g id="node15" class="node">
<title>14</title>
<path fill="none" stroke="#d89c56" stroke-width="2" d="M398,-252C398,-252 328,-252 328,-252 322,-252 316,-246 316,-240 316,-240 316,-228 316,-228 316,-222 322,-216 328,-216 328,-216 398,-216 398,-216 404,-216 410,-222 410,-228 410,-228 410,-240 410,-240 410,-246 404,-252 398,-252"/>
<text text-anchor="middle" x="363" y="-231.5" font-family="sans" font-size="10.00" fill="#000000">samtools_index</text>
</g>
<!-- 8&#45;&gt;14 -->
<g id="edge25" class="edge">
<title>8&#45;&gt;14</title>
<path fill="none" stroke="#c0c0c0" stroke-width="2" d="M278.5147,-287.8314C292.8342,-278.7074 310.3624,-267.539 325.7338,-257.7449"/>
<polygon fill="#c0c0c0" stroke="#c0c0c0" stroke-width="2" points="327.9417,-260.4882 334.4945,-252.1628 324.1801,-254.5847 327.9417,-260.4882"/>
</g>
<!-- 9&#45;&gt;2 -->
<g id="edge6" class="edge">
<title>9&#45;&gt;2</title>
<path fill="none" stroke="#c0c0c0" stroke-width="2" d="M176,-215.8314C176,-208.131 176,-198.9743 176,-190.4166"/>
<polygon fill="#c0c0c0" stroke="#c0c0c0" stroke-width="2" points="179.5001,-190.4132 176,-180.4133 172.5001,-190.4133 179.5001,-190.4132"/>
</g>
<!-- 10&#45;&gt;4 -->
<g id="edge11" class="edge">
<title>10&#45;&gt;4</title>
<path fill="none" stroke="#c0c0c0" stroke-width="2" d="M283.7102,-143.8314C281.892,-136.131 279.7301,-126.9743 277.7095,-118.4166"/>
<polygon fill="#c0c0c0" stroke="#c0c0c0" stroke-width="2" points="281.0519,-117.3414 275.3476,-108.4133 274.2392,-118.95 281.0519,-117.3414"/>
</g>
<!-- 11 -->
<g id="node12" class="node">
<title>11</title>
<path fill="none" stroke="#78d856" stroke-width="2" d="M219,-540C219,-540 175,-540 175,-540 169,-540 163,-534 163,-528 163,-528 163,-516 163,-516 163,-510 169,-504 175,-504 175,-504 219,-504 219,-504 225,-504 231,-510 231,-516 231,-516 231,-528 231,-528 231,-534 225,-540 219,-540"/>
<text text-anchor="middle" x="197" y="-519.5" font-family="sans" font-size="10.00" fill="#000000">star_index</text>
</g>
<!-- 11&#45;&gt;5 -->
<g id="edge12" class="edge">
<title>11&#45;&gt;5</title>
<path fill="none" stroke="#c0c0c0" stroke-width="2" d="M192.7102,-503.8314C190.892,-496.131 188.7301,-486.9743 186.7095,-478.4166"/>
<polygon fill="#c0c0c0" stroke="#c0c0c0" stroke-width="2" points="190.0519,-477.3414 184.3476,-468.4133 183.2392,-478.95 190.0519,-477.3414"/>
</g>
<!-- 12 -->
<g id="node13" class="node">
<title>12</title>
<path fill="none" stroke="#56a9d8" stroke-width="2" d="M88,-612C88,-612 32,-612 32,-612 26,-612 20,-606 20,-600 20,-600 20,-588 20,-588 20,-582 26,-576 32,-576 32,-576 88,-576 88,-576 94,-576 100,-582 100,-588 100,-588 100,-600 100,-600 100,-606 94,-612 88,-612"/>
<text text-anchor="middle" x="60" y="-591.5" font-family="sans" font-size="10.00" fill="#000000">sra2fastq_SE</text>
</g>
<!-- 12&#45;&gt;6 -->
<g id="edge14" class="edge">
<title>12&#45;&gt;6</title>
<path fill="none" stroke="#c0c0c0" stroke-width="2" d="M54.9961,-575.5573C52.2274,-565.1463 48.7923,-551.8793 46,-540 41.1659,-519.4341 36.254,-496.0893 32.6358,-478.3299"/>
<polygon fill="#c0c0c0" stroke="#c0c0c0" stroke-width="2" points="36.0256,-477.4342 30.6139,-468.3258 29.1643,-478.821 36.0256,-477.4342"/>
</g>
<!-- 12&#45;&gt;7 -->
<g id="edge16" class="edge">
<title>12&#45;&gt;7</title>
<path fill="none" stroke="#c0c0c0" stroke-width="2" d="M70.0937,-575.8314C74.5597,-567.7925 79.9075,-558.1666 84.8379,-549.2918"/>
<polygon fill="#c0c0c0" stroke="#c0c0c0" stroke-width="2" points="87.9735,-550.8546 89.7704,-540.4133 81.8544,-547.4551 87.9735,-550.8546"/>
</g>
<!-- 13&#45;&gt;8 -->
<g id="edge17" class="edge">
<title>13&#45;&gt;8</title>
<path fill="none" stroke="#c0c0c0" stroke-width="2" d="M235.0468,-359.8314C237.2094,-352.0463 239.7853,-342.7729 242.1848,-334.1347"/>
<polygon fill="#c0c0c0" stroke="#c0c0c0" stroke-width="2" points="245.581,-334.9852 244.8852,-324.4133 238.8364,-333.1117 245.581,-334.9852"/>
</g>
<!-- 14&#45;&gt;10 -->
<g id="edge20" class="edge">
<title>14&#45;&gt;10</title>
<path fill="none" stroke="#c0c0c0" stroke-width="2" d="M344.0743,-215.8314C335.0143,-207.1337 324.0191,-196.5783 314.1735,-187.1265"/>
<polygon fill="#c0c0c0" stroke="#c0c0c0" stroke-width="2" points="316.5574,-184.5633 306.9196,-180.1628 311.7096,-189.613 316.5574,-184.5633"/>
</g>
<!-- 15 -->
<g id="node16" class="node">
<title>15</title>
<path fill="none" stroke="#68d856" stroke-width="2" d="M242.5,-684C242.5,-684 189.5,-684 189.5,-684 183.5,-684 177.5,-678 177.5,-672 177.5,-672 177.5,-660 177.5,-660 177.5,-654 183.5,-648 189.5,-648 189.5,-648 242.5,-648 242.5,-648 248.5,-648 254.5,-654 254.5,-660 254.5,-660 254.5,-672 254.5,-672 254.5,-678 248.5,-684 242.5,-684"/>
<text text-anchor="middle" x="216" y="-663.5" font-family="sans" font-size="10.00" fill="#000000">get_genome</text>
</g>
<!-- 15&#45;&gt;11 -->
<g id="edge22" class="edge">
<title>15&#45;&gt;11</title>
<path fill="none" stroke="#c0c0c0" stroke-width="2" d="M224.8775,-647.7977C232.626,-629.4215 241.543,-600.3537 234,-576 230.9555,-566.1704 225.4359,-556.5387 219.5729,-548.1946"/>
<polygon fill="#c0c0c0" stroke="#c0c0c0" stroke-width="2" points="222.2314,-545.9061 213.4281,-540.011 216.6337,-550.1092 222.2314,-545.9061"/>
</g>
<!-- 16 -->
<g id="node17" class="node">
<title>16</title>
<path fill="none" stroke="#afd856" stroke-width="2" d="M213,-612C213,-612 147,-612 147,-612 141,-612 135,-606 135,-600 135,-600 135,-588 135,-588 135,-582 141,-576 147,-576 147,-576 213,-576 213,-576 219,-576 225,-582 225,-588 225,-588 225,-600 225,-600 225,-606 219,-612 213,-612"/>
<text text-anchor="middle" x="180" y="-591.5" font-family="sans" font-size="10.00" fill="#000000">get_annotation</text>
</g>
<!-- 15&#45;&gt;16 -->
<g id="edge26" class="edge">
<title>15&#45;&gt;16</title>
<path fill="none" stroke="#c0c0c0" stroke-width="2" d="M206.9157,-647.8314C202.9385,-639.8771 198.1845,-630.369 193.7861,-621.5723"/>
<polygon fill="#c0c0c0" stroke="#c0c0c0" stroke-width="2" points="196.8093,-619.7923 189.2066,-612.4133 190.5483,-622.9228 196.8093,-619.7923"/>
</g>
<!-- 16&#45;&gt;11 -->
<g id="edge21" class="edge">
<title>16&#45;&gt;11</title>
<path fill="none" stroke="#c0c0c0" stroke-width="2" d="M184.2898,-575.8314C186.108,-568.131 188.2699,-558.9743 190.2905,-550.4166"/>
<polygon fill="#c0c0c0" stroke="#c0c0c0" stroke-width="2" points="193.7608,-550.95 192.6524,-540.4133 186.9481,-549.3414 193.7608,-550.95"/>
</g>
<!-- 17 -->
<g id="node18" class="node">
<title>17</title>
<path fill="none" stroke="#59d856" stroke-width="2" d="M75,-684C75,-684 45,-684 45,-684 39,-684 33,-678 33,-672 33,-672 33,-660 33,-660 33,-654 39,-648 45,-648 45,-648 75,-648 75,-648 81,-648 87,-654 87,-660 87,-660 87,-672 87,-672 87,-678 81,-684 75,-684"/>
<text text-anchor="middle" x="60" y="-663.5" font-family="sans" font-size="10.00" fill="#000000">id2sra</text>
</g>
<!-- 17&#45;&gt;12 -->
<g id="edge23" class="edge">
<title>17&#45;&gt;12</title>
<path fill="none" stroke="#c0c0c0" stroke-width="2" d="M60,-647.8314C60,-640.131 60,-630.9743 60,-622.4166"/>
<polygon fill="#c0c0c0" stroke="#c0c0c0" stroke-width="2" points="63.5001,-622.4132 60,-612.4133 56.5001,-622.4133 63.5001,-622.4132"/>
</g>
</g>
</svg>
