<?xml version="1.0" encoding="UTF-8" standalone="no"?>
<!DOCTYPE svg PUBLIC "-//W3C//DTD SVG 1.1//EN"
 "http://www.w3.org/Graphics/SVG/1.1/DTD/svg11.dtd">
<!-- Generated by graphviz version 2.38.0 (20140413.2041)
 -->
<!-- Title: snakemake_dag Pages: 1 -->
<svg width="704pt" height="620pt"
 viewBox="0.00 0.00 703.50 620.00" xmlns="http://www.w3.org/2000/svg" xmlns:xlink="http://www.w3.org/1999/xlink">
<g id="graph0" class="graph" transform="scale(1 1) rotate(0) translate(4 616)">
<title>snakemake_dag</title>
<polygon fill="white" stroke="none" points="-4,4 -4,-616 699.5,-616 699.5,4 -4,4"/>
<!-- 0 -->
<g id="node1" class="node"><title>0</title>
<path fill="none" stroke="#d89c56" stroke-width="2" d="M316.5,-36C316.5,-36 258.5,-36 258.5,-36 252.5,-36 246.5,-30 246.5,-24 246.5,-24 246.5,-12 246.5,-12 246.5,-6 252.5,-0 258.5,-0 258.5,-0 316.5,-0 316.5,-0 322.5,-0 328.5,-6 328.5,-12 328.5,-12 328.5,-24 328.5,-24 328.5,-30 322.5,-36 316.5,-36"/>
<text text-anchor="middle" x="287.5" y="-15.5" font-family="sans" font-size="10.00">snapATAC_all</text>
</g>
<!-- 1 -->
<g id="node2" class="node"><title>1</title>
<path fill="none" stroke="#b6d856" stroke-width="2" stroke-dasharray="5,2" d="M230.5,-108C230.5,-108 144.5,-108 144.5,-108 138.5,-108 132.5,-102 132.5,-96 132.5,-96 132.5,-84 132.5,-84 132.5,-78 138.5,-72 144.5,-72 144.5,-72 230.5,-72 230.5,-72 236.5,-72 242.5,-78 242.5,-84 242.5,-84 242.5,-96 242.5,-96 242.5,-102 236.5,-108 230.5,-108"/>
<text text-anchor="middle" x="187.5" y="-87.5" font-family="sans" font-size="10.00">annotation_scATAC</text>
</g>
<!-- 1&#45;&gt;0 -->
<g id="edge1" class="edge"><title>1&#45;&gt;0</title>
<path fill="none" stroke="grey" stroke-width="2" d="M211.963,-71.8761C224.796,-62.8931 240.696,-51.7625 254.594,-42.0341"/>
<polygon fill="grey" stroke="grey" stroke-width="2" points="256.758,-44.7917 262.943,-36.1898 252.744,-39.0571 256.758,-44.7917"/>
</g>
<!-- 2 -->
<g id="node3" class="node"><title>2</title>
<path fill="none" stroke="#d88556" stroke-width="2" stroke-dasharray="5,2" d="M578.5,-108C578.5,-108 462.5,-108 462.5,-108 456.5,-108 450.5,-102 450.5,-96 450.5,-96 450.5,-84 450.5,-84 450.5,-78 456.5,-72 462.5,-72 462.5,-72 578.5,-72 578.5,-72 584.5,-72 590.5,-78 590.5,-84 590.5,-84 590.5,-96 590.5,-96 590.5,-102 584.5,-108 578.5,-108"/>
<text text-anchor="middle" x="520.5" y="-87.5" font-family="sans" font-size="10.00">create_bins_SNAP_object</text>
</g>
<!-- 2&#45;&gt;0 -->
<g id="edge2" class="edge"><title>2&#45;&gt;0</title>
<path fill="none" stroke="grey" stroke-width="2" d="M463.8,-71.9656C425.467,-60.4493 375.283,-45.3727 338.264,-34.2509"/>
<polygon fill="grey" stroke="grey" stroke-width="2" points="339.257,-30.8948 328.673,-31.3695 337.243,-37.5988 339.257,-30.8948"/>
</g>
<!-- 3 -->
<g id="node4" class="node"><title>3</title>
<path fill="none" stroke="#56c9d8" stroke-width="2" d="M302.5,-108C302.5,-108 272.5,-108 272.5,-108 266.5,-108 260.5,-102 260.5,-96 260.5,-96 260.5,-84 260.5,-84 260.5,-78 266.5,-72 272.5,-72 272.5,-72 302.5,-72 302.5,-72 308.5,-72 314.5,-78 314.5,-84 314.5,-84 314.5,-96 314.5,-96 314.5,-102 308.5,-108 302.5,-108"/>
<text text-anchor="middle" x="287.5" y="-87.5" font-family="sans" font-size="10.00">multiqc</text>
</g>
<!-- 3&#45;&gt;0 -->
<g id="edge3" class="edge"><title>3&#45;&gt;0</title>
<path fill="none" stroke="grey" stroke-width="2" d="M287.5,-71.6966C287.5,-63.9827 287.5,-54.7125 287.5,-46.1124"/>
<polygon fill="grey" stroke="grey" stroke-width="2" points="291,-46.1043 287.5,-36.1043 284,-46.1044 291,-46.1043"/>
</g>
<!-- 4 -->
<g id="node5" class="node"><title>4</title>
<path fill="none" stroke="#d85656" stroke-width="2" stroke-dasharray="5,2" d="M683.5,-180C683.5,-180 593.5,-180 593.5,-180 587.5,-180 581.5,-174 581.5,-168 581.5,-168 581.5,-156 581.5,-156 581.5,-150 587.5,-144 593.5,-144 593.5,-144 683.5,-144 683.5,-144 689.5,-144 695.5,-150 695.5,-156 695.5,-156 695.5,-168 695.5,-168 695.5,-174 689.5,-180 683.5,-180"/>
<text text-anchor="middle" x="638.5" y="-159.5" font-family="sans" font-size="10.00">create_SNAP_object</text>
</g>
<!-- 4&#45;&gt;2 -->
<g id="edge4" class="edge"><title>4&#45;&gt;2</title>
<path fill="none" stroke="grey" stroke-width="2" d="M609.634,-143.876C594.205,-134.724 575.019,-123.342 558.403,-113.485"/>
<polygon fill="grey" stroke="grey" stroke-width="2" points="559.863,-110.282 549.477,-108.19 556.292,-116.302 559.863,-110.282"/>
</g>
<!-- 5 -->
<g id="node6" class="node"><title>5</title>
<path fill="none" stroke="#59d856" stroke-width="2" stroke-dasharray="5,2" d="M91,-324C91,-324 12,-324 12,-324 6,-324 0,-318 0,-312 0,-312 0,-300 0,-300 0,-294 6,-288 12,-288 12,-288 91,-288 91,-288 97,-288 103,-294 103,-300 103,-300 103,-312 103,-312 103,-318 97,-324 91,-324"/>
<text text-anchor="middle" x="51.5" y="-309" font-family="sans" font-size="10.00">fastqc</text>
<text text-anchor="middle" x="51.5" y="-298" font-family="sans" font-size="10.00">fname: plate1_R1</text>
</g>
<!-- 5&#45;&gt;3 -->
<g id="edge5" class="edge"><title>5&#45;&gt;3</title>
<path fill="none" stroke="grey" stroke-width="2" d="M51.7186,-287.968C52.6973,-269.035 56.5427,-238.205 70.5,-216 118.696,-139.323 162.745,-145.244 251.174,-107.963"/>
<polygon fill="grey" stroke="grey" stroke-width="2" points="252.648,-111.139 260.444,-103.964 249.875,-104.712 252.648,-111.139"/>
</g>
<!-- 6 -->
<g id="node7" class="node"><title>6</title>
<path fill="none" stroke="#59d856" stroke-width="2" stroke-dasharray="5,2" d="M171,-252C171,-252 92,-252 92,-252 86,-252 80,-246 80,-240 80,-240 80,-228 80,-228 80,-222 86,-216 92,-216 92,-216 171,-216 171,-216 177,-216 183,-222 183,-228 183,-228 183,-240 183,-240 183,-246 177,-252 171,-252"/>
<text text-anchor="middle" x="131.5" y="-237" font-family="sans" font-size="10.00">fastqc</text>
<text text-anchor="middle" x="131.5" y="-226" font-family="sans" font-size="10.00">fname: plate1_R2</text>
</g>
<!-- 6&#45;&gt;3 -->
<g id="edge6" class="edge"><title>6&#45;&gt;3</title>
<path fill="none" stroke="grey" stroke-width="2" d="M141.224,-215.998C152.805,-196.811 173.614,-165.482 197.5,-144 206.426,-135.973 230.194,-122.071 251.064,-110.519"/>
<polygon fill="grey" stroke="grey" stroke-width="2" points="252.998,-113.45 260.081,-105.572 249.631,-107.313 252.998,-113.45"/>
</g>
<!-- 7 -->
<g id="node8" class="node"><title>7</title>
<path fill="none" stroke="#59d856" stroke-width="2" stroke-dasharray="5,2" d="M345.5,-396C345.5,-396 219.5,-396 219.5,-396 213.5,-396 207.5,-390 207.5,-384 207.5,-384 207.5,-372 207.5,-372 207.5,-366 213.5,-360 219.5,-360 219.5,-360 345.5,-360 345.5,-360 351.5,-360 357.5,-366 357.5,-372 357.5,-372 357.5,-384 357.5,-384 357.5,-390 351.5,-396 345.5,-396"/>
<text text-anchor="middle" x="282.5" y="-381" font-family="sans" font-size="10.00">fastqc</text>
<text text-anchor="middle" x="282.5" y="-370" font-family="sans" font-size="10.00">fname: plate1_R1_trimmed</text>
</g>
<!-- 7&#45;&gt;3 -->
<g id="edge7" class="edge"><title>7&#45;&gt;3</title>
<path fill="none" stroke="grey" stroke-width="2" d="M278.846,-359.908C276.824,-349.569 274.519,-336.09 273.5,-324 266.78,-244.283 263.199,-223.334 273.5,-144 274.603,-135.506 276.661,-126.434 278.866,-118.24"/>
<polygon fill="grey" stroke="grey" stroke-width="2" points="282.284,-119.017 281.676,-108.44 275.555,-117.087 282.284,-119.017"/>
</g>
<!-- 8 -->
<g id="node9" class="node"><title>8</title>
<path fill="none" stroke="#59d856" stroke-width="2" stroke-dasharray="5,2" d="M513.5,-396C513.5,-396 387.5,-396 387.5,-396 381.5,-396 375.5,-390 375.5,-384 375.5,-384 375.5,-372 375.5,-372 375.5,-366 381.5,-360 387.5,-360 387.5,-360 513.5,-360 513.5,-360 519.5,-360 525.5,-366 525.5,-372 525.5,-372 525.5,-384 525.5,-384 525.5,-390 519.5,-396 513.5,-396"/>
<text text-anchor="middle" x="450.5" y="-381" font-family="sans" font-size="10.00">fastqc</text>
<text text-anchor="middle" x="450.5" y="-370" font-family="sans" font-size="10.00">fname: plate1_R2_trimmed</text>
</g>
<!-- 8&#45;&gt;3 -->
<g id="edge8" class="edge"><title>8&#45;&gt;3</title>
<path fill="none" stroke="grey" stroke-width="2" d="M416.372,-359.785C401.304,-350.804 384.359,-338.623 372.5,-324 321.42,-261.016 299.493,-164.602 291.47,-118.032"/>
<polygon fill="grey" stroke="grey" stroke-width="2" points="294.913,-117.398 289.841,-108.096 288.005,-118.53 294.913,-117.398"/>
</g>
<!-- 9 -->
<g id="node10" class="node"><title>9</title>
<path fill="none" stroke="#d86e56" stroke-width="2" stroke-dasharray="5,2" d="M315.5,-468C315.5,-468 249.5,-468 249.5,-468 243.5,-468 237.5,-462 237.5,-456 237.5,-456 237.5,-444 237.5,-444 237.5,-438 243.5,-432 249.5,-432 249.5,-432 315.5,-432 315.5,-432 321.5,-432 327.5,-438 327.5,-444 327.5,-444 327.5,-456 327.5,-456 327.5,-462 321.5,-468 315.5,-468"/>
<text text-anchor="middle" x="282.5" y="-447.5" font-family="sans" font-size="10.00">trim_galore_PE</text>
</g>
<!-- 9&#45;&gt;3 -->
<g id="edge9" class="edge"><title>9&#45;&gt;3</title>
<path fill="none" stroke="grey" stroke-width="2" d="M238.427,-431.983C222.945,-423.62 207.243,-411.855 198.5,-396 190.774,-381.989 196.103,-375.819 198.5,-360 212.467,-267.825 254.532,-164.698 275.437,-117.353"/>
<polygon fill="grey" stroke="grey" stroke-width="2" points="278.678,-118.678 279.559,-108.12 272.286,-115.824 278.678,-118.678"/>
</g>
<!-- 9&#45;&gt;7 -->
<g id="edge17" class="edge"><title>9&#45;&gt;7</title>
<path fill="none" stroke="grey" stroke-width="2" d="M282.5,-431.697C282.5,-423.983 282.5,-414.712 282.5,-406.112"/>
<polygon fill="grey" stroke="grey" stroke-width="2" points="286,-406.104 282.5,-396.104 279,-406.104 286,-406.104"/>
</g>
<!-- 9&#45;&gt;8 -->
<g id="edge18" class="edge"><title>9&#45;&gt;8</title>
<path fill="none" stroke="grey" stroke-width="2" d="M323.597,-431.876C346.666,-422.264 375.636,-410.193 400.07,-400.013"/>
<polygon fill="grey" stroke="grey" stroke-width="2" points="401.651,-403.145 409.536,-396.068 398.959,-396.684 401.651,-403.145"/>
</g>
<!-- 19 -->
<g id="node20" class="node"><title>19</title>
<path fill="none" stroke="#56d8b1" stroke-width="2" stroke-dasharray="5,2" d="M607.5,-396C607.5,-396 555.5,-396 555.5,-396 549.5,-396 543.5,-390 543.5,-384 543.5,-384 543.5,-372 543.5,-372 543.5,-366 549.5,-360 555.5,-360 555.5,-360 607.5,-360 607.5,-360 613.5,-360 619.5,-366 619.5,-372 619.5,-372 619.5,-384 619.5,-384 619.5,-390 613.5,-396 607.5,-396"/>
<text text-anchor="middle" x="581.5" y="-375.5" font-family="sans" font-size="10.00">hisat2_align</text>
</g>
<!-- 9&#45;&gt;19 -->
<g id="edge27" class="edge"><title>9&#45;&gt;19</title>
<path fill="none" stroke="grey" stroke-width="2" d="M327.572,-441.484C376.269,-432.93 456.222,-417.629 533.525,-396.075"/>
<polygon fill="grey" stroke="grey" stroke-width="2" points="534.756,-399.365 543.426,-393.276 532.851,-392.629 534.756,-399.365"/>
</g>
<!-- 10 -->
<g id="node11" class="node"><title>10</title>
<path fill="none" stroke="#70d856" stroke-width="2" stroke-dasharray="5,2" d="M465.5,-252C465.5,-252 391.5,-252 391.5,-252 385.5,-252 379.5,-246 379.5,-240 379.5,-240 379.5,-228 379.5,-228 379.5,-222 385.5,-216 391.5,-216 391.5,-216 465.5,-216 465.5,-216 471.5,-216 477.5,-222 477.5,-228 477.5,-228 477.5,-240 477.5,-240 477.5,-246 471.5,-252 465.5,-252"/>
<text text-anchor="middle" x="428.5" y="-237" font-family="sans" font-size="10.00">mark_duplicates</text>
<text text-anchor="middle" x="428.5" y="-226" font-family="sans" font-size="10.00">sorter: samtools</text>
</g>
<!-- 10&#45;&gt;3 -->
<g id="edge10" class="edge"><title>10&#45;&gt;3</title>
<path fill="none" stroke="grey" stroke-width="2" d="M394.173,-215.901C377.911,-206.72 358.936,-194.339 344.5,-180 326.013,-161.638 310.497,-136.261 300.344,-117.302"/>
<polygon fill="grey" stroke="grey" stroke-width="2" points="303.386,-115.566 295.669,-108.307 297.175,-118.794 303.386,-115.566"/>
</g>
<!-- 11 -->
<g id="node12" class="node"><title>11</title>
<path fill="none" stroke="#ced856" stroke-width="2" stroke-dasharray="5,2" d="M433,-180C433,-180 366,-180 366,-180 360,-180 354,-174 354,-168 354,-168 354,-156 354,-156 354,-150 360,-144 366,-144 366,-144 433,-144 433,-144 439,-144 445,-150 445,-156 445,-156 445,-168 445,-168 445,-174 439,-180 433,-180"/>
<text text-anchor="middle" x="399.5" y="-159.5" font-family="sans" font-size="10.00">samtools_stats</text>
</g>
<!-- 10&#45;&gt;11 -->
<g id="edge21" class="edge"><title>10&#45;&gt;11</title>
<path fill="none" stroke="grey" stroke-width="2" d="M421.331,-215.697C418.065,-207.813 414.126,-198.304 410.498,-189.546"/>
<polygon fill="grey" stroke="grey" stroke-width="2" points="413.647,-188.003 406.586,-180.104 407.18,-190.683 413.647,-188.003"/>
</g>
<!-- 12 -->
<g id="node13" class="node"><title>12</title>
<path fill="none" stroke="#5682d8" stroke-width="2" stroke-dasharray="5,2" d="M551.5,-180C551.5,-180 475.5,-180 475.5,-180 469.5,-180 463.5,-174 463.5,-168 463.5,-168 463.5,-156 463.5,-156 463.5,-150 469.5,-144 475.5,-144 475.5,-144 551.5,-144 551.5,-144 557.5,-144 563.5,-150 563.5,-156 563.5,-156 563.5,-168 563.5,-168 563.5,-174 557.5,-180 551.5,-180"/>
<text text-anchor="middle" x="513.5" y="-159.5" font-family="sans" font-size="10.00">InsertSizeMetrics</text>
</g>
<!-- 10&#45;&gt;12 -->
<g id="edge22" class="edge"><title>10&#45;&gt;12</title>
<path fill="none" stroke="grey" stroke-width="2" d="M449.511,-215.697C460.216,-206.881 473.39,-196.032 484.996,-186.474"/>
<polygon fill="grey" stroke="grey" stroke-width="2" points="487.236,-189.163 492.73,-180.104 482.786,-183.76 487.236,-189.163"/>
</g>
<!-- 11&#45;&gt;3 -->
<g id="edge11" class="edge"><title>11&#45;&gt;3</title>
<path fill="none" stroke="grey" stroke-width="2" d="M372.102,-143.876C357.348,-134.655 338.975,-123.172 323.123,-113.265"/>
<polygon fill="grey" stroke="grey" stroke-width="2" points="324.95,-110.279 314.615,-107.947 321.24,-116.215 324.95,-110.279"/>
</g>
<!-- 12&#45;&gt;3 -->
<g id="edge12" class="edge"><title>12&#45;&gt;3</title>
<path fill="none" stroke="grey" stroke-width="2" d="M463.343,-145.465C421.204,-132.413 361.969,-114.066 324.157,-102.354"/>
<polygon fill="grey" stroke="grey" stroke-width="2" points="325.149,-98.9971 314.561,-99.3817 323.078,-105.684 325.149,-98.9971"/>
</g>
<!-- 13 -->
<g id="node14" class="node"><title>13</title>
<path fill="none" stroke="#70d856" stroke-width="2" stroke-dasharray="5,2" d="M620.5,-252C620.5,-252 538.5,-252 538.5,-252 532.5,-252 526.5,-246 526.5,-240 526.5,-240 526.5,-228 526.5,-228 526.5,-222 532.5,-216 538.5,-216 538.5,-216 620.5,-216 620.5,-216 626.5,-216 632.5,-222 632.5,-228 632.5,-228 632.5,-240 632.5,-240 632.5,-246 626.5,-252 620.5,-252"/>
<text text-anchor="middle" x="579.5" y="-237" font-family="sans" font-size="10.00">mark_duplicates</text>
<text text-anchor="middle" x="579.5" y="-226" font-family="sans" font-size="10.00">sorter: sambamba</text>
</g>
<!-- 13&#45;&gt;4 -->
<g id="edge13" class="edge"><title>13&#45;&gt;4</title>
<path fill="none" stroke="grey" stroke-width="2" d="M594.084,-215.697C601.158,-207.305 609.783,-197.07 617.545,-187.861"/>
<polygon fill="grey" stroke="grey" stroke-width="2" points="620.315,-190.006 624.083,-180.104 614.963,-185.495 620.315,-190.006"/>
</g>
<!-- 14 -->
<g id="node15" class="node"><title>14</title>
<path fill="none" stroke="#56d882" stroke-width="2" stroke-dasharray="5,2" d="M658,-540C658,-540 589,-540 589,-540 583,-540 577,-534 577,-528 577,-528 577,-516 577,-516 577,-510 583,-504 589,-504 589,-504 658,-504 658,-504 664,-504 670,-510 670,-516 670,-516 670,-528 670,-528 670,-534 664,-540 658,-540"/>
<text text-anchor="middle" x="623.5" y="-525" font-family="sans" font-size="10.00">get_genome</text>
<text text-anchor="middle" x="623.5" y="-514" font-family="sans" font-size="10.00">assembly: hg38</text>
</g>
<!-- 14&#45;&gt;4 -->
<g id="edge14" class="edge"><title>14&#45;&gt;4</title>
<path fill="none" stroke="grey" stroke-width="2" d="M631.19,-503.907C642.294,-477.623 661.5,-425.447 661.5,-379 661.5,-379 661.5,-379 661.5,-305 661.5,-264.696 652.36,-218.776 645.603,-190.337"/>
<polygon fill="grey" stroke="grey" stroke-width="2" points="648.933,-189.222 643.154,-180.342 642.135,-190.888 648.933,-189.222"/>
</g>
<!-- 20 -->
<g id="node21" class="node"><title>20</title>
<path fill="none" stroke="#56d89a" stroke-width="2" stroke-dasharray="5,2" d="M613,-468C613,-468 558,-468 558,-468 552,-468 546,-462 546,-456 546,-456 546,-444 546,-444 546,-438 552,-432 558,-432 558,-432 613,-432 613,-432 619,-432 625,-438 625,-444 625,-444 625,-456 625,-456 625,-462 619,-468 613,-468"/>
<text text-anchor="middle" x="585.5" y="-447.5" font-family="sans" font-size="10.00">hisat2_index</text>
</g>
<!-- 14&#45;&gt;20 -->
<g id="edge29" class="edge"><title>14&#45;&gt;20</title>
<path fill="none" stroke="grey" stroke-width="2" d="M614.107,-503.697C609.735,-495.644 604.443,-485.894 599.605,-476.982"/>
<polygon fill="grey" stroke="grey" stroke-width="2" points="602.632,-475.223 594.785,-468.104 596.48,-478.563 602.632,-475.223"/>
</g>
<!-- 15 -->
<g id="node16" class="node"><title>15</title>
<path fill="none" stroke="#9fd856" stroke-width="2" stroke-dasharray="5,2" d="M236,-540C236,-540 27,-540 27,-540 21,-540 15,-534 15,-528 15,-528 15,-516 15,-516 15,-510 21,-504 27,-504 27,-504 236,-504 236,-504 242,-504 248,-510 248,-516 248,-516 248,-528 248,-528 248,-534 242,-540 236,-540"/>
<text text-anchor="middle" x="131.5" y="-519.5" font-family="sans" font-size="10.00">rmv_identical_readname_artefacts_fastq_ID</text>
</g>
<!-- 15&#45;&gt;5 -->
<g id="edge15" class="edge"><title>15&#45;&gt;5</title>
<path fill="none" stroke="grey" stroke-width="2" d="M125.088,-503.849C111.192,-466.675 78.2061,-378.439 61.5263,-333.82"/>
<polygon fill="grey" stroke="grey" stroke-width="2" points="64.7222,-332.374 57.942,-324.232 58.1653,-334.825 64.7222,-332.374"/>
</g>
<!-- 15&#45;&gt;6 -->
<g id="edge16" class="edge"><title>15&#45;&gt;6</title>
<path fill="none" stroke="grey" stroke-width="2" d="M131.5,-503.966C131.5,-456.291 131.5,-321.185 131.5,-262.63"/>
<polygon fill="grey" stroke="grey" stroke-width="2" points="135,-262.306 131.5,-252.306 128,-262.306 135,-262.306"/>
</g>
<!-- 15&#45;&gt;9 -->
<g id="edge19" class="edge"><title>15&#45;&gt;9</title>
<path fill="none" stroke="grey" stroke-width="2" d="M168.439,-503.876C188.99,-494.349 214.751,-482.407 236.589,-472.283"/>
<polygon fill="grey" stroke="grey" stroke-width="2" points="238.081,-475.45 245.681,-468.068 235.137,-469.099 238.081,-475.45"/>
</g>
<!-- 16 -->
<g id="node17" class="node"><title>16</title>
<path fill="none" stroke="#d8cb56" stroke-width="2" stroke-dasharray="5,2" d="M477.5,-324C477.5,-324 393.5,-324 393.5,-324 387.5,-324 381.5,-318 381.5,-312 381.5,-312 381.5,-300 381.5,-300 381.5,-294 387.5,-288 393.5,-288 393.5,-288 477.5,-288 477.5,-288 483.5,-288 489.5,-294 489.5,-300 489.5,-300 489.5,-312 489.5,-312 489.5,-318 483.5,-324 477.5,-324"/>
<text text-anchor="middle" x="435.5" y="-309" font-family="sans" font-size="10.00">samtools_sort</text>
<text text-anchor="middle" x="435.5" y="-298" font-family="sans" font-size="10.00">sorting: coordinate</text>
</g>
<!-- 16&#45;&gt;10 -->
<g id="edge20" class="edge"><title>16&#45;&gt;10</title>
<path fill="none" stroke="grey" stroke-width="2" d="M433.77,-287.697C432.998,-279.983 432.071,-270.712 431.211,-262.112"/>
<polygon fill="grey" stroke="grey" stroke-width="2" points="434.688,-261.706 430.21,-252.104 427.723,-262.403 434.688,-261.706"/>
</g>
<!-- 17 -->
<g id="node18" class="node"><title>17</title>
<path fill="none" stroke="#88d856" stroke-width="2" stroke-dasharray="5,2" d="M621.5,-324C621.5,-324 533.5,-324 533.5,-324 527.5,-324 521.5,-318 521.5,-312 521.5,-312 521.5,-300 521.5,-300 521.5,-294 527.5,-288 533.5,-288 533.5,-288 621.5,-288 621.5,-288 627.5,-288 633.5,-294 633.5,-300 633.5,-300 633.5,-312 633.5,-312 633.5,-318 627.5,-324 621.5,-324"/>
<text text-anchor="middle" x="577.5" y="-309" font-family="sans" font-size="10.00">sambamba_sort</text>
<text text-anchor="middle" x="577.5" y="-298" font-family="sans" font-size="10.00">sorting: queryname</text>
</g>
<!-- 17&#45;&gt;13 -->
<g id="edge23" class="edge"><title>17&#45;&gt;13</title>
<path fill="none" stroke="grey" stroke-width="2" d="M577.994,-287.697C578.215,-279.983 578.48,-270.712 578.725,-262.112"/>
<polygon fill="grey" stroke="grey" stroke-width="2" points="582.224,-262.2 579.011,-252.104 575.227,-262 582.224,-262.2"/>
</g>
<!-- 18 -->
<g id="node19" class="node"><title>18</title>
<path fill="none" stroke="#56d8c9" stroke-width="2" stroke-dasharray="5,2" d="M170,-612C170,-612 93,-612 93,-612 87,-612 81,-606 81,-600 81,-600 81,-588 81,-588 81,-582 87,-576 93,-576 93,-576 170,-576 170,-576 176,-576 182,-582 182,-588 182,-588 182,-600 182,-600 182,-606 176,-612 170,-612"/>
<text text-anchor="middle" x="131.5" y="-597" font-family="sans" font-size="10.00">cell_ID2_fastq_ID</text>
<text text-anchor="middle" x="131.5" y="-586" font-family="sans" font-size="10.00">sample: plate1</text>
</g>
<!-- 18&#45;&gt;15 -->
<g id="edge24" class="edge"><title>18&#45;&gt;15</title>
<path fill="none" stroke="grey" stroke-width="2" d="M131.5,-575.697C131.5,-567.983 131.5,-558.712 131.5,-550.112"/>
<polygon fill="grey" stroke="grey" stroke-width="2" points="135,-550.104 131.5,-540.104 128,-550.104 135,-550.104"/>
</g>
<!-- 19&#45;&gt;16 -->
<g id="edge25" class="edge"><title>19&#45;&gt;16</title>
<path fill="none" stroke="grey" stroke-width="2" d="M545.784,-359.876C526.003,-350.392 501.228,-338.513 480.174,-328.419"/>
<polygon fill="grey" stroke="grey" stroke-width="2" points="481.63,-325.236 471.1,-324.068 478.604,-331.548 481.63,-325.236"/>
</g>
<!-- 19&#45;&gt;17 -->
<g id="edge26" class="edge"><title>19&#45;&gt;17</title>
<path fill="none" stroke="grey" stroke-width="2" d="M580.511,-359.697C580.07,-351.983 579.541,-342.712 579.049,-334.112"/>
<polygon fill="grey" stroke="grey" stroke-width="2" points="582.542,-333.888 578.477,-324.104 575.554,-334.288 582.542,-333.888"/>
</g>
<!-- 20&#45;&gt;19 -->
<g id="edge28" class="edge"><title>20&#45;&gt;19</title>
<path fill="none" stroke="grey" stroke-width="2" d="M584.511,-431.697C584.07,-423.983 583.541,-414.712 583.049,-406.112"/>
<polygon fill="grey" stroke="grey" stroke-width="2" points="586.542,-405.888 582.477,-396.104 579.554,-406.288 586.542,-405.888"/>
</g>
</g>
</svg>
