<?xml version="1.0" encoding="UTF-8" standalone="no"?>
<!DOCTYPE svg PUBLIC "-//W3C//DTD SVG 1.1//EN"
 "http://www.w3.org/Graphics/SVG/1.1/DTD/svg11.dtd">
<!-- Generated by graphviz version 2.40.1 (20161225.0304)
 -->
<!-- Title: snakemake_dag Pages: 1 -->
<svg width="504pt" height="620pt"
 viewBox="0.00 0.00 504.16 620.00" xmlns="http://www.w3.org/2000/svg" xmlns:xlink="http://www.w3.org/1999/xlink">
<g id="graph0" class="graph" transform="scale(1 1) rotate(0) translate(4 616)">
<title>snakemake_dag</title>
<polygon fill="#ffffff" stroke="transparent" points="-4,4 -4,-616 500.1558,-616 500.1558,4 -4,4"/>
<!-- 0 -->
<g id="node1" class="node">
<title>0</title>
<path fill="none" stroke="#56c1d8" stroke-width="2" d="M77.0258,-36C77.0258,-36 43.0258,-36 43.0258,-36 37.0258,-36 31.0258,-30 31.0258,-24 31.0258,-24 31.0258,-12 31.0258,-12 31.0258,-6 37.0258,0 43.0258,0 43.0258,0 77.0258,0 77.0258,0 83.0258,0 89.0258,-6 89.0258,-12 89.0258,-12 89.0258,-24 89.0258,-24 89.0258,-30 83.0258,-36 77.0258,-36"/>
<text text-anchor="middle" x="60.0258" y="-15.5" font-family="sans" font-size="10.00" fill="#000000">align_all</text>
</g>
<!-- 1 -->
<g id="node2" class="node">
<title>1</title>
<path fill="none" stroke="#59d856" stroke-width="2" d="M135.0258,-252C135.0258,-252 61.0258,-252 61.0258,-252 55.0258,-252 49.0258,-246 49.0258,-240 49.0258,-240 49.0258,-228 49.0258,-228 49.0258,-222 55.0258,-216 61.0258,-216 61.0258,-216 135.0258,-216 135.0258,-216 141.0258,-216 147.0258,-222 147.0258,-228 147.0258,-228 147.0258,-240 147.0258,-240 147.0258,-246 141.0258,-252 135.0258,-252"/>
<text text-anchor="middle" x="98.0258" y="-231.5" font-family="sans" font-size="10.00" fill="#000000">mark_duplicates</text>
</g>
<!-- 1&#45;&gt;0 -->
<g id="edge2" class="edge">
<title>1&#45;&gt;0</title>
<path fill="none" stroke="#c0c0c0" stroke-width="2" d="M74.2008,-215.7792C62.5773,-206.0546 48.9907,-193.3547 39.0258,-180 17.7474,-151.4832 12.0069,-142.6739 4.0258,-108 .4368,-92.4077 -2.2313,-86.7258 4.0258,-72 8.7236,-60.9437 16.9171,-51.0516 25.6101,-42.8494"/>
<polygon fill="#c0c0c0" stroke="#c0c0c0" stroke-width="2" points="28.1012,-45.3197 33.3026,-36.0896 23.4805,-40.0614 28.1012,-45.3197"/>
</g>
<!-- 2 -->
<g id="node3" class="node">
<title>2</title>
<path fill="none" stroke="#d6d856" stroke-width="2" d="M95.0258,-108C95.0258,-108 25.0258,-108 25.0258,-108 19.0258,-108 13.0258,-102 13.0258,-96 13.0258,-96 13.0258,-84 13.0258,-84 13.0258,-78 19.0258,-72 25.0258,-72 25.0258,-72 95.0258,-72 95.0258,-72 101.0258,-72 107.0258,-78 107.0258,-84 107.0258,-84 107.0258,-96 107.0258,-96 107.0258,-102 101.0258,-108 95.0258,-108"/>
<text text-anchor="middle" x="60.0258" y="-87.5" font-family="sans" font-size="10.00" fill="#000000">samtools_index</text>
</g>
<!-- 1&#45;&gt;2 -->
<g id="edge5" class="edge">
<title>1&#45;&gt;2</title>
<path fill="none" stroke="#c0c0c0" stroke-width="2" d="M74.1767,-215.928C63.7316,-206.5042 52.5998,-194.02 47.0258,-180 39.1026,-160.0714 43.2486,-135.9506 48.8861,-117.6981"/>
<polygon fill="#c0c0c0" stroke="#c0c0c0" stroke-width="2" points="52.2014,-118.8198 52.1043,-108.2254 45.5735,-116.568 52.2014,-118.8198"/>
</g>
<!-- 3 -->
<g id="node4" class="node">
<title>3</title>
<path fill="none" stroke="#bed856" stroke-width="2" d="M264.0258,-108C264.0258,-108 234.0258,-108 234.0258,-108 228.0258,-108 222.0258,-102 222.0258,-96 222.0258,-96 222.0258,-84 222.0258,-84 222.0258,-78 228.0258,-72 234.0258,-72 234.0258,-72 264.0258,-72 264.0258,-72 270.0258,-72 276.0258,-78 276.0258,-84 276.0258,-84 276.0258,-96 276.0258,-96 276.0258,-102 270.0258,-108 264.0258,-108"/>
<text text-anchor="middle" x="249.0258" y="-87.5" font-family="sans" font-size="10.00" fill="#000000">multiqc</text>
</g>
<!-- 1&#45;&gt;3 -->
<g id="edge9" class="edge">
<title>1&#45;&gt;3</title>
<path fill="none" stroke="#c0c0c0" stroke-width="2" d="M86.7512,-215.6606C76.3357,-196.1046 64.6139,-165.104 80.0258,-144 95.6989,-122.5382 167.0285,-105.4743 211.8622,-96.6307"/>
<polygon fill="#c0c0c0" stroke="#c0c0c0" stroke-width="2" points="212.6592,-100.0416 221.818,-94.7155 211.3368,-93.1676 212.6592,-100.0416"/>
</g>
<!-- 7 -->
<g id="node8" class="node">
<title>7</title>
<path fill="none" stroke="#a7d856" stroke-width="2" d="M168.5258,-180C168.5258,-180 101.5258,-180 101.5258,-180 95.5258,-180 89.5258,-174 89.5258,-168 89.5258,-168 89.5258,-156 89.5258,-156 89.5258,-150 95.5258,-144 101.5258,-144 101.5258,-144 168.5258,-144 168.5258,-144 174.5258,-144 180.5258,-150 180.5258,-156 180.5258,-156 180.5258,-168 180.5258,-168 180.5258,-174 174.5258,-180 168.5258,-180"/>
<text text-anchor="middle" x="135.0258" y="-159.5" font-family="sans" font-size="10.00" fill="#000000">samtools_stats</text>
</g>
<!-- 1&#45;&gt;7 -->
<g id="edge18" class="edge">
<title>1&#45;&gt;7</title>
<path fill="none" stroke="#c0c0c0" stroke-width="2" d="M107.3624,-215.8314C111.45,-207.8771 116.3361,-198.369 120.8567,-189.5723"/>
<polygon fill="#c0c0c0" stroke="#c0c0c0" stroke-width="2" points="124.1057,-190.9074 125.5634,-180.4133 117.8796,-187.7078 124.1057,-190.9074"/>
</g>
<!-- 8 -->
<g id="node9" class="node">
<title>8</title>
<path fill="none" stroke="#56d8d8" stroke-width="2" d="M287.0258,-180C287.0258,-180 211.0258,-180 211.0258,-180 205.0258,-180 199.0258,-174 199.0258,-168 199.0258,-168 199.0258,-156 199.0258,-156 199.0258,-150 205.0258,-144 211.0258,-144 211.0258,-144 287.0258,-144 287.0258,-144 293.0258,-144 299.0258,-150 299.0258,-156 299.0258,-156 299.0258,-168 299.0258,-168 299.0258,-174 293.0258,-180 287.0258,-180"/>
<text text-anchor="middle" x="249.0258" y="-159.5" font-family="sans" font-size="10.00" fill="#000000">InsertSizeMetrics</text>
</g>
<!-- 1&#45;&gt;8 -->
<g id="edge19" class="edge">
<title>1&#45;&gt;8</title>
<path fill="none" stroke="#c0c0c0" stroke-width="2" d="M136.1294,-215.8314C156.1453,-206.2874 180.8525,-194.5065 202.0452,-184.4013"/>
<polygon fill="#c0c0c0" stroke="#c0c0c0" stroke-width="2" points="203.6761,-187.5013 211.1961,-180.038 200.6633,-181.1828 203.6761,-187.5013"/>
</g>
<!-- 2&#45;&gt;0 -->
<g id="edge1" class="edge">
<title>2&#45;&gt;0</title>
<path fill="none" stroke="#c0c0c0" stroke-width="2" d="M60.0258,-71.8314C60.0258,-64.131 60.0258,-54.9743 60.0258,-46.4166"/>
<polygon fill="#c0c0c0" stroke="#c0c0c0" stroke-width="2" points="63.5259,-46.4132 60.0258,-36.4133 56.5259,-46.4133 63.5259,-46.4132"/>
</g>
<!-- 3&#45;&gt;0 -->
<g id="edge3" class="edge">
<title>3&#45;&gt;0</title>
<path fill="none" stroke="#c0c0c0" stroke-width="2" d="M221.9467,-79.6842C189.621,-67.3696 135.3334,-46.6886 98.6211,-32.703"/>
<polygon fill="#c0c0c0" stroke="#c0c0c0" stroke-width="2" points="99.8193,-29.4141 89.2284,-29.1248 97.3273,-35.9555 99.8193,-29.4141"/>
</g>
<!-- 4 -->
<g id="node5" class="node">
<title>4</title>
<path fill="none" stroke="#56d88a" stroke-width="2" d="M213.0258,-324C213.0258,-324 151.0258,-324 151.0258,-324 145.0258,-324 139.0258,-318 139.0258,-312 139.0258,-312 139.0258,-300 139.0258,-300 139.0258,-294 145.0258,-288 151.0258,-288 151.0258,-288 213.0258,-288 213.0258,-288 219.0258,-288 225.0258,-294 225.0258,-300 225.0258,-300 225.0258,-312 225.0258,-312 225.0258,-318 219.0258,-324 213.0258,-324"/>
<text text-anchor="middle" x="182.0258" y="-303.5" font-family="sans" font-size="10.00" fill="#000000">samtools_sort</text>
</g>
<!-- 4&#45;&gt;1 -->
<g id="edge4" class="edge">
<title>4&#45;&gt;1</title>
<path fill="none" stroke="#c0c0c0" stroke-width="2" d="M160.829,-287.8314C150.5823,-279.0485 138.1255,-268.3712 127.0161,-258.8489"/>
<polygon fill="#c0c0c0" stroke="#c0c0c0" stroke-width="2" points="129.0861,-256.0134 119.2157,-252.1628 124.5305,-261.3282 129.0861,-256.0134"/>
</g>
<!-- 5 -->
<g id="node6" class="node">
<title>5</title>
<path fill="none" stroke="#d86e56" stroke-width="2" d="M397.0258,-396C397.0258,-396 367.0258,-396 367.0258,-396 361.0258,-396 355.0258,-390 355.0258,-384 355.0258,-384 355.0258,-372 355.0258,-372 355.0258,-366 361.0258,-360 367.0258,-360 367.0258,-360 397.0258,-360 397.0258,-360 403.0258,-360 409.0258,-366 409.0258,-372 409.0258,-372 409.0258,-384 409.0258,-384 409.0258,-390 403.0258,-396 397.0258,-396"/>
<text text-anchor="middle" x="382.0258" y="-375.5" font-family="sans" font-size="10.00" fill="#000000">fastqc</text>
</g>
<!-- 5&#45;&gt;3 -->
<g id="edge10" class="edge">
<title>5&#45;&gt;3</title>
<path fill="none" stroke="#c0c0c0" stroke-width="2" d="M383.6853,-359.9821C386.6032,-318.042 388.4123,-212.2729 341.0258,-144 327.6854,-124.7796 305.108,-111.3789 285.6586,-102.7346"/>
<polygon fill="#c0c0c0" stroke="#c0c0c0" stroke-width="2" points="286.9922,-99.4986 276.4161,-98.8685 284.2909,-105.9564 286.9922,-99.4986"/>
</g>
<!-- 6 -->
<g id="node7" class="node">
<title>6</title>
<path fill="none" stroke="#d8bc56" stroke-width="2" d="M470.0258,-468C470.0258,-468 404.0258,-468 404.0258,-468 398.0258,-468 392.0258,-462 392.0258,-456 392.0258,-456 392.0258,-444 392.0258,-444 392.0258,-438 398.0258,-432 404.0258,-432 404.0258,-432 470.0258,-432 470.0258,-432 476.0258,-432 482.0258,-438 482.0258,-444 482.0258,-444 482.0258,-456 482.0258,-456 482.0258,-462 476.0258,-468 470.0258,-468"/>
<text text-anchor="middle" x="437.0258" y="-447.5" font-family="sans" font-size="10.00" fill="#000000">trim_galore_PE</text>
</g>
<!-- 6&#45;&gt;3 -->
<g id="edge7" class="edge">
<title>6&#45;&gt;3</title>
<path fill="none" stroke="#c0c0c0" stroke-width="2" d="M437.0258,-431.8146C437.0258,-404.4983 437.0258,-351.25 437.0258,-306 437.0258,-306 437.0258,-306 437.0258,-234 437.0258,-158.7202 340.8488,-117.4604 286.0756,-100.0667"/>
<polygon fill="#c0c0c0" stroke="#c0c0c0" stroke-width="2" points="286.9491,-96.6739 276.3626,-97.0938 284.9004,-103.3674 286.9491,-96.6739"/>
</g>
<!-- 6&#45;&gt;5 -->
<g id="edge14" class="edge">
<title>6&#45;&gt;5</title>
<path fill="none" stroke="#c0c0c0" stroke-width="2" d="M423.147,-431.8314C416.8122,-423.5386 409.1874,-413.557 402.2332,-404.4533"/>
<polygon fill="#c0c0c0" stroke="#c0c0c0" stroke-width="2" points="404.9433,-402.2353 396.0915,-396.4133 399.3806,-406.4847 404.9433,-402.2353"/>
</g>
<!-- 10 -->
<g id="node11" class="node">
<title>10</title>
<path fill="none" stroke="#56a2d8" stroke-width="2" d="M251.0258,-396C251.0258,-396 207.0258,-396 207.0258,-396 201.0258,-396 195.0258,-390 195.0258,-384 195.0258,-384 195.0258,-372 195.0258,-372 195.0258,-366 201.0258,-360 207.0258,-360 207.0258,-360 251.0258,-360 251.0258,-360 257.0258,-360 263.0258,-366 263.0258,-372 263.0258,-372 263.0258,-384 263.0258,-384 263.0258,-390 257.0258,-396 251.0258,-396"/>
<text text-anchor="middle" x="229.0258" y="-375.5" font-family="sans" font-size="10.00" fill="#000000">bwa_mem</text>
</g>
<!-- 6&#45;&gt;10 -->
<g id="edge21" class="edge">
<title>6&#45;&gt;10</title>
<path fill="none" stroke="#c0c0c0" stroke-width="2" d="M391.8929,-434.3771C356.5077,-422.1284 307.5659,-405.187 272.5899,-393.0799"/>
<polygon fill="#c0c0c0" stroke="#c0c0c0" stroke-width="2" points="273.7128,-389.7649 263.118,-389.8012 271.423,-396.3798 273.7128,-389.7649"/>
</g>
<!-- 7&#45;&gt;3 -->
<g id="edge11" class="edge">
<title>7&#45;&gt;3</title>
<path fill="none" stroke="#c0c0c0" stroke-width="2" d="M163.7928,-143.8314C178.8193,-134.3409 197.348,-122.6386 213.2875,-112.5716"/>
<polygon fill="#c0c0c0" stroke="#c0c0c0" stroke-width="2" points="215.2517,-115.4707 221.8376,-107.1715 211.5137,-109.5522 215.2517,-115.4707"/>
</g>
<!-- 8&#45;&gt;3 -->
<g id="edge8" class="edge">
<title>8&#45;&gt;3</title>
<path fill="none" stroke="#c0c0c0" stroke-width="2" d="M249.0258,-143.8314C249.0258,-136.131 249.0258,-126.9743 249.0258,-118.4166"/>
<polygon fill="#c0c0c0" stroke="#c0c0c0" stroke-width="2" points="252.5259,-118.4132 249.0258,-108.4133 245.5259,-118.4133 252.5259,-118.4132"/>
</g>
<!-- 9 -->
<g id="node10" class="node">
<title>9</title>
<path fill="none" stroke="#56d8c1" stroke-width="2" d="M324.0258,-468C324.0258,-468 258.0258,-468 258.0258,-468 252.0258,-468 246.0258,-462 246.0258,-456 246.0258,-456 246.0258,-444 246.0258,-444 246.0258,-438 252.0258,-432 258.0258,-432 258.0258,-432 324.0258,-432 324.0258,-432 330.0258,-432 336.0258,-438 336.0258,-444 336.0258,-444 336.0258,-456 336.0258,-456 336.0258,-462 330.0258,-468 324.0258,-468"/>
<text text-anchor="middle" x="291.0258" y="-447.5" font-family="sans" font-size="10.00" fill="#000000">trim_galore_SE</text>
</g>
<!-- 9&#45;&gt;3 -->
<g id="edge6" class="edge">
<title>9&#45;&gt;3</title>
<path fill="none" stroke="#c0c0c0" stroke-width="2" d="M298.6604,-431.7257C309.2279,-404.7325 327.0258,-352.3849 327.0258,-306 327.0258,-306 327.0258,-306 327.0258,-234 327.0258,-193.1184 328.2978,-179.5015 308.0258,-144 301.7858,-133.0722 292.57,-123.1142 283.2672,-114.8088"/>
<polygon fill="#c0c0c0" stroke="#c0c0c0" stroke-width="2" points="285.3914,-112.0213 275.4959,-108.2359 280.8709,-117.366 285.3914,-112.0213"/>
</g>
<!-- 9&#45;&gt;5 -->
<g id="edge16" class="edge">
<title>9&#45;&gt;5</title>
<path fill="none" stroke="#c0c0c0" stroke-width="2" d="M313.9889,-431.8314C325.1973,-422.9632 338.8467,-412.1637 350.9697,-402.5718"/>
<polygon fill="#c0c0c0" stroke="#c0c0c0" stroke-width="2" points="353.3995,-405.1125 359.07,-396.1628 349.0561,-399.6229 353.3995,-405.1125"/>
</g>
<!-- 9&#45;&gt;10 -->
<g id="edge22" class="edge">
<title>9&#45;&gt;10</title>
<path fill="none" stroke="#c0c0c0" stroke-width="2" d="M275.3806,-431.8314C268.1667,-423.454 259.4688,-413.3531 251.5653,-404.1749"/>
<polygon fill="#c0c0c0" stroke="#c0c0c0" stroke-width="2" points="254.0591,-401.7071 244.8816,-396.4133 248.7547,-406.2748 254.0591,-401.7071"/>
</g>
<!-- 10&#45;&gt;4 -->
<g id="edge12" class="edge">
<title>10&#45;&gt;4</title>
<path fill="none" stroke="#c0c0c0" stroke-width="2" d="M217.1657,-359.8314C211.8628,-351.7079 205.5021,-341.9637 199.6585,-333.0118"/>
<polygon fill="#c0c0c0" stroke="#c0c0c0" stroke-width="2" points="202.4426,-330.8739 194.0455,-324.4133 196.581,-334.7003 202.4426,-330.8739"/>
</g>
<!-- 11 -->
<g id="node12" class="node">
<title>11</title>
<path fill="none" stroke="#56d873" stroke-width="2" d="M477.0258,-540C477.0258,-540 421.0258,-540 421.0258,-540 415.0258,-540 409.0258,-534 409.0258,-528 409.0258,-528 409.0258,-516 409.0258,-516 409.0258,-510 415.0258,-504 421.0258,-504 421.0258,-504 477.0258,-504 477.0258,-504 483.0258,-504 489.0258,-510 489.0258,-516 489.0258,-516 489.0258,-528 489.0258,-528 489.0258,-534 483.0258,-540 477.0258,-540"/>
<text text-anchor="middle" x="449.0258" y="-519.5" font-family="sans" font-size="10.00" fill="#000000">sra2fastq_PE</text>
</g>
<!-- 11&#45;&gt;5 -->
<g id="edge13" class="edge">
<title>11&#45;&gt;5</title>
<path fill="none" stroke="#c0c0c0" stroke-width="2" d="M468.132,-503.7616C485.278,-485.1036 505.6638,-455.5878 491.0258,-432 475.4641,-406.9238 444.4114,-393.1336 419.4174,-385.7801"/>
<polygon fill="#c0c0c0" stroke="#c0c0c0" stroke-width="2" points="420.055,-382.3269 409.488,-383.0946 418.2273,-389.0841 420.055,-382.3269"/>
</g>
<!-- 11&#45;&gt;6 -->
<g id="edge17" class="edge">
<title>11&#45;&gt;6</title>
<path fill="none" stroke="#c0c0c0" stroke-width="2" d="M445.9977,-503.8314C444.7143,-496.131 443.1882,-486.9743 441.7619,-478.4166"/>
<polygon fill="#c0c0c0" stroke="#c0c0c0" stroke-width="2" points="445.1911,-477.7018 440.0947,-468.4133 438.2863,-478.8526 445.1911,-477.7018"/>
</g>
<!-- 12 -->
<g id="node13" class="node">
<title>12</title>
<path fill="none" stroke="#5673d8" stroke-width="2" d="M379.0258,-540C379.0258,-540 323.0258,-540 323.0258,-540 317.0258,-540 311.0258,-534 311.0258,-528 311.0258,-528 311.0258,-516 311.0258,-516 311.0258,-510 317.0258,-504 323.0258,-504 323.0258,-504 379.0258,-504 379.0258,-504 385.0258,-504 391.0258,-510 391.0258,-516 391.0258,-516 391.0258,-528 391.0258,-528 391.0258,-534 385.0258,-540 379.0258,-540"/>
<text text-anchor="middle" x="351.0258" y="-519.5" font-family="sans" font-size="10.00" fill="#000000">sra2fastq_SE</text>
</g>
<!-- 12&#45;&gt;5 -->
<g id="edge15" class="edge">
<title>12&#45;&gt;5</title>
<path fill="none" stroke="#c0c0c0" stroke-width="2" d="M354.9519,-503.7623C360.2627,-479.0928 369.7851,-434.8598 376.0038,-405.9731"/>
<polygon fill="#c0c0c0" stroke="#c0c0c0" stroke-width="2" points="379.4485,-406.6023 378.1315,-396.0896 372.6052,-405.129 379.4485,-406.6023"/>
</g>
<!-- 12&#45;&gt;9 -->
<g id="edge20" class="edge">
<title>12&#45;&gt;9</title>
<path fill="none" stroke="#c0c0c0" stroke-width="2" d="M335.8852,-503.8314C328.9041,-495.454 320.4867,-485.3531 312.8382,-476.1749"/>
<polygon fill="#c0c0c0" stroke="#c0c0c0" stroke-width="2" points="315.4608,-473.8548 306.3702,-468.4133 310.0833,-478.3362 315.4608,-473.8548"/>
</g>
<!-- 13 -->
<g id="node14" class="node">
<title>13</title>
<path fill="none" stroke="#56d8a2" stroke-width="2" d="M215.5258,-468C215.5258,-468 170.5258,-468 170.5258,-468 164.5258,-468 158.5258,-462 158.5258,-456 158.5258,-456 158.5258,-444 158.5258,-444 158.5258,-438 164.5258,-432 170.5258,-432 170.5258,-432 215.5258,-432 215.5258,-432 221.5258,-432 227.5258,-438 227.5258,-444 227.5258,-444 227.5258,-456 227.5258,-456 227.5258,-462 221.5258,-468 215.5258,-468"/>
<text text-anchor="middle" x="193.0258" y="-447.5" font-family="sans" font-size="10.00" fill="#000000">bwa_index</text>
</g>
<!-- 13&#45;&gt;10 -->
<g id="edge23" class="edge">
<title>13&#45;&gt;10</title>
<path fill="none" stroke="#c0c0c0" stroke-width="2" d="M202.1101,-431.8314C206.0872,-423.8771 210.8413,-414.369 215.2396,-405.5723"/>
<polygon fill="#c0c0c0" stroke="#c0c0c0" stroke-width="2" points="218.4774,-406.9228 219.8191,-396.4133 212.2165,-403.7923 218.4774,-406.9228"/>
</g>
<!-- 14 -->
<g id="node15" class="node">
<title>14</title>
<path fill="none" stroke="#568ad8" stroke-width="2" d="M415.0258,-612C415.0258,-612 385.0258,-612 385.0258,-612 379.0258,-612 373.0258,-606 373.0258,-600 373.0258,-600 373.0258,-588 373.0258,-588 373.0258,-582 379.0258,-576 385.0258,-576 385.0258,-576 415.0258,-576 415.0258,-576 421.0258,-576 427.0258,-582 427.0258,-588 427.0258,-588 427.0258,-600 427.0258,-600 427.0258,-606 421.0258,-612 415.0258,-612"/>
<text text-anchor="middle" x="400.0258" y="-591.5" font-family="sans" font-size="10.00" fill="#000000">id2sra</text>
</g>
<!-- 14&#45;&gt;11 -->
<g id="edge24" class="edge">
<title>14&#45;&gt;11</title>
<path fill="none" stroke="#c0c0c0" stroke-width="2" d="M412.3905,-575.8314C417.9766,-567.6232 424.6887,-557.7606 430.833,-548.7323"/>
<polygon fill="#c0c0c0" stroke="#c0c0c0" stroke-width="2" points="433.7617,-550.6496 436.4945,-540.4133 427.9747,-546.7112 433.7617,-550.6496"/>
</g>
<!-- 14&#45;&gt;12 -->
<g id="edge25" class="edge">
<title>14&#45;&gt;12</title>
<path fill="none" stroke="#c0c0c0" stroke-width="2" d="M387.661,-575.8314C382.0749,-567.6232 375.3628,-557.7606 369.2186,-548.7323"/>
<polygon fill="#c0c0c0" stroke="#c0c0c0" stroke-width="2" points="372.0768,-546.7112 363.557,-540.4133 366.2898,-550.6496 372.0768,-546.7112"/>
</g>
<!-- 15 -->
<g id="node16" class="node">
<title>15</title>
<path fill="none" stroke="#d8a456" stroke-width="2" d="M219.5258,-540C219.5258,-540 166.5258,-540 166.5258,-540 160.5258,-540 154.5258,-534 154.5258,-528 154.5258,-528 154.5258,-516 154.5258,-516 154.5258,-510 160.5258,-504 166.5258,-504 166.5258,-504 219.5258,-504 219.5258,-504 225.5258,-504 231.5258,-510 231.5258,-516 231.5258,-516 231.5258,-528 231.5258,-528 231.5258,-534 225.5258,-540 219.5258,-540"/>
<text text-anchor="middle" x="193.0258" y="-519.5" font-family="sans" font-size="10.00" fill="#000000">get_genome</text>
</g>
<!-- 15&#45;&gt;13 -->
<g id="edge26" class="edge">
<title>15&#45;&gt;13</title>
<path fill="none" stroke="#c0c0c0" stroke-width="2" d="M193.0258,-503.8314C193.0258,-496.131 193.0258,-486.9743 193.0258,-478.4166"/>
<polygon fill="#c0c0c0" stroke="#c0c0c0" stroke-width="2" points="196.5259,-478.4132 193.0258,-468.4133 189.5259,-478.4133 196.5259,-478.4132"/>
</g>
</g>
</svg>
