<?xml version="1.0" encoding="UTF-8" standalone="no"?>
<!DOCTYPE svg PUBLIC "-//W3C//DTD SVG 1.1//EN"
 "http://www.w3.org/Graphics/SVG/1.1/DTD/svg11.dtd">
<!-- Generated by graphviz version 2.40.1 (20161225.0304)
 -->
<!-- Title: snakemake_dag Pages: 1 -->
<svg width="1150pt" height="630pt"
 viewBox="0.00 0.00 1149.53 630.00" xmlns="http://www.w3.org/2000/svg" xmlns:xlink="http://www.w3.org/1999/xlink">
<g id="graph0" class="graph" transform="scale(1 1) rotate(0) translate(4 626)">
<title>snakemake_dag</title>
<polygon fill="#ffffff" stroke="transparent" points="-4,4 -4,-626 1145.5271,-626 1145.5271,4 -4,4"/>
<!-- 0 -->
<g id="node1" class="node">
<title>0</title>
<path fill="none" stroke="#88d856" stroke-width="2" d="M75.5271,-36C75.5271,-36 41.5271,-36 41.5271,-36 35.5271,-36 29.5271,-30 29.5271,-24 29.5271,-24 29.5271,-12 29.5271,-12 29.5271,-6 35.5271,0 41.5271,0 41.5271,0 75.5271,0 75.5271,0 81.5271,0 87.5271,-6 87.5271,-12 87.5271,-12 87.5271,-24 87.5271,-24 87.5271,-30 81.5271,-36 75.5271,-36"/>
<text text-anchor="middle" x="58.5271" y="-15.5" font-family="sans" font-size="10.00" fill="#000000">align_all</text>
</g>
<!-- 1 -->
<g id="node2" class="node">
<title>1</title>
<path fill="none" stroke="#56d8a2" stroke-width="2" d="M90.5271,-331.5C90.5271,-331.5 28.5271,-331.5 28.5271,-331.5 22.5271,-331.5 16.5271,-325.5 16.5271,-319.5 16.5271,-319.5 16.5271,-307.5 16.5271,-307.5 16.5271,-301.5 22.5271,-295.5 28.5271,-295.5 28.5271,-295.5 90.5271,-295.5 90.5271,-295.5 96.5271,-295.5 102.5271,-301.5 102.5271,-307.5 102.5271,-307.5 102.5271,-319.5 102.5271,-319.5 102.5271,-325.5 96.5271,-331.5 90.5271,-331.5"/>
<text text-anchor="middle" x="59.5271" y="-311" font-family="sans" font-size="10.00" fill="#000000">samtools_sort</text>
</g>
<!-- 1&#45;&gt;0 -->
<g id="edge1" class="edge">
<title>1&#45;&gt;0</title>
<path fill="none" stroke="#c0c0c0" stroke-width="2" d="M46.3835,-295.0817C26.0613,-264.37 -9.4605,-200.4884 2.5271,-144 10.1502,-108.0782 28.7455,-69.9638 42.4261,-45.183"/>
<polygon fill="#c0c0c0" stroke="#c0c0c0" stroke-width="2" points="45.5321,-46.8005 47.3955,-36.3708 39.4347,-43.362 45.5321,-46.8005"/>
</g>
<!-- 2 -->
<g id="node3" class="node">
<title>2</title>
<path fill="none" stroke="#56b1d8" stroke-width="2" d="M93.5271,-180C93.5271,-180 23.5271,-180 23.5271,-180 17.5271,-180 11.5271,-174 11.5271,-168 11.5271,-168 11.5271,-156 11.5271,-156 11.5271,-150 17.5271,-144 23.5271,-144 23.5271,-144 93.5271,-144 93.5271,-144 99.5271,-144 105.5271,-150 105.5271,-156 105.5271,-156 105.5271,-168 105.5271,-168 105.5271,-174 99.5271,-180 93.5271,-180"/>
<text text-anchor="middle" x="58.5271" y="-159.5" font-family="sans" font-size="10.00" fill="#000000">samtools_index</text>
</g>
<!-- 1&#45;&gt;2 -->
<g id="edge5" class="edge">
<title>1&#45;&gt;2</title>
<path fill="none" stroke="#c0c0c0" stroke-width="2" d="M51.7302,-295.3083C47.4907,-284.4184 42.683,-270.1747 40.5271,-257 37.5844,-239.017 37.6082,-233.9869 40.5271,-216 41.9451,-207.2621 44.5746,-198.0275 47.3943,-189.7136"/>
<polygon fill="#c0c0c0" stroke="#c0c0c0" stroke-width="2" points="50.7525,-190.7187 50.8592,-180.1244 44.1691,-188.3399 50.7525,-190.7187"/>
</g>
<!-- 8 -->
<g id="node9" class="node">
<title>8</title>
<path fill="none" stroke="#5692d8" stroke-width="2" d="M135.5271,-254.5C135.5271,-254.5 61.5271,-254.5 61.5271,-254.5 55.5271,-254.5 49.5271,-248.5 49.5271,-242.5 49.5271,-242.5 49.5271,-230.5 49.5271,-230.5 49.5271,-224.5 55.5271,-218.5 61.5271,-218.5 61.5271,-218.5 135.5271,-218.5 135.5271,-218.5 141.5271,-218.5 147.5271,-224.5 147.5271,-230.5 147.5271,-230.5 147.5271,-242.5 147.5271,-242.5 147.5271,-248.5 141.5271,-254.5 135.5271,-254.5"/>
<text text-anchor="middle" x="98.5271" y="-234" font-family="sans" font-size="10.00" fill="#000000">mark_duplicates</text>
</g>
<!-- 1&#45;&gt;8 -->
<g id="edge16" class="edge">
<title>1&#45;&gt;8</title>
<path fill="none" stroke="#c0c0c0" stroke-width="2" d="M68.7696,-295.2521C73.5294,-285.8545 79.4291,-274.2063 84.717,-263.7661"/>
<polygon fill="#c0c0c0" stroke="#c0c0c0" stroke-width="2" points="87.9549,-265.1194 89.351,-254.6169 81.7102,-261.9565 87.9549,-265.1194"/>
</g>
<!-- 2&#45;&gt;0 -->
<g id="edge2" class="edge">
<title>2&#45;&gt;0</title>
<path fill="none" stroke="#c0c0c0" stroke-width="2" d="M58.5271,-143.7623C58.5271,-119.201 58.5271,-75.2474 58.5271,-46.3541"/>
<polygon fill="#c0c0c0" stroke="#c0c0c0" stroke-width="2" points="62.0272,-46.0896 58.5271,-36.0896 55.0272,-46.0897 62.0272,-46.0896"/>
</g>
<!-- 3 -->
<g id="node4" class="node">
<title>3</title>
<path fill="none" stroke="#d87556" stroke-width="2" d="M369.5271,-108C369.5271,-108 339.5271,-108 339.5271,-108 333.5271,-108 327.5271,-102 327.5271,-96 327.5271,-96 327.5271,-84 327.5271,-84 327.5271,-78 333.5271,-72 339.5271,-72 339.5271,-72 369.5271,-72 369.5271,-72 375.5271,-72 381.5271,-78 381.5271,-84 381.5271,-84 381.5271,-96 381.5271,-96 381.5271,-102 375.5271,-108 369.5271,-108"/>
<text text-anchor="middle" x="354.5271" y="-87.5" font-family="sans" font-size="10.00" fill="#000000">multiqc</text>
</g>
<!-- 3&#45;&gt;0 -->
<g id="edge3" class="edge">
<title>3&#45;&gt;0</title>
<path fill="none" stroke="#c0c0c0" stroke-width="2" d="M327.4744,-83.4196C274.8587,-70.6212 158.5698,-42.3347 97.5857,-27.5007"/>
<polygon fill="#c0c0c0" stroke="#c0c0c0" stroke-width="2" points="98.1239,-24.0297 87.58,-25.0669 96.4694,-30.8313 98.1239,-24.0297"/>
</g>
<!-- 4 -->
<g id="node5" class="node">
<title>4</title>
<path fill="none" stroke="#d8b456" stroke-width="2" d="M259.5271,-406C259.5271,-406 215.5271,-406 215.5271,-406 209.5271,-406 203.5271,-400 203.5271,-394 203.5271,-394 203.5271,-382 203.5271,-382 203.5271,-376 209.5271,-370 215.5271,-370 215.5271,-370 259.5271,-370 259.5271,-370 265.5271,-370 271.5271,-376 271.5271,-382 271.5271,-382 271.5271,-394 271.5271,-394 271.5271,-400 265.5271,-406 259.5271,-406"/>
<text text-anchor="middle" x="237.5271" y="-385.5" font-family="sans" font-size="10.00" fill="#000000">bwa_mem</text>
</g>
<!-- 4&#45;&gt;1 -->
<g id="edge4" class="edge">
<title>4&#45;&gt;1</title>
<path fill="none" stroke="#c0c0c0" stroke-width="2" d="M203.2069,-373.6357C177.3177,-362.8 141.35,-347.7461 111.8786,-335.4111"/>
<polygon fill="#c0c0c0" stroke="#c0c0c0" stroke-width="2" points="113.1351,-332.1429 102.5592,-331.5106 110.4325,-338.6002 113.1351,-332.1429"/>
</g>
<!-- 5 -->
<g id="node6" class="node">
<title>5</title>
<path fill="none" stroke="#d89556" stroke-width="2" d="M1129.5271,-334C1129.5271,-334 693.5271,-334 693.5271,-334 687.5271,-334 681.5271,-328 681.5271,-322 681.5271,-322 681.5271,-305 681.5271,-305 681.5271,-299 687.5271,-293 693.5271,-293 693.5271,-293 1129.5271,-293 1129.5271,-293 1135.5271,-293 1141.5271,-299 1141.5271,-305 1141.5271,-305 1141.5271,-322 1141.5271,-322 1141.5271,-328 1135.5271,-334 1129.5271,-334"/>
<text text-anchor="middle" x="911.5271" y="-322" font-family="sans" font-size="10.00" fill="#000000">fastqc</text>
<text text-anchor="middle" x="911.5271" y="-311" font-family="sans" font-size="10.00" fill="#000000">fname: GSM2520641</text>
<text text-anchor="middle" x="911.5271" y="-300" font-family="sans" font-size="10.00" fill="#000000">path: /home/sande/Dropbox/Studie/PhD/snakemake&#45;workflows/workflows/alignment/FASTQ</text>
</g>
<!-- 5&#45;&gt;3 -->
<g id="edge6" class="edge">
<title>5&#45;&gt;3</title>
<path fill="none" stroke="#c0c0c0" stroke-width="2" d="M889.3171,-292.9217C848.689,-256.5321 758.2062,-181.1673 667.5271,-144 573.1856,-105.3316 451.843,-94.3509 391.717,-91.2341"/>
<polygon fill="#c0c0c0" stroke="#c0c0c0" stroke-width="2" points="391.7224,-87.7306 381.5679,-90.7535 391.3912,-94.7227 391.7224,-87.7306"/>
</g>
<!-- 6 -->
<g id="node7" class="node">
<title>6</title>
<path fill="none" stroke="#d89556" stroke-width="2" d="M613.5271,-257C613.5271,-257 177.5271,-257 177.5271,-257 171.5271,-257 165.5271,-251 165.5271,-245 165.5271,-245 165.5271,-228 165.5271,-228 165.5271,-222 171.5271,-216 177.5271,-216 177.5271,-216 613.5271,-216 613.5271,-216 619.5271,-216 625.5271,-222 625.5271,-228 625.5271,-228 625.5271,-245 625.5271,-245 625.5271,-251 619.5271,-257 613.5271,-257"/>
<text text-anchor="middle" x="395.5271" y="-245" font-family="sans" font-size="10.00" fill="#000000">fastqc</text>
<text text-anchor="middle" x="395.5271" y="-234" font-family="sans" font-size="10.00" fill="#000000">fname: GSM2520641_trimmed</text>
<text text-anchor="middle" x="395.5271" y="-223" font-family="sans" font-size="10.00" fill="#000000">path: /home/sande/Dropbox/Studie/PhD/snakemake&#45;workflows/workflows/alignment/FASTQ</text>
</g>
<!-- 6&#45;&gt;3 -->
<g id="edge7" class="edge">
<title>6&#45;&gt;3</title>
<path fill="none" stroke="#c0c0c0" stroke-width="2" d="M389.7398,-215.8208C382.5838,-190.2513 370.3725,-146.6184 362.3767,-118.0481"/>
<polygon fill="#c0c0c0" stroke="#c0c0c0" stroke-width="2" points="365.7045,-116.9517 359.6388,-108.265 358.9635,-118.8383 365.7045,-116.9517"/>
</g>
<!-- 7 -->
<g id="node8" class="node">
<title>7</title>
<path fill="none" stroke="#d85656" stroke-width="2" d="M548.5271,-478C548.5271,-478 482.5271,-478 482.5271,-478 476.5271,-478 470.5271,-472 470.5271,-466 470.5271,-466 470.5271,-454 470.5271,-454 470.5271,-448 476.5271,-442 482.5271,-442 482.5271,-442 548.5271,-442 548.5271,-442 554.5271,-442 560.5271,-448 560.5271,-454 560.5271,-454 560.5271,-466 560.5271,-466 560.5271,-472 554.5271,-478 548.5271,-478"/>
<text text-anchor="middle" x="515.5271" y="-457.5" font-family="sans" font-size="10.00" fill="#000000">trim_galore_SE</text>
</g>
<!-- 7&#45;&gt;3 -->
<g id="edge8" class="edge">
<title>7&#45;&gt;3</title>
<path fill="none" stroke="#c0c0c0" stroke-width="2" d="M551.4247,-441.8272C592.3135,-418.2781 653.5271,-373.0748 653.5271,-313.5 653.5271,-313.5 653.5271,-313.5 653.5271,-236.5 653.5271,-178.7092 471.1264,-121.8229 391.2524,-99.6827"/>
<polygon fill="#c0c0c0" stroke="#c0c0c0" stroke-width="2" points="392.1581,-96.3019 381.5887,-97.0352 390.3085,-103.0531 392.1581,-96.3019"/>
</g>
<!-- 7&#45;&gt;4 -->
<g id="edge11" class="edge">
<title>7&#45;&gt;4</title>
<path fill="none" stroke="#c0c0c0" stroke-width="2" d="M470.2429,-448.2717C418.172,-434.7857 333.2582,-412.7937 281.6722,-399.4333"/>
<polygon fill="#c0c0c0" stroke="#c0c0c0" stroke-width="2" points="282.3771,-396.0004 271.8189,-396.8813 280.622,-402.7768 282.3771,-396.0004"/>
</g>
<!-- 7&#45;&gt;6 -->
<g id="edge14" class="edge">
<title>7&#45;&gt;6</title>
<path fill="none" stroke="#c0c0c0" stroke-width="2" d="M505.707,-441.7101C485.0217,-403.1837 436.7992,-313.3694 411.5658,-266.372"/>
<polygon fill="#c0c0c0" stroke="#c0c0c0" stroke-width="2" points="414.5085,-264.4538 406.6944,-257.299 408.3412,-267.7651 414.5085,-264.4538"/>
</g>
<!-- 8&#45;&gt;3 -->
<g id="edge9" class="edge">
<title>8&#45;&gt;3</title>
<path fill="none" stroke="#c0c0c0" stroke-width="2" d="M147.8207,-218.8534C150.7607,-217.8706 153.6793,-216.9125 156.5271,-216 211.5836,-198.3592 233.3228,-211.9181 281.5271,-180 305.8203,-163.9145 325.9895,-137.2263 338.9263,-117.0792"/>
<polygon fill="#c0c0c0" stroke="#c0c0c0" stroke-width="2" points="342.0484,-118.686 344.3502,-108.3442 336.1016,-114.9934 342.0484,-118.686"/>
</g>
<!-- 9 -->
<g id="node10" class="node">
<title>9</title>
<path fill="none" stroke="#bed856" stroke-width="2" d="M260.0271,-180C260.0271,-180 193.0271,-180 193.0271,-180 187.0271,-180 181.0271,-174 181.0271,-168 181.0271,-168 181.0271,-156 181.0271,-156 181.0271,-150 187.0271,-144 193.0271,-144 193.0271,-144 260.0271,-144 260.0271,-144 266.0271,-144 272.0271,-150 272.0271,-156 272.0271,-156 272.0271,-168 272.0271,-168 272.0271,-174 266.0271,-180 260.0271,-180"/>
<text text-anchor="middle" x="226.5271" y="-159.5" font-family="sans" font-size="10.00" fill="#000000">samtools_stats</text>
</g>
<!-- 8&#45;&gt;9 -->
<g id="edge17" class="edge">
<title>8&#45;&gt;9</title>
<path fill="none" stroke="#c0c0c0" stroke-width="2" d="M129.5123,-218.4656C146.6799,-208.4736 168.2119,-195.9413 186.6268,-185.2233"/>
<polygon fill="#c0c0c0" stroke="#c0c0c0" stroke-width="2" points="188.5015,-188.1818 195.3836,-180.1265 184.9802,-182.1319 188.5015,-188.1818"/>
</g>
<!-- 9&#45;&gt;3 -->
<g id="edge10" class="edge">
<title>9&#45;&gt;3</title>
<path fill="none" stroke="#c0c0c0" stroke-width="2" d="M258.8269,-143.8314C277.0296,-133.5924 299.8093,-120.7788 318.5771,-110.2219"/>
<polygon fill="#c0c0c0" stroke="#c0c0c0" stroke-width="2" points="320.4307,-113.195 327.4305,-105.2418 316.9988,-107.094 320.4307,-113.195"/>
</g>
<!-- 10 -->
<g id="node11" class="node">
<title>10</title>
<path fill="none" stroke="#56d8c1" stroke-width="2" d="M260.0271,-478C260.0271,-478 215.0271,-478 215.0271,-478 209.0271,-478 203.0271,-472 203.0271,-466 203.0271,-466 203.0271,-454 203.0271,-454 203.0271,-448 209.0271,-442 215.0271,-442 215.0271,-442 260.0271,-442 260.0271,-442 266.0271,-442 272.0271,-448 272.0271,-454 272.0271,-454 272.0271,-466 272.0271,-466 272.0271,-472 266.0271,-478 260.0271,-478"/>
<text text-anchor="middle" x="237.5271" y="-457.5" font-family="sans" font-size="10.00" fill="#000000">bwa_index</text>
</g>
<!-- 10&#45;&gt;4 -->
<g id="edge12" class="edge">
<title>10&#45;&gt;4</title>
<path fill="none" stroke="#c0c0c0" stroke-width="2" d="M237.5271,-441.8314C237.5271,-434.131 237.5271,-424.9743 237.5271,-416.4166"/>
<polygon fill="#c0c0c0" stroke="#c0c0c0" stroke-width="2" points="241.0272,-416.4132 237.5271,-406.4133 234.0272,-416.4133 241.0272,-416.4132"/>
</g>
<!-- 11 -->
<g id="node12" class="node">
<title>11</title>
<path fill="none" stroke="#56d863" stroke-width="2" d="M579.5271,-550C579.5271,-550 523.5271,-550 523.5271,-550 517.5271,-550 511.5271,-544 511.5271,-538 511.5271,-538 511.5271,-526 511.5271,-526 511.5271,-520 517.5271,-514 523.5271,-514 523.5271,-514 579.5271,-514 579.5271,-514 585.5271,-514 591.5271,-520 591.5271,-526 591.5271,-526 591.5271,-538 591.5271,-538 591.5271,-544 585.5271,-550 579.5271,-550"/>
<text text-anchor="middle" x="551.5271" y="-529.5" font-family="sans" font-size="10.00" fill="#000000">sra2fastq_SE</text>
</g>
<!-- 11&#45;&gt;5 -->
<g id="edge13" class="edge">
<title>11&#45;&gt;5</title>
<path fill="none" stroke="#c0c0c0" stroke-width="2" d="M581.2937,-513.9333C645.0742,-475.2221 795.1045,-384.162 868.9498,-339.342"/>
<polygon fill="#c0c0c0" stroke="#c0c0c0" stroke-width="2" points="870.8341,-342.2927 877.5668,-334.112 867.2021,-336.3086 870.8341,-342.2927"/>
</g>
<!-- 11&#45;&gt;7 -->
<g id="edge15" class="edge">
<title>11&#45;&gt;7</title>
<path fill="none" stroke="#c0c0c0" stroke-width="2" d="M542.4428,-513.8314C538.4657,-505.8771 533.7116,-496.369 529.3133,-487.5723"/>
<polygon fill="#c0c0c0" stroke="#c0c0c0" stroke-width="2" points="532.3364,-485.7923 524.7337,-478.4133 526.0754,-488.9228 532.3364,-485.7923"/>
</g>
<!-- 12 -->
<g id="node13" class="node">
<title>12</title>
<path fill="none" stroke="#68d856" stroke-width="2" d="M281.0271,-550C281.0271,-550 194.0271,-550 194.0271,-550 188.0271,-550 182.0271,-544 182.0271,-538 182.0271,-538 182.0271,-526 182.0271,-526 182.0271,-520 188.0271,-514 194.0271,-514 194.0271,-514 281.0271,-514 281.0271,-514 287.0271,-514 293.0271,-520 293.0271,-526 293.0271,-526 293.0271,-538 293.0271,-538 293.0271,-544 287.0271,-550 281.0271,-550"/>
<text text-anchor="middle" x="237.5271" y="-535" font-family="sans" font-size="10.00" fill="#000000">get_genome</text>
<text text-anchor="middle" x="237.5271" y="-524" font-family="sans" font-size="10.00" fill="#000000">assembly: Spur_4.2</text>
</g>
<!-- 12&#45;&gt;10 -->
<g id="edge18" class="edge">
<title>12&#45;&gt;10</title>
<path fill="none" stroke="#c0c0c0" stroke-width="2" d="M237.5271,-513.8314C237.5271,-506.131 237.5271,-496.9743 237.5271,-488.4166"/>
<polygon fill="#c0c0c0" stroke="#c0c0c0" stroke-width="2" points="241.0272,-488.4132 237.5271,-478.4133 234.0272,-488.4133 241.0272,-488.4132"/>
</g>
<!-- 13 -->
<g id="node14" class="node">
<title>13</title>
<path fill="none" stroke="#d8d356" stroke-width="2" d="M600.5271,-622C600.5271,-622 502.5271,-622 502.5271,-622 496.5271,-622 490.5271,-616 490.5271,-610 490.5271,-610 490.5271,-598 490.5271,-598 490.5271,-592 496.5271,-586 502.5271,-586 502.5271,-586 600.5271,-586 600.5271,-586 606.5271,-586 612.5271,-592 612.5271,-598 612.5271,-598 612.5271,-610 612.5271,-610 612.5271,-616 606.5271,-622 600.5271,-622"/>
<text text-anchor="middle" x="551.5271" y="-607" font-family="sans" font-size="10.00" fill="#000000">id2sra</text>
<text text-anchor="middle" x="551.5271" y="-596" font-family="sans" font-size="10.00" fill="#000000">sample: GSM2520641</text>
</g>
<!-- 13&#45;&gt;11 -->
<g id="edge19" class="edge">
<title>13&#45;&gt;11</title>
<path fill="none" stroke="#c0c0c0" stroke-width="2" d="M551.5271,-585.8314C551.5271,-578.131 551.5271,-568.9743 551.5271,-560.4166"/>
<polygon fill="#c0c0c0" stroke="#c0c0c0" stroke-width="2" points="555.0272,-560.4132 551.5271,-550.4133 548.0272,-560.4133 555.0272,-560.4132"/>
</g>
</g>
</svg>
