<?xml version="1.0" encoding="UTF-8" standalone="no"?>
<!DOCTYPE svg PUBLIC "-//W3C//DTD SVG 1.1//EN"
 "http://www.w3.org/Graphics/SVG/1.1/DTD/svg11.dtd">
<!-- Generated by graphviz version 2.40.1 (20161225.0304)
 -->
<!-- Title: snakemake_dag Pages: 1 -->
<svg width="270pt" height="188pt"
 viewBox="0.00 0.00 270.00 188.00" xmlns="http://www.w3.org/2000/svg" xmlns:xlink="http://www.w3.org/1999/xlink">
<g id="graph0" class="graph" transform="scale(1 1) rotate(0) translate(4 184)">
<title>snakemake_dag</title>
<polygon fill="#ffffff" stroke="transparent" points="-4,4 -4,-184 266,-184 266,4 -4,4"/>
<!-- 0 -->
<g id="node1" class="node">
<title>0</title>
<path fill="none" stroke="#d85656" stroke-width="2" d="M158.5,-36C158.5,-36 101.5,-36 101.5,-36 95.5,-36 89.5,-30 89.5,-24 89.5,-24 89.5,-12 89.5,-12 89.5,-6 95.5,0 101.5,0 101.5,0 158.5,0 158.5,0 164.5,0 170.5,-6 170.5,-12 170.5,-12 170.5,-24 170.5,-24 170.5,-30 164.5,-36 158.5,-36"/>
<text text-anchor="middle" x="130" y="-15.5" font-family="sans" font-size="10.00" fill="#000000">download_all</text>
</g>
<!-- 1 -->
<g id="node2" class="node">
<title>1</title>
<path fill="none" stroke="#d6d856" stroke-width="2" d="M99,-108C99,-108 43,-108 43,-108 37,-108 31,-102 31,-96 31,-96 31,-84 31,-84 31,-78 37,-72 43,-72 43,-72 99,-72 99,-72 105,-72 111,-78 111,-84 111,-84 111,-96 111,-96 111,-102 105,-108 99,-108"/>
<text text-anchor="middle" x="71" y="-87.5" font-family="sans" font-size="10.00" fill="#000000">sra2fastq_SE</text>
</g>
<!-- 1&#45;&gt;0 -->
<g id="edge1" class="edge">
<title>1&#45;&gt;0</title>
<path fill="none" stroke="#c0c0c0" stroke-width="2" d="M85.8882,-71.8314C92.753,-63.454 101.0301,-53.3531 108.5511,-44.1749"/>
<polygon fill="#c0c0c0" stroke="#c0c0c0" stroke-width="2" points="111.2803,-46.3665 114.9114,-36.4133 105.8659,-41.9297 111.2803,-46.3665"/>
</g>
<!-- 2 -->
<g id="node3" class="node">
<title>2</title>
<path fill="none" stroke="#56d8d8" stroke-width="2" d="M218,-108C218,-108 162,-108 162,-108 156,-108 150,-102 150,-96 150,-96 150,-84 150,-84 150,-78 156,-72 162,-72 162,-72 218,-72 218,-72 224,-72 230,-78 230,-84 230,-84 230,-96 230,-96 230,-102 224,-108 218,-108"/>
<text text-anchor="middle" x="190" y="-87.5" font-family="sans" font-size="10.00" fill="#000000">sra2fastq_PE</text>
</g>
<!-- 2&#45;&gt;0 -->
<g id="edge2" class="edge">
<title>2&#45;&gt;0</title>
<path fill="none" stroke="#c0c0c0" stroke-width="2" d="M174.8595,-71.8314C167.8783,-63.454 159.4609,-53.3531 151.8124,-44.1749"/>
<polygon fill="#c0c0c0" stroke="#c0c0c0" stroke-width="2" points="154.4351,-41.8548 145.3444,-36.4133 149.0575,-46.3362 154.4351,-41.8548"/>
</g>
<!-- 3 -->
<g id="node4" class="node">
<title>3</title>
<path fill="none" stroke="#59d856" stroke-width="2" d="M110,-180C110,-180 12,-180 12,-180 6,-180 0,-174 0,-168 0,-168 0,-156 0,-156 0,-150 6,-144 12,-144 12,-144 110,-144 110,-144 116,-144 122,-150 122,-156 122,-156 122,-168 122,-168 122,-174 116,-180 110,-180"/>
<text text-anchor="middle" x="61" y="-165" font-family="sans" font-size="10.00" fill="#000000">id2sra</text>
<text text-anchor="middle" x="61" y="-154" font-family="sans" font-size="10.00" fill="#000000">sample: GSM2520641</text>
</g>
<!-- 3&#45;&gt;1 -->
<g id="edge3" class="edge">
<title>3&#45;&gt;1</title>
<path fill="none" stroke="#c0c0c0" stroke-width="2" d="M63.5234,-143.8314C64.5929,-136.131 65.8647,-126.9743 67.0532,-118.4166"/>
<polygon fill="#c0c0c0" stroke="#c0c0c0" stroke-width="2" points="70.5336,-118.7997 68.4426,-108.4133 63.6001,-117.8367 70.5336,-118.7997"/>
</g>
<!-- 4 -->
<g id="node5" class="node">
<title>4</title>
<path fill="none" stroke="#59d856" stroke-width="2" d="M250,-180C250,-180 152,-180 152,-180 146,-180 140,-174 140,-168 140,-168 140,-156 140,-156 140,-150 146,-144 152,-144 152,-144 250,-144 250,-144 256,-144 262,-150 262,-156 262,-156 262,-168 262,-168 262,-174 256,-180 250,-180"/>
<text text-anchor="middle" x="201" y="-165" font-family="sans" font-size="10.00" fill="#000000">id2sra</text>
<text text-anchor="middle" x="201" y="-154" font-family="sans" font-size="10.00" fill="#000000">sample: GSM2520642</text>
</g>
<!-- 4&#45;&gt;2 -->
<g id="edge4" class="edge">
<title>4&#45;&gt;2</title>
<path fill="none" stroke="#c0c0c0" stroke-width="2" d="M198.2242,-143.8314C197.0478,-136.131 195.6489,-126.9743 194.3414,-118.4166"/>
<polygon fill="#c0c0c0" stroke="#c0c0c0" stroke-width="2" points="197.7833,-117.7699 192.8131,-108.4133 190.8636,-118.8272 197.7833,-117.7699"/>
</g>
</g>
</svg>
