<?xml version="1.0" encoding="UTF-8" standalone="no"?>
<!DOCTYPE svg PUBLIC "-//W3C//DTD SVG 1.1//EN"
 "http://www.w3.org/Graphics/SVG/1.1/DTD/svg11.dtd">
<!-- Generated by graphviz version 2.40.1 (20161225.0304)
 -->
<!-- Title: snakemake_dag Pages: 1 -->
<svg width="1236pt" height="692pt"
 viewBox="0.00 0.00 1236.00 692.00" xmlns="http://www.w3.org/2000/svg" xmlns:xlink="http://www.w3.org/1999/xlink">
<g id="graph0" class="graph" transform="scale(1 1) rotate(0) translate(4 688)">
<title>snakemake_dag</title>
<polygon fill="#ffffff" stroke="transparent" points="-4,4 -4,-688 1232,-688 1232,4 -4,4"/>
<!-- 0 -->
<g id="node1" class="node">
<title>0</title>
<path fill="none" stroke="#56d86b" stroke-width="2" d="M419,-36C419,-36 382,-36 382,-36 376,-36 370,-30 370,-24 370,-24 370,-12 370,-12 370,-6 376,0 382,0 382,0 419,0 419,0 425,0 431,-6 431,-12 431,-12 431,-24 431,-24 431,-30 425,-36 419,-36"/>
<text text-anchor="middle" x="400.5" y="-15.5" font-family="sans" font-size="10.00" fill="#000000">count_all</text>
</g>
<!-- 1 -->
<g id="node2" class="node">
<title>1</title>
<path fill="none" stroke="#d8bc56" stroke-width="2" d="M142.5,-180C142.5,-180 90.5,-180 90.5,-180 84.5,-180 78.5,-174 78.5,-168 78.5,-168 78.5,-156 78.5,-156 78.5,-150 84.5,-144 90.5,-144 90.5,-144 142.5,-144 142.5,-144 148.5,-144 154.5,-150 154.5,-156 154.5,-156 154.5,-168 154.5,-168 154.5,-174 148.5,-180 142.5,-180"/>
<text text-anchor="middle" x="116.5" y="-159.5" font-family="sans" font-size="10.00" fill="#000000">bam_bigwig</text>
</g>
<!-- 1&#45;&gt;0 -->
<g id="edge1" class="edge">
<title>1&#45;&gt;0</title>
<path fill="none" stroke="#c0c0c0" stroke-width="2" d="M114.7011,-143.7626C113.7757,-123.4019 115.7107,-90.8436 134.5,-72 165.6091,-40.8008 293.1983,-26.3684 359.7205,-20.8547"/>
<polygon fill="#c0c0c0" stroke="#c0c0c0" stroke-width="2" points="360.1591,-24.3309 369.8484,-20.0452 359.6013,-17.3532 360.1591,-24.3309"/>
</g>
<!-- 7 -->
<g id="node8" class="node">
<title>7</title>
<path fill="none" stroke="#56d892" stroke-width="2" d="M75,-108C75,-108 12,-108 12,-108 6,-108 0,-102 0,-96 0,-96 0,-84 0,-84 0,-78 6,-72 12,-72 12,-72 75,-72 75,-72 81,-72 87,-78 87,-84 87,-84 87,-96 87,-96 87,-102 81,-108 75,-108"/>
<text text-anchor="middle" x="43.5" y="-87.5" font-family="sans" font-size="10.00" fill="#000000">assembly_hub</text>
</g>
<!-- 1&#45;&gt;7 -->
<g id="edge26" class="edge">
<title>1&#45;&gt;7</title>
<path fill="none" stroke="#c0c0c0" stroke-width="2" d="M98.079,-143.8314C89.3471,-135.219 78.7683,-124.7851 69.2577,-115.4048"/>
<polygon fill="#c0c0c0" stroke="#c0c0c0" stroke-width="2" points="71.4925,-112.6931 61.9151,-108.1628 66.577,-117.6769 71.4925,-112.6931"/>
</g>
<!-- 2 -->
<g id="node3" class="node">
<title>2</title>
<path fill="none" stroke="#d8bc56" stroke-width="2" d="M457.5,-180C457.5,-180 405.5,-180 405.5,-180 399.5,-180 393.5,-174 393.5,-168 393.5,-168 393.5,-156 393.5,-156 393.5,-150 399.5,-144 405.5,-144 405.5,-144 457.5,-144 457.5,-144 463.5,-144 469.5,-150 469.5,-156 469.5,-156 469.5,-168 469.5,-168 469.5,-174 463.5,-180 457.5,-180"/>
<text text-anchor="middle" x="431.5" y="-159.5" font-family="sans" font-size="10.00" fill="#000000">bam_bigwig</text>
</g>
<!-- 2&#45;&gt;0 -->
<g id="edge2" class="edge">
<title>2&#45;&gt;0</title>
<path fill="none" stroke="#c0c0c0" stroke-width="2" d="M459.4609,-143.862C471.054,-134.6621 483.2402,-122.3809 489.5,-108 495.8858,-93.3296 497.3488,-85.9426 489.5,-72 478.9304,-53.2241 458.9035,-40.2247 440.52,-31.6937"/>
<polygon fill="#c0c0c0" stroke="#c0c0c0" stroke-width="2" points="441.6834,-28.3838 431.1152,-27.6329 438.9085,-34.8103 441.6834,-28.3838"/>
</g>
<!-- 2&#45;&gt;7 -->
<g id="edge27" class="edge">
<title>2&#45;&gt;7</title>
<path fill="none" stroke="#c0c0c0" stroke-width="2" d="M393.3687,-151.9686C382.1763,-149.195 369.8845,-146.3143 358.5,-144 259.688,-123.913 233.7521,-125.7858 134.5,-108 122.487,-105.8473 109.612,-103.3918 97.4381,-101.0013"/>
<polygon fill="#c0c0c0" stroke="#c0c0c0" stroke-width="2" points="97.9005,-97.525 87.4112,-99.0168 96.5413,-104.3918 97.9005,-97.525"/>
</g>
<!-- 3 -->
<g id="node4" class="node">
<title>3</title>
<path fill="none" stroke="#b6d856" stroke-width="2" d="M337.5,-180C337.5,-180 275.5,-180 275.5,-180 269.5,-180 263.5,-174 263.5,-168 263.5,-168 263.5,-156 263.5,-156 263.5,-150 269.5,-144 275.5,-144 275.5,-144 337.5,-144 337.5,-144 343.5,-144 349.5,-150 349.5,-156 349.5,-156 349.5,-168 349.5,-168 349.5,-174 343.5,-180 337.5,-180"/>
<text text-anchor="middle" x="306.5" y="-159.5" font-family="sans" font-size="10.00" fill="#000000">counts_matrix</text>
</g>
<!-- 3&#45;&gt;0 -->
<g id="edge3" class="edge">
<title>3&#45;&gt;0</title>
<path fill="none" stroke="#c0c0c0" stroke-width="2" d="M349.7121,-152.277C389.3924,-142.3697 443.8873,-125.9457 456.5,-108 471.513,-86.6391 452.6859,-61.3123 432.9161,-42.9761"/>
<polygon fill="#c0c0c0" stroke="#c0c0c0" stroke-width="2" points="435.1766,-40.303 425.3615,-36.3137 430.5465,-45.5531 435.1766,-40.303"/>
</g>
<!-- 5 -->
<g id="node6" class="node">
<title>5</title>
<path fill="none" stroke="#ced856" stroke-width="2" d="M323,-108C323,-108 156,-108 156,-108 150,-108 144,-102 144,-96 144,-96 144,-84 144,-84 144,-78 150,-72 156,-72 156,-72 323,-72 323,-72 329,-72 335,-78 335,-84 335,-84 335,-96 335,-96 335,-102 329,-108 323,-108"/>
<text text-anchor="middle" x="239.5" y="-93" font-family="sans" font-size="10.00" fill="#000000">deseq2</text>
<text text-anchor="middle" x="239.5" y="-82" font-family="sans" font-size="10.00" fill="#000000">contrast: treatment_control_treated</text>
</g>
<!-- 3&#45;&gt;5 -->
<g id="edge24" class="edge">
<title>3&#45;&gt;5</title>
<path fill="none" stroke="#c0c0c0" stroke-width="2" d="M289.5931,-143.8314C281.7187,-135.3694 272.208,-125.1489 263.5987,-115.8971"/>
<polygon fill="#c0c0c0" stroke="#c0c0c0" stroke-width="2" points="266.0092,-113.3497 256.6346,-108.4133 260.8847,-118.1183 266.0092,-113.3497"/>
</g>
<!-- 6 -->
<g id="node7" class="node">
<title>6</title>
<path fill="none" stroke="#8fd856" stroke-width="2" d="M435.5,-108C435.5,-108 365.5,-108 365.5,-108 359.5,-108 353.5,-102 353.5,-96 353.5,-96 353.5,-84 353.5,-84 353.5,-78 359.5,-72 365.5,-72 365.5,-72 435.5,-72 435.5,-72 441.5,-72 447.5,-78 447.5,-84 447.5,-84 447.5,-96 447.5,-96 447.5,-102 441.5,-108 435.5,-108"/>
<text text-anchor="middle" x="400.5" y="-87.5" font-family="sans" font-size="10.00" fill="#000000">blind_clustering</text>
</g>
<!-- 3&#45;&gt;6 -->
<g id="edge25" class="edge">
<title>3&#45;&gt;6</title>
<path fill="none" stroke="#c0c0c0" stroke-width="2" d="M330.2202,-143.8314C341.9094,-134.8779 356.1688,-123.9558 368.7809,-114.2955"/>
<polygon fill="#c0c0c0" stroke="#c0c0c0" stroke-width="2" points="370.9769,-117.0222 376.7874,-108.1628 366.7203,-111.4651 370.9769,-117.0222"/>
</g>
<!-- 4 -->
<g id="node5" class="node">
<title>4</title>
<path fill="none" stroke="#56d8b9" stroke-width="2" d="M767.5,-180C767.5,-180 737.5,-180 737.5,-180 731.5,-180 725.5,-174 725.5,-168 725.5,-168 725.5,-156 725.5,-156 725.5,-150 731.5,-144 737.5,-144 737.5,-144 767.5,-144 767.5,-144 773.5,-144 779.5,-150 779.5,-156 779.5,-156 779.5,-168 779.5,-168 779.5,-174 773.5,-180 767.5,-180"/>
<text text-anchor="middle" x="752.5" y="-159.5" font-family="sans" font-size="10.00" fill="#000000">multiqc</text>
</g>
<!-- 4&#45;&gt;0 -->
<g id="edge4" class="edge">
<title>4&#45;&gt;0</title>
<path fill="none" stroke="#c0c0c0" stroke-width="2" d="M725.4636,-150.9397C663.9617,-125.7798 513.3172,-64.1525 440.7994,-34.4861"/>
<polygon fill="#c0c0c0" stroke="#c0c0c0" stroke-width="2" points="441.6835,-31.0663 431.1028,-30.5193 439.033,-37.5451 441.6835,-31.0663"/>
</g>
<!-- 5&#45;&gt;0 -->
<g id="edge5" class="edge">
<title>5&#45;&gt;0</title>
<path fill="none" stroke="#c0c0c0" stroke-width="2" d="M280.1271,-71.8314C304.7162,-60.835 335.9455,-46.8691 360.4328,-35.9183"/>
<polygon fill="#c0c0c0" stroke="#c0c0c0" stroke-width="2" points="362.0967,-39.0082 369.7966,-31.7307 359.239,-32.6181 362.0967,-39.0082"/>
</g>
<!-- 6&#45;&gt;0 -->
<g id="edge6" class="edge">
<title>6&#45;&gt;0</title>
<path fill="none" stroke="#c0c0c0" stroke-width="2" d="M400.5,-71.8314C400.5,-64.131 400.5,-54.9743 400.5,-46.4166"/>
<polygon fill="#c0c0c0" stroke="#c0c0c0" stroke-width="2" points="404.0001,-46.4132 400.5,-36.4133 397.0001,-46.4133 404.0001,-46.4132"/>
</g>
<!-- 7&#45;&gt;0 -->
<g id="edge7" class="edge">
<title>7&#45;&gt;0</title>
<path fill="none" stroke="#c0c0c0" stroke-width="2" d="M87.0445,-75.86C91.8982,-74.471 96.7889,-73.1519 101.5,-72 192.6694,-49.7088 301.5431,-32.3184 359.4713,-23.7843"/>
<polygon fill="#c0c0c0" stroke="#c0c0c0" stroke-width="2" points="360.2894,-27.202 369.6792,-22.2946 359.2786,-20.2754 360.2894,-27.202"/>
</g>
<!-- 8 -->
<g id="node9" class="node">
<title>8</title>
<path fill="none" stroke="#d8cb56" stroke-width="2" d="M305.5,-324C305.5,-324 231.5,-324 231.5,-324 225.5,-324 219.5,-318 219.5,-312 219.5,-312 219.5,-300 219.5,-300 219.5,-294 225.5,-288 231.5,-288 231.5,-288 305.5,-288 305.5,-288 311.5,-288 317.5,-294 317.5,-300 317.5,-300 317.5,-312 317.5,-312 317.5,-318 311.5,-324 305.5,-324"/>
<text text-anchor="middle" x="268.5" y="-309" font-family="sans" font-size="10.00" fill="#000000">mark_duplicates</text>
<text text-anchor="middle" x="268.5" y="-298" font-family="sans" font-size="10.00" fill="#000000">sorter: samtools</text>
</g>
<!-- 8&#45;&gt;1 -->
<g id="edge8" class="edge">
<title>8&#45;&gt;1</title>
<path fill="none" stroke="#c0c0c0" stroke-width="2" d="M249.2491,-287.7623C222.2954,-262.2272 173.2167,-215.7316 142.8789,-186.9906"/>
<polygon fill="#c0c0c0" stroke="#c0c0c0" stroke-width="2" points="145.2613,-184.4263 135.5946,-180.0896 140.447,-189.5079 145.2613,-184.4263"/>
</g>
<!-- 8&#45;&gt;4 -->
<g id="edge17" class="edge">
<title>8&#45;&gt;4</title>
<path fill="none" stroke="#c0c0c0" stroke-width="2" d="M274.634,-287.6894C282.7275,-266.6155 299.1179,-232.762 325.5,-216 358.1699,-195.243 617.6784,-172.7116 715.4285,-164.8758"/>
<polygon fill="#c0c0c0" stroke="#c0c0c0" stroke-width="2" points="715.7597,-168.3606 725.4506,-164.0786 715.2045,-161.3827 715.7597,-168.3606"/>
</g>
<!-- 9 -->
<g id="node10" class="node">
<title>9</title>
<path fill="none" stroke="#d87d56" stroke-width="2" d="M152.5,-252C152.5,-252 82.5,-252 82.5,-252 76.5,-252 70.5,-246 70.5,-240 70.5,-240 70.5,-228 70.5,-228 70.5,-222 76.5,-216 82.5,-216 82.5,-216 152.5,-216 152.5,-216 158.5,-216 164.5,-222 164.5,-228 164.5,-228 164.5,-240 164.5,-240 164.5,-246 158.5,-252 152.5,-252"/>
<text text-anchor="middle" x="117.5" y="-231.5" font-family="sans" font-size="10.00" fill="#000000">samtools_index</text>
</g>
<!-- 8&#45;&gt;9 -->
<g id="edge31" class="edge">
<title>8&#45;&gt;9</title>
<path fill="none" stroke="#c0c0c0" stroke-width="2" d="M230.3963,-287.8314C210.3805,-278.2874 185.6733,-266.5065 164.4806,-256.4013"/>
<polygon fill="#c0c0c0" stroke="#c0c0c0" stroke-width="2" points="165.8625,-253.1828 155.3297,-252.038 162.8497,-259.5013 165.8625,-253.1828"/>
</g>
<!-- 17 -->
<g id="node18" class="node">
<title>17</title>
<path fill="none" stroke="#5692d8" stroke-width="2" d="M564,-252C564,-252 497,-252 497,-252 491,-252 485,-246 485,-240 485,-240 485,-228 485,-228 485,-222 491,-216 497,-216 497,-216 564,-216 564,-216 570,-216 576,-222 576,-228 576,-228 576,-240 576,-240 576,-246 570,-252 564,-252"/>
<text text-anchor="middle" x="530.5" y="-231.5" font-family="sans" font-size="10.00" fill="#000000">samtools_stats</text>
</g>
<!-- 8&#45;&gt;17 -->
<g id="edge39" class="edge">
<title>8&#45;&gt;17</title>
<path fill="none" stroke="#c0c0c0" stroke-width="2" d="M317.7802,-292.4574C362.5244,-280.1612 428.4462,-262.0453 475.023,-249.2456"/>
<polygon fill="#c0c0c0" stroke="#c0c0c0" stroke-width="2" points="476.2322,-252.5431 484.9473,-246.5183 474.3773,-245.7933 476.2322,-252.5431"/>
</g>
<!-- 9&#45;&gt;1 -->
<g id="edge9" class="edge">
<title>9&#45;&gt;1</title>
<path fill="none" stroke="#c0c0c0" stroke-width="2" d="M117.2477,-215.8314C117.1407,-208.131 117.0135,-198.9743 116.8947,-190.4166"/>
<polygon fill="#c0c0c0" stroke="#c0c0c0" stroke-width="2" points="120.3944,-190.3637 116.7557,-180.4133 113.3951,-190.4609 120.3944,-190.3637"/>
</g>
<!-- 10 -->
<g id="node11" class="node">
<title>10</title>
<path fill="none" stroke="#d8cb56" stroke-width="2" d="M493.5,-324C493.5,-324 419.5,-324 419.5,-324 413.5,-324 407.5,-318 407.5,-312 407.5,-312 407.5,-300 407.5,-300 407.5,-294 413.5,-288 419.5,-288 419.5,-288 493.5,-288 493.5,-288 499.5,-288 505.5,-294 505.5,-300 505.5,-300 505.5,-312 505.5,-312 505.5,-318 499.5,-324 493.5,-324"/>
<text text-anchor="middle" x="456.5" y="-309" font-family="sans" font-size="10.00" fill="#000000">mark_duplicates</text>
<text text-anchor="middle" x="456.5" y="-298" font-family="sans" font-size="10.00" fill="#000000">sorter: samtools</text>
</g>
<!-- 10&#45;&gt;2 -->
<g id="edge10" class="edge">
<title>10&#45;&gt;2</title>
<path fill="none" stroke="#c0c0c0" stroke-width="2" d="M453.3337,-287.7623C449.0508,-263.0928 441.3715,-218.8598 436.3564,-189.9731"/>
<polygon fill="#c0c0c0" stroke="#c0c0c0" stroke-width="2" points="439.7996,-189.3435 434.6406,-180.0896 432.9027,-190.541 439.7996,-189.3435"/>
</g>
<!-- 10&#45;&gt;4 -->
<g id="edge22" class="edge">
<title>10&#45;&gt;4</title>
<path fill="none" stroke="#c0c0c0" stroke-width="2" d="M505.664,-290.0323C530.611,-280.808 560.7819,-267.876 585.5,-252 605.3478,-239.2521 604.6699,-228.7755 624.5,-216 653.1758,-197.5257 689.2349,-182.9824 715.7668,-173.6653"/>
<polygon fill="#c0c0c0" stroke="#c0c0c0" stroke-width="2" points="717.1081,-176.9056 725.4337,-170.3531 714.8391,-170.2835 717.1081,-176.9056"/>
</g>
<!-- 11 -->
<g id="node12" class="node">
<title>11</title>
<path fill="none" stroke="#d87d56" stroke-width="2" d="M416.5,-252C416.5,-252 346.5,-252 346.5,-252 340.5,-252 334.5,-246 334.5,-240 334.5,-240 334.5,-228 334.5,-228 334.5,-222 340.5,-216 346.5,-216 346.5,-216 416.5,-216 416.5,-216 422.5,-216 428.5,-222 428.5,-228 428.5,-228 428.5,-240 428.5,-240 428.5,-246 422.5,-252 416.5,-252"/>
<text text-anchor="middle" x="381.5" y="-231.5" font-family="sans" font-size="10.00" fill="#000000">samtools_index</text>
</g>
<!-- 10&#45;&gt;11 -->
<g id="edge33" class="edge">
<title>10&#45;&gt;11</title>
<path fill="none" stroke="#c0c0c0" stroke-width="2" d="M437.5743,-287.8314C428.5143,-279.1337 417.5191,-268.5783 407.6735,-259.1265"/>
<polygon fill="#c0c0c0" stroke="#c0c0c0" stroke-width="2" points="410.0574,-256.5633 400.4196,-252.1628 405.2096,-261.613 410.0574,-256.5633"/>
</g>
<!-- 21 -->
<g id="node22" class="node">
<title>21</title>
<path fill="none" stroke="#5692d8" stroke-width="2" d="M712,-252C712,-252 645,-252 645,-252 639,-252 633,-246 633,-240 633,-240 633,-228 633,-228 633,-222 639,-216 645,-216 645,-216 712,-216 712,-216 718,-216 724,-222 724,-228 724,-228 724,-240 724,-240 724,-246 718,-252 712,-252"/>
<text text-anchor="middle" x="678.5" y="-231.5" font-family="sans" font-size="10.00" fill="#000000">samtools_stats</text>
</g>
<!-- 10&#45;&gt;21 -->
<g id="edge41" class="edge">
<title>10&#45;&gt;21</title>
<path fill="none" stroke="#c0c0c0" stroke-width="2" d="M505.769,-290.0209C540.4475,-278.7738 586.9128,-263.704 622.916,-252.0272"/>
<polygon fill="#c0c0c0" stroke="#c0c0c0" stroke-width="2" points="624.3424,-255.2442 632.7748,-248.8298 622.1828,-248.5856 624.3424,-255.2442"/>
</g>
<!-- 11&#45;&gt;2 -->
<g id="edge11" class="edge">
<title>11&#45;&gt;2</title>
<path fill="none" stroke="#c0c0c0" stroke-width="2" d="M394.1171,-215.8314C399.8172,-207.6232 406.6663,-197.7606 412.9359,-188.7323"/>
<polygon fill="#c0c0c0" stroke="#c0c0c0" stroke-width="2" points="415.8838,-190.6234 418.713,-180.4133 410.1342,-186.6306 415.8838,-190.6234"/>
</g>
<!-- 12 -->
<g id="node13" class="node">
<title>12</title>
<path fill="none" stroke="#68d856" stroke-width="2" d="M291.5,-468C291.5,-468 247.5,-468 247.5,-468 241.5,-468 235.5,-462 235.5,-456 235.5,-456 235.5,-444 235.5,-444 235.5,-438 241.5,-432 247.5,-432 247.5,-432 291.5,-432 291.5,-432 297.5,-432 303.5,-438 303.5,-444 303.5,-444 303.5,-456 303.5,-456 303.5,-462 297.5,-468 291.5,-468"/>
<text text-anchor="middle" x="269.5" y="-447.5" font-family="sans" font-size="10.00" fill="#000000">star_quant</text>
</g>
<!-- 12&#45;&gt;3 -->
<g id="edge12" class="edge">
<title>12&#45;&gt;3</title>
<path fill="none" stroke="#c0c0c0" stroke-width="2" d="M239.0042,-431.7757C226.8178,-422.7056 214.1228,-410.5508 207.5,-396 201.3521,-382.4925 202.8596,-309.1699 210.5,-288 224.8211,-248.3194 256.4488,-210.952 279.5003,-187.3732"/>
<polygon fill="#c0c0c0" stroke="#c0c0c0" stroke-width="2" points="282.0584,-189.7648 286.6504,-180.2168 277.1065,-184.8172 282.0584,-189.7648"/>
</g>
<!-- 24 -->
<g id="node25" class="node">
<title>24</title>
<path fill="none" stroke="#56b9d8" stroke-width="2" d="M312.5,-396C312.5,-396 228.5,-396 228.5,-396 222.5,-396 216.5,-390 216.5,-384 216.5,-384 216.5,-372 216.5,-372 216.5,-366 222.5,-360 228.5,-360 228.5,-360 312.5,-360 312.5,-360 318.5,-360 324.5,-366 324.5,-372 324.5,-372 324.5,-384 324.5,-384 324.5,-390 318.5,-396 312.5,-396"/>
<text text-anchor="middle" x="270.5" y="-381" font-family="sans" font-size="10.00" fill="#000000">samtools_sort</text>
<text text-anchor="middle" x="270.5" y="-370" font-family="sans" font-size="10.00" fill="#000000">sorting: coordinate</text>
</g>
<!-- 12&#45;&gt;24 -->
<g id="edge43" class="edge">
<title>12&#45;&gt;24</title>
<path fill="none" stroke="#c0c0c0" stroke-width="2" d="M269.7523,-431.8314C269.8593,-424.131 269.9865,-414.9743 270.1053,-406.4166"/>
<polygon fill="#c0c0c0" stroke="#c0c0c0" stroke-width="2" points="273.6049,-406.4609 270.2443,-396.4133 266.6056,-406.3637 273.6049,-406.4609"/>
</g>
<!-- 13 -->
<g id="node14" class="node">
<title>13</title>
<path fill="none" stroke="#68d856" stroke-width="2" d="M416.5,-468C416.5,-468 372.5,-468 372.5,-468 366.5,-468 360.5,-462 360.5,-456 360.5,-456 360.5,-444 360.5,-444 360.5,-438 366.5,-432 372.5,-432 372.5,-432 416.5,-432 416.5,-432 422.5,-432 428.5,-438 428.5,-444 428.5,-444 428.5,-456 428.5,-456 428.5,-462 422.5,-468 416.5,-468"/>
<text text-anchor="middle" x="394.5" y="-447.5" font-family="sans" font-size="10.00" fill="#000000">star_quant</text>
</g>
<!-- 13&#45;&gt;3 -->
<g id="edge13" class="edge">
<title>13&#45;&gt;3</title>
<path fill="none" stroke="#c0c0c0" stroke-width="2" d="M387.3411,-431.9565C373.8441,-397.4443 344.3053,-319.5044 325.5,-252 319.7949,-231.5206 314.8853,-208.0027 311.4867,-190.1446"/>
<polygon fill="#c0c0c0" stroke="#c0c0c0" stroke-width="2" points="314.8869,-189.2849 309.619,-180.0926 308.0047,-190.5638 314.8869,-189.2849"/>
</g>
<!-- 25 -->
<g id="node26" class="node">
<title>25</title>
<path fill="none" stroke="#56b9d8" stroke-width="2" d="M487.5,-396C487.5,-396 403.5,-396 403.5,-396 397.5,-396 391.5,-390 391.5,-384 391.5,-384 391.5,-372 391.5,-372 391.5,-366 397.5,-360 403.5,-360 403.5,-360 487.5,-360 487.5,-360 493.5,-360 499.5,-366 499.5,-372 499.5,-372 499.5,-384 499.5,-384 499.5,-390 493.5,-396 487.5,-396"/>
<text text-anchor="middle" x="445.5" y="-381" font-family="sans" font-size="10.00" fill="#000000">samtools_sort</text>
<text text-anchor="middle" x="445.5" y="-370" font-family="sans" font-size="10.00" fill="#000000">sorting: coordinate</text>
</g>
<!-- 13&#45;&gt;25 -->
<g id="edge44" class="edge">
<title>13&#45;&gt;25</title>
<path fill="none" stroke="#c0c0c0" stroke-width="2" d="M407.3695,-431.8314C413.1835,-423.6232 420.1696,-413.7606 426.5646,-404.7323"/>
<polygon fill="#c0c0c0" stroke="#c0c0c0" stroke-width="2" points="429.5331,-406.5966 432.4573,-396.4133 423.821,-402.5505 429.5331,-406.5966"/>
</g>
<!-- 14 -->
<g id="node15" class="node">
<title>14</title>
<path fill="none" stroke="#a7d856" stroke-width="2" d="M902.5,-252C902.5,-252 830.5,-252 830.5,-252 824.5,-252 818.5,-246 818.5,-240 818.5,-240 818.5,-228 818.5,-228 818.5,-222 824.5,-216 830.5,-216 830.5,-216 902.5,-216 902.5,-216 908.5,-216 914.5,-222 914.5,-228 914.5,-228 914.5,-240 914.5,-240 914.5,-246 908.5,-252 902.5,-252"/>
<text text-anchor="middle" x="866.5" y="-237" font-family="sans" font-size="10.00" fill="#000000">fastqc</text>
<text text-anchor="middle" x="866.5" y="-226" font-family="sans" font-size="10.00" fill="#000000">fname: sample1</text>
</g>
<!-- 14&#45;&gt;4 -->
<g id="edge14" class="edge">
<title>14&#45;&gt;4</title>
<path fill="none" stroke="#c0c0c0" stroke-width="2" d="M837.733,-215.8314C822.7065,-206.3409 804.1777,-194.6386 788.2383,-184.5716"/>
<polygon fill="#c0c0c0" stroke="#c0c0c0" stroke-width="2" points="790.012,-181.5522 779.6881,-179.1715 786.2741,-187.4707 790.012,-181.5522"/>
</g>
<!-- 15 -->
<g id="node16" class="node">
<title>15</title>
<path fill="none" stroke="#a7d856" stroke-width="2" d="M912,-324C912,-324 793,-324 793,-324 787,-324 781,-318 781,-312 781,-312 781,-300 781,-300 781,-294 787,-288 793,-288 793,-288 912,-288 912,-288 918,-288 924,-294 924,-300 924,-300 924,-312 924,-312 924,-318 918,-324 912,-324"/>
<text text-anchor="middle" x="852.5" y="-309" font-family="sans" font-size="10.00" fill="#000000">fastqc</text>
<text text-anchor="middle" x="852.5" y="-298" font-family="sans" font-size="10.00" fill="#000000">fname: sample1_trimmed</text>
</g>
<!-- 15&#45;&gt;4 -->
<g id="edge15" class="edge">
<title>15&#45;&gt;4</title>
<path fill="none" stroke="#c0c0c0" stroke-width="2" d="M837.2696,-287.8848C828.809,-277.5762 818.2555,-264.3026 809.5,-252 794.8885,-231.469 779.6841,-207.2985 768.6569,-189.1782"/>
<polygon fill="#c0c0c0" stroke="#c0c0c0" stroke-width="2" points="771.4632,-187.0547 763.2964,-180.3053 765.4717,-190.6744 771.4632,-187.0547"/>
</g>
<!-- 16 -->
<g id="node17" class="node">
<title>16</title>
<path fill="none" stroke="#56a9d8" stroke-width="2" d="M791,-540C791,-540 714,-540 714,-540 708,-540 702,-534 702,-528 702,-528 702,-516 702,-516 702,-510 708,-504 714,-504 714,-504 791,-504 791,-504 797,-504 803,-510 803,-516 803,-516 803,-528 803,-528 803,-534 797,-540 791,-540"/>
<text text-anchor="middle" x="752.5" y="-525" font-family="sans" font-size="10.00" fill="#000000">trim_galore_SE</text>
<text text-anchor="middle" x="752.5" y="-514" font-family="sans" font-size="10.00" fill="#000000">sample: sample1</text>
</g>
<!-- 16&#45;&gt;4 -->
<g id="edge16" class="edge">
<title>16&#45;&gt;4</title>
<path fill="none" stroke="#c0c0c0" stroke-width="2" d="M752.5,-503.8146C752.5,-476.4983 752.5,-423.25 752.5,-378 752.5,-378 752.5,-378 752.5,-306 752.5,-265.876 752.5,-219.4631 752.5,-190.4177"/>
<polygon fill="#c0c0c0" stroke="#c0c0c0" stroke-width="2" points="756.0001,-190.1853 752.5,-180.1854 749.0001,-190.1854 756.0001,-190.1853"/>
</g>
<!-- 16&#45;&gt;12 -->
<g id="edge34" class="edge">
<title>16&#45;&gt;12</title>
<path fill="none" stroke="#c0c0c0" stroke-width="2" d="M701.9677,-516.5458C625.7299,-508.0124 476.8777,-490.1642 351.5,-468 339.1658,-465.8196 325.872,-463.0746 313.6529,-460.3899"/>
<polygon fill="#c0c0c0" stroke="#c0c0c0" stroke-width="2" points="314.2088,-456.9279 303.6862,-458.1626 312.6821,-463.7594 314.2088,-456.9279"/>
</g>
<!-- 16&#45;&gt;15 -->
<g id="edge38" class="edge">
<title>16&#45;&gt;15</title>
<path fill="none" stroke="#c0c0c0" stroke-width="2" d="M760.8539,-503.9555C778.3907,-466.0762 819.1288,-378.0818 839.8731,-333.274"/>
<polygon fill="#c0c0c0" stroke="#c0c0c0" stroke-width="2" points="843.0744,-334.6902 844.0995,-324.1451 836.7221,-331.7493 843.0744,-334.6902"/>
</g>
<!-- 17&#45;&gt;4 -->
<g id="edge18" class="edge">
<title>17&#45;&gt;4</title>
<path fill="none" stroke="#c0c0c0" stroke-width="2" d="M576.2294,-219.1689C617.4763,-205.7915 677.3724,-186.3657 715.6294,-173.958"/>
<polygon fill="#c0c0c0" stroke="#c0c0c0" stroke-width="2" points="716.9059,-177.2236 725.3383,-170.8092 714.7463,-170.565 716.9059,-177.2236"/>
</g>
<!-- 18 -->
<g id="node19" class="node">
<title>18</title>
<path fill="none" stroke="#a7d856" stroke-width="2" d="M1016.5,-252C1016.5,-252 944.5,-252 944.5,-252 938.5,-252 932.5,-246 932.5,-240 932.5,-240 932.5,-228 932.5,-228 932.5,-222 938.5,-216 944.5,-216 944.5,-216 1016.5,-216 1016.5,-216 1022.5,-216 1028.5,-222 1028.5,-228 1028.5,-228 1028.5,-240 1028.5,-240 1028.5,-246 1022.5,-252 1016.5,-252"/>
<text text-anchor="middle" x="980.5" y="-237" font-family="sans" font-size="10.00" fill="#000000">fastqc</text>
<text text-anchor="middle" x="980.5" y="-226" font-family="sans" font-size="10.00" fill="#000000">fname: sample2</text>
</g>
<!-- 18&#45;&gt;4 -->
<g id="edge19" class="edge">
<title>18&#45;&gt;4</title>
<path fill="none" stroke="#c0c0c0" stroke-width="2" d="M932.4257,-218.8186C889.8497,-205.3736 828.5818,-186.0258 789.6641,-173.736"/>
<polygon fill="#c0c0c0" stroke="#c0c0c0" stroke-width="2" points="790.3853,-170.2935 779.7955,-170.6196 788.2774,-176.9686 790.3853,-170.2935"/>
</g>
<!-- 19 -->
<g id="node20" class="node">
<title>19</title>
<path fill="none" stroke="#a7d856" stroke-width="2" d="M1216,-396C1216,-396 1097,-396 1097,-396 1091,-396 1085,-390 1085,-384 1085,-384 1085,-372 1085,-372 1085,-366 1091,-360 1097,-360 1097,-360 1216,-360 1216,-360 1222,-360 1228,-366 1228,-372 1228,-372 1228,-384 1228,-384 1228,-390 1222,-396 1216,-396"/>
<text text-anchor="middle" x="1156.5" y="-381" font-family="sans" font-size="10.00" fill="#000000">fastqc</text>
<text text-anchor="middle" x="1156.5" y="-370" font-family="sans" font-size="10.00" fill="#000000">fname: sample2_trimmed</text>
</g>
<!-- 19&#45;&gt;4 -->
<g id="edge20" class="edge">
<title>19&#45;&gt;4</title>
<path fill="none" stroke="#c0c0c0" stroke-width="2" d="M1152.4902,-359.9331C1143.9015,-325.7865 1120.3209,-251.9818 1070.5,-216 1026.1493,-183.9689 864.251,-169.3757 790.0764,-164.261"/>
<polygon fill="#c0c0c0" stroke="#c0c0c0" stroke-width="2" points="790.0046,-160.7485 779.7936,-163.5742 789.5381,-167.733 790.0046,-160.7485"/>
</g>
<!-- 20 -->
<g id="node21" class="node">
<title>20</title>
<path fill="none" stroke="#56a9d8" stroke-width="2" d="M1095,-540C1095,-540 1018,-540 1018,-540 1012,-540 1006,-534 1006,-528 1006,-528 1006,-516 1006,-516 1006,-510 1012,-504 1018,-504 1018,-504 1095,-504 1095,-504 1101,-504 1107,-510 1107,-516 1107,-516 1107,-528 1107,-528 1107,-534 1101,-540 1095,-540"/>
<text text-anchor="middle" x="1056.5" y="-525" font-family="sans" font-size="10.00" fill="#000000">trim_galore_SE</text>
<text text-anchor="middle" x="1056.5" y="-514" font-family="sans" font-size="10.00" fill="#000000">sample: sample2</text>
</g>
<!-- 20&#45;&gt;4 -->
<g id="edge21" class="edge">
<title>20&#45;&gt;4</title>
<path fill="none" stroke="#c0c0c0" stroke-width="2" d="M1056.5,-503.8146C1056.5,-476.4983 1056.5,-423.25 1056.5,-378 1056.5,-378 1056.5,-378 1056.5,-306 1056.5,-265.1184 1066.7068,-244.6055 1037.5,-216 1002.851,-182.0644 859.0046,-168.6255 789.8939,-164.0509"/>
<polygon fill="#c0c0c0" stroke="#c0c0c0" stroke-width="2" points="790.0678,-160.555 779.8662,-163.4149 789.6246,-167.541 790.0678,-160.555"/>
</g>
<!-- 20&#45;&gt;13 -->
<g id="edge36" class="edge">
<title>20&#45;&gt;13</title>
<path fill="none" stroke="#c0c0c0" stroke-width="2" d="M1005.9264,-516.4996C880.6468,-502.874 557.4952,-467.7276 438.9516,-454.8346"/>
<polygon fill="#c0c0c0" stroke="#c0c0c0" stroke-width="2" points="439.1083,-451.3311 428.7884,-453.7293 438.3514,-458.2901 439.1083,-451.3311"/>
</g>
<!-- 20&#45;&gt;19 -->
<g id="edge40" class="edge">
<title>20&#45;&gt;19</title>
<path fill="none" stroke="#c0c0c0" stroke-width="2" d="M1069.1651,-503.7623C1086.5972,-478.66 1118.096,-433.3017 1138.1201,-404.4671"/>
<polygon fill="#c0c0c0" stroke="#c0c0c0" stroke-width="2" points="1141.1086,-406.2997 1143.9378,-396.0896 1135.359,-402.3069 1141.1086,-406.2997"/>
</g>
<!-- 21&#45;&gt;4 -->
<g id="edge23" class="edge">
<title>21&#45;&gt;4</title>
<path fill="none" stroke="#c0c0c0" stroke-width="2" d="M697.1733,-215.8314C706.0249,-207.219 716.7486,-196.7851 726.3895,-187.4048"/>
<polygon fill="#c0c0c0" stroke="#c0c0c0" stroke-width="2" points="729.1061,-189.645 733.8326,-180.1628 724.2246,-184.6279 729.1061,-189.645"/>
</g>
<!-- 22 -->
<g id="node23" class="node">
<title>22</title>
<path fill="none" stroke="#59d856" stroke-width="2" stroke-dasharray="5,2" d="M181.5,-684C181.5,-684 77.5,-684 77.5,-684 71.5,-684 65.5,-678 65.5,-672 65.5,-672 65.5,-660 65.5,-660 65.5,-654 71.5,-648 77.5,-648 77.5,-648 181.5,-648 181.5,-648 187.5,-648 193.5,-654 193.5,-660 193.5,-660 193.5,-672 193.5,-672 193.5,-678 187.5,-684 181.5,-684"/>
<text text-anchor="middle" x="129.5" y="-669" font-family="sans" font-size="10.00" fill="#000000">get_genome</text>
<text text-anchor="middle" x="129.5" y="-658" font-family="sans" font-size="10.00" fill="#000000">assembly: GRCh38.p12</text>
</g>
<!-- 22&#45;&gt;7 -->
<g id="edge28" class="edge">
<title>22&#45;&gt;7</title>
<path fill="none" stroke="#c0c0c0" stroke-width="2" d="M97.6338,-647.8474C60.5994,-624.1071 4.5,-578.7753 4.5,-522 4.5,-522 4.5,-522 4.5,-234 4.5,-192.2959 19.9284,-146.0864 31.3773,-117.5372"/>
<polygon fill="#c0c0c0" stroke="#c0c0c0" stroke-width="2" points="34.6463,-118.7907 35.2291,-108.2119 28.1765,-116.1183 34.6463,-118.7907"/>
</g>
<!-- 23 -->
<g id="node24" class="node">
<title>23</title>
<path fill="none" stroke="#d8a456" stroke-width="2" stroke-dasharray="5,2" d="M117.5,-612C117.5,-612 87.5,-612 87.5,-612 81.5,-612 75.5,-606 75.5,-600 75.5,-600 75.5,-588 75.5,-588 75.5,-582 81.5,-576 87.5,-576 87.5,-576 117.5,-576 117.5,-576 123.5,-576 129.5,-582 129.5,-588 129.5,-588 129.5,-600 129.5,-600 129.5,-606 123.5,-612 117.5,-612"/>
<text text-anchor="middle" x="102.5" y="-591.5" font-family="sans" font-size="10.00" fill="#000000">twobit</text>
</g>
<!-- 22&#45;&gt;23 -->
<g id="edge42" class="edge">
<title>22&#45;&gt;23</title>
<path fill="none" stroke="#c0c0c0" stroke-width="2" d="M122.6868,-647.8314C119.7356,-639.9617 116.2142,-630.5712 112.945,-621.8533"/>
<polygon fill="#c0c0c0" stroke="#c0c0c0" stroke-width="2" points="116.1934,-620.5476 109.405,-612.4133 109.6391,-623.0055 116.1934,-620.5476"/>
</g>
<!-- 26 -->
<g id="node27" class="node">
<title>26</title>
<path fill="none" stroke="#567bd8" stroke-width="2" stroke-dasharray="5,2" d="M286.5,-540C286.5,-540 242.5,-540 242.5,-540 236.5,-540 230.5,-534 230.5,-528 230.5,-528 230.5,-516 230.5,-516 230.5,-510 236.5,-504 242.5,-504 242.5,-504 286.5,-504 286.5,-504 292.5,-504 298.5,-510 298.5,-516 298.5,-516 298.5,-528 298.5,-528 298.5,-534 292.5,-540 286.5,-540"/>
<text text-anchor="middle" x="264.5" y="-519.5" font-family="sans" font-size="10.00" fill="#000000">star_index</text>
</g>
<!-- 22&#45;&gt;26 -->
<g id="edge45" class="edge">
<title>22&#45;&gt;26</title>
<path fill="none" stroke="#c0c0c0" stroke-width="2" d="M144.8078,-647.6763C160.417,-629.2058 185.5351,-600.066 208.5,-576 217.6783,-566.3816 228.0781,-556.1759 237.4029,-547.2567"/>
<polygon fill="#c0c0c0" stroke="#c0c0c0" stroke-width="2" points="240.09,-549.5317 244.9325,-540.1083 235.2704,-544.4551 240.09,-549.5317"/>
</g>
<!-- 27 -->
<g id="node28" class="node">
<title>27</title>
<path fill="none" stroke="#80d856" stroke-width="2" stroke-dasharray="5,2" d="M295.5,-612C295.5,-612 229.5,-612 229.5,-612 223.5,-612 217.5,-606 217.5,-600 217.5,-600 217.5,-588 217.5,-588 217.5,-582 223.5,-576 229.5,-576 229.5,-576 295.5,-576 295.5,-576 301.5,-576 307.5,-582 307.5,-588 307.5,-588 307.5,-600 307.5,-600 307.5,-606 301.5,-612 295.5,-612"/>
<text text-anchor="middle" x="262.5" y="-591.5" font-family="sans" font-size="10.00" fill="#000000">get_annotation</text>
</g>
<!-- 22&#45;&gt;27 -->
<g id="edge47" class="edge">
<title>22&#45;&gt;27</title>
<path fill="none" stroke="#c0c0c0" stroke-width="2" d="M163.0615,-647.8314C180.3881,-638.4516 201.7058,-626.9112 220.1536,-616.9244"/>
<polygon fill="#c0c0c0" stroke="#c0c0c0" stroke-width="2" points="221.8214,-620.0015 228.9492,-612.1628 218.4889,-613.8457 221.8214,-620.0015"/>
</g>
<!-- 23&#45;&gt;7 -->
<g id="edge29" class="edge">
<title>23&#45;&gt;7</title>
<path fill="none" stroke="#c0c0c0" stroke-width="2" d="M89.4809,-575.9118C71.8344,-549.5658 42.5,-498.4792 42.5,-450 42.5,-450 42.5,-450 42.5,-234 42.5,-193.875 42.8931,-147.4624 43.1863,-118.4173"/>
<polygon fill="#c0c0c0" stroke="#c0c0c0" stroke-width="2" points="46.6885,-118.221 43.2928,-108.1851 39.6888,-118.1481 46.6885,-118.221"/>
</g>
<!-- 24&#45;&gt;8 -->
<g id="edge30" class="edge">
<title>24&#45;&gt;8</title>
<path fill="none" stroke="#c0c0c0" stroke-width="2" d="M269.9953,-359.8314C269.7814,-352.131 269.5271,-342.9743 269.2894,-334.4166"/>
<polygon fill="#c0c0c0" stroke="#c0c0c0" stroke-width="2" points="272.7879,-334.3122 269.0115,-324.4133 265.7906,-334.5066 272.7879,-334.3122"/>
</g>
<!-- 25&#45;&gt;10 -->
<g id="edge32" class="edge">
<title>25&#45;&gt;10</title>
<path fill="none" stroke="#c0c0c0" stroke-width="2" d="M448.2758,-359.8314C449.4522,-352.131 450.8511,-342.9743 452.1586,-334.4166"/>
<polygon fill="#c0c0c0" stroke="#c0c0c0" stroke-width="2" points="455.6364,-334.8272 453.6869,-324.4133 448.7167,-333.7699 455.6364,-334.8272"/>
</g>
<!-- 26&#45;&gt;12 -->
<g id="edge35" class="edge">
<title>26&#45;&gt;12</title>
<path fill="none" stroke="#c0c0c0" stroke-width="2" d="M265.7617,-503.8314C266.2965,-496.131 266.9323,-486.9743 267.5266,-478.4166"/>
<polygon fill="#c0c0c0" stroke="#c0c0c0" stroke-width="2" points="271.02,-478.6317 268.2213,-468.4133 264.0368,-478.1467 271.02,-478.6317"/>
</g>
<!-- 26&#45;&gt;13 -->
<g id="edge37" class="edge">
<title>26&#45;&gt;13</title>
<path fill="none" stroke="#c0c0c0" stroke-width="2" d="M297.3045,-503.8314C314.0862,-494.5368 334.6985,-483.1208 352.6163,-473.1971"/>
<polygon fill="#c0c0c0" stroke="#c0c0c0" stroke-width="2" points="354.6538,-476.0696 361.706,-468.1628 351.2623,-469.9461 354.6538,-476.0696"/>
</g>
<!-- 27&#45;&gt;26 -->
<g id="edge46" class="edge">
<title>27&#45;&gt;26</title>
<path fill="none" stroke="#c0c0c0" stroke-width="2" d="M263.0047,-575.8314C263.2186,-568.131 263.4729,-558.9743 263.7106,-550.4166"/>
<polygon fill="#c0c0c0" stroke="#c0c0c0" stroke-width="2" points="267.2094,-550.5066 263.9885,-540.4133 260.2121,-550.3122 267.2094,-550.5066"/>
</g>
</g>
</svg>
