<?xml version="1.0" encoding="UTF-8" standalone="no"?>
<!DOCTYPE svg PUBLIC "-//W3C//DTD SVG 1.1//EN"
 "http://www.w3.org/Graphics/SVG/1.1/DTD/svg11.dtd">
<!-- Generated by graphviz version 2.40.1 (20161225.0304)
 -->
<!-- Title: snakemake_dag Pages: 1 -->
<svg width="764pt" height="692pt"
 viewBox="0.00 0.00 763.50 692.00" xmlns="http://www.w3.org/2000/svg" xmlns:xlink="http://www.w3.org/1999/xlink">
<g id="graph0" class="graph" transform="scale(1 1) rotate(0) translate(4 688)">
<title>snakemake_dag</title>
<polygon fill="#ffffff" stroke="transparent" points="-4,4 -4,-688 759.5,-688 759.5,4 -4,4"/>
<!-- 0 -->
<g id="node1" class="node">
<title>0</title>
<path fill="none" stroke="#b6d856" stroke-width="2" d="M528.5,-36C528.5,-36 491.5,-36 491.5,-36 485.5,-36 479.5,-30 479.5,-24 479.5,-24 479.5,-12 479.5,-12 479.5,-6 485.5,0 491.5,0 491.5,0 528.5,0 528.5,0 534.5,0 540.5,-6 540.5,-12 540.5,-12 540.5,-24 540.5,-24 540.5,-30 534.5,-36 528.5,-36"/>
<text text-anchor="middle" x="510" y="-15.5" font-family="sans" font-size="10.00" fill="#000000">count_all</text>
</g>
<!-- 1 -->
<g id="node2" class="node">
<title>1</title>
<path fill="none" stroke="#d6d856" stroke-width="2" d="M664.5,-252C664.5,-252 589.5,-252 589.5,-252 583.5,-252 577.5,-246 577.5,-240 577.5,-240 577.5,-228 577.5,-228 577.5,-222 583.5,-216 589.5,-216 589.5,-216 664.5,-216 664.5,-216 670.5,-216 676.5,-222 676.5,-228 676.5,-228 676.5,-240 676.5,-240 676.5,-246 670.5,-252 664.5,-252"/>
<text text-anchor="middle" x="627" y="-231.5" font-family="sans" font-size="10.00" fill="#000000">txi_count_matrix</text>
</g>
<!-- 1&#45;&gt;0 -->
<g id="edge3" class="edge">
<title>1&#45;&gt;0</title>
<path fill="none" stroke="#c0c0c0" stroke-width="2" d="M630.8098,-215.9029C636.4852,-183.9116 643.5687,-116.5482 614,-72 599.3973,-49.9996 572.8684,-36.427 550.2601,-28.3915"/>
<polygon fill="#c0c0c0" stroke="#c0c0c0" stroke-width="2" points="551.1254,-24.9914 540.5322,-25.1786 548.9301,-31.6382 551.1254,-24.9914"/>
</g>
<!-- 3 -->
<g id="node4" class="node">
<title>3</title>
<path fill="none" stroke="#c6d856" stroke-width="2" d="M593,-108C593,-108 523,-108 523,-108 517,-108 511,-102 511,-96 511,-96 511,-84 511,-84 511,-78 517,-72 523,-72 523,-72 593,-72 593,-72 599,-72 605,-78 605,-84 605,-84 605,-96 605,-96 605,-102 599,-108 593,-108"/>
<text text-anchor="middle" x="558" y="-87.5" font-family="sans" font-size="10.00" fill="#000000">blind_clustering</text>
</g>
<!-- 1&#45;&gt;3 -->
<g id="edge12" class="edge">
<title>1&#45;&gt;3</title>
<path fill="none" stroke="#c0c0c0" stroke-width="2" d="M618.2611,-215.7623C606.3366,-190.8764 584.8727,-146.0822 571.0412,-117.2165"/>
<polygon fill="#c0c0c0" stroke="#c0c0c0" stroke-width="2" points="574.1456,-115.5953 566.6679,-108.0896 567.8328,-118.6202 574.1456,-115.5953"/>
</g>
<!-- 2 -->
<g id="node3" class="node">
<title>2</title>
<path fill="none" stroke="#56d8a9" stroke-width="2" d="M172,-180C172,-180 142,-180 142,-180 136,-180 130,-174 130,-168 130,-168 130,-156 130,-156 130,-150 136,-144 142,-144 142,-144 172,-144 172,-144 178,-144 184,-150 184,-156 184,-156 184,-168 184,-168 184,-174 178,-180 172,-180"/>
<text text-anchor="middle" x="157" y="-159.5" font-family="sans" font-size="10.00" fill="#000000">multiqc</text>
</g>
<!-- 2&#45;&gt;0 -->
<g id="edge1" class="edge">
<title>2&#45;&gt;0</title>
<path fill="none" stroke="#c0c0c0" stroke-width="2" d="M184.1132,-150.9397C245.916,-125.7283 397.4806,-63.9003 470.0313,-34.3045"/>
<polygon fill="#c0c0c0" stroke="#c0c0c0" stroke-width="2" points="471.3731,-37.5372 479.3103,-30.5193 468.729,-31.0558 471.3731,-37.5372"/>
</g>
<!-- 3&#45;&gt;0 -->
<g id="edge4" class="edge">
<title>3&#45;&gt;0</title>
<path fill="none" stroke="#c0c0c0" stroke-width="2" d="M545.8876,-71.8314C540.4719,-63.7079 533.9758,-53.9637 528.0079,-45.0118"/>
<polygon fill="#c0c0c0" stroke="#c0c0c0" stroke-width="2" points="530.7347,-42.7923 522.2755,-36.4133 524.9104,-46.6753 530.7347,-42.7923"/>
</g>
<!-- 4 -->
<g id="node5" class="node">
<title>4</title>
<path fill="none" stroke="#56d86b" stroke-width="2" d="M480.5,-108C480.5,-108 445.5,-108 445.5,-108 439.5,-108 433.5,-102 433.5,-96 433.5,-96 433.5,-84 433.5,-84 433.5,-78 439.5,-72 445.5,-72 445.5,-72 480.5,-72 480.5,-72 486.5,-72 492.5,-78 492.5,-84 492.5,-84 492.5,-96 492.5,-96 492.5,-102 486.5,-108 480.5,-108"/>
<text text-anchor="middle" x="463" y="-87.5" font-family="sans" font-size="10.00" fill="#000000">trackhub</text>
</g>
<!-- 4&#45;&gt;0 -->
<g id="edge2" class="edge">
<title>4&#45;&gt;0</title>
<path fill="none" stroke="#c0c0c0" stroke-width="2" d="M474.8601,-71.8314C480.1629,-63.7079 486.5237,-53.9637 492.3673,-45.0118"/>
<polygon fill="#c0c0c0" stroke="#c0c0c0" stroke-width="2" points="495.4448,-46.7003 497.9802,-36.4133 489.5831,-42.8739 495.4448,-46.7003"/>
</g>
<!-- 5 -->
<g id="node6" class="node">
<title>5</title>
<path fill="none" stroke="#d8a456" stroke-width="2" d="M743.5,-324C743.5,-324 684.5,-324 684.5,-324 678.5,-324 672.5,-318 672.5,-312 672.5,-312 672.5,-300 672.5,-300 672.5,-294 678.5,-288 684.5,-288 684.5,-288 743.5,-288 743.5,-288 749.5,-288 755.5,-294 755.5,-300 755.5,-300 755.5,-312 755.5,-312 755.5,-318 749.5,-324 743.5,-324"/>
<text text-anchor="middle" x="714" y="-303.5" font-family="sans" font-size="10.00" fill="#000000">linked_txome</text>
</g>
<!-- 5&#45;&gt;1 -->
<g id="edge6" class="edge">
<title>5&#45;&gt;1</title>
<path fill="none" stroke="#c0c0c0" stroke-width="2" d="M692.0462,-287.8314C681.3305,-278.9632 668.2811,-268.1637 656.691,-258.5718"/>
<polygon fill="#c0c0c0" stroke="#c0c0c0" stroke-width="2" points="658.8822,-255.8422 648.9467,-252.1628 654.4192,-261.2349 658.8822,-255.8422"/>
</g>
<!-- 6 -->
<g id="node7" class="node">
<title>6</title>
<path fill="none" stroke="#5682d8" stroke-width="2" d="M641,-324C641,-324 579,-324 579,-324 573,-324 567,-318 567,-312 567,-312 567,-300 567,-300 567,-294 573,-288 579,-288 579,-288 641,-288 641,-288 647,-288 653,-294 653,-300 653,-300 653,-312 653,-312 653,-318 647,-324 641,-324"/>
<text text-anchor="middle" x="610" y="-303.5" font-family="sans" font-size="10.00" fill="#000000">salmon_quant</text>
</g>
<!-- 6&#45;&gt;1 -->
<g id="edge5" class="edge">
<title>6&#45;&gt;1</title>
<path fill="none" stroke="#c0c0c0" stroke-width="2" d="M614.2898,-287.8314C616.108,-280.131 618.2699,-270.9743 620.2905,-262.4166"/>
<polygon fill="#c0c0c0" stroke="#c0c0c0" stroke-width="2" points="623.7608,-262.95 622.6524,-252.4133 616.9481,-261.3414 623.7608,-262.95"/>
</g>
<!-- 7 -->
<g id="node8" class="node">
<title>7</title>
<path fill="none" stroke="#5692d8" stroke-width="2" d="M42,-468C42,-468 12,-468 12,-468 6,-468 0,-462 0,-456 0,-456 0,-444 0,-444 0,-438 6,-432 12,-432 12,-432 42,-432 42,-432 48,-432 54,-438 54,-444 54,-444 54,-456 54,-456 54,-462 48,-468 42,-468"/>
<text text-anchor="middle" x="27" y="-447.5" font-family="sans" font-size="10.00" fill="#000000">fastqc</text>
</g>
<!-- 7&#45;&gt;2 -->
<g id="edge9" class="edge">
<title>7&#45;&gt;2</title>
<path fill="none" stroke="#c0c0c0" stroke-width="2" d="M25.3877,-431.7163C22.6278,-389.6647 21.2291,-284.4465 68,-216 80.5903,-197.5748 101.7404,-184.361 120.264,-175.6178"/>
<polygon fill="#c0c0c0" stroke="#c0c0c0" stroke-width="2" points="121.9328,-178.7064 129.652,-171.4493 119.0921,-172.3087 121.9328,-178.7064"/>
</g>
<!-- 8 -->
<g id="node9" class="node">
<title>8</title>
<path fill="none" stroke="#d88556" stroke-width="2" d="M133,-540C133,-540 67,-540 67,-540 61,-540 55,-534 55,-528 55,-528 55,-516 55,-516 55,-510 61,-504 67,-504 67,-504 133,-504 133,-504 139,-504 145,-510 145,-516 145,-516 145,-528 145,-528 145,-534 139,-540 133,-540"/>
<text text-anchor="middle" x="100" y="-519.5" font-family="sans" font-size="10.00" fill="#000000">trim_galore_PE</text>
</g>
<!-- 8&#45;&gt;2 -->
<g id="edge8" class="edge">
<title>8&#45;&gt;2</title>
<path fill="none" stroke="#c0c0c0" stroke-width="2" d="M96.2704,-503.9053C90.9981,-476.7046 82,-423.6021 82,-378 82,-378 82,-378 82,-306 82,-260.7853 111.4458,-215.6965 133.4368,-188.3276"/>
<polygon fill="#c0c0c0" stroke="#c0c0c0" stroke-width="2" points="136.3004,-190.357 139.9813,-180.4221 130.9084,-185.8931 136.3004,-190.357"/>
</g>
<!-- 8&#45;&gt;6 -->
<g id="edge18" class="edge">
<title>8&#45;&gt;6</title>
<path fill="none" stroke="#c0c0c0" stroke-width="2" d="M132.5561,-503.8531C190.9976,-471.7838 318.1445,-404.3022 431,-360 472.4276,-343.7373 520.8254,-329.4048 556.8437,-319.5999"/>
<polygon fill="#c0c0c0" stroke="#c0c0c0" stroke-width="2" points="557.9126,-322.9368 566.6583,-316.9566 556.0922,-316.1776 557.9126,-322.9368"/>
</g>
<!-- 8&#45;&gt;7 -->
<g id="edge20" class="edge">
<title>8&#45;&gt;7</title>
<path fill="none" stroke="#c0c0c0" stroke-width="2" d="M81.579,-503.8314C72.8471,-495.219 62.2683,-484.7851 52.7577,-475.4048"/>
<polygon fill="#c0c0c0" stroke="#c0c0c0" stroke-width="2" points="54.9925,-472.6931 45.4151,-468.1628 50.077,-477.6769 54.9925,-472.6931"/>
</g>
<!-- 23 -->
<g id="node24" class="node">
<title>23</title>
<path fill="none" stroke="#56d8c9" stroke-width="2" d="M405.5,-468C405.5,-468 364.5,-468 364.5,-468 358.5,-468 352.5,-462 352.5,-456 352.5,-456 352.5,-444 352.5,-444 352.5,-438 358.5,-432 364.5,-432 364.5,-432 405.5,-432 405.5,-432 411.5,-432 417.5,-438 417.5,-444 417.5,-444 417.5,-456 417.5,-456 417.5,-462 411.5,-468 405.5,-468"/>
<text text-anchor="middle" x="385" y="-447.5" font-family="sans" font-size="10.00" fill="#000000">star_align</text>
</g>
<!-- 8&#45;&gt;23 -->
<g id="edge40" class="edge">
<title>8&#45;&gt;23</title>
<path fill="none" stroke="#c0c0c0" stroke-width="2" d="M145.2413,-513.7331C193.4933,-504.4536 271.9094,-488.0416 338,-468 339.4633,-467.5563 340.9462,-467.0891 342.4391,-466.6037"/>
<polygon fill="#c0c0c0" stroke="#c0c0c0" stroke-width="2" points="344.023,-469.76 352.3371,-463.1928 341.7424,-463.1419 344.023,-469.76"/>
</g>
<!-- 9 -->
<g id="node10" class="node">
<title>9</title>
<path fill="none" stroke="#d85656" stroke-width="2" d="M319,-324C319,-324 245,-324 245,-324 239,-324 233,-318 233,-312 233,-312 233,-300 233,-300 233,-294 239,-288 245,-288 245,-288 319,-288 319,-288 325,-288 331,-294 331,-300 331,-300 331,-312 331,-312 331,-318 325,-324 319,-324"/>
<text text-anchor="middle" x="282" y="-303.5" font-family="sans" font-size="10.00" fill="#000000">mark_duplicates</text>
</g>
<!-- 9&#45;&gt;2 -->
<g id="edge7" class="edge">
<title>9&#45;&gt;2</title>
<path fill="none" stroke="#c0c0c0" stroke-width="2" d="M232.7099,-293.7978C195.9061,-283.5731 150.1293,-268.099 139,-252 126.2875,-233.6108 132.915,-208.3467 141.5025,-189.266"/>
<polygon fill="#c0c0c0" stroke="#c0c0c0" stroke-width="2" points="144.693,-190.7088 145.9391,-180.1875 138.4038,-187.6353 144.693,-190.7088"/>
</g>
<!-- 10 -->
<g id="node11" class="node">
<title>10</title>
<path fill="none" stroke="#5673d8" stroke-width="2" d="M227.5,-252C227.5,-252 160.5,-252 160.5,-252 154.5,-252 148.5,-246 148.5,-240 148.5,-240 148.5,-228 148.5,-228 148.5,-222 154.5,-216 160.5,-216 160.5,-216 227.5,-216 227.5,-216 233.5,-216 239.5,-222 239.5,-228 239.5,-228 239.5,-240 239.5,-240 239.5,-246 233.5,-252 227.5,-252"/>
<text text-anchor="middle" x="194" y="-231.5" font-family="sans" font-size="10.00" fill="#000000">samtools_stats</text>
</g>
<!-- 9&#45;&gt;10 -->
<g id="edge24" class="edge">
<title>9&#45;&gt;10</title>
<path fill="none" stroke="#c0c0c0" stroke-width="2" d="M259.7939,-287.8314C248.955,-278.9632 235.7556,-268.1637 224.0322,-258.5718"/>
<polygon fill="#c0c0c0" stroke="#c0c0c0" stroke-width="2" points="226.155,-255.7864 216.199,-252.1628 221.7223,-261.2041 226.155,-255.7864"/>
</g>
<!-- 11 -->
<g id="node12" class="node">
<title>11</title>
<path fill="none" stroke="#70d856" stroke-width="2" d="M346,-252C346,-252 270,-252 270,-252 264,-252 258,-246 258,-240 258,-240 258,-228 258,-228 258,-222 264,-216 270,-216 270,-216 346,-216 346,-216 352,-216 358,-222 358,-228 358,-228 358,-240 358,-240 358,-246 352,-252 346,-252"/>
<text text-anchor="middle" x="308" y="-231.5" font-family="sans" font-size="10.00" fill="#000000">InsertSizeMetrics</text>
</g>
<!-- 9&#45;&gt;11 -->
<g id="edge25" class="edge">
<title>9&#45;&gt;11</title>
<path fill="none" stroke="#c0c0c0" stroke-width="2" d="M288.5609,-287.8314C291.4027,-279.9617 294.7937,-270.5712 297.9419,-261.8533"/>
<polygon fill="#c0c0c0" stroke="#c0c0c0" stroke-width="2" points="301.2462,-263.0076 301.3508,-252.4133 294.6623,-260.63 301.2462,-263.0076"/>
</g>
<!-- 12 -->
<g id="node13" class="node">
<title>12</title>
<path fill="none" stroke="#61d856" stroke-width="2" d="M489,-180C489,-180 437,-180 437,-180 431,-180 425,-174 425,-168 425,-168 425,-156 425,-156 425,-150 431,-144 437,-144 437,-144 489,-144 489,-144 495,-144 501,-150 501,-156 501,-156 501,-168 501,-168 501,-174 495,-180 489,-180"/>
<text text-anchor="middle" x="463" y="-159.5" font-family="sans" font-size="10.00" fill="#000000">bam_bigwig</text>
</g>
<!-- 9&#45;&gt;12 -->
<g id="edge26" class="edge">
<title>9&#45;&gt;12</title>
<path fill="none" stroke="#c0c0c0" stroke-width="2" d="M331.3063,-299.3478C383.6154,-291.1608 461.1486,-275.4031 479,-252 492.5857,-234.1891 486.3255,-208.6578 477.9742,-189.3346"/>
<polygon fill="#c0c0c0" stroke="#c0c0c0" stroke-width="2" points="481.0723,-187.6979 473.6479,-180.1394 474.7383,-190.678 481.0723,-187.6979"/>
</g>
<!-- 19 -->
<g id="node20" class="node">
<title>19</title>
<path fill="none" stroke="#56a2d8" stroke-width="2" d="M458,-252C458,-252 388,-252 388,-252 382,-252 376,-246 376,-240 376,-240 376,-228 376,-228 376,-222 382,-216 388,-216 388,-216 458,-216 458,-216 464,-216 470,-222 470,-228 470,-228 470,-240 470,-240 470,-246 464,-252 458,-252"/>
<text text-anchor="middle" x="423" y="-231.5" font-family="sans" font-size="10.00" fill="#000000">samtools_index</text>
</g>
<!-- 9&#45;&gt;19 -->
<g id="edge36" class="edge">
<title>9&#45;&gt;19</title>
<path fill="none" stroke="#c0c0c0" stroke-width="2" d="M317.5803,-287.8314C336.0325,-278.4089 358.7545,-266.8062 378.373,-256.7883"/>
<polygon fill="#c0c0c0" stroke="#c0c0c0" stroke-width="2" points="380.1168,-259.8278 387.4311,-252.1628 376.9333,-253.5935 380.1168,-259.8278"/>
</g>
<!-- 10&#45;&gt;2 -->
<g id="edge11" class="edge">
<title>10&#45;&gt;2</title>
<path fill="none" stroke="#c0c0c0" stroke-width="2" d="M184.6633,-215.8314C180.5757,-207.8771 175.6896,-198.369 171.1691,-189.5723"/>
<polygon fill="#c0c0c0" stroke="#c0c0c0" stroke-width="2" points="174.1461,-187.7078 166.4624,-180.4133 167.9201,-190.9074 174.1461,-187.7078"/>
</g>
<!-- 11&#45;&gt;2 -->
<g id="edge10" class="edge">
<title>11&#45;&gt;2</title>
<path fill="none" stroke="#c0c0c0" stroke-width="2" d="M269.8963,-215.8314C246.3991,-204.6274 216.4366,-190.3406 193.2844,-179.3012"/>
<polygon fill="#c0c0c0" stroke="#c0c0c0" stroke-width="2" points="194.6703,-176.0845 184.1374,-174.9397 191.6574,-182.403 194.6703,-176.0845"/>
</g>
<!-- 12&#45;&gt;4 -->
<g id="edge14" class="edge">
<title>12&#45;&gt;4</title>
<path fill="none" stroke="#c0c0c0" stroke-width="2" d="M463,-143.8314C463,-136.131 463,-126.9743 463,-118.4166"/>
<polygon fill="#c0c0c0" stroke="#c0c0c0" stroke-width="2" points="466.5001,-118.4132 463,-108.4133 459.5001,-118.4133 466.5001,-118.4132"/>
</g>
<!-- 13 -->
<g id="node14" class="node">
<title>13</title>
<path fill="none" stroke="#d8bc56" stroke-width="2" d="M482,-396C482,-396 452,-396 452,-396 446,-396 440,-390 440,-384 440,-384 440,-372 440,-372 440,-366 446,-360 452,-360 452,-360 482,-360 482,-360 488,-360 494,-366 494,-372 494,-372 494,-384 494,-384 494,-390 488,-396 482,-396"/>
<text text-anchor="middle" x="467" y="-375.5" font-family="sans" font-size="10.00" fill="#000000">twobit</text>
</g>
<!-- 13&#45;&gt;4 -->
<g id="edge13" class="edge">
<title>13&#45;&gt;4</title>
<path fill="none" stroke="#c0c0c0" stroke-width="2" d="M476.7308,-359.8132C496.8461,-319.6792 538.8099,-220.9831 510,-144 506.1046,-133.5911 499.1959,-123.8652 491.8544,-115.6152"/>
<polygon fill="#c0c0c0" stroke="#c0c0c0" stroke-width="2" points="494.2014,-113.0048 484.7672,-108.1835 489.1357,-117.8358 494.2014,-113.0048"/>
</g>
<!-- 14 -->
<g id="node15" class="node">
<title>14</title>
<path fill="none" stroke="#88d856" stroke-width="2" d="M713.5,-540C713.5,-540 648.5,-540 648.5,-540 642.5,-540 636.5,-534 636.5,-528 636.5,-528 636.5,-516 636.5,-516 636.5,-510 642.5,-504 648.5,-504 648.5,-504 713.5,-504 713.5,-504 719.5,-504 725.5,-510 725.5,-516 725.5,-516 725.5,-528 725.5,-528 725.5,-534 719.5,-540 713.5,-540"/>
<text text-anchor="middle" x="681" y="-519.5" font-family="sans" font-size="10.00" fill="#000000">get_transcripts</text>
</g>
<!-- 14&#45;&gt;5 -->
<g id="edge17" class="edge">
<title>14&#45;&gt;5</title>
<path fill="none" stroke="#c0c0c0" stroke-width="2" d="M683.7568,-503.9555C689.5075,-466.3144 702.8187,-379.1867 709.7032,-334.1246"/>
<polygon fill="#c0c0c0" stroke="#c0c0c0" stroke-width="2" points="713.1774,-334.559 711.2278,-324.1451 706.2576,-333.5017 713.1774,-334.559"/>
</g>
<!-- 16 -->
<g id="node17" class="node">
<title>16</title>
<path fill="none" stroke="#56d89a" stroke-width="2" d="M675.5,-396C675.5,-396 544.5,-396 544.5,-396 538.5,-396 532.5,-390 532.5,-384 532.5,-384 532.5,-372 532.5,-372 532.5,-366 538.5,-360 544.5,-360 544.5,-360 675.5,-360 675.5,-360 681.5,-360 687.5,-366 687.5,-372 687.5,-372 687.5,-384 687.5,-384 687.5,-390 681.5,-396 675.5,-396"/>
<text text-anchor="middle" x="610" y="-375.5" font-family="sans" font-size="10.00" fill="#000000">salmon_decoy_aware_index</text>
</g>
<!-- 14&#45;&gt;16 -->
<g id="edge33" class="edge">
<title>14&#45;&gt;16</title>
<path fill="none" stroke="#c0c0c0" stroke-width="2" d="M679.2244,-503.816C676.7875,-484.9403 671.2248,-455.0122 659,-432 653.5435,-421.7286 645.6924,-411.8746 637.8682,-403.4613"/>
<polygon fill="#c0c0c0" stroke="#c0c0c0" stroke-width="2" points="640.2463,-400.8867 630.7598,-396.1692 635.2339,-405.773 640.2463,-400.8867"/>
</g>
<!-- 21 -->
<g id="node22" class="node">
<title>21</title>
<path fill="none" stroke="#56c1d8" stroke-width="2" d="M637.5,-468C637.5,-468 558.5,-468 558.5,-468 552.5,-468 546.5,-462 546.5,-456 546.5,-456 546.5,-444 546.5,-444 546.5,-438 552.5,-432 558.5,-432 558.5,-432 637.5,-432 637.5,-432 643.5,-432 649.5,-438 649.5,-444 649.5,-444 649.5,-456 649.5,-456 649.5,-462 643.5,-468 637.5,-468"/>
<text text-anchor="middle" x="598" y="-447.5" font-family="sans" font-size="10.00" fill="#000000">decoy_transcripts</text>
</g>
<!-- 14&#45;&gt;21 -->
<g id="edge39" class="edge">
<title>14&#45;&gt;21</title>
<path fill="none" stroke="#c0c0c0" stroke-width="2" d="M660.0556,-503.8314C649.9309,-495.0485 637.6223,-484.3712 626.6452,-474.8489"/>
<polygon fill="#c0c0c0" stroke="#c0c0c0" stroke-width="2" points="628.7851,-472.0718 618.9377,-468.1628 624.1981,-477.3595 628.7851,-472.0718"/>
</g>
<!-- 15 -->
<g id="node16" class="node">
<title>15</title>
<path fill="none" stroke="#5663d8" stroke-width="2" d="M676,-612C676,-612 610,-612 610,-612 604,-612 598,-606 598,-600 598,-600 598,-588 598,-588 598,-582 604,-576 610,-576 610,-576 676,-576 676,-576 682,-576 688,-582 688,-588 688,-588 688,-600 688,-600 688,-606 682,-612 676,-612"/>
<text text-anchor="middle" x="643" y="-591.5" font-family="sans" font-size="10.00" fill="#000000">get_annotation</text>
</g>
<!-- 15&#45;&gt;5 -->
<g id="edge16" class="edge">
<title>15&#45;&gt;5</title>
<path fill="none" stroke="#c0c0c0" stroke-width="2" d="M688.2789,-578.8229C706.1322,-570.3617 724.7852,-557.8401 735,-540 772.8581,-473.8813 744.2882,-379.6677 726.0746,-333.561"/>
<polygon fill="#c0c0c0" stroke="#c0c0c0" stroke-width="2" points="729.2813,-332.1556 722.2629,-324.2189 722.8,-334.8001 729.2813,-332.1556"/>
</g>
<!-- 15&#45;&gt;14 -->
<g id="edge29" class="edge">
<title>15&#45;&gt;14</title>
<path fill="none" stroke="#c0c0c0" stroke-width="2" d="M652.589,-575.8314C656.8317,-567.7925 661.9121,-558.1666 666.596,-549.2918"/>
<polygon fill="#c0c0c0" stroke="#c0c0c0" stroke-width="2" points="669.7096,-550.8908 671.2819,-540.4133 663.5189,-547.6235 669.7096,-550.8908"/>
</g>
<!-- 15&#45;&gt;21 -->
<g id="edge37" class="edge">
<title>15&#45;&gt;21</title>
<path fill="none" stroke="#c0c0c0" stroke-width="2" d="M637.3007,-575.7623C629.5915,-551.0928 615.7687,-506.8598 606.7416,-477.9731"/>
<polygon fill="#c0c0c0" stroke="#c0c0c0" stroke-width="2" points="609.9765,-476.5904 603.653,-468.0896 603.2951,-478.6784 609.9765,-476.5904"/>
</g>
<!-- 24 -->
<g id="node25" class="node">
<title>24</title>
<path fill="none" stroke="#a7d856" stroke-width="2" d="M530,-540C530,-540 486,-540 486,-540 480,-540 474,-534 474,-528 474,-528 474,-516 474,-516 474,-510 480,-504 486,-504 486,-504 530,-504 530,-504 536,-504 542,-510 542,-516 542,-516 542,-528 542,-528 542,-534 536,-540 530,-540"/>
<text text-anchor="middle" x="508" y="-519.5" font-family="sans" font-size="10.00" fill="#000000">star_index</text>
</g>
<!-- 15&#45;&gt;24 -->
<g id="edge42" class="edge">
<title>15&#45;&gt;24</title>
<path fill="none" stroke="#c0c0c0" stroke-width="2" d="M608.9338,-575.8314C591.3467,-566.4516 569.7084,-554.9112 550.9832,-544.9244"/>
<polygon fill="#c0c0c0" stroke="#c0c0c0" stroke-width="2" points="552.5259,-541.7805 542.0553,-540.1628 549.2318,-547.957 552.5259,-541.7805"/>
</g>
<!-- 16&#45;&gt;5 -->
<g id="edge15" class="edge">
<title>16&#45;&gt;5</title>
<path fill="none" stroke="#c0c0c0" stroke-width="2" d="M636.2436,-359.8314C649.2995,-350.7927 665.2535,-339.7476 679.3047,-330.0198"/>
<polygon fill="#c0c0c0" stroke="#c0c0c0" stroke-width="2" points="681.5351,-332.7326 687.7648,-324.1628 677.5506,-326.9773 681.5351,-332.7326"/>
</g>
<!-- 16&#45;&gt;6 -->
<g id="edge19" class="edge">
<title>16&#45;&gt;6</title>
<path fill="none" stroke="#c0c0c0" stroke-width="2" d="M610,-359.8314C610,-352.131 610,-342.9743 610,-334.4166"/>
<polygon fill="#c0c0c0" stroke="#c0c0c0" stroke-width="2" points="613.5001,-334.4132 610,-324.4133 606.5001,-334.4133 613.5001,-334.4132"/>
</g>
<!-- 17 -->
<g id="node18" class="node">
<title>17</title>
<path fill="none" stroke="#56d88a" stroke-width="2" d="M92,-612C92,-612 36,-612 36,-612 30,-612 24,-606 24,-600 24,-600 24,-588 24,-588 24,-582 30,-576 36,-576 36,-576 92,-576 92,-576 98,-576 104,-582 104,-588 104,-588 104,-600 104,-600 104,-606 98,-612 92,-612"/>
<text text-anchor="middle" x="64" y="-591.5" font-family="sans" font-size="10.00" fill="#000000">sra2fastq_PE</text>
</g>
<!-- 17&#45;&gt;7 -->
<g id="edge21" class="edge">
<title>17&#45;&gt;7</title>
<path fill="none" stroke="#c0c0c0" stroke-width="2" d="M57.3111,-575.6639C53.6714,-565.2863 49.26,-552.0171 46,-540 40.434,-519.4823 35.5189,-495.966 32.0828,-478.1181"/>
<polygon fill="#c0c0c0" stroke="#c0c0c0" stroke-width="2" points="35.4813,-477.2519 30.1895,-468.0732 28.6024,-478.5485 35.4813,-477.2519"/>
</g>
<!-- 17&#45;&gt;8 -->
<g id="edge22" class="edge">
<title>17&#45;&gt;8</title>
<path fill="none" stroke="#c0c0c0" stroke-width="2" d="M73.0843,-575.8314C77.0615,-567.8771 81.8155,-558.369 86.2139,-549.5723"/>
<polygon fill="#c0c0c0" stroke="#c0c0c0" stroke-width="2" points="89.4517,-550.9228 90.7934,-540.4133 83.1907,-547.7923 89.4517,-550.9228"/>
</g>
<!-- 18 -->
<g id="node19" class="node">
<title>18</title>
<path fill="none" stroke="#56d0d8" stroke-width="2" d="M284,-396C284,-396 222,-396 222,-396 216,-396 210,-390 210,-384 210,-384 210,-372 210,-372 210,-366 216,-360 222,-360 222,-360 284,-360 284,-360 290,-360 296,-366 296,-372 296,-372 296,-384 296,-384 296,-390 290,-396 284,-396"/>
<text text-anchor="middle" x="253" y="-375.5" font-family="sans" font-size="10.00" fill="#000000">samtools_sort</text>
</g>
<!-- 18&#45;&gt;9 -->
<g id="edge23" class="edge">
<title>18&#45;&gt;9</title>
<path fill="none" stroke="#c0c0c0" stroke-width="2" d="M260.3179,-359.8314C263.4876,-351.9617 267.27,-342.5712 270.7813,-333.8533"/>
<polygon fill="#c0c0c0" stroke="#c0c0c0" stroke-width="2" points="274.0939,-334.9968 274.5835,-324.4133 267.6008,-332.3815 274.0939,-334.9968"/>
</g>
<!-- 19&#45;&gt;12 -->
<g id="edge27" class="edge">
<title>19&#45;&gt;12</title>
<path fill="none" stroke="#c0c0c0" stroke-width="2" d="M433.0937,-215.8314C437.5597,-207.7925 442.9075,-198.1666 447.8379,-189.2918"/>
<polygon fill="#c0c0c0" stroke="#c0c0c0" stroke-width="2" points="450.9735,-190.8546 452.7704,-180.4133 444.8544,-187.4551 450.9735,-190.8546"/>
</g>
<!-- 20 -->
<g id="node21" class="node">
<title>20</title>
<path fill="none" stroke="#97d856" stroke-width="2" d="M596.5,-684C596.5,-684 543.5,-684 543.5,-684 537.5,-684 531.5,-678 531.5,-672 531.5,-672 531.5,-660 531.5,-660 531.5,-654 537.5,-648 543.5,-648 543.5,-648 596.5,-648 596.5,-648 602.5,-648 608.5,-654 608.5,-660 608.5,-660 608.5,-672 608.5,-672 608.5,-678 602.5,-684 596.5,-684"/>
<text text-anchor="middle" x="570" y="-663.5" font-family="sans" font-size="10.00" fill="#000000">get_genome</text>
</g>
<!-- 20&#45;&gt;13 -->
<g id="edge28" class="edge">
<title>20&#45;&gt;13</title>
<path fill="none" stroke="#c0c0c0" stroke-width="2" d="M547.538,-647.912C521.8944,-625.6663 481.3821,-585.2482 465,-540 448.843,-495.3735 454.8542,-439.1946 460.8294,-406.0807"/>
<polygon fill="#c0c0c0" stroke="#c0c0c0" stroke-width="2" points="464.281,-406.666 462.7401,-396.1838 457.4079,-405.3391 464.281,-406.666"/>
</g>
<!-- 20&#45;&gt;14 -->
<g id="edge30" class="edge">
<title>20&#45;&gt;14</title>
<path fill="none" stroke="#c0c0c0" stroke-width="2" d="M608.5952,-661.006C638.3133,-654.9113 677.5039,-641.475 697,-612 709.2272,-593.5145 703.352,-568.4134 695.4865,-549.4161"/>
<polygon fill="#c0c0c0" stroke="#c0c0c0" stroke-width="2" points="698.586,-547.7757 691.2772,-540.1055 692.2076,-550.6594 698.586,-547.7757"/>
</g>
<!-- 20&#45;&gt;15 -->
<g id="edge31" class="edge">
<title>20&#45;&gt;15</title>
<path fill="none" stroke="#c0c0c0" stroke-width="2" d="M588.421,-647.8314C597.1529,-639.219 607.7317,-628.7851 617.2423,-619.4048"/>
<polygon fill="#c0c0c0" stroke="#c0c0c0" stroke-width="2" points="619.923,-621.6769 624.5849,-612.1628 615.0075,-616.6931 619.923,-621.6769"/>
</g>
<!-- 20&#45;&gt;21 -->
<g id="edge38" class="edge">
<title>20&#45;&gt;21</title>
<path fill="none" stroke="#c0c0c0" stroke-width="2" d="M572.3391,-647.9555C577.2185,-610.3144 588.5128,-523.1867 594.3542,-478.1246"/>
<polygon fill="#c0c0c0" stroke="#c0c0c0" stroke-width="2" points="597.8332,-478.5121 595.6479,-468.1451 590.8913,-477.6121 597.8332,-478.5121"/>
</g>
<!-- 20&#45;&gt;24 -->
<g id="edge43" class="edge">
<title>20&#45;&gt;24</title>
<path fill="none" stroke="#c0c0c0" stroke-width="2" d="M562.1477,-647.7623C551.4795,-622.9846 532.3141,-578.4714 519.8807,-549.5939"/>
<polygon fill="#c0c0c0" stroke="#c0c0c0" stroke-width="2" points="522.9579,-547.8903 515.7886,-540.0896 516.5285,-550.6586 522.9579,-547.8903"/>
</g>
<!-- 21&#45;&gt;16 -->
<g id="edge32" class="edge">
<title>21&#45;&gt;16</title>
<path fill="none" stroke="#c0c0c0" stroke-width="2" d="M601.0281,-431.8314C602.3115,-424.131 603.8376,-414.9743 605.2639,-406.4166"/>
<polygon fill="#c0c0c0" stroke="#c0c0c0" stroke-width="2" points="608.7394,-406.8526 606.9311,-396.4133 601.8347,-405.7018 608.7394,-406.8526"/>
</g>
<!-- 22 -->
<g id="node23" class="node">
<title>22</title>
<path fill="none" stroke="#d86656" stroke-width="2" d="M79,-684C79,-684 49,-684 49,-684 43,-684 37,-678 37,-672 37,-672 37,-660 37,-660 37,-654 43,-648 49,-648 49,-648 79,-648 79,-648 85,-648 91,-654 91,-660 91,-660 91,-672 91,-672 91,-678 85,-684 79,-684"/>
<text text-anchor="middle" x="64" y="-663.5" font-family="sans" font-size="10.00" fill="#000000">id2sra</text>
</g>
<!-- 22&#45;&gt;17 -->
<g id="edge34" class="edge">
<title>22&#45;&gt;17</title>
<path fill="none" stroke="#c0c0c0" stroke-width="2" d="M64,-647.8314C64,-640.131 64,-630.9743 64,-622.4166"/>
<polygon fill="#c0c0c0" stroke="#c0c0c0" stroke-width="2" points="67.5001,-622.4132 64,-612.4133 60.5001,-622.4133 67.5001,-622.4132"/>
</g>
<!-- 23&#45;&gt;18 -->
<g id="edge35" class="edge">
<title>23&#45;&gt;18</title>
<path fill="none" stroke="#c0c0c0" stroke-width="2" d="M352.3708,-432.2022C335.0499,-422.7545 313.5677,-411.0369 295.0131,-400.9162"/>
<polygon fill="#c0c0c0" stroke="#c0c0c0" stroke-width="2" points="296.6257,-397.8091 286.1707,-396.0931 293.2737,-403.9543 296.6257,-397.8091"/>
</g>
<!-- 24&#45;&gt;23 -->
<g id="edge41" class="edge">
<title>24&#45;&gt;23</title>
<path fill="none" stroke="#c0c0c0" stroke-width="2" d="M476.9619,-503.8314C461.2295,-494.6221 441.9389,-483.3301 425.0956,-473.4706"/>
<polygon fill="#c0c0c0" stroke="#c0c0c0" stroke-width="2" points="426.4265,-470.1941 416.0282,-468.1628 422.8902,-476.2352 426.4265,-470.1941"/>
</g>
</g>
</svg>
