<?xml version="1.0" encoding="UTF-8" standalone="no"?>
<!DOCTYPE svg PUBLIC "-//W3C//DTD SVG 1.1//EN"
 "http://www.w3.org/Graphics/SVG/1.1/DTD/svg11.dtd">
<!-- Generated by graphviz version 2.42.3 (20191010.1750)
 -->
<!-- Title: snakemake_dag Pages: 1 -->
<svg width="3060pt" height="995pt"
 viewBox="0.00 0.00 3060.00 995.00" xmlns="http://www.w3.org/2000/svg" xmlns:xlink="http://www.w3.org/1999/xlink">
<g id="graph0" class="graph" transform="scale(1 1) rotate(0) translate(4 991)">
<title>snakemake_dag</title>
<polygon fill="white" stroke="transparent" points="-4,4 -4,-991 3056,-991 3056,4 -4,4"/>
<!-- 0 -->
<g id="node1" class="node">
<title>0</title>
<path fill="none" stroke="#568ad8" stroke-width="2" d="M2853,-36C2853,-36 2795,-36 2795,-36 2789,-36 2783,-30 2783,-24 2783,-24 2783,-12 2783,-12 2783,-6 2789,0 2795,0 2795,0 2853,0 2853,0 2859,0 2865,-6 2865,-12 2865,-12 2865,-24 2865,-24 2865,-30 2859,-36 2853,-36"/>
<text text-anchor="middle" x="2824" y="-15.5" font-family="sans" font-size="10.00">snapATAC_all</text>
</g>
<!-- 1 -->
<g id="node2" class="node">
<title>1</title>
<path fill="none" stroke="#d87d56" stroke-width="2" d="M1214,-108C1214,-108 1184,-108 1184,-108 1178,-108 1172,-102 1172,-96 1172,-96 1172,-84 1172,-84 1172,-78 1178,-72 1184,-72 1184,-72 1214,-72 1214,-72 1220,-72 1226,-78 1226,-84 1226,-84 1226,-96 1226,-96 1226,-102 1220,-108 1214,-108"/>
<text text-anchor="middle" x="1199" y="-87.5" font-family="sans" font-size="10.00">multiqc</text>
</g>
<!-- 1&#45;&gt;0 -->
<g id="edge1" class="edge">
<title>1&#45;&gt;0</title>
<path fill="none" stroke="grey" stroke-width="2" d="M1226.19,-87.83C1414.11,-79.73 2520.14,-32.09 2772.68,-21.21"/>
<polygon fill="grey" stroke="grey" stroke-width="2" points="2772.84,-24.71 2782.68,-20.78 2772.54,-17.71 2772.84,-24.71"/>
</g>
<!-- 2 -->
<g id="node3" class="node">
<title>2</title>
<path fill="none" stroke="#59d856" stroke-width="2" d="M2882,-108C2882,-108 2766,-108 2766,-108 2760,-108 2754,-102 2754,-96 2754,-96 2754,-84 2754,-84 2754,-78 2760,-72 2766,-72 2766,-72 2882,-72 2882,-72 2888,-72 2894,-78 2894,-84 2894,-84 2894,-96 2894,-96 2894,-102 2888,-108 2882,-108"/>
<text text-anchor="middle" x="2824" y="-87.5" font-family="sans" font-size="10.00">create_bins_SNAP_object</text>
</g>
<!-- 2&#45;&gt;0 -->
<g id="edge2" class="edge">
<title>2&#45;&gt;0</title>
<path fill="none" stroke="grey" stroke-width="2" d="M2824,-71.7C2824,-63.98 2824,-54.71 2824,-46.11"/>
<polygon fill="grey" stroke="grey" stroke-width="2" points="2827.5,-46.1 2824,-36.1 2820.5,-46.1 2827.5,-46.1"/>
</g>
<!-- 3 -->
<g id="node4" class="node">
<title>3</title>
<path fill="none" stroke="#59d856" stroke-width="2" d="M3040,-108C3040,-108 2924,-108 2924,-108 2918,-108 2912,-102 2912,-96 2912,-96 2912,-84 2912,-84 2912,-78 2918,-72 2924,-72 2924,-72 3040,-72 3040,-72 3046,-72 3052,-78 3052,-84 3052,-84 3052,-96 3052,-96 3052,-102 3046,-108 3040,-108"/>
<text text-anchor="middle" x="2982" y="-87.5" font-family="sans" font-size="10.00">create_bins_SNAP_object</text>
</g>
<!-- 3&#45;&gt;0 -->
<g id="edge3" class="edge">
<title>3&#45;&gt;0</title>
<path fill="none" stroke="grey" stroke-width="2" d="M2943.35,-71.88C2921.75,-62.31 2894.65,-50.3 2871.73,-40.15"/>
<polygon fill="grey" stroke="grey" stroke-width="2" points="2873.09,-36.92 2862.53,-36.07 2870.25,-43.32 2873.09,-36.92"/>
</g>
<!-- 4 -->
<g id="node5" class="node">
<title>4</title>
<path fill="none" stroke="#56d8a2" stroke-width="2" d="M1550,-180C1550,-180 1458,-180 1458,-180 1452,-180 1446,-174 1446,-168 1446,-168 1446,-156 1446,-156 1446,-150 1452,-144 1458,-144 1458,-144 1550,-144 1550,-144 1556,-144 1562,-150 1562,-156 1562,-156 1562,-168 1562,-168 1562,-174 1556,-180 1550,-180"/>
<text text-anchor="middle" x="1504" y="-159.5" font-family="sans" font-size="10.00">multiqc_header_info</text>
</g>
<!-- 4&#45;&gt;1 -->
<g id="edge4" class="edge">
<title>4&#45;&gt;1</title>
<path fill="none" stroke="grey" stroke-width="2" d="M1445.92,-146.15C1442.91,-145.42 1439.92,-144.7 1437,-144 1366.17,-127.13 1283.09,-109.01 1236.19,-98.93"/>
<polygon fill="grey" stroke="grey" stroke-width="2" points="1236.7,-95.46 1226.19,-96.78 1235.23,-102.3 1236.7,-95.46"/>
</g>
<!-- 5 -->
<g id="node6" class="node">
<title>5</title>
<path fill="none" stroke="#56d8d8" stroke-width="2" d="M2857,-180C2857,-180 2743,-180 2743,-180 2737,-180 2731,-174 2731,-168 2731,-168 2731,-156 2731,-156 2731,-150 2737,-144 2743,-144 2743,-144 2857,-144 2857,-144 2863,-144 2869,-150 2869,-156 2869,-156 2869,-168 2869,-168 2869,-174 2863,-180 2857,-180"/>
<text text-anchor="middle" x="2800" y="-165" font-family="sans" font-size="10.00">multiqc_rename_buttons</text>
<text text-anchor="middle" x="2800" y="-154" font-family="sans" font-size="10.00">assembly: hg38</text>
</g>
<!-- 5&#45;&gt;1 -->
<g id="edge5" class="edge">
<title>5&#45;&gt;1</title>
<path fill="none" stroke="grey" stroke-width="2" d="M2730.85,-145.94C2726.18,-145.2 2721.53,-144.54 2717,-144 2417.3,-108.33 1439.89,-94.07 1236.34,-91.46"/>
<polygon fill="grey" stroke="grey" stroke-width="2" points="1236.21,-87.95 1226.17,-91.33 1236.13,-94.95 1236.21,-87.95"/>
</g>
<!-- 6 -->
<g id="node7" class="node">
<title>6</title>
<path fill="none" stroke="#56a2d8" stroke-width="2" d="M1122,-478C1122,-478 1038,-478 1038,-478 1032,-478 1026,-472 1026,-466 1026,-466 1026,-449 1026,-449 1026,-443 1032,-437 1038,-437 1038,-437 1122,-437 1122,-437 1128,-437 1134,-443 1134,-449 1134,-449 1134,-466 1134,-466 1134,-472 1128,-478 1122,-478"/>
<text text-anchor="middle" x="1080" y="-466" font-family="sans" font-size="10.00">samtools_stats</text>
<text text-anchor="middle" x="1080" y="-455" font-family="sans" font-size="10.00">sorter: samtools</text>
<text text-anchor="middle" x="1080" y="-444" font-family="sans" font-size="10.00">sorting: coordinate</text>
</g>
<!-- 6&#45;&gt;1 -->
<g id="edge6" class="edge">
<title>6&#45;&gt;1</title>
<path fill="none" stroke="grey" stroke-width="2" d="M1080.22,-436.67C1080.51,-408.04 1081,-353.46 1081,-307 1081,-307 1081,-307 1081,-233 1081,-191.53 1083.19,-176.46 1109,-144 1122.84,-126.59 1144.07,-113.7 1162.44,-104.99"/>
<polygon fill="grey" stroke="grey" stroke-width="2" points="1164.04,-108.11 1171.72,-100.82 1161.17,-101.73 1164.04,-108.11"/>
</g>
<!-- 7 -->
<g id="node8" class="node">
<title>7</title>
<path fill="none" stroke="#80d856" stroke-width="2" d="M2412,-398.5C2412,-398.5 2338,-398.5 2338,-398.5 2332,-398.5 2326,-392.5 2326,-386.5 2326,-386.5 2326,-374.5 2326,-374.5 2326,-368.5 2332,-362.5 2338,-362.5 2338,-362.5 2412,-362.5 2412,-362.5 2418,-362.5 2424,-368.5 2424,-374.5 2424,-374.5 2424,-386.5 2424,-386.5 2424,-392.5 2418,-398.5 2412,-398.5"/>
<text text-anchor="middle" x="2375" y="-383.5" font-family="sans" font-size="10.00">mark_duplicates</text>
<text text-anchor="middle" x="2375" y="-372.5" font-family="sans" font-size="10.00">sorter: samtools</text>
</g>
<!-- 7&#45;&gt;1 -->
<g id="edge7" class="edge">
<title>7&#45;&gt;1</title>
<path fill="none" stroke="grey" stroke-width="2" d="M2424.21,-373.4C2518.3,-361.5 2715.29,-335.37 2725,-324 2735.39,-311.83 2735.56,-300.02 2725,-288 2623.04,-172.04 1460.45,-104.85 1236.28,-92.92"/>
<polygon fill="grey" stroke="grey" stroke-width="2" points="1236.2,-89.41 1226.03,-92.38 1235.83,-96.4 1236.2,-89.41"/>
</g>
<!-- 23 -->
<g id="node24" class="node">
<title>23</title>
<path fill="none" stroke="#88d856" stroke-width="2" d="M1847,-252C1847,-252 1759,-252 1759,-252 1753,-252 1747,-246 1747,-240 1747,-240 1747,-228 1747,-228 1747,-222 1753,-216 1759,-216 1759,-216 1847,-216 1847,-216 1853,-216 1859,-222 1859,-228 1859,-228 1859,-240 1859,-240 1859,-246 1853,-252 1847,-252"/>
<text text-anchor="middle" x="1803" y="-231.5" font-family="sans" font-size="10.00">multiBamSummary</text>
</g>
<!-- 7&#45;&gt;23 -->
<g id="edge41" class="edge">
<title>7&#45;&gt;23</title>
<path fill="none" stroke="grey" stroke-width="2" d="M2424.31,-374.78C2512.52,-365.84 2689.86,-345.41 2708,-324 2718.34,-311.79 2718.98,-299.64 2708,-288 2679.29,-257.56 2073.67,-241.12 1869.52,-236.42"/>
<polygon fill="grey" stroke="grey" stroke-width="2" points="1869.31,-232.92 1859.24,-236.19 1869.15,-239.92 1869.31,-232.92"/>
</g>
<!-- 35 -->
<g id="node36" class="node">
<title>35</title>
<path fill="none" stroke="#569ad8" stroke-width="2" d="M2687,-324C2687,-324 2031,-324 2031,-324 2025,-324 2019,-318 2019,-312 2019,-312 2019,-300 2019,-300 2019,-294 2025,-288 2031,-288 2031,-288 2687,-288 2687,-288 2693,-288 2699,-294 2699,-300 2699,-300 2699,-312 2699,-312 2699,-318 2693,-324 2687,-324"/>
<text text-anchor="middle" x="2359" y="-309" font-family="sans" font-size="10.00">samtools_index</text>
<text text-anchor="middle" x="2359" y="-298" font-family="sans" font-size="10.00">filepath: /home/maarten/Dropbox/Studie/PhD/snakemake&#45;workflows/workflows/scATAC_seq/results/dedup/hg38&#45;GM.samtools&#45;coordinate</text>
</g>
<!-- 7&#45;&gt;35 -->
<g id="edge91" class="edge">
<title>7&#45;&gt;35</title>
<path fill="none" stroke="grey" stroke-width="2" d="M2371.21,-362.32C2369.34,-353.83 2367.03,-343.39 2364.93,-333.88"/>
<polygon fill="grey" stroke="grey" stroke-width="2" points="2368.34,-333.07 2362.76,-324.06 2361.5,-334.58 2368.34,-333.07"/>
</g>
<!-- 8 -->
<g id="node9" class="node">
<title>8</title>
<path fill="none" stroke="#80d856" stroke-width="2" d="M1789,-398.5C1789,-398.5 1715,-398.5 1715,-398.5 1709,-398.5 1703,-392.5 1703,-386.5 1703,-386.5 1703,-374.5 1703,-374.5 1703,-368.5 1709,-362.5 1715,-362.5 1715,-362.5 1789,-362.5 1789,-362.5 1795,-362.5 1801,-368.5 1801,-374.5 1801,-374.5 1801,-386.5 1801,-386.5 1801,-392.5 1795,-398.5 1789,-398.5"/>
<text text-anchor="middle" x="1752" y="-383.5" font-family="sans" font-size="10.00">mark_duplicates</text>
<text text-anchor="middle" x="1752" y="-372.5" font-family="sans" font-size="10.00">sorter: samtools</text>
</g>
<!-- 8&#45;&gt;1 -->
<g id="edge8" class="edge">
<title>8&#45;&gt;1</title>
<path fill="none" stroke="grey" stroke-width="2" d="M1702.69,-377.14C1584.06,-371.03 1290.08,-353.09 1257,-324 1195.16,-269.61 1233.3,-223.82 1213,-144 1210.86,-135.57 1208.46,-126.4 1206.26,-118.1"/>
<polygon fill="grey" stroke="grey" stroke-width="2" points="1209.57,-116.93 1203.62,-108.16 1202.81,-118.73 1209.57,-116.93"/>
</g>
<!-- 8&#45;&gt;23 -->
<g id="edge42" class="edge">
<title>8&#45;&gt;23</title>
<path fill="none" stroke="grey" stroke-width="2" d="M1801.04,-374.09C1859.29,-366.54 1951.21,-350.68 1972,-324 2004.82,-281.88 1929.48,-257.53 1869.06,-245.26"/>
<polygon fill="grey" stroke="grey" stroke-width="2" points="1869.62,-241.81 1859.13,-243.33 1868.28,-248.68 1869.62,-241.81"/>
</g>
<!-- 36 -->
<g id="node37" class="node">
<title>36</title>
<path fill="none" stroke="#569ad8" stroke-width="2" d="M1950.5,-324C1950.5,-324 1277.5,-324 1277.5,-324 1271.5,-324 1265.5,-318 1265.5,-312 1265.5,-312 1265.5,-300 1265.5,-300 1265.5,-294 1271.5,-288 1277.5,-288 1277.5,-288 1950.5,-288 1950.5,-288 1956.5,-288 1962.5,-294 1962.5,-300 1962.5,-300 1962.5,-312 1962.5,-312 1962.5,-318 1956.5,-324 1950.5,-324"/>
<text text-anchor="middle" x="1614" y="-309" font-family="sans" font-size="10.00">samtools_index</text>
<text text-anchor="middle" x="1614" y="-298" font-family="sans" font-size="10.00">filepath: /home/maarten/Dropbox/Studie/PhD/snakemake&#45;workflows/workflows/scATAC_seq/results/dedup/hg38&#45;H1ESC.samtools&#45;coordinate</text>
</g>
<!-- 8&#45;&gt;36 -->
<g id="edge92" class="edge">
<title>8&#45;&gt;36</title>
<path fill="none" stroke="grey" stroke-width="2" d="M1719.3,-362.32C1700.22,-352.3 1675.97,-339.56 1655.55,-328.83"/>
<polygon fill="grey" stroke="grey" stroke-width="2" points="1656.95,-325.61 1646.47,-324.06 1653.69,-331.81 1656.95,-325.61"/>
</g>
<!-- 9 -->
<g id="node10" class="node">
<title>9</title>
<path fill="none" stroke="#56c1d8" stroke-width="2" d="M1415.5,-180C1415.5,-180 1384.5,-180 1384.5,-180 1378.5,-180 1372.5,-174 1372.5,-168 1372.5,-168 1372.5,-156 1372.5,-156 1372.5,-150 1378.5,-144 1384.5,-144 1384.5,-144 1415.5,-144 1415.5,-144 1421.5,-144 1427.5,-150 1427.5,-156 1427.5,-156 1427.5,-168 1427.5,-168 1427.5,-174 1421.5,-180 1415.5,-180"/>
<text text-anchor="middle" x="1400" y="-159.5" font-family="sans" font-size="10.00">plotPCA</text>
</g>
<!-- 9&#45;&gt;1 -->
<g id="edge9" class="edge">
<title>9&#45;&gt;1</title>
<path fill="none" stroke="grey" stroke-width="2" d="M1372.25,-147.46C1369.48,-146.24 1366.7,-145.07 1364,-144 1320.88,-126.98 1269.91,-111.25 1236.14,-101.42"/>
<polygon fill="grey" stroke="grey" stroke-width="2" points="1236.82,-97.98 1226.24,-98.57 1234.88,-104.7 1236.82,-97.98"/>
</g>
<!-- 10 -->
<g id="node11" class="node">
<title>10</title>
<path fill="none" stroke="#61d856" stroke-width="2" d="M1999.5,-550C1999.5,-550 1898.5,-550 1898.5,-550 1892.5,-550 1886.5,-544 1886.5,-538 1886.5,-538 1886.5,-526 1886.5,-526 1886.5,-520 1892.5,-514 1898.5,-514 1898.5,-514 1999.5,-514 1999.5,-514 2005.5,-514 2011.5,-520 2011.5,-526 2011.5,-526 2011.5,-538 2011.5,-538 2011.5,-544 2005.5,-550 1999.5,-550"/>
<text text-anchor="middle" x="1949" y="-529.5" font-family="sans" font-size="10.00">MTNucRatioCalculator</text>
</g>
<!-- 10&#45;&gt;1 -->
<g id="edge10" class="edge">
<title>10&#45;&gt;1</title>
<path fill="none" stroke="grey" stroke-width="2" d="M1886.46,-517.28C1718.68,-479.91 1268.27,-375.65 1224,-324 1173.79,-265.41 1184.26,-165.75 1193.05,-118.03"/>
<polygon fill="grey" stroke="grey" stroke-width="2" points="1196.5,-118.62 1194.99,-108.13 1189.63,-117.27 1196.5,-118.62"/>
</g>
<!-- 11 -->
<g id="node12" class="node">
<title>11</title>
<path fill="none" stroke="#56d87b" stroke-width="2" d="M1070.5,-622C1070.5,-622 959.5,-622 959.5,-622 953.5,-622 947.5,-616 947.5,-610 947.5,-610 947.5,-598 947.5,-598 947.5,-592 953.5,-586 959.5,-586 959.5,-586 1070.5,-586 1070.5,-586 1076.5,-586 1082.5,-592 1082.5,-598 1082.5,-598 1082.5,-610 1082.5,-610 1082.5,-616 1076.5,-622 1070.5,-622"/>
<text text-anchor="middle" x="1015" y="-607" font-family="sans" font-size="10.00">fastqc</text>
<text text-anchor="middle" x="1015" y="-596" font-family="sans" font-size="10.00">fname: GM_R1_trimmed</text>
</g>
<!-- 11&#45;&gt;1 -->
<g id="edge11" class="edge">
<title>11&#45;&gt;1</title>
<path fill="none" stroke="grey" stroke-width="2" d="M1011.88,-585.59C1001.09,-519.5 971.81,-280.97 1083,-144 1102.71,-119.72 1135.99,-106.1 1161.85,-98.76"/>
<polygon fill="grey" stroke="grey" stroke-width="2" points="1162.94,-102.1 1171.72,-96.17 1161.15,-95.33 1162.94,-102.1"/>
</g>
<!-- 12 -->
<g id="node13" class="node">
<title>12</title>
<path fill="none" stroke="#56a2d8" stroke-width="2" d="M1250,-401C1250,-401 1166,-401 1166,-401 1160,-401 1154,-395 1154,-389 1154,-389 1154,-372 1154,-372 1154,-366 1160,-360 1166,-360 1166,-360 1250,-360 1250,-360 1256,-360 1262,-366 1262,-372 1262,-372 1262,-389 1262,-389 1262,-395 1256,-401 1250,-401"/>
<text text-anchor="middle" x="1208" y="-389" font-family="sans" font-size="10.00">samtools_stats</text>
<text text-anchor="middle" x="1208" y="-378" font-family="sans" font-size="10.00">sorter: samtools</text>
<text text-anchor="middle" x="1208" y="-367" font-family="sans" font-size="10.00">sorting: coordinate</text>
</g>
<!-- 12&#45;&gt;1 -->
<g id="edge12" class="edge">
<title>12&#45;&gt;1</title>
<path fill="none" stroke="grey" stroke-width="2" d="M1197.61,-359.8C1192.74,-349.45 1187.46,-336.38 1185,-324 1169.39,-245.54 1174.7,-223.33 1185,-144 1186.1,-135.51 1188.16,-126.43 1190.37,-118.24"/>
<polygon fill="grey" stroke="grey" stroke-width="2" points="1193.78,-119.02 1193.18,-108.44 1187.05,-117.09 1193.78,-119.02"/>
</g>
<!-- 13 -->
<g id="node14" class="node">
<title>13</title>
<path fill="none" stroke="#56d87b" stroke-width="2" d="M876,-694C876,-694 748,-694 748,-694 742,-694 736,-688 736,-682 736,-682 736,-670 736,-670 736,-664 742,-658 748,-658 748,-658 876,-658 876,-658 882,-658 888,-664 888,-670 888,-670 888,-682 888,-682 888,-688 882,-694 876,-694"/>
<text text-anchor="middle" x="812" y="-679" font-family="sans" font-size="10.00">fastqc</text>
<text text-anchor="middle" x="812" y="-668" font-family="sans" font-size="10.00">fname: H1ESC_R1_trimmed</text>
</g>
<!-- 13&#45;&gt;1 -->
<g id="edge13" class="edge">
<title>13&#45;&gt;1</title>
<path fill="none" stroke="grey" stroke-width="2" d="M812,-657.95C812,-631.29 812,-578.11 812,-533 812,-533 812,-533 812,-233 812,-205.63 736.42,-228.4 945,-144 1018.49,-114.26 1110.97,-100.36 1161.61,-94.58"/>
<polygon fill="grey" stroke="grey" stroke-width="2" points="1162.19,-98.04 1171.75,-93.47 1161.43,-91.08 1162.19,-98.04"/>
</g>
<!-- 14 -->
<g id="node15" class="node">
<title>14</title>
<path fill="none" stroke="#56d863" stroke-width="2" d="M1342.5,-180C1342.5,-180 1277.5,-180 1277.5,-180 1271.5,-180 1265.5,-174 1265.5,-168 1265.5,-168 1265.5,-156 1265.5,-156 1265.5,-150 1271.5,-144 1277.5,-144 1277.5,-144 1342.5,-144 1342.5,-144 1348.5,-144 1354.5,-150 1354.5,-156 1354.5,-156 1354.5,-168 1354.5,-168 1354.5,-174 1348.5,-180 1342.5,-180"/>
<text text-anchor="middle" x="1310" y="-159.5" font-family="sans" font-size="10.00">plotCorrelation</text>
</g>
<!-- 14&#45;&gt;1 -->
<g id="edge14" class="edge">
<title>14&#45;&gt;1</title>
<path fill="none" stroke="grey" stroke-width="2" d="M1282.85,-143.88C1268.47,-134.81 1250.62,-123.55 1235.09,-113.76"/>
<polygon fill="grey" stroke="grey" stroke-width="2" points="1236.58,-110.56 1226.26,-108.19 1232.85,-116.48 1236.58,-110.56"/>
</g>
<!-- 15 -->
<g id="node16" class="node">
<title>15</title>
<path fill="none" stroke="#56d87b" stroke-width="2" d="M963.5,-252C963.5,-252 852.5,-252 852.5,-252 846.5,-252 840.5,-246 840.5,-240 840.5,-240 840.5,-228 840.5,-228 840.5,-222 846.5,-216 852.5,-216 852.5,-216 963.5,-216 963.5,-216 969.5,-216 975.5,-222 975.5,-228 975.5,-228 975.5,-240 975.5,-240 975.5,-246 969.5,-252 963.5,-252"/>
<text text-anchor="middle" x="908" y="-237" font-family="sans" font-size="10.00">fastqc</text>
<text text-anchor="middle" x="908" y="-226" font-family="sans" font-size="10.00">fname: GM_R2_trimmed</text>
</g>
<!-- 15&#45;&gt;1 -->
<g id="edge15" class="edge">
<title>15&#45;&gt;1</title>
<path fill="none" stroke="grey" stroke-width="2" d="M919.16,-215.81C933.22,-195.53 959.32,-162.28 990,-144 1044.22,-111.7 1117.67,-98.95 1161.51,-94.02"/>
<polygon fill="grey" stroke="grey" stroke-width="2" points="1162.14,-97.47 1171.72,-92.95 1161.41,-90.51 1162.14,-97.47"/>
</g>
<!-- 16 -->
<g id="node17" class="node">
<title>16</title>
<path fill="none" stroke="#61d856" stroke-width="2" d="M1212.5,-550C1212.5,-550 1111.5,-550 1111.5,-550 1105.5,-550 1099.5,-544 1099.5,-538 1099.5,-538 1099.5,-526 1099.5,-526 1099.5,-520 1105.5,-514 1111.5,-514 1111.5,-514 1212.5,-514 1212.5,-514 1218.5,-514 1224.5,-520 1224.5,-526 1224.5,-526 1224.5,-538 1224.5,-538 1224.5,-544 1218.5,-550 1212.5,-550"/>
<text text-anchor="middle" x="1162" y="-529.5" font-family="sans" font-size="10.00">MTNucRatioCalculator</text>
</g>
<!-- 16&#45;&gt;1 -->
<g id="edge16" class="edge">
<title>16&#45;&gt;1</title>
<path fill="none" stroke="grey" stroke-width="2" d="M1159.03,-513.83C1154.9,-489.02 1147.65,-441.66 1145,-401 1137.53,-286.19 1144.65,-254.7 1176,-144 1178.51,-135.12 1182.19,-125.78 1185.87,-117.45"/>
<polygon fill="grey" stroke="grey" stroke-width="2" points="1189.11,-118.78 1190.12,-108.24 1182.76,-115.85 1189.11,-118.78"/>
</g>
<!-- 17 -->
<g id="node18" class="node">
<title>17</title>
<path fill="none" stroke="#56d87b" stroke-width="2" d="M706,-694C706,-694 578,-694 578,-694 572,-694 566,-688 566,-682 566,-682 566,-670 566,-670 566,-664 572,-658 578,-658 578,-658 706,-658 706,-658 712,-658 718,-664 718,-670 718,-670 718,-682 718,-682 718,-688 712,-694 706,-694"/>
<text text-anchor="middle" x="642" y="-679" font-family="sans" font-size="10.00">fastqc</text>
<text text-anchor="middle" x="642" y="-668" font-family="sans" font-size="10.00">fname: H1ESC_R2_trimmed</text>
</g>
<!-- 17&#45;&gt;1 -->
<g id="edge17" class="edge">
<title>17&#45;&gt;1</title>
<path fill="none" stroke="grey" stroke-width="2" d="M656,-657.82C675.37,-632.26 708,-581.93 708,-533 708,-533 708,-533 708,-233 708,-138.56 1047.44,-103 1161.86,-93.69"/>
<polygon fill="grey" stroke="grey" stroke-width="2" points="1162.21,-97.18 1171.9,-92.9 1161.66,-90.2 1162.21,-97.18"/>
</g>
<!-- 18 -->
<g id="node19" class="node">
<title>18</title>
<path fill="none" stroke="#ced856" stroke-width="2" d="M2895,-324C2895,-324 2805,-324 2805,-324 2799,-324 2793,-318 2793,-312 2793,-312 2793,-300 2793,-300 2793,-294 2799,-288 2805,-288 2805,-288 2895,-288 2895,-288 2901,-288 2907,-294 2907,-300 2907,-300 2907,-312 2907,-312 2907,-318 2901,-324 2895,-324"/>
<text text-anchor="middle" x="2850" y="-303.5" font-family="sans" font-size="10.00">create_SNAP_object</text>
</g>
<!-- 18&#45;&gt;2 -->
<g id="edge18" class="edge">
<title>18&#45;&gt;2</title>
<path fill="none" stroke="grey" stroke-width="2" d="M2859.01,-287.85C2873.6,-257.63 2898.75,-193.44 2878,-144 2873.36,-132.95 2865.17,-123.04 2856.54,-114.86"/>
<polygon fill="grey" stroke="grey" stroke-width="2" points="2858.74,-112.14 2848.93,-108.14 2854.11,-117.38 2858.74,-112.14"/>
</g>
<!-- 19 -->
<g id="node20" class="node">
<title>19</title>
<path fill="none" stroke="#ced856" stroke-width="2" d="M3027,-324C3027,-324 2937,-324 2937,-324 2931,-324 2925,-318 2925,-312 2925,-312 2925,-300 2925,-300 2925,-294 2931,-288 2937,-288 2937,-288 3027,-288 3027,-288 3033,-288 3039,-294 3039,-300 3039,-300 3039,-312 3039,-312 3039,-318 3033,-324 3027,-324"/>
<text text-anchor="middle" x="2982" y="-303.5" font-family="sans" font-size="10.00">create_SNAP_object</text>
</g>
<!-- 19&#45;&gt;3 -->
<g id="edge19" class="edge">
<title>19&#45;&gt;3</title>
<path fill="none" stroke="grey" stroke-width="2" d="M2982,-287.85C2982,-250.83 2982,-163.18 2982,-118.39"/>
<polygon fill="grey" stroke="grey" stroke-width="2" points="2985.5,-118.23 2982,-108.23 2978.5,-118.23 2985.5,-118.23"/>
</g>
<!-- 20 -->
<g id="node21" class="node">
<title>20</title>
<path fill="none" stroke="#56d8c1" stroke-width="2" d="M1190.5,-622C1190.5,-622 1113.5,-622 1113.5,-622 1107.5,-622 1101.5,-616 1101.5,-610 1101.5,-610 1101.5,-598 1101.5,-598 1101.5,-592 1107.5,-586 1113.5,-586 1113.5,-586 1190.5,-586 1190.5,-586 1196.5,-586 1202.5,-592 1202.5,-598 1202.5,-598 1202.5,-610 1202.5,-610 1202.5,-616 1196.5,-622 1190.5,-622"/>
<text text-anchor="middle" x="1152" y="-601.5" font-family="sans" font-size="10.00">samtools_presort</text>
</g>
<!-- 20&#45;&gt;6 -->
<g id="edge20" class="edge">
<title>20&#45;&gt;6</title>
<path fill="none" stroke="grey" stroke-width="2" d="M1124.38,-585.92C1112.09,-576.82 1098.69,-564.5 1091,-550 1080.99,-531.12 1078.43,-507.04 1078.27,-488.33"/>
<polygon fill="grey" stroke="grey" stroke-width="2" points="1081.77,-488.32 1078.41,-478.27 1074.77,-488.23 1081.77,-488.32"/>
</g>
<!-- 20&#45;&gt;16 -->
<g id="edge31" class="edge">
<title>20&#45;&gt;16</title>
<path fill="none" stroke="grey" stroke-width="2" d="M1154.47,-585.7C1155.57,-577.98 1156.9,-568.71 1158.13,-560.11"/>
<polygon fill="grey" stroke="grey" stroke-width="2" points="1161.61,-560.5 1159.56,-550.1 1154.68,-559.51 1161.61,-560.5"/>
</g>
<!-- 34 -->
<g id="node35" class="node">
<title>34</title>
<path fill="none" stroke="#97d856" stroke-width="2" d="M2154,-550C2154,-550 2108,-550 2108,-550 2102,-550 2096,-544 2096,-538 2096,-538 2096,-526 2096,-526 2096,-520 2102,-514 2108,-514 2108,-514 2154,-514 2154,-514 2160,-514 2166,-520 2166,-526 2166,-526 2166,-538 2166,-538 2166,-544 2160,-550 2154,-550"/>
<text text-anchor="middle" x="2131" y="-529.5" font-family="sans" font-size="10.00">sieve_bam</text>
</g>
<!-- 20&#45;&gt;34 -->
<g id="edge88" class="edge">
<title>20&#45;&gt;34</title>
<path fill="none" stroke="grey" stroke-width="2" d="M1202.58,-601.55C1336.47,-597.36 1711.04,-583.33 2021,-550 2042.43,-547.7 2066.07,-544.17 2085.93,-540.93"/>
<polygon fill="grey" stroke="grey" stroke-width="2" points="2086.64,-544.36 2095.94,-539.27 2085.5,-537.45 2086.64,-544.36"/>
</g>
<!-- 21 -->
<g id="node22" class="node">
<title>21</title>
<path fill="none" stroke="#bed856" stroke-width="2" d="M2383,-475.5C2383,-475.5 2299,-475.5 2299,-475.5 2293,-475.5 2287,-469.5 2287,-463.5 2287,-463.5 2287,-451.5 2287,-451.5 2287,-445.5 2293,-439.5 2299,-439.5 2299,-439.5 2383,-439.5 2383,-439.5 2389,-439.5 2395,-445.5 2395,-451.5 2395,-451.5 2395,-463.5 2395,-463.5 2395,-469.5 2389,-475.5 2383,-475.5"/>
<text text-anchor="middle" x="2341" y="-460.5" font-family="sans" font-size="10.00">samtools_sort</text>
<text text-anchor="middle" x="2341" y="-449.5" font-family="sans" font-size="10.00">sorting: coordinate</text>
</g>
<!-- 21&#45;&gt;7 -->
<g id="edge21" class="edge">
<title>21&#45;&gt;7</title>
<path fill="none" stroke="grey" stroke-width="2" d="M2348.72,-439.48C2352.95,-430.15 2358.28,-418.38 2363.04,-407.88"/>
<polygon fill="grey" stroke="grey" stroke-width="2" points="2366.26,-409.26 2367.2,-398.71 2359.88,-406.37 2366.26,-409.26"/>
</g>
<!-- 22 -->
<g id="node23" class="node">
<title>22</title>
<path fill="none" stroke="#bed856" stroke-width="2" d="M2026,-475.5C2026,-475.5 1942,-475.5 1942,-475.5 1936,-475.5 1930,-469.5 1930,-463.5 1930,-463.5 1930,-451.5 1930,-451.5 1930,-445.5 1936,-439.5 1942,-439.5 1942,-439.5 2026,-439.5 2026,-439.5 2032,-439.5 2038,-445.5 2038,-451.5 2038,-451.5 2038,-463.5 2038,-463.5 2038,-469.5 2032,-475.5 2026,-475.5"/>
<text text-anchor="middle" x="1984" y="-460.5" font-family="sans" font-size="10.00">samtools_sort</text>
<text text-anchor="middle" x="1984" y="-449.5" font-family="sans" font-size="10.00">sorting: coordinate</text>
</g>
<!-- 22&#45;&gt;8 -->
<g id="edge22" class="edge">
<title>22&#45;&gt;8</title>
<path fill="none" stroke="grey" stroke-width="2" d="M1931.36,-439.48C1895.52,-427.9 1848.05,-412.55 1810.95,-400.56"/>
<polygon fill="grey" stroke="grey" stroke-width="2" points="1811.86,-397.17 1801.26,-397.43 1809.7,-403.83 1811.86,-397.17"/>
</g>
<!-- 23&#45;&gt;9 -->
<g id="edge23" class="edge">
<title>23&#45;&gt;9</title>
<path fill="none" stroke="grey" stroke-width="2" d="M1746.75,-229.87C1673.97,-224.69 1543.83,-211.56 1437,-180 1436.9,-179.97 1436.81,-179.94 1436.71,-179.91"/>
<polygon fill="grey" stroke="grey" stroke-width="2" points="1438.14,-176.71 1427.55,-176.69 1435.82,-183.31 1438.14,-176.71"/>
</g>
<!-- 23&#45;&gt;14 -->
<g id="edge29" class="edge">
<title>23&#45;&gt;14</title>
<path fill="none" stroke="grey" stroke-width="2" d="M1746.66,-229.54C1664.48,-223.76 1506.92,-209.92 1364.42,-179.84"/>
<polygon fill="grey" stroke="grey" stroke-width="2" points="1365.13,-176.42 1354.62,-177.75 1363.66,-183.26 1365.13,-176.42"/>
</g>
<!-- 24 -->
<g id="node25" class="node">
<title>24</title>
<path fill="none" stroke="#56d8c1" stroke-width="2" d="M1987.5,-622C1987.5,-622 1910.5,-622 1910.5,-622 1904.5,-622 1898.5,-616 1898.5,-610 1898.5,-610 1898.5,-598 1898.5,-598 1898.5,-592 1904.5,-586 1910.5,-586 1910.5,-586 1987.5,-586 1987.5,-586 1993.5,-586 1999.5,-592 1999.5,-598 1999.5,-598 1999.5,-610 1999.5,-610 1999.5,-616 1993.5,-622 1987.5,-622"/>
<text text-anchor="middle" x="1949" y="-601.5" font-family="sans" font-size="10.00">samtools_presort</text>
</g>
<!-- 24&#45;&gt;10 -->
<g id="edge24" class="edge">
<title>24&#45;&gt;10</title>
<path fill="none" stroke="grey" stroke-width="2" d="M1949,-585.7C1949,-577.98 1949,-568.71 1949,-560.11"/>
<polygon fill="grey" stroke="grey" stroke-width="2" points="1952.5,-560.1 1949,-550.1 1945.5,-560.1 1952.5,-560.1"/>
</g>
<!-- 24&#45;&gt;12 -->
<g id="edge27" class="edge">
<title>24&#45;&gt;12</title>
<path fill="none" stroke="grey" stroke-width="2" d="M1898.35,-589.34C1893.51,-588.16 1888.67,-587.02 1884,-586 1616.35,-527.29 1508.71,-624.26 1277,-478 1251.4,-461.84 1232.45,-432.42 1220.95,-410.3"/>
<polygon fill="grey" stroke="grey" stroke-width="2" points="1224.07,-408.71 1216.48,-401.32 1217.81,-411.83 1224.07,-408.71"/>
</g>
<!-- 33 -->
<g id="node34" class="node">
<title>33</title>
<path fill="none" stroke="#97d856" stroke-width="2" d="M2338,-550C2338,-550 2292,-550 2292,-550 2286,-550 2280,-544 2280,-538 2280,-538 2280,-526 2280,-526 2280,-520 2286,-514 2292,-514 2292,-514 2338,-514 2338,-514 2344,-514 2350,-520 2350,-526 2350,-526 2350,-538 2350,-538 2350,-544 2344,-550 2338,-550"/>
<text text-anchor="middle" x="2315" y="-529.5" font-family="sans" font-size="10.00">sieve_bam</text>
</g>
<!-- 24&#45;&gt;33 -->
<g id="edge85" class="edge">
<title>24&#45;&gt;33</title>
<path fill="none" stroke="grey" stroke-width="2" d="M1999.51,-593.34C2071.13,-579.64 2201.12,-554.78 2269.76,-541.65"/>
<polygon fill="grey" stroke="grey" stroke-width="2" points="2270.66,-545.04 2279.82,-539.73 2269.34,-538.17 2270.66,-545.04"/>
</g>
<!-- 25 -->
<g id="node26" class="node">
<title>25</title>
<path fill="none" stroke="#70d856" stroke-width="2" d="M2275.5,-843C2275.5,-843 2206.5,-843 2206.5,-843 2200.5,-843 2194.5,-837 2194.5,-831 2194.5,-831 2194.5,-819 2194.5,-819 2194.5,-813 2200.5,-807 2206.5,-807 2206.5,-807 2275.5,-807 2275.5,-807 2281.5,-807 2287.5,-813 2287.5,-819 2287.5,-819 2287.5,-831 2287.5,-831 2287.5,-837 2281.5,-843 2275.5,-843"/>
<text text-anchor="middle" x="2241" y="-828" font-family="sans" font-size="10.00">get_genome</text>
<text text-anchor="middle" x="2241" y="-817" font-family="sans" font-size="10.00">assembly: hg38</text>
</g>
<!-- 25&#45;&gt;10 -->
<g id="edge25" class="edge">
<title>25&#45;&gt;10</title>
<path fill="none" stroke="grey" stroke-width="2" d="M2194.39,-808.97C2172.54,-800.31 2147.16,-787.77 2128,-771 2054.43,-706.62 2072.68,-660.18 2009,-586 2000.07,-575.6 1989.11,-565.35 1979.02,-556.67"/>
<polygon fill="grey" stroke="grey" stroke-width="2" points="1981.07,-553.82 1971.16,-550.08 1976.57,-559.19 1981.07,-553.82"/>
</g>
<!-- 25&#45;&gt;16 -->
<g id="edge32" class="edge">
<title>25&#45;&gt;16</title>
<path fill="none" stroke="grey" stroke-width="2" d="M2194.33,-808.69C2163.46,-798.41 2122.15,-784.34 2086,-771 1958.16,-723.83 1931.75,-696.35 1801,-658 1599.69,-598.95 1354.42,-559.82 1234.74,-542.76"/>
<polygon fill="grey" stroke="grey" stroke-width="2" points="1234.99,-539.27 1224.6,-541.33 1234.01,-546.2 1234.99,-539.27"/>
</g>
<!-- 25&#45;&gt;18 -->
<g id="edge35" class="edge">
<title>25&#45;&gt;18</title>
<path fill="none" stroke="grey" stroke-width="2" d="M2287.51,-819.26C2404.92,-806.02 2704,-763.76 2704,-677 2704,-677 2704,-677 2704,-456.5 2704,-397.91 2762.11,-353.74 2805.01,-329.12"/>
<polygon fill="grey" stroke="grey" stroke-width="2" points="2806.88,-332.09 2813.91,-324.16 2803.47,-325.97 2806.88,-332.09"/>
</g>
<!-- 25&#45;&gt;19 -->
<g id="edge37" class="edge">
<title>25&#45;&gt;19</title>
<path fill="none" stroke="grey" stroke-width="2" d="M2287.73,-824.51C2448.07,-825.03 2966,-815.94 2966,-677 2966,-677 2966,-677 2966,-456.5 2966,-413.72 2972.56,-364.45 2977.28,-334.53"/>
<polygon fill="grey" stroke="grey" stroke-width="2" points="2980.77,-334.86 2978.92,-324.43 2973.86,-333.74 2980.77,-334.86"/>
</g>
<!-- 25&#45;&gt;33 -->
<g id="edge87" class="edge">
<title>25&#45;&gt;33</title>
<path fill="none" stroke="grey" stroke-width="2" d="M2253.26,-806.63C2259.76,-796.63 2267.34,-783.6 2272,-771 2299.03,-697.87 2309.47,-605.61 2313.17,-560.45"/>
<polygon fill="grey" stroke="grey" stroke-width="2" points="2316.67,-560.51 2313.95,-550.27 2309.69,-559.98 2316.67,-560.51"/>
</g>
<!-- 25&#45;&gt;34 -->
<g id="edge90" class="edge">
<title>25&#45;&gt;34</title>
<path fill="none" stroke="grey" stroke-width="2" d="M2194.04,-807.39C2177.37,-799.08 2160.22,-787.25 2150,-771 2108.43,-704.92 2117.74,-607.26 2125.57,-560.25"/>
<polygon fill="grey" stroke="grey" stroke-width="2" points="2129.05,-560.68 2127.34,-550.22 2122.15,-559.46 2129.05,-560.68"/>
</g>
<!-- 57 -->
<g id="node58" class="node">
<title>57</title>
<path fill="none" stroke="#56d89a" stroke-width="2" d="M1829.5,-768.5C1829.5,-768.5 1784.5,-768.5 1784.5,-768.5 1778.5,-768.5 1772.5,-762.5 1772.5,-756.5 1772.5,-756.5 1772.5,-744.5 1772.5,-744.5 1772.5,-738.5 1778.5,-732.5 1784.5,-732.5 1784.5,-732.5 1829.5,-732.5 1829.5,-732.5 1835.5,-732.5 1841.5,-738.5 1841.5,-744.5 1841.5,-744.5 1841.5,-756.5 1841.5,-756.5 1841.5,-762.5 1835.5,-768.5 1829.5,-768.5"/>
<text text-anchor="middle" x="1807" y="-748" font-family="sans" font-size="10.00">bwa_index</text>
</g>
<!-- 25&#45;&gt;57 -->
<g id="edge115" class="edge">
<title>25&#45;&gt;57</title>
<path fill="none" stroke="grey" stroke-width="2" d="M2194.42,-809.15C2191.25,-808.36 2188.09,-807.63 2185,-807 2040.89,-777.51 1998.74,-806.52 1856,-771 1854.53,-770.63 1853.04,-770.23 1851.55,-769.8"/>
<polygon fill="grey" stroke="grey" stroke-width="2" points="1852.28,-766.36 1841.69,-766.63 1850.13,-773.03 1852.28,-766.36"/>
</g>
<!-- 58 -->
<g id="node59" class="node">
<title>58</title>
<path fill="none" stroke="#56d8c9" stroke-width="2" d="M2273.5,-622C2273.5,-622 2172.5,-622 2172.5,-622 2166.5,-622 2160.5,-616 2160.5,-610 2160.5,-610 2160.5,-598 2160.5,-598 2160.5,-592 2166.5,-586 2172.5,-586 2172.5,-586 2273.5,-586 2273.5,-586 2279.5,-586 2285.5,-592 2285.5,-598 2285.5,-598 2285.5,-610 2285.5,-610 2285.5,-616 2279.5,-622 2273.5,-622"/>
<text text-anchor="middle" x="2223" y="-601.5" font-family="sans" font-size="10.00">complement_blacklist</text>
</g>
<!-- 25&#45;&gt;58 -->
<g id="edge117" class="edge">
<title>25&#45;&gt;58</title>
<path fill="none" stroke="grey" stroke-width="2" d="M2248.07,-806.67C2251.84,-796.47 2256.09,-783.22 2258,-771 2265.76,-721.42 2247.69,-664.31 2234.73,-631.65"/>
<polygon fill="grey" stroke="grey" stroke-width="2" points="2237.94,-630.26 2230.91,-622.34 2231.47,-632.92 2237.94,-630.26"/>
</g>
<!-- 76 -->
<g id="node77" class="node">
<title>76</title>
<path fill="none" stroke="#d8b456" stroke-width="2" d="M2237,-768.5C2237,-768.5 2171,-768.5 2171,-768.5 2165,-768.5 2159,-762.5 2159,-756.5 2159,-756.5 2159,-744.5 2159,-744.5 2159,-738.5 2165,-732.5 2171,-732.5 2171,-732.5 2237,-732.5 2237,-732.5 2243,-732.5 2249,-738.5 2249,-744.5 2249,-744.5 2249,-756.5 2249,-756.5 2249,-762.5 2243,-768.5 2237,-768.5"/>
<text text-anchor="middle" x="2204" y="-748" font-family="sans" font-size="10.00">setup_blacklist</text>
</g>
<!-- 25&#45;&gt;76 -->
<g id="edge135" class="edge">
<title>25&#45;&gt;76</title>
<path fill="none" stroke="grey" stroke-width="2" d="M2232.23,-806.82C2227.76,-798.06 2222.23,-787.23 2217.26,-777.47"/>
<polygon fill="grey" stroke="grey" stroke-width="2" points="2220.37,-775.87 2212.71,-768.56 2214.13,-779.06 2220.37,-775.87"/>
</g>
<!-- 26 -->
<g id="node27" class="node">
<title>26</title>
<path fill="none" stroke="#d8a456" stroke-width="2" d="M1742.5,-771C1742.5,-771 1665.5,-771 1665.5,-771 1659.5,-771 1653.5,-765 1653.5,-759 1653.5,-759 1653.5,-742 1653.5,-742 1653.5,-736 1659.5,-730 1665.5,-730 1665.5,-730 1742.5,-730 1742.5,-730 1748.5,-730 1754.5,-736 1754.5,-742 1754.5,-742 1754.5,-759 1754.5,-759 1754.5,-765 1748.5,-771 1742.5,-771"/>
<text text-anchor="middle" x="1704" y="-759" font-family="sans" font-size="10.00">merge_replicates</text>
<text text-anchor="middle" x="1704" y="-748" font-family="sans" font-size="10.00">fqext: _R1</text>
<text text-anchor="middle" x="1704" y="-737" font-family="sans" font-size="10.00">replicate: GM</text>
</g>
<!-- 26&#45;&gt;11 -->
<g id="edge26" class="edge">
<title>26&#45;&gt;11</title>
<path fill="none" stroke="grey" stroke-width="2" d="M1653.37,-731.86C1650.56,-731.16 1647.75,-730.53 1645,-730 1521.93,-706.13 1192.34,-753.52 1082,-694 1056.61,-680.3 1038.06,-652.36 1027,-631.41"/>
<polygon fill="grey" stroke="grey" stroke-width="2" points="1030.07,-629.72 1022.45,-622.36 1023.82,-632.86 1030.07,-629.72"/>
</g>
<!-- 37 -->
<g id="node38" class="node">
<title>37</title>
<path fill="none" stroke="#56b1d8" stroke-width="2" d="M1780,-694C1780,-694 1730,-694 1730,-694 1724,-694 1718,-688 1718,-682 1718,-682 1718,-670 1718,-670 1718,-664 1724,-658 1730,-658 1730,-658 1780,-658 1780,-658 1786,-658 1792,-664 1792,-670 1792,-670 1792,-682 1792,-682 1792,-688 1786,-694 1780,-694"/>
<text text-anchor="middle" x="1755" y="-679" font-family="sans" font-size="10.00">bwa_mem</text>
<text text-anchor="middle" x="1755" y="-668" font-family="sans" font-size="10.00">sample: GM</text>
</g>
<!-- 26&#45;&gt;37 -->
<g id="edge93" class="edge">
<title>26&#45;&gt;37</title>
<path fill="none" stroke="grey" stroke-width="2" d="M1717.94,-729.69C1723.84,-721.3 1730.78,-711.42 1737.06,-702.5"/>
<polygon fill="grey" stroke="grey" stroke-width="2" points="1739.93,-704.51 1742.82,-694.32 1734.2,-700.48 1739.93,-704.51"/>
</g>
<!-- 27 -->
<g id="node28" class="node">
<title>27</title>
<path fill="none" stroke="#d8a456" stroke-width="2" d="M799.5,-771C799.5,-771 722.5,-771 722.5,-771 716.5,-771 710.5,-765 710.5,-759 710.5,-759 710.5,-742 710.5,-742 710.5,-736 716.5,-730 722.5,-730 722.5,-730 799.5,-730 799.5,-730 805.5,-730 811.5,-736 811.5,-742 811.5,-742 811.5,-759 811.5,-759 811.5,-765 805.5,-771 799.5,-771"/>
<text text-anchor="middle" x="761" y="-759" font-family="sans" font-size="10.00">merge_replicates</text>
<text text-anchor="middle" x="761" y="-748" font-family="sans" font-size="10.00">fqext: _R1</text>
<text text-anchor="middle" x="761" y="-737" font-family="sans" font-size="10.00">replicate: H1ESC</text>
</g>
<!-- 27&#45;&gt;13 -->
<g id="edge28" class="edge">
<title>27&#45;&gt;13</title>
<path fill="none" stroke="grey" stroke-width="2" d="M774.94,-729.69C780.84,-721.3 787.78,-711.42 794.06,-702.5"/>
<polygon fill="grey" stroke="grey" stroke-width="2" points="796.93,-704.51 799.82,-694.32 791.2,-700.48 796.93,-704.51"/>
</g>
<!-- 32 -->
<g id="node33" class="node">
<title>32</title>
<path fill="none" stroke="#56b1d8" stroke-width="2" d="M1169.5,-694C1169.5,-694 1102.5,-694 1102.5,-694 1096.5,-694 1090.5,-688 1090.5,-682 1090.5,-682 1090.5,-670 1090.5,-670 1090.5,-664 1096.5,-658 1102.5,-658 1102.5,-658 1169.5,-658 1169.5,-658 1175.5,-658 1181.5,-664 1181.5,-670 1181.5,-670 1181.5,-682 1181.5,-682 1181.5,-688 1175.5,-694 1169.5,-694"/>
<text text-anchor="middle" x="1136" y="-679" font-family="sans" font-size="10.00">bwa_mem</text>
<text text-anchor="middle" x="1136" y="-668" font-family="sans" font-size="10.00">sample: H1ESC</text>
</g>
<!-- 27&#45;&gt;32 -->
<g id="edge82" class="edge">
<title>27&#45;&gt;32</title>
<path fill="none" stroke="grey" stroke-width="2" d="M811.57,-739.72C881.65,-726.17 1007.83,-701.78 1080.45,-687.74"/>
<polygon fill="grey" stroke="grey" stroke-width="2" points="1081.18,-691.16 1090.33,-685.83 1079.85,-684.29 1081.18,-691.16"/>
</g>
<!-- 28 -->
<g id="node29" class="node">
<title>28</title>
<path fill="none" stroke="#d8a456" stroke-width="2" d="M1623.5,-771C1623.5,-771 1546.5,-771 1546.5,-771 1540.5,-771 1534.5,-765 1534.5,-759 1534.5,-759 1534.5,-742 1534.5,-742 1534.5,-736 1540.5,-730 1546.5,-730 1546.5,-730 1623.5,-730 1623.5,-730 1629.5,-730 1635.5,-736 1635.5,-742 1635.5,-742 1635.5,-759 1635.5,-759 1635.5,-765 1629.5,-771 1623.5,-771"/>
<text text-anchor="middle" x="1585" y="-759" font-family="sans" font-size="10.00">merge_replicates</text>
<text text-anchor="middle" x="1585" y="-748" font-family="sans" font-size="10.00">fqext: _R2</text>
<text text-anchor="middle" x="1585" y="-737" font-family="sans" font-size="10.00">replicate: GM</text>
</g>
<!-- 28&#45;&gt;15 -->
<g id="edge30" class="edge">
<title>28&#45;&gt;15</title>
<path fill="none" stroke="grey" stroke-width="2" d="M1534.24,-749.33C1378.36,-747.45 917,-731.22 917,-605 917,-605 917,-605 917,-379.5 917,-338.71 913.38,-291.57 910.74,-262.52"/>
<polygon fill="grey" stroke="grey" stroke-width="2" points="914.2,-261.96 909.78,-252.33 907.23,-262.61 914.2,-261.96"/>
</g>
<!-- 28&#45;&gt;37 -->
<g id="edge94" class="edge">
<title>28&#45;&gt;37</title>
<path fill="none" stroke="grey" stroke-width="2" d="M1631,-729.88C1655.05,-719.63 1684.41,-707.1 1708.53,-696.82"/>
<polygon fill="grey" stroke="grey" stroke-width="2" points="1710,-700 1717.83,-692.85 1707.26,-693.56 1710,-700"/>
</g>
<!-- 29 -->
<g id="node30" class="node">
<title>29</title>
<path fill="none" stroke="#d8a456" stroke-width="2" d="M680.5,-771C680.5,-771 603.5,-771 603.5,-771 597.5,-771 591.5,-765 591.5,-759 591.5,-759 591.5,-742 591.5,-742 591.5,-736 597.5,-730 603.5,-730 603.5,-730 680.5,-730 680.5,-730 686.5,-730 692.5,-736 692.5,-742 692.5,-742 692.5,-759 692.5,-759 692.5,-765 686.5,-771 680.5,-771"/>
<text text-anchor="middle" x="642" y="-759" font-family="sans" font-size="10.00">merge_replicates</text>
<text text-anchor="middle" x="642" y="-748" font-family="sans" font-size="10.00">fqext: _R2</text>
<text text-anchor="middle" x="642" y="-737" font-family="sans" font-size="10.00">replicate: H1ESC</text>
</g>
<!-- 29&#45;&gt;17 -->
<g id="edge33" class="edge">
<title>29&#45;&gt;17</title>
<path fill="none" stroke="grey" stroke-width="2" d="M642,-729.69C642,-721.91 642,-712.84 642,-704.45"/>
<polygon fill="grey" stroke="grey" stroke-width="2" points="645.5,-704.32 642,-694.32 638.5,-704.32 645.5,-704.32"/>
</g>
<!-- 29&#45;&gt;32 -->
<g id="edge83" class="edge">
<title>29&#45;&gt;32</title>
<path fill="none" stroke="grey" stroke-width="2" d="M692.67,-732.05C695.47,-731.3 698.26,-730.61 701,-730 835.34,-699.93 997.11,-685.89 1080.4,-680.24"/>
<polygon fill="grey" stroke="grey" stroke-width="2" points="1080.66,-683.73 1090.41,-679.58 1080.2,-676.75 1080.66,-683.73"/>
</g>
<!-- 30 -->
<g id="node31" class="node">
<title>30</title>
<path fill="none" stroke="#80d856" stroke-width="2" d="M2663,-398.5C2663,-398.5 2581,-398.5 2581,-398.5 2575,-398.5 2569,-392.5 2569,-386.5 2569,-386.5 2569,-374.5 2569,-374.5 2569,-368.5 2575,-362.5 2581,-362.5 2581,-362.5 2663,-362.5 2663,-362.5 2669,-362.5 2675,-368.5 2675,-374.5 2675,-374.5 2675,-386.5 2675,-386.5 2675,-392.5 2669,-398.5 2663,-398.5"/>
<text text-anchor="middle" x="2622" y="-383.5" font-family="sans" font-size="10.00">mark_duplicates</text>
<text text-anchor="middle" x="2622" y="-372.5" font-family="sans" font-size="10.00">sorter: sambamba</text>
</g>
<!-- 30&#45;&gt;18 -->
<g id="edge34" class="edge">
<title>30&#45;&gt;18</title>
<path fill="none" stroke="grey" stroke-width="2" d="M2675.17,-362.59C2708.49,-352 2751.61,-338.29 2786.69,-327.13"/>
<polygon fill="grey" stroke="grey" stroke-width="2" points="2787.88,-330.42 2796.35,-324.06 2785.76,-323.75 2787.88,-330.42"/>
</g>
<!-- 31 -->
<g id="node32" class="node">
<title>31</title>
<path fill="none" stroke="#80d856" stroke-width="2" d="M2925,-398.5C2925,-398.5 2843,-398.5 2843,-398.5 2837,-398.5 2831,-392.5 2831,-386.5 2831,-386.5 2831,-374.5 2831,-374.5 2831,-368.5 2837,-362.5 2843,-362.5 2843,-362.5 2925,-362.5 2925,-362.5 2931,-362.5 2937,-368.5 2937,-374.5 2937,-374.5 2937,-386.5 2937,-386.5 2937,-392.5 2931,-398.5 2925,-398.5"/>
<text text-anchor="middle" x="2884" y="-383.5" font-family="sans" font-size="10.00">mark_duplicates</text>
<text text-anchor="middle" x="2884" y="-372.5" font-family="sans" font-size="10.00">sorter: sambamba</text>
</g>
<!-- 31&#45;&gt;19 -->
<g id="edge36" class="edge">
<title>31&#45;&gt;19</title>
<path fill="none" stroke="grey" stroke-width="2" d="M2907.22,-362.32C2920.16,-352.75 2936.45,-340.7 2950.52,-330.29"/>
<polygon fill="grey" stroke="grey" stroke-width="2" points="2952.98,-332.82 2958.94,-324.06 2948.82,-327.19 2952.98,-332.82"/>
</g>
<!-- 32&#45;&gt;20 -->
<g id="edge38" class="edge">
<title>32&#45;&gt;20</title>
<path fill="none" stroke="grey" stroke-width="2" d="M1139.96,-657.7C1141.72,-649.98 1143.84,-640.71 1145.8,-632.11"/>
<polygon fill="grey" stroke="grey" stroke-width="2" points="1149.27,-632.63 1148.09,-622.1 1142.45,-631.07 1149.27,-632.63"/>
</g>
<!-- 33&#45;&gt;21 -->
<g id="edge39" class="edge">
<title>33&#45;&gt;21</title>
<path fill="none" stroke="grey" stroke-width="2" d="M2321.16,-513.82C2324.24,-505.24 2328.03,-494.67 2331.47,-485.08"/>
<polygon fill="grey" stroke="grey" stroke-width="2" points="2334.8,-486.15 2334.88,-475.56 2328.21,-483.79 2334.8,-486.15"/>
</g>
<!-- 56 -->
<g id="node57" class="node">
<title>56</title>
<path fill="none" stroke="#d6d856" stroke-width="2" d="M2895,-478C2895,-478 2807,-478 2807,-478 2801,-478 2795,-472 2795,-466 2795,-466 2795,-449 2795,-449 2795,-443 2801,-437 2807,-437 2807,-437 2895,-437 2895,-437 2901,-437 2907,-443 2907,-449 2907,-449 2907,-466 2907,-466 2907,-472 2901,-478 2895,-478"/>
<text text-anchor="middle" x="2851" y="-466" font-family="sans" font-size="10.00">sambamba_sort</text>
<text text-anchor="middle" x="2851" y="-455" font-family="sans" font-size="10.00">sieve: &#45;sievsort</text>
<text text-anchor="middle" x="2851" y="-444" font-family="sans" font-size="10.00">sorting: queryname</text>
</g>
<!-- 33&#45;&gt;56 -->
<g id="edge114" class="edge">
<title>33&#45;&gt;56</title>
<path fill="none" stroke="grey" stroke-width="2" d="M2350.17,-526.24C2438.34,-514.32 2669.94,-482.99 2784.65,-467.47"/>
<polygon fill="grey" stroke="grey" stroke-width="2" points="2785.27,-470.92 2794.71,-466.11 2784.34,-463.99 2785.27,-470.92"/>
</g>
<!-- 34&#45;&gt;22 -->
<g id="edge40" class="edge">
<title>34&#45;&gt;22</title>
<path fill="none" stroke="grey" stroke-width="2" d="M2096.16,-513.82C2075.66,-503.71 2049.54,-490.83 2027.67,-480.04"/>
<polygon fill="grey" stroke="grey" stroke-width="2" points="2029.1,-476.84 2018.59,-475.56 2026.01,-483.12 2029.1,-476.84"/>
</g>
<!-- 55 -->
<g id="node56" class="node">
<title>55</title>
<path fill="none" stroke="#d6d856" stroke-width="2" d="M2557,-478C2557,-478 2469,-478 2469,-478 2463,-478 2457,-472 2457,-466 2457,-466 2457,-449 2457,-449 2457,-443 2463,-437 2469,-437 2469,-437 2557,-437 2557,-437 2563,-437 2569,-443 2569,-449 2569,-449 2569,-466 2569,-466 2569,-472 2563,-478 2557,-478"/>
<text text-anchor="middle" x="2513" y="-466" font-family="sans" font-size="10.00">sambamba_sort</text>
<text text-anchor="middle" x="2513" y="-455" font-family="sans" font-size="10.00">sieve: &#45;sievsort</text>
<text text-anchor="middle" x="2513" y="-444" font-family="sans" font-size="10.00">sorting: queryname</text>
</g>
<!-- 34&#45;&gt;55 -->
<g id="edge113" class="edge">
<title>34&#45;&gt;55</title>
<path fill="none" stroke="grey" stroke-width="2" d="M2166.25,-524.31C2229.93,-512.22 2365.07,-486.58 2446.56,-471.11"/>
<polygon fill="grey" stroke="grey" stroke-width="2" points="2447.54,-474.49 2456.71,-469.18 2446.23,-467.61 2447.54,-474.49"/>
</g>
<!-- 35&#45;&gt;23 -->
<g id="edge43" class="edge">
<title>35&#45;&gt;23</title>
<path fill="none" stroke="grey" stroke-width="2" d="M2223.7,-287.97C2111.3,-273.82 1956.22,-254.29 1869.17,-243.33"/>
<polygon fill="grey" stroke="grey" stroke-width="2" points="1869.51,-239.85 1859.15,-242.07 1868.64,-246.79 1869.51,-239.85"/>
</g>
<!-- 36&#45;&gt;23 -->
<g id="edge44" class="edge">
<title>36&#45;&gt;23</title>
<path fill="none" stroke="grey" stroke-width="2" d="M1660.23,-287.88C1686.53,-278.14 1719.64,-265.87 1747.36,-255.61"/>
<polygon fill="grey" stroke="grey" stroke-width="2" points="1748.75,-258.82 1756.92,-252.07 1746.32,-252.26 1748.75,-258.82"/>
</g>
<!-- 37&#45;&gt;24 -->
<g id="edge45" class="edge">
<title>37&#45;&gt;24</title>
<path fill="none" stroke="grey" stroke-width="2" d="M1792.41,-661.5C1820.64,-651.31 1859.88,-637.16 1892.02,-625.56"/>
<polygon fill="grey" stroke="grey" stroke-width="2" points="1893.53,-628.74 1901.74,-622.05 1891.15,-622.15 1893.53,-628.74"/>
</g>
<!-- 38 -->
<g id="node39" class="node">
<title>38</title>
<path fill="none" stroke="#56d8b1" stroke-width="2" d="M1300,-843C1300,-843 1234,-843 1234,-843 1228,-843 1222,-837 1222,-831 1222,-831 1222,-819 1222,-819 1222,-813 1228,-807 1234,-807 1234,-807 1300,-807 1300,-807 1306,-807 1312,-813 1312,-819 1312,-819 1312,-831 1312,-831 1312,-837 1306,-843 1300,-843"/>
<text text-anchor="middle" x="1267" y="-822.5" font-family="sans" font-size="10.00">trim_galore_PE</text>
</g>
<!-- 38&#45;&gt;26 -->
<g id="edge46" class="edge">
<title>38&#45;&gt;26</title>
<path fill="none" stroke="grey" stroke-width="2" d="M1312.2,-809.07C1315.16,-808.31 1318.11,-807.61 1321,-807 1459.58,-777.78 1501.57,-800.82 1643.4,-771.12"/>
<polygon fill="grey" stroke="grey" stroke-width="2" points="1644.29,-774.51 1653.34,-768.99 1642.83,-767.66 1644.29,-774.51"/>
</g>
<!-- 38&#45;&gt;28 -->
<g id="edge63" class="edge">
<title>38&#45;&gt;28</title>
<path fill="none" stroke="grey" stroke-width="2" d="M1312.28,-809.39C1315.22,-808.55 1318.15,-807.75 1321,-807 1389.95,-788.94 1470.23,-772.74 1523.99,-762.57"/>
<polygon fill="grey" stroke="grey" stroke-width="2" points="1524.86,-765.97 1534.04,-760.68 1523.57,-759.09 1524.86,-765.97"/>
</g>
<!-- 39 -->
<g id="node40" class="node">
<title>39</title>
<path fill="none" stroke="#56d8b1" stroke-width="2" d="M1408,-843C1408,-843 1342,-843 1342,-843 1336,-843 1330,-837 1330,-831 1330,-831 1330,-819 1330,-819 1330,-813 1336,-807 1342,-807 1342,-807 1408,-807 1408,-807 1414,-807 1420,-813 1420,-819 1420,-819 1420,-831 1420,-831 1420,-837 1414,-843 1408,-843"/>
<text text-anchor="middle" x="1375" y="-822.5" font-family="sans" font-size="10.00">trim_galore_PE</text>
</g>
<!-- 39&#45;&gt;26 -->
<g id="edge47" class="edge">
<title>39&#45;&gt;26</title>
<path fill="none" stroke="grey" stroke-width="2" d="M1420.24,-809.25C1423.2,-808.45 1426.13,-807.69 1429,-807 1520.5,-785.08 1548.66,-793.71 1643.3,-771.24"/>
<polygon fill="grey" stroke="grey" stroke-width="2" points="1644.41,-774.57 1653.3,-768.81 1642.75,-767.77 1644.41,-774.57"/>
</g>
<!-- 39&#45;&gt;28 -->
<g id="edge64" class="edge">
<title>39&#45;&gt;28</title>
<path fill="none" stroke="grey" stroke-width="2" d="M1420.05,-808.45C1450.54,-797.92 1491.18,-783.89 1524.49,-772.39"/>
<polygon fill="grey" stroke="grey" stroke-width="2" points="1525.81,-775.64 1534.13,-769.06 1523.53,-769.02 1525.81,-775.64"/>
</g>
<!-- 40 -->
<g id="node41" class="node">
<title>40</title>
<path fill="none" stroke="#56d8b1" stroke-width="2" d="M1516,-843C1516,-843 1450,-843 1450,-843 1444,-843 1438,-837 1438,-831 1438,-831 1438,-819 1438,-819 1438,-813 1444,-807 1450,-807 1450,-807 1516,-807 1516,-807 1522,-807 1528,-813 1528,-819 1528,-819 1528,-831 1528,-831 1528,-837 1522,-843 1516,-843"/>
<text text-anchor="middle" x="1483" y="-822.5" font-family="sans" font-size="10.00">trim_galore_PE</text>
</g>
<!-- 40&#45;&gt;26 -->
<g id="edge48" class="edge">
<title>40&#45;&gt;26</title>
<path fill="none" stroke="grey" stroke-width="2" d="M1528.05,-809.3C1558.41,-799.39 1599.59,-785.92 1643.96,-771.34"/>
<polygon fill="grey" stroke="grey" stroke-width="2" points="1645.07,-774.66 1653.47,-768.21 1642.88,-768.01 1645.07,-774.66"/>
</g>
<!-- 40&#45;&gt;28 -->
<g id="edge65" class="edge">
<title>40&#45;&gt;28</title>
<path fill="none" stroke="grey" stroke-width="2" d="M1507.17,-806.82C1519.66,-797.94 1535.15,-786.93 1549.02,-777.08"/>
<polygon fill="grey" stroke="grey" stroke-width="2" points="1551.27,-779.77 1557.4,-771.12 1547.22,-774.06 1551.27,-779.77"/>
</g>
<!-- 41 -->
<g id="node42" class="node">
<title>41</title>
<path fill="none" stroke="#56d8b1" stroke-width="2" d="M1624,-843C1624,-843 1558,-843 1558,-843 1552,-843 1546,-837 1546,-831 1546,-831 1546,-819 1546,-819 1546,-813 1552,-807 1558,-807 1558,-807 1624,-807 1624,-807 1630,-807 1636,-813 1636,-819 1636,-819 1636,-831 1636,-831 1636,-837 1630,-843 1624,-843"/>
<text text-anchor="middle" x="1591" y="-822.5" font-family="sans" font-size="10.00">trim_galore_PE</text>
</g>
<!-- 41&#45;&gt;26 -->
<g id="edge49" class="edge">
<title>41&#45;&gt;26</title>
<path fill="none" stroke="grey" stroke-width="2" d="M1617.78,-806.82C1631.88,-797.77 1649.42,-786.52 1665,-776.52"/>
<polygon fill="grey" stroke="grey" stroke-width="2" points="1666.89,-779.47 1673.42,-771.12 1663.11,-773.57 1666.89,-779.47"/>
</g>
<!-- 41&#45;&gt;28 -->
<g id="edge66" class="edge">
<title>41&#45;&gt;28</title>
<path fill="none" stroke="grey" stroke-width="2" d="M1589.58,-806.82C1588.95,-799.2 1588.19,-790 1587.47,-781.32"/>
<polygon fill="grey" stroke="grey" stroke-width="2" points="1590.94,-780.8 1586.62,-771.12 1583.96,-781.37 1590.94,-780.8"/>
</g>
<!-- 42 -->
<g id="node43" class="node">
<title>42</title>
<path fill="none" stroke="#56d8b1" stroke-width="2" d="M1732,-843C1732,-843 1666,-843 1666,-843 1660,-843 1654,-837 1654,-831 1654,-831 1654,-819 1654,-819 1654,-813 1660,-807 1666,-807 1666,-807 1732,-807 1732,-807 1738,-807 1744,-813 1744,-819 1744,-819 1744,-831 1744,-831 1744,-837 1738,-843 1732,-843"/>
<text text-anchor="middle" x="1699" y="-822.5" font-family="sans" font-size="10.00">trim_galore_PE</text>
</g>
<!-- 42&#45;&gt;26 -->
<g id="edge50" class="edge">
<title>42&#45;&gt;26</title>
<path fill="none" stroke="grey" stroke-width="2" d="M1700.18,-806.82C1700.71,-799.2 1701.34,-790 1701.94,-781.32"/>
<polygon fill="grey" stroke="grey" stroke-width="2" points="1705.45,-781.34 1702.65,-771.12 1698.47,-780.86 1705.45,-781.34"/>
</g>
<!-- 42&#45;&gt;28 -->
<g id="edge67" class="edge">
<title>42&#45;&gt;28</title>
<path fill="none" stroke="grey" stroke-width="2" d="M1671.98,-806.82C1657.76,-797.77 1640.06,-786.52 1624.34,-776.52"/>
<polygon fill="grey" stroke="grey" stroke-width="2" points="1626.17,-773.53 1615.85,-771.12 1622.41,-779.44 1626.17,-773.53"/>
</g>
<!-- 43 -->
<g id="node44" class="node">
<title>43</title>
<path fill="none" stroke="#56d8b1" stroke-width="2" d="M1840,-843C1840,-843 1774,-843 1774,-843 1768,-843 1762,-837 1762,-831 1762,-831 1762,-819 1762,-819 1762,-813 1768,-807 1774,-807 1774,-807 1840,-807 1840,-807 1846,-807 1852,-813 1852,-819 1852,-819 1852,-831 1852,-831 1852,-837 1846,-843 1840,-843"/>
<text text-anchor="middle" x="1807" y="-822.5" font-family="sans" font-size="10.00">trim_galore_PE</text>
</g>
<!-- 43&#45;&gt;26 -->
<g id="edge51" class="edge">
<title>43&#45;&gt;26</title>
<path fill="none" stroke="grey" stroke-width="2" d="M1782.59,-806.82C1769.98,-797.94 1754.34,-786.93 1740.34,-777.08"/>
<polygon fill="grey" stroke="grey" stroke-width="2" points="1742.07,-774.01 1731.87,-771.12 1738.04,-779.74 1742.07,-774.01"/>
</g>
<!-- 43&#45;&gt;28 -->
<g id="edge68" class="edge">
<title>43&#45;&gt;28</title>
<path fill="none" stroke="grey" stroke-width="2" d="M1761.81,-809.24C1728.17,-798.26 1681.93,-783.15 1645.17,-771.15"/>
<polygon fill="grey" stroke="grey" stroke-width="2" points="1646.15,-767.79 1635.55,-768.01 1643.97,-774.44 1646.15,-767.79"/>
</g>
<!-- 44 -->
<g id="node45" class="node">
<title>44</title>
<path fill="none" stroke="#56d8b1" stroke-width="2" d="M1948,-843C1948,-843 1882,-843 1882,-843 1876,-843 1870,-837 1870,-831 1870,-831 1870,-819 1870,-819 1870,-813 1876,-807 1882,-807 1882,-807 1948,-807 1948,-807 1954,-807 1960,-813 1960,-819 1960,-819 1960,-831 1960,-831 1960,-837 1954,-843 1948,-843"/>
<text text-anchor="middle" x="1915" y="-822.5" font-family="sans" font-size="10.00">trim_galore_PE</text>
</g>
<!-- 44&#45;&gt;26 -->
<g id="edge52" class="edge">
<title>44&#45;&gt;26</title>
<path fill="none" stroke="grey" stroke-width="2" d="M1869.99,-808.54C1839.26,-797.98 1798.18,-783.86 1764.58,-772.31"/>
<polygon fill="grey" stroke="grey" stroke-width="2" points="1765.46,-768.92 1754.86,-768.98 1763.18,-775.54 1765.46,-768.92"/>
</g>
<!-- 44&#45;&gt;28 -->
<g id="edge69" class="edge">
<title>44&#45;&gt;28</title>
<path fill="none" stroke="grey" stroke-width="2" d="M1869.76,-809.25C1866.8,-808.45 1863.87,-807.69 1861,-807 1769.4,-785.06 1741.34,-793.51 1645.4,-770.89"/>
<polygon fill="grey" stroke="grey" stroke-width="2" points="1646.13,-767.47 1635.59,-768.53 1644.49,-774.27 1646.13,-767.47"/>
</g>
<!-- 45 -->
<g id="node46" class="node">
<title>45</title>
<path fill="none" stroke="#56d8b1" stroke-width="2" d="M2056,-843C2056,-843 1990,-843 1990,-843 1984,-843 1978,-837 1978,-831 1978,-831 1978,-819 1978,-819 1978,-813 1984,-807 1990,-807 1990,-807 2056,-807 2056,-807 2062,-807 2068,-813 2068,-819 2068,-819 2068,-831 2068,-831 2068,-837 2062,-843 2056,-843"/>
<text text-anchor="middle" x="2023" y="-822.5" font-family="sans" font-size="10.00">trim_galore_PE</text>
</g>
<!-- 45&#45;&gt;26 -->
<g id="edge53" class="edge">
<title>45&#45;&gt;26</title>
<path fill="none" stroke="grey" stroke-width="2" d="M1977.75,-809.28C1974.8,-808.47 1971.86,-807.7 1969,-807 1882.2,-785.81 1855.57,-792.82 1764.51,-770.93"/>
<polygon fill="grey" stroke="grey" stroke-width="2" points="1765.14,-767.48 1754.59,-768.5 1763.47,-774.28 1765.14,-767.48"/>
</g>
<!-- 45&#45;&gt;28 -->
<g id="edge70" class="edge">
<title>45&#45;&gt;28</title>
<path fill="none" stroke="grey" stroke-width="2" d="M1977.8,-809.07C1974.84,-808.31 1971.89,-807.61 1969,-807 1830.42,-777.78 1788.5,-800.48 1645.56,-770.85"/>
<polygon fill="grey" stroke="grey" stroke-width="2" points="1646.05,-767.38 1635.54,-768.73 1644.6,-774.23 1646.05,-767.38"/>
</g>
<!-- 46 -->
<g id="node47" class="node">
<title>46</title>
<path fill="none" stroke="#56d8b1" stroke-width="2" d="M2164,-843C2164,-843 2098,-843 2098,-843 2092,-843 2086,-837 2086,-831 2086,-831 2086,-819 2086,-819 2086,-813 2092,-807 2098,-807 2098,-807 2164,-807 2164,-807 2170,-807 2176,-813 2176,-819 2176,-819 2176,-831 2176,-831 2176,-837 2170,-843 2164,-843"/>
<text text-anchor="middle" x="2131" y="-822.5" font-family="sans" font-size="10.00">trim_galore_PE</text>
</g>
<!-- 46&#45;&gt;26 -->
<g id="edge54" class="edge">
<title>46&#45;&gt;26</title>
<path fill="none" stroke="grey" stroke-width="2" d="M2085.79,-809.08C2082.83,-808.32 2079.88,-807.61 2077,-807 1943.25,-778.53 1902.72,-799.74 1764.66,-770.88"/>
<polygon fill="grey" stroke="grey" stroke-width="2" points="1765.05,-767.38 1754.54,-768.71 1763.59,-774.23 1765.05,-767.38"/>
</g>
<!-- 46&#45;&gt;28 -->
<g id="edge71" class="edge">
<title>46&#45;&gt;28</title>
<path fill="none" stroke="grey" stroke-width="2" d="M2085.82,-808.98C2082.85,-808.24 2079.89,-807.57 2077,-807 1891.18,-770.48 1835.76,-807.71 1645.56,-770.82"/>
<polygon fill="grey" stroke="grey" stroke-width="2" points="1646.01,-767.34 1635.52,-768.83 1644.65,-774.21 1646.01,-767.34"/>
</g>
<!-- 47 -->
<g id="node48" class="node">
<title>47</title>
<path fill="none" stroke="#56d8b1" stroke-width="2" d="M902,-843C902,-843 836,-843 836,-843 830,-843 824,-837 824,-831 824,-831 824,-819 824,-819 824,-813 830,-807 836,-807 836,-807 902,-807 902,-807 908,-807 914,-813 914,-819 914,-819 914,-831 914,-831 914,-837 908,-843 902,-843"/>
<text text-anchor="middle" x="869" y="-822.5" font-family="sans" font-size="10.00">trim_galore_PE</text>
</g>
<!-- 47&#45;&gt;27 -->
<g id="edge55" class="edge">
<title>47&#45;&gt;27</title>
<path fill="none" stroke="grey" stroke-width="2" d="M843.41,-806.82C830.06,-797.86 813.47,-786.72 798.69,-776.8"/>
<polygon fill="grey" stroke="grey" stroke-width="2" points="800.48,-773.79 790.23,-771.12 796.58,-779.6 800.48,-773.79"/>
</g>
<!-- 47&#45;&gt;29 -->
<g id="edge72" class="edge">
<title>47&#45;&gt;29</title>
<path fill="none" stroke="grey" stroke-width="2" d="M823.71,-809.75C783.82,-797.19 728.9,-779.88 702.13,-771.33"/>
<polygon fill="grey" stroke="grey" stroke-width="2" points="703.11,-767.97 692.52,-768.25 700.97,-774.64 703.11,-767.97"/>
</g>
<!-- 48 -->
<g id="node49" class="node">
<title>48</title>
<path fill="none" stroke="#56d8b1" stroke-width="2" d="M1010,-843C1010,-843 944,-843 944,-843 938,-843 932,-837 932,-831 932,-831 932,-819 932,-819 932,-813 938,-807 944,-807 944,-807 1010,-807 1010,-807 1016,-807 1022,-813 1022,-819 1022,-819 1022,-831 1022,-831 1022,-837 1016,-843 1010,-843"/>
<text text-anchor="middle" x="977" y="-822.5" font-family="sans" font-size="10.00">trim_galore_PE</text>
</g>
<!-- 48&#45;&gt;27 -->
<g id="edge56" class="edge">
<title>48&#45;&gt;27</title>
<path fill="none" stroke="grey" stroke-width="2" d="M931.98,-808.89C899.89,-798.12 856.38,-783.52 821.29,-771.74"/>
<polygon fill="grey" stroke="grey" stroke-width="2" points="822.23,-768.36 811.63,-768.49 820,-774.99 822.23,-768.36"/>
</g>
<!-- 48&#45;&gt;29 -->
<g id="edge73" class="edge">
<title>48&#45;&gt;29</title>
<path fill="none" stroke="grey" stroke-width="2" d="M931.76,-809.24C928.81,-808.43 925.87,-807.68 923,-807 828.88,-784.68 799.95,-794.1 702.65,-771.22"/>
<polygon fill="grey" stroke="grey" stroke-width="2" points="703.24,-767.76 692.7,-768.82 701.6,-774.57 703.24,-767.76"/>
</g>
<!-- 49 -->
<g id="node50" class="node">
<title>49</title>
<path fill="none" stroke="#56d8b1" stroke-width="2" d="M254,-843C254,-843 188,-843 188,-843 182,-843 176,-837 176,-831 176,-831 176,-819 176,-819 176,-813 182,-807 188,-807 188,-807 254,-807 254,-807 260,-807 266,-813 266,-819 266,-819 266,-831 266,-831 266,-837 260,-843 254,-843"/>
<text text-anchor="middle" x="221" y="-822.5" font-family="sans" font-size="10.00">trim_galore_PE</text>
</g>
<!-- 49&#45;&gt;27 -->
<g id="edge57" class="edge">
<title>49&#45;&gt;27</title>
<path fill="none" stroke="grey" stroke-width="2" d="M266.19,-808.98C269.15,-808.24 272.11,-807.57 275,-807 458.23,-770.88 512.89,-807.32 700.57,-770.8"/>
<polygon fill="grey" stroke="grey" stroke-width="2" points="701.36,-774.21 710.48,-768.82 699.99,-767.34 701.36,-774.21"/>
</g>
<!-- 49&#45;&gt;29 -->
<g id="edge74" class="edge">
<title>49&#45;&gt;29</title>
<path fill="none" stroke="grey" stroke-width="2" d="M266.23,-809.2C269.19,-808.41 272.13,-807.67 275,-807 381.58,-782.32 508.19,-765.97 581.4,-757.75"/>
<polygon fill="grey" stroke="grey" stroke-width="2" points="581.82,-761.23 591.37,-756.64 581.05,-754.27 581.82,-761.23"/>
</g>
<!-- 50 -->
<g id="node51" class="node">
<title>50</title>
<path fill="none" stroke="#56d8b1" stroke-width="2" d="M362,-843C362,-843 296,-843 296,-843 290,-843 284,-837 284,-831 284,-831 284,-819 284,-819 284,-813 290,-807 296,-807 296,-807 362,-807 362,-807 368,-807 374,-813 374,-819 374,-819 374,-831 374,-831 374,-837 368,-843 362,-843"/>
<text text-anchor="middle" x="329" y="-822.5" font-family="sans" font-size="10.00">trim_galore_PE</text>
</g>
<!-- 50&#45;&gt;27 -->
<g id="edge58" class="edge">
<title>50&#45;&gt;27</title>
<path fill="none" stroke="grey" stroke-width="2" d="M374.2,-809.08C377.17,-808.31 380.12,-807.61 383,-807 519.02,-778.17 560.15,-800.1 700.62,-770.82"/>
<polygon fill="grey" stroke="grey" stroke-width="2" points="701.41,-774.23 710.46,-768.72 699.95,-767.38 701.41,-774.23"/>
</g>
<!-- 50&#45;&gt;29 -->
<g id="edge75" class="edge">
<title>50&#45;&gt;29</title>
<path fill="none" stroke="grey" stroke-width="2" d="M374.28,-809.4C377.22,-808.56 380.15,-807.75 383,-807 450.25,-789.25 528.45,-773.1 581.18,-762.86"/>
<polygon fill="grey" stroke="grey" stroke-width="2" points="581.89,-766.28 591.05,-760.95 580.56,-759.41 581.89,-766.28"/>
</g>
<!-- 51 -->
<g id="node52" class="node">
<title>51</title>
<path fill="none" stroke="#56d8b1" stroke-width="2" d="M470,-843C470,-843 404,-843 404,-843 398,-843 392,-837 392,-831 392,-831 392,-819 392,-819 392,-813 398,-807 404,-807 404,-807 470,-807 470,-807 476,-807 482,-813 482,-819 482,-819 482,-831 482,-831 482,-837 476,-843 470,-843"/>
<text text-anchor="middle" x="437" y="-822.5" font-family="sans" font-size="10.00">trim_galore_PE</text>
</g>
<!-- 51&#45;&gt;27 -->
<g id="edge59" class="edge">
<title>51&#45;&gt;27</title>
<path fill="none" stroke="grey" stroke-width="2" d="M482.25,-809.27C485.2,-808.46 488.13,-807.69 491,-807 579.98,-785.47 607.26,-793.13 700.56,-770.91"/>
<polygon fill="grey" stroke="grey" stroke-width="2" points="701.52,-774.28 710.41,-768.51 699.87,-767.47 701.52,-774.28"/>
</g>
<!-- 51&#45;&gt;29 -->
<g id="edge76" class="edge">
<title>51&#45;&gt;29</title>
<path fill="none" stroke="grey" stroke-width="2" d="M482.24,-808C511.52,-797.65 549.98,-784.04 581.82,-772.78"/>
<polygon fill="grey" stroke="grey" stroke-width="2" points="583.21,-776 591.47,-769.37 580.88,-769.4 583.21,-776"/>
</g>
<!-- 52 -->
<g id="node53" class="node">
<title>52</title>
<path fill="none" stroke="#56d8b1" stroke-width="2" d="M578,-843C578,-843 512,-843 512,-843 506,-843 500,-837 500,-831 500,-831 500,-819 500,-819 500,-813 506,-807 512,-807 512,-807 578,-807 578,-807 584,-807 590,-813 590,-819 590,-819 590,-831 590,-831 590,-837 584,-843 578,-843"/>
<text text-anchor="middle" x="545" y="-822.5" font-family="sans" font-size="10.00">trim_galore_PE</text>
</g>
<!-- 52&#45;&gt;27 -->
<g id="edge60" class="edge">
<title>52&#45;&gt;27</title>
<path fill="none" stroke="grey" stroke-width="2" d="M590.02,-808.89C622.11,-798.12 665.62,-783.52 700.71,-771.74"/>
<polygon fill="grey" stroke="grey" stroke-width="2" points="702,-774.99 710.37,-768.49 699.77,-768.36 702,-774.99"/>
</g>
<!-- 52&#45;&gt;29 -->
<g id="edge77" class="edge">
<title>52&#45;&gt;29</title>
<path fill="none" stroke="grey" stroke-width="2" d="M567.99,-806.82C579.75,-798.03 594.32,-787.14 607.41,-777.36"/>
<polygon fill="grey" stroke="grey" stroke-width="2" points="609.84,-779.91 615.75,-771.12 605.65,-774.3 609.84,-779.91"/>
</g>
<!-- 53 -->
<g id="node54" class="node">
<title>53</title>
<path fill="none" stroke="#56d8b1" stroke-width="2" d="M686,-843C686,-843 620,-843 620,-843 614,-843 608,-837 608,-831 608,-831 608,-819 608,-819 608,-813 614,-807 620,-807 620,-807 686,-807 686,-807 692,-807 698,-813 698,-819 698,-819 698,-831 698,-831 698,-837 692,-843 686,-843"/>
<text text-anchor="middle" x="653" y="-822.5" font-family="sans" font-size="10.00">trim_galore_PE</text>
</g>
<!-- 53&#45;&gt;27 -->
<g id="edge61" class="edge">
<title>53&#45;&gt;27</title>
<path fill="none" stroke="grey" stroke-width="2" d="M678.59,-806.82C691.94,-797.86 708.53,-786.72 723.31,-776.8"/>
<polygon fill="grey" stroke="grey" stroke-width="2" points="725.42,-779.6 731.77,-771.12 721.52,-773.79 725.42,-779.6"/>
</g>
<!-- 53&#45;&gt;29 -->
<g id="edge78" class="edge">
<title>53&#45;&gt;29</title>
<path fill="none" stroke="grey" stroke-width="2" d="M650.39,-806.82C649.22,-799.11 647.81,-789.8 646.48,-781.03"/>
<polygon fill="grey" stroke="grey" stroke-width="2" points="649.94,-780.48 644.98,-771.12 643.02,-781.53 649.94,-780.48"/>
</g>
<!-- 54 -->
<g id="node55" class="node">
<title>54</title>
<path fill="none" stroke="#56d8b1" stroke-width="2" d="M794,-843C794,-843 728,-843 728,-843 722,-843 716,-837 716,-831 716,-831 716,-819 716,-819 716,-813 722,-807 728,-807 728,-807 794,-807 794,-807 800,-807 806,-813 806,-819 806,-819 806,-831 806,-831 806,-837 800,-843 794,-843"/>
<text text-anchor="middle" x="761" y="-822.5" font-family="sans" font-size="10.00">trim_galore_PE</text>
</g>
<!-- 54&#45;&gt;27 -->
<g id="edge62" class="edge">
<title>54&#45;&gt;27</title>
<path fill="none" stroke="grey" stroke-width="2" d="M761,-806.82C761,-799.2 761,-790 761,-781.32"/>
<polygon fill="grey" stroke="grey" stroke-width="2" points="764.5,-781.12 761,-771.12 757.5,-781.12 764.5,-781.12"/>
</g>
<!-- 54&#45;&gt;29 -->
<g id="edge79" class="edge">
<title>54&#45;&gt;29</title>
<path fill="none" stroke="grey" stroke-width="2" d="M732.8,-806.82C717.95,-797.77 699.47,-786.52 683.07,-776.52"/>
<polygon fill="grey" stroke="grey" stroke-width="2" points="684.56,-773.33 674.2,-771.12 680.92,-779.31 684.56,-773.33"/>
</g>
<!-- 55&#45;&gt;30 -->
<g id="edge80" class="edge">
<title>55&#45;&gt;30</title>
<path fill="none" stroke="grey" stroke-width="2" d="M2541.35,-436.99C2555.8,-427.05 2573.46,-414.9 2588.57,-404.5"/>
<polygon fill="grey" stroke="grey" stroke-width="2" points="2590.87,-407.17 2597.13,-398.61 2586.9,-401.4 2590.87,-407.17"/>
</g>
<!-- 56&#45;&gt;31 -->
<g id="edge81" class="edge">
<title>56&#45;&gt;31</title>
<path fill="none" stroke="grey" stroke-width="2" d="M2859.67,-436.79C2863.53,-428.03 2868.12,-417.58 2872.28,-408.14"/>
<polygon fill="grey" stroke="grey" stroke-width="2" points="2875.57,-409.34 2876.4,-398.78 2869.17,-406.52 2875.57,-409.34"/>
</g>
<!-- 57&#45;&gt;32 -->
<g id="edge84" class="edge">
<title>57&#45;&gt;32</title>
<path fill="none" stroke="grey" stroke-width="2" d="M1772.16,-732.53C1769.44,-731.56 1766.7,-730.7 1764,-730 1656.66,-702.02 1325.4,-685.12 1192.26,-679.29"/>
<polygon fill="grey" stroke="grey" stroke-width="2" points="1192.03,-675.78 1181.89,-678.84 1191.73,-682.77 1192.03,-675.78"/>
</g>
<!-- 57&#45;&gt;37 -->
<g id="edge95" class="edge">
<title>57&#45;&gt;37</title>
<path fill="none" stroke="grey" stroke-width="2" d="M1794.68,-732.32C1788.27,-723.38 1780.3,-712.28 1773.2,-702.37"/>
<polygon fill="grey" stroke="grey" stroke-width="2" points="1775.91,-700.14 1767.23,-694.06 1770.22,-704.22 1775.91,-700.14"/>
</g>
<!-- 58&#45;&gt;33 -->
<g id="edge86" class="edge">
<title>58&#45;&gt;33</title>
<path fill="none" stroke="grey" stroke-width="2" d="M2245.74,-585.7C2257.44,-576.8 2271.86,-565.82 2284.51,-556.2"/>
<polygon fill="grey" stroke="grey" stroke-width="2" points="2286.68,-558.94 2292.52,-550.1 2282.44,-553.37 2286.68,-558.94"/>
</g>
<!-- 58&#45;&gt;34 -->
<g id="edge89" class="edge">
<title>58&#45;&gt;34</title>
<path fill="none" stroke="grey" stroke-width="2" d="M2200.26,-585.7C2188.56,-576.8 2174.14,-565.82 2161.49,-556.2"/>
<polygon fill="grey" stroke="grey" stroke-width="2" points="2163.56,-553.37 2153.48,-550.1 2159.32,-558.94 2163.56,-553.37"/>
</g>
<!-- 59 -->
<g id="node60" class="node">
<title>59</title>
<path fill="none" stroke="#56d88a" stroke-width="2" d="M1249,-915C1249,-915 1193,-915 1193,-915 1187,-915 1181,-909 1181,-903 1181,-903 1181,-891 1181,-891 1181,-885 1187,-879 1193,-879 1193,-879 1249,-879 1249,-879 1255,-879 1261,-885 1261,-891 1261,-891 1261,-903 1261,-903 1261,-909 1255,-915 1249,-915"/>
<text text-anchor="middle" x="1221" y="-894.5" font-family="sans" font-size="10.00">sra2fastq_PE</text>
</g>
<!-- 59&#45;&gt;38 -->
<g id="edge96" class="edge">
<title>59&#45;&gt;38</title>
<path fill="none" stroke="grey" stroke-width="2" d="M1232.37,-878.7C1237.72,-870.56 1244.2,-860.69 1250.11,-851.7"/>
<polygon fill="grey" stroke="grey" stroke-width="2" points="1253.19,-853.38 1255.76,-843.1 1247.34,-849.54 1253.19,-853.38"/>
</g>
<!-- 60 -->
<g id="node61" class="node">
<title>60</title>
<path fill="none" stroke="#56d88a" stroke-width="2" d="M1387,-915C1387,-915 1331,-915 1331,-915 1325,-915 1319,-909 1319,-903 1319,-903 1319,-891 1319,-891 1319,-885 1325,-879 1331,-879 1331,-879 1387,-879 1387,-879 1393,-879 1399,-885 1399,-891 1399,-891 1399,-903 1399,-903 1399,-909 1393,-915 1387,-915"/>
<text text-anchor="middle" x="1359" y="-894.5" font-family="sans" font-size="10.00">sra2fastq_PE</text>
</g>
<!-- 60&#45;&gt;39 -->
<g id="edge97" class="edge">
<title>60&#45;&gt;39</title>
<path fill="none" stroke="grey" stroke-width="2" d="M1362.96,-878.7C1364.72,-870.98 1366.84,-861.71 1368.8,-853.11"/>
<polygon fill="grey" stroke="grey" stroke-width="2" points="1372.27,-853.63 1371.09,-843.1 1365.45,-852.07 1372.27,-853.63"/>
</g>
<!-- 61 -->
<g id="node62" class="node">
<title>61</title>
<path fill="none" stroke="#56d88a" stroke-width="2" d="M1498,-915C1498,-915 1442,-915 1442,-915 1436,-915 1430,-909 1430,-903 1430,-903 1430,-891 1430,-891 1430,-885 1436,-879 1442,-879 1442,-879 1498,-879 1498,-879 1504,-879 1510,-885 1510,-891 1510,-891 1510,-903 1510,-903 1510,-909 1504,-915 1498,-915"/>
<text text-anchor="middle" x="1470" y="-894.5" font-family="sans" font-size="10.00">sra2fastq_PE</text>
</g>
<!-- 61&#45;&gt;40 -->
<g id="edge98" class="edge">
<title>61&#45;&gt;40</title>
<path fill="none" stroke="grey" stroke-width="2" d="M1473.21,-878.7C1474.65,-870.98 1476.37,-861.71 1477.96,-853.11"/>
<polygon fill="grey" stroke="grey" stroke-width="2" points="1481.44,-853.58 1479.82,-843.1 1474.56,-852.3 1481.44,-853.58"/>
</g>
<!-- 62 -->
<g id="node63" class="node">
<title>62</title>
<path fill="none" stroke="#56d88a" stroke-width="2" d="M1624,-915C1624,-915 1568,-915 1568,-915 1562,-915 1556,-909 1556,-903 1556,-903 1556,-891 1556,-891 1556,-885 1562,-879 1568,-879 1568,-879 1624,-879 1624,-879 1630,-879 1636,-885 1636,-891 1636,-891 1636,-903 1636,-903 1636,-909 1630,-915 1624,-915"/>
<text text-anchor="middle" x="1596" y="-894.5" font-family="sans" font-size="10.00">sra2fastq_PE</text>
</g>
<!-- 62&#45;&gt;41 -->
<g id="edge99" class="edge">
<title>62&#45;&gt;41</title>
<path fill="none" stroke="grey" stroke-width="2" d="M1594.76,-878.7C1594.21,-870.98 1593.55,-861.71 1592.94,-853.11"/>
<polygon fill="grey" stroke="grey" stroke-width="2" points="1596.43,-852.83 1592.22,-843.1 1589.44,-853.33 1596.43,-852.83"/>
</g>
<!-- 63 -->
<g id="node64" class="node">
<title>63</title>
<path fill="none" stroke="#56d88a" stroke-width="2" d="M1734,-915C1734,-915 1678,-915 1678,-915 1672,-915 1666,-909 1666,-903 1666,-903 1666,-891 1666,-891 1666,-885 1672,-879 1678,-879 1678,-879 1734,-879 1734,-879 1740,-879 1746,-885 1746,-891 1746,-891 1746,-903 1746,-903 1746,-909 1740,-915 1734,-915"/>
<text text-anchor="middle" x="1706" y="-894.5" font-family="sans" font-size="10.00">sra2fastq_PE</text>
</g>
<!-- 63&#45;&gt;42 -->
<g id="edge100" class="edge">
<title>63&#45;&gt;42</title>
<path fill="none" stroke="grey" stroke-width="2" d="M1704.27,-878.7C1703.5,-870.98 1702.57,-861.71 1701.71,-853.11"/>
<polygon fill="grey" stroke="grey" stroke-width="2" points="1705.19,-852.71 1700.71,-843.1 1698.22,-853.4 1705.19,-852.71"/>
</g>
<!-- 64 -->
<g id="node65" class="node">
<title>64</title>
<path fill="none" stroke="#56d88a" stroke-width="2" d="M1845,-915C1845,-915 1789,-915 1789,-915 1783,-915 1777,-909 1777,-903 1777,-903 1777,-891 1777,-891 1777,-885 1783,-879 1789,-879 1789,-879 1845,-879 1845,-879 1851,-879 1857,-885 1857,-891 1857,-891 1857,-903 1857,-903 1857,-909 1851,-915 1845,-915"/>
<text text-anchor="middle" x="1817" y="-894.5" font-family="sans" font-size="10.00">sra2fastq_PE</text>
</g>
<!-- 64&#45;&gt;43 -->
<g id="edge101" class="edge">
<title>64&#45;&gt;43</title>
<path fill="none" stroke="grey" stroke-width="2" d="M1814.53,-878.7C1813.43,-870.98 1812.1,-861.71 1810.87,-853.11"/>
<polygon fill="grey" stroke="grey" stroke-width="2" points="1814.32,-852.51 1809.44,-843.1 1807.39,-853.5 1814.32,-852.51"/>
</g>
<!-- 65 -->
<g id="node66" class="node">
<title>65</title>
<path fill="none" stroke="#56d88a" stroke-width="2" d="M1953,-915C1953,-915 1897,-915 1897,-915 1891,-915 1885,-909 1885,-903 1885,-903 1885,-891 1885,-891 1885,-885 1891,-879 1897,-879 1897,-879 1953,-879 1953,-879 1959,-879 1965,-885 1965,-891 1965,-891 1965,-903 1965,-903 1965,-909 1959,-915 1953,-915"/>
<text text-anchor="middle" x="1925" y="-894.5" font-family="sans" font-size="10.00">sra2fastq_PE</text>
</g>
<!-- 65&#45;&gt;44 -->
<g id="edge102" class="edge">
<title>65&#45;&gt;44</title>
<path fill="none" stroke="grey" stroke-width="2" d="M1922.53,-878.7C1921.43,-870.98 1920.1,-861.71 1918.87,-853.11"/>
<polygon fill="grey" stroke="grey" stroke-width="2" points="1922.32,-852.51 1917.44,-843.1 1915.39,-853.5 1922.32,-852.51"/>
</g>
<!-- 66 -->
<g id="node67" class="node">
<title>66</title>
<path fill="none" stroke="#56d88a" stroke-width="2" d="M2056,-915C2056,-915 2000,-915 2000,-915 1994,-915 1988,-909 1988,-903 1988,-903 1988,-891 1988,-891 1988,-885 1994,-879 2000,-879 2000,-879 2056,-879 2056,-879 2062,-879 2068,-885 2068,-891 2068,-891 2068,-903 2068,-903 2068,-909 2062,-915 2056,-915"/>
<text text-anchor="middle" x="2028" y="-894.5" font-family="sans" font-size="10.00">sra2fastq_PE</text>
</g>
<!-- 66&#45;&gt;45 -->
<g id="edge103" class="edge">
<title>66&#45;&gt;45</title>
<path fill="none" stroke="grey" stroke-width="2" d="M2026.76,-878.7C2026.21,-870.98 2025.55,-861.71 2024.94,-853.11"/>
<polygon fill="grey" stroke="grey" stroke-width="2" points="2028.43,-852.83 2024.22,-843.1 2021.44,-853.33 2028.43,-852.83"/>
</g>
<!-- 67 -->
<g id="node68" class="node">
<title>67</title>
<path fill="none" stroke="#56d88a" stroke-width="2" d="M2244,-915C2244,-915 2188,-915 2188,-915 2182,-915 2176,-909 2176,-903 2176,-903 2176,-891 2176,-891 2176,-885 2182,-879 2188,-879 2188,-879 2244,-879 2244,-879 2250,-879 2256,-885 2256,-891 2256,-891 2256,-903 2256,-903 2256,-909 2250,-915 2244,-915"/>
<text text-anchor="middle" x="2216" y="-894.5" font-family="sans" font-size="10.00">sra2fastq_PE</text>
</g>
<!-- 67&#45;&gt;46 -->
<g id="edge104" class="edge">
<title>67&#45;&gt;46</title>
<path fill="none" stroke="grey" stroke-width="2" d="M2194.99,-878.7C2184.28,-869.88 2171.11,-859.03 2159.5,-849.47"/>
<polygon fill="grey" stroke="grey" stroke-width="2" points="2161.71,-846.76 2151.77,-843.1 2157.26,-852.16 2161.71,-846.76"/>
</g>
<!-- 68 -->
<g id="node69" class="node">
<title>68</title>
<path fill="none" stroke="#56d88a" stroke-width="2" d="M913,-915C913,-915 857,-915 857,-915 851,-915 845,-909 845,-903 845,-903 845,-891 845,-891 845,-885 851,-879 857,-879 857,-879 913,-879 913,-879 919,-879 925,-885 925,-891 925,-891 925,-903 925,-903 925,-909 919,-915 913,-915"/>
<text text-anchor="middle" x="885" y="-894.5" font-family="sans" font-size="10.00">sra2fastq_PE</text>
</g>
<!-- 68&#45;&gt;47 -->
<g id="edge105" class="edge">
<title>68&#45;&gt;47</title>
<path fill="none" stroke="grey" stroke-width="2" d="M881.04,-878.7C879.28,-870.98 877.16,-861.71 875.2,-853.11"/>
<polygon fill="grey" stroke="grey" stroke-width="2" points="878.55,-852.07 872.91,-843.1 871.73,-853.63 878.55,-852.07"/>
</g>
<!-- 69 -->
<g id="node70" class="node">
<title>69</title>
<path fill="none" stroke="#56d88a" stroke-width="2" d="M1037,-915C1037,-915 981,-915 981,-915 975,-915 969,-909 969,-903 969,-903 969,-891 969,-891 969,-885 975,-879 981,-879 981,-879 1037,-879 1037,-879 1043,-879 1049,-885 1049,-891 1049,-891 1049,-903 1049,-903 1049,-909 1043,-915 1037,-915"/>
<text text-anchor="middle" x="1009" y="-894.5" font-family="sans" font-size="10.00">sra2fastq_PE</text>
</g>
<!-- 69&#45;&gt;48 -->
<g id="edge106" class="edge">
<title>69&#45;&gt;48</title>
<path fill="none" stroke="grey" stroke-width="2" d="M1001.09,-878.7C997.45,-870.73 993.05,-861.1 989.01,-852.26"/>
<polygon fill="grey" stroke="grey" stroke-width="2" points="992.16,-850.74 984.82,-843.1 985.79,-853.65 992.16,-850.74"/>
</g>
<!-- 70 -->
<g id="node71" class="node">
<title>70</title>
<path fill="none" stroke="#56d88a" stroke-width="2" d="M110,-915C110,-915 54,-915 54,-915 48,-915 42,-909 42,-903 42,-903 42,-891 42,-891 42,-885 48,-879 54,-879 54,-879 110,-879 110,-879 116,-879 122,-885 122,-891 122,-891 122,-903 122,-903 122,-909 116,-915 110,-915"/>
<text text-anchor="middle" x="82" y="-894.5" font-family="sans" font-size="10.00">sra2fastq_PE</text>
</g>
<!-- 70&#45;&gt;49 -->
<g id="edge107" class="edge">
<title>70&#45;&gt;49</title>
<path fill="none" stroke="grey" stroke-width="2" d="M116,-878.88C134.6,-869.51 157.83,-857.81 177.71,-847.8"/>
<polygon fill="grey" stroke="grey" stroke-width="2" points="179.51,-850.81 186.87,-843.19 176.36,-844.56 179.51,-850.81"/>
</g>
<!-- 71 -->
<g id="node72" class="node">
<title>71</title>
<path fill="none" stroke="#56d88a" stroke-width="2" d="M250,-915C250,-915 194,-915 194,-915 188,-915 182,-909 182,-903 182,-903 182,-891 182,-891 182,-885 188,-879 194,-879 194,-879 250,-879 250,-879 256,-879 262,-885 262,-891 262,-891 262,-903 262,-903 262,-909 256,-915 250,-915"/>
<text text-anchor="middle" x="222" y="-894.5" font-family="sans" font-size="10.00">sra2fastq_PE</text>
</g>
<!-- 71&#45;&gt;50 -->
<g id="edge108" class="edge">
<title>71&#45;&gt;50</title>
<path fill="none" stroke="grey" stroke-width="2" d="M248.18,-878.88C262.04,-869.81 279.24,-858.55 294.21,-848.76"/>
<polygon fill="grey" stroke="grey" stroke-width="2" points="296.27,-851.59 302.72,-843.19 292.44,-845.74 296.27,-851.59"/>
</g>
<!-- 72 -->
<g id="node73" class="node">
<title>72</title>
<path fill="none" stroke="#56d88a" stroke-width="2" d="M390,-915C390,-915 334,-915 334,-915 328,-915 322,-909 322,-903 322,-903 322,-891 322,-891 322,-885 328,-879 334,-879 334,-879 390,-879 390,-879 396,-879 402,-885 402,-891 402,-891 402,-903 402,-903 402,-909 396,-915 390,-915"/>
<text text-anchor="middle" x="362" y="-894.5" font-family="sans" font-size="10.00">sra2fastq_PE</text>
</g>
<!-- 72&#45;&gt;51 -->
<g id="edge109" class="edge">
<title>72&#45;&gt;51</title>
<path fill="none" stroke="grey" stroke-width="2" d="M380.54,-878.7C389.8,-870.05 401.16,-859.45 411.26,-850.03"/>
<polygon fill="grey" stroke="grey" stroke-width="2" points="413.75,-852.49 418.67,-843.1 408.98,-847.37 413.75,-852.49"/>
</g>
<!-- 73 -->
<g id="node74" class="node">
<title>73</title>
<path fill="none" stroke="#56d88a" stroke-width="2" d="M530,-915C530,-915 474,-915 474,-915 468,-915 462,-909 462,-903 462,-903 462,-891 462,-891 462,-885 468,-879 474,-879 474,-879 530,-879 530,-879 536,-879 542,-885 542,-891 542,-891 542,-903 542,-903 542,-909 536,-915 530,-915"/>
<text text-anchor="middle" x="502" y="-894.5" font-family="sans" font-size="10.00">sra2fastq_PE</text>
</g>
<!-- 73&#45;&gt;52 -->
<g id="edge110" class="edge">
<title>73&#45;&gt;52</title>
<path fill="none" stroke="grey" stroke-width="2" d="M512.63,-878.7C517.63,-870.56 523.69,-860.69 529.21,-851.7"/>
<polygon fill="grey" stroke="grey" stroke-width="2" points="532.24,-853.46 534.49,-843.1 526.28,-849.79 532.24,-853.46"/>
</g>
<!-- 74 -->
<g id="node75" class="node">
<title>74</title>
<path fill="none" stroke="#56d88a" stroke-width="2" d="M665,-915C665,-915 609,-915 609,-915 603,-915 597,-909 597,-903 597,-903 597,-891 597,-891 597,-885 603,-879 609,-879 609,-879 665,-879 665,-879 671,-879 677,-885 677,-891 677,-891 677,-903 677,-903 677,-909 671,-915 665,-915"/>
<text text-anchor="middle" x="637" y="-894.5" font-family="sans" font-size="10.00">sra2fastq_PE</text>
</g>
<!-- 74&#45;&gt;53 -->
<g id="edge111" class="edge">
<title>74&#45;&gt;53</title>
<path fill="none" stroke="grey" stroke-width="2" d="M640.96,-878.7C642.72,-870.98 644.84,-861.71 646.8,-853.11"/>
<polygon fill="grey" stroke="grey" stroke-width="2" points="650.27,-853.63 649.09,-843.1 643.45,-852.07 650.27,-853.63"/>
</g>
<!-- 75 -->
<g id="node76" class="node">
<title>75</title>
<path fill="none" stroke="#56d88a" stroke-width="2" d="M789,-915C789,-915 733,-915 733,-915 727,-915 721,-909 721,-903 721,-903 721,-891 721,-891 721,-885 727,-879 733,-879 733,-879 789,-879 789,-879 795,-879 801,-885 801,-891 801,-891 801,-903 801,-903 801,-909 795,-915 789,-915"/>
<text text-anchor="middle" x="761" y="-894.5" font-family="sans" font-size="10.00">sra2fastq_PE</text>
</g>
<!-- 75&#45;&gt;54 -->
<g id="edge112" class="edge">
<title>75&#45;&gt;54</title>
<path fill="none" stroke="grey" stroke-width="2" d="M761,-878.7C761,-870.98 761,-861.71 761,-853.11"/>
<polygon fill="grey" stroke="grey" stroke-width="2" points="764.5,-853.1 761,-843.1 757.5,-853.1 764.5,-853.1"/>
</g>
<!-- 76&#45;&gt;58 -->
<g id="edge116" class="edge">
<title>76&#45;&gt;58</title>
<path fill="none" stroke="grey" stroke-width="2" d="M2206.25,-732.36C2209.51,-707.59 2215.56,-661.55 2219.43,-632.13"/>
<polygon fill="grey" stroke="grey" stroke-width="2" points="2222.92,-632.49 2220.75,-622.12 2215.97,-631.58 2222.92,-632.49"/>
</g>
<!-- 77 -->
<g id="node78" class="node">
<title>77</title>
<path fill="none" stroke="#afd856" stroke-width="2" d="M1230,-987C1230,-987 1132,-987 1132,-987 1126,-987 1120,-981 1120,-975 1120,-975 1120,-963 1120,-963 1120,-957 1126,-951 1132,-951 1132,-951 1230,-951 1230,-951 1236,-951 1242,-957 1242,-963 1242,-963 1242,-975 1242,-975 1242,-981 1236,-987 1230,-987"/>
<text text-anchor="middle" x="1181" y="-972" font-family="sans" font-size="10.00">id2sra</text>
<text text-anchor="middle" x="1181" y="-961" font-family="sans" font-size="10.00">sample: GSM1596351</text>
</g>
<!-- 77&#45;&gt;59 -->
<g id="edge118" class="edge">
<title>77&#45;&gt;59</title>
<path fill="none" stroke="grey" stroke-width="2" d="M1190.89,-950.7C1195.49,-942.64 1201.06,-932.89 1206.15,-923.98"/>
<polygon fill="grey" stroke="grey" stroke-width="2" points="1209.3,-925.52 1211.23,-915.1 1203.23,-922.05 1209.3,-925.52"/>
</g>
<!-- 78 -->
<g id="node79" class="node">
<title>78</title>
<path fill="none" stroke="#afd856" stroke-width="2" d="M1370,-987C1370,-987 1272,-987 1272,-987 1266,-987 1260,-981 1260,-975 1260,-975 1260,-963 1260,-963 1260,-957 1266,-951 1272,-951 1272,-951 1370,-951 1370,-951 1376,-951 1382,-957 1382,-963 1382,-963 1382,-975 1382,-975 1382,-981 1376,-987 1370,-987"/>
<text text-anchor="middle" x="1321" y="-972" font-family="sans" font-size="10.00">id2sra</text>
<text text-anchor="middle" x="1321" y="-961" font-family="sans" font-size="10.00">sample: GSM1596352</text>
</g>
<!-- 78&#45;&gt;60 -->
<g id="edge119" class="edge">
<title>78&#45;&gt;60</title>
<path fill="none" stroke="grey" stroke-width="2" d="M1330.39,-950.7C1334.76,-942.64 1340.06,-932.89 1344.9,-923.98"/>
<polygon fill="grey" stroke="grey" stroke-width="2" points="1348.02,-925.56 1349.71,-915.1 1341.87,-922.22 1348.02,-925.56"/>
</g>
<!-- 79 -->
<g id="node80" class="node">
<title>79</title>
<path fill="none" stroke="#afd856" stroke-width="2" d="M1510,-987C1510,-987 1412,-987 1412,-987 1406,-987 1400,-981 1400,-975 1400,-975 1400,-963 1400,-963 1400,-957 1406,-951 1412,-951 1412,-951 1510,-951 1510,-951 1516,-951 1522,-957 1522,-963 1522,-963 1522,-975 1522,-975 1522,-981 1516,-987 1510,-987"/>
<text text-anchor="middle" x="1461" y="-972" font-family="sans" font-size="10.00">id2sra</text>
<text text-anchor="middle" x="1461" y="-961" font-family="sans" font-size="10.00">sample: GSM1596353</text>
</g>
<!-- 79&#45;&gt;61 -->
<g id="edge120" class="edge">
<title>79&#45;&gt;61</title>
<path fill="none" stroke="grey" stroke-width="2" d="M1463.22,-950.7C1464.22,-942.98 1465.41,-933.71 1466.51,-925.11"/>
<polygon fill="grey" stroke="grey" stroke-width="2" points="1470,-925.47 1467.8,-915.1 1463.05,-924.58 1470,-925.47"/>
</g>
<!-- 80 -->
<g id="node81" class="node">
<title>80</title>
<path fill="none" stroke="#afd856" stroke-width="2" d="M1650,-987C1650,-987 1552,-987 1552,-987 1546,-987 1540,-981 1540,-975 1540,-975 1540,-963 1540,-963 1540,-957 1546,-951 1552,-951 1552,-951 1650,-951 1650,-951 1656,-951 1662,-957 1662,-963 1662,-963 1662,-975 1662,-975 1662,-981 1656,-987 1650,-987"/>
<text text-anchor="middle" x="1601" y="-972" font-family="sans" font-size="10.00">id2sra</text>
<text text-anchor="middle" x="1601" y="-961" font-family="sans" font-size="10.00">sample: GSM1596354</text>
</g>
<!-- 80&#45;&gt;62 -->
<g id="edge121" class="edge">
<title>80&#45;&gt;62</title>
<path fill="none" stroke="grey" stroke-width="2" d="M1599.76,-950.7C1599.21,-942.98 1598.55,-933.71 1597.94,-925.11"/>
<polygon fill="grey" stroke="grey" stroke-width="2" points="1601.43,-924.83 1597.22,-915.1 1594.44,-925.33 1601.43,-924.83"/>
</g>
<!-- 81 -->
<g id="node82" class="node">
<title>81</title>
<path fill="none" stroke="#afd856" stroke-width="2" d="M1790,-987C1790,-987 1692,-987 1692,-987 1686,-987 1680,-981 1680,-975 1680,-975 1680,-963 1680,-963 1680,-957 1686,-951 1692,-951 1692,-951 1790,-951 1790,-951 1796,-951 1802,-957 1802,-963 1802,-963 1802,-975 1802,-975 1802,-981 1796,-987 1790,-987"/>
<text text-anchor="middle" x="1741" y="-972" font-family="sans" font-size="10.00">id2sra</text>
<text text-anchor="middle" x="1741" y="-961" font-family="sans" font-size="10.00">sample: GSM1596355</text>
</g>
<!-- 81&#45;&gt;63 -->
<g id="edge122" class="edge">
<title>81&#45;&gt;63</title>
<path fill="none" stroke="grey" stroke-width="2" d="M1732.35,-950.7C1728.36,-942.73 1723.55,-933.1 1719.13,-924.26"/>
<polygon fill="grey" stroke="grey" stroke-width="2" points="1722.15,-922.48 1714.55,-915.1 1715.89,-925.61 1722.15,-922.48"/>
</g>
<!-- 82 -->
<g id="node83" class="node">
<title>82</title>
<path fill="none" stroke="#afd856" stroke-width="2" d="M1930,-987C1930,-987 1832,-987 1832,-987 1826,-987 1820,-981 1820,-975 1820,-975 1820,-963 1820,-963 1820,-957 1826,-951 1832,-951 1832,-951 1930,-951 1930,-951 1936,-951 1942,-957 1942,-963 1942,-963 1942,-975 1942,-975 1942,-981 1936,-987 1930,-987"/>
<text text-anchor="middle" x="1881" y="-972" font-family="sans" font-size="10.00">id2sra</text>
<text text-anchor="middle" x="1881" y="-961" font-family="sans" font-size="10.00">sample: GSM1596356</text>
</g>
<!-- 82&#45;&gt;64 -->
<g id="edge123" class="edge">
<title>82&#45;&gt;64</title>
<path fill="none" stroke="grey" stroke-width="2" d="M1865.18,-950.7C1857.43,-942.22 1847.96,-931.86 1839.48,-922.58"/>
<polygon fill="grey" stroke="grey" stroke-width="2" points="1841.97,-920.12 1832.64,-915.1 1836.8,-924.85 1841.97,-920.12"/>
</g>
<!-- 83 -->
<g id="node84" class="node">
<title>83</title>
<path fill="none" stroke="#afd856" stroke-width="2" d="M2070,-987C2070,-987 1972,-987 1972,-987 1966,-987 1960,-981 1960,-975 1960,-975 1960,-963 1960,-963 1960,-957 1966,-951 1972,-951 1972,-951 2070,-951 2070,-951 2076,-951 2082,-957 2082,-963 2082,-963 2082,-975 2082,-975 2082,-981 2076,-987 2070,-987"/>
<text text-anchor="middle" x="2021" y="-972" font-family="sans" font-size="10.00">id2sra</text>
<text text-anchor="middle" x="2021" y="-961" font-family="sans" font-size="10.00">sample: GSM1596357</text>
</g>
<!-- 83&#45;&gt;65 -->
<g id="edge124" class="edge">
<title>83&#45;&gt;65</title>
<path fill="none" stroke="grey" stroke-width="2" d="M1997.27,-950.7C1985.06,-941.8 1970.01,-930.82 1956.82,-921.2"/>
<polygon fill="grey" stroke="grey" stroke-width="2" points="1958.6,-918.17 1948.46,-915.1 1954.48,-923.82 1958.6,-918.17"/>
</g>
<!-- 84 -->
<g id="node85" class="node">
<title>84</title>
<path fill="none" stroke="#afd856" stroke-width="2" d="M2210,-987C2210,-987 2112,-987 2112,-987 2106,-987 2100,-981 2100,-975 2100,-975 2100,-963 2100,-963 2100,-957 2106,-951 2112,-951 2112,-951 2210,-951 2210,-951 2216,-951 2222,-957 2222,-963 2222,-963 2222,-975 2222,-975 2222,-981 2216,-987 2210,-987"/>
<text text-anchor="middle" x="2161" y="-972" font-family="sans" font-size="10.00">id2sra</text>
<text text-anchor="middle" x="2161" y="-961" font-family="sans" font-size="10.00">sample: GSM1596358</text>
</g>
<!-- 84&#45;&gt;66 -->
<g id="edge125" class="edge">
<title>84&#45;&gt;66</title>
<path fill="none" stroke="grey" stroke-width="2" d="M2128.46,-950.88C2110.75,-941.55 2088.65,-929.92 2069.68,-919.94"/>
<polygon fill="grey" stroke="grey" stroke-width="2" points="2071.14,-916.75 2060.66,-915.19 2067.88,-922.94 2071.14,-916.75"/>
</g>
<!-- 85 -->
<g id="node86" class="node">
<title>85</title>
<path fill="none" stroke="#afd856" stroke-width="2" d="M2350,-987C2350,-987 2252,-987 2252,-987 2246,-987 2240,-981 2240,-975 2240,-975 2240,-963 2240,-963 2240,-957 2246,-951 2252,-951 2252,-951 2350,-951 2350,-951 2356,-951 2362,-957 2362,-963 2362,-963 2362,-975 2362,-975 2362,-981 2356,-987 2350,-987"/>
<text text-anchor="middle" x="2301" y="-972" font-family="sans" font-size="10.00">id2sra</text>
<text text-anchor="middle" x="2301" y="-961" font-family="sans" font-size="10.00">sample: GSM1596359</text>
</g>
<!-- 85&#45;&gt;67 -->
<g id="edge126" class="edge">
<title>85&#45;&gt;67</title>
<path fill="none" stroke="grey" stroke-width="2" d="M2279.99,-950.7C2269.28,-941.88 2256.11,-931.03 2244.5,-921.47"/>
<polygon fill="grey" stroke="grey" stroke-width="2" points="2246.71,-918.76 2236.77,-915.1 2242.26,-924.16 2246.71,-918.76"/>
</g>
<!-- 86 -->
<g id="node87" class="node">
<title>86</title>
<path fill="none" stroke="#afd856" stroke-width="2" d="M950,-987C950,-987 852,-987 852,-987 846,-987 840,-981 840,-975 840,-975 840,-963 840,-963 840,-957 846,-951 852,-951 852,-951 950,-951 950,-951 956,-951 962,-957 962,-963 962,-963 962,-975 962,-975 962,-981 956,-987 950,-987"/>
<text text-anchor="middle" x="901" y="-972" font-family="sans" font-size="10.00">id2sra</text>
<text text-anchor="middle" x="901" y="-961" font-family="sans" font-size="10.00">sample: GSM1596256</text>
</g>
<!-- 86&#45;&gt;68 -->
<g id="edge127" class="edge">
<title>86&#45;&gt;68</title>
<path fill="none" stroke="grey" stroke-width="2" d="M897.04,-950.7C895.28,-942.98 893.16,-933.71 891.2,-925.11"/>
<polygon fill="grey" stroke="grey" stroke-width="2" points="894.55,-924.07 888.91,-915.1 887.73,-925.63 894.55,-924.07"/>
</g>
<!-- 87 -->
<g id="node88" class="node">
<title>87</title>
<path fill="none" stroke="#afd856" stroke-width="2" d="M1090,-987C1090,-987 992,-987 992,-987 986,-987 980,-981 980,-975 980,-975 980,-963 980,-963 980,-957 986,-951 992,-951 992,-951 1090,-951 1090,-951 1096,-951 1102,-957 1102,-963 1102,-963 1102,-975 1102,-975 1102,-981 1096,-987 1090,-987"/>
<text text-anchor="middle" x="1041" y="-972" font-family="sans" font-size="10.00">id2sra</text>
<text text-anchor="middle" x="1041" y="-961" font-family="sans" font-size="10.00">sample: GSM1596257</text>
</g>
<!-- 87&#45;&gt;69 -->
<g id="edge128" class="edge">
<title>87&#45;&gt;69</title>
<path fill="none" stroke="grey" stroke-width="2" d="M1033.09,-950.7C1029.45,-942.73 1025.05,-933.1 1021.01,-924.26"/>
<polygon fill="grey" stroke="grey" stroke-width="2" points="1024.16,-922.74 1016.82,-915.1 1017.79,-925.65 1024.16,-922.74"/>
</g>
<!-- 88 -->
<g id="node89" class="node">
<title>88</title>
<path fill="none" stroke="#afd856" stroke-width="2" d="M110,-987C110,-987 12,-987 12,-987 6,-987 0,-981 0,-975 0,-975 0,-963 0,-963 0,-957 6,-951 12,-951 12,-951 110,-951 110,-951 116,-951 122,-957 122,-963 122,-963 122,-975 122,-975 122,-981 116,-987 110,-987"/>
<text text-anchor="middle" x="61" y="-972" font-family="sans" font-size="10.00">id2sra</text>
<text text-anchor="middle" x="61" y="-961" font-family="sans" font-size="10.00">sample: GSM1596258</text>
</g>
<!-- 88&#45;&gt;70 -->
<g id="edge129" class="edge">
<title>88&#45;&gt;70</title>
<path fill="none" stroke="grey" stroke-width="2" d="M66.19,-950.7C68.53,-942.9 71.35,-933.51 73.95,-924.83"/>
<polygon fill="grey" stroke="grey" stroke-width="2" points="77.35,-925.69 76.87,-915.1 70.64,-923.68 77.35,-925.69"/>
</g>
<!-- 89 -->
<g id="node90" class="node">
<title>89</title>
<path fill="none" stroke="#afd856" stroke-width="2" d="M250,-987C250,-987 152,-987 152,-987 146,-987 140,-981 140,-975 140,-975 140,-963 140,-963 140,-957 146,-951 152,-951 152,-951 250,-951 250,-951 256,-951 262,-957 262,-963 262,-963 262,-975 262,-975 262,-981 256,-987 250,-987"/>
<text text-anchor="middle" x="201" y="-972" font-family="sans" font-size="10.00">id2sra</text>
<text text-anchor="middle" x="201" y="-961" font-family="sans" font-size="10.00">sample: GSM1596259</text>
</g>
<!-- 89&#45;&gt;71 -->
<g id="edge130" class="edge">
<title>89&#45;&gt;71</title>
<path fill="none" stroke="grey" stroke-width="2" d="M206.19,-950.7C208.53,-942.9 211.35,-933.51 213.95,-924.83"/>
<polygon fill="grey" stroke="grey" stroke-width="2" points="217.35,-925.69 216.87,-915.1 210.64,-923.68 217.35,-925.69"/>
</g>
<!-- 90 -->
<g id="node91" class="node">
<title>90</title>
<path fill="none" stroke="#afd856" stroke-width="2" d="M390,-987C390,-987 292,-987 292,-987 286,-987 280,-981 280,-975 280,-975 280,-963 280,-963 280,-957 286,-951 292,-951 292,-951 390,-951 390,-951 396,-951 402,-957 402,-963 402,-963 402,-975 402,-975 402,-981 396,-987 390,-987"/>
<text text-anchor="middle" x="341" y="-972" font-family="sans" font-size="10.00">id2sra</text>
<text text-anchor="middle" x="341" y="-961" font-family="sans" font-size="10.00">sample: GSM1596260</text>
</g>
<!-- 90&#45;&gt;72 -->
<g id="edge131" class="edge">
<title>90&#45;&gt;72</title>
<path fill="none" stroke="grey" stroke-width="2" d="M346.19,-950.7C348.53,-942.9 351.35,-933.51 353.95,-924.83"/>
<polygon fill="grey" stroke="grey" stroke-width="2" points="357.35,-925.69 356.87,-915.1 350.64,-923.68 357.35,-925.69"/>
</g>
<!-- 91 -->
<g id="node92" class="node">
<title>91</title>
<path fill="none" stroke="#afd856" stroke-width="2" d="M530,-987C530,-987 432,-987 432,-987 426,-987 420,-981 420,-975 420,-975 420,-963 420,-963 420,-957 426,-951 432,-951 432,-951 530,-951 530,-951 536,-951 542,-957 542,-963 542,-963 542,-975 542,-975 542,-981 536,-987 530,-987"/>
<text text-anchor="middle" x="481" y="-972" font-family="sans" font-size="10.00">id2sra</text>
<text text-anchor="middle" x="481" y="-961" font-family="sans" font-size="10.00">sample: GSM1596261</text>
</g>
<!-- 91&#45;&gt;73 -->
<g id="edge132" class="edge">
<title>91&#45;&gt;73</title>
<path fill="none" stroke="grey" stroke-width="2" d="M486.19,-950.7C488.53,-942.9 491.35,-933.51 493.95,-924.83"/>
<polygon fill="grey" stroke="grey" stroke-width="2" points="497.35,-925.69 496.87,-915.1 490.64,-923.68 497.35,-925.69"/>
</g>
<!-- 92 -->
<g id="node93" class="node">
<title>92</title>
<path fill="none" stroke="#afd856" stroke-width="2" d="M670,-987C670,-987 572,-987 572,-987 566,-987 560,-981 560,-975 560,-975 560,-963 560,-963 560,-957 566,-951 572,-951 572,-951 670,-951 670,-951 676,-951 682,-957 682,-963 682,-963 682,-975 682,-975 682,-981 676,-987 670,-987"/>
<text text-anchor="middle" x="621" y="-972" font-family="sans" font-size="10.00">id2sra</text>
<text text-anchor="middle" x="621" y="-961" font-family="sans" font-size="10.00">sample: GSM1596262</text>
</g>
<!-- 92&#45;&gt;74 -->
<g id="edge133" class="edge">
<title>92&#45;&gt;74</title>
<path fill="none" stroke="grey" stroke-width="2" d="M624.96,-950.7C626.72,-942.98 628.84,-933.71 630.8,-925.11"/>
<polygon fill="grey" stroke="grey" stroke-width="2" points="634.27,-925.63 633.09,-915.1 627.45,-924.07 634.27,-925.63"/>
</g>
<!-- 93 -->
<g id="node94" class="node">
<title>93</title>
<path fill="none" stroke="#afd856" stroke-width="2" d="M810,-987C810,-987 712,-987 712,-987 706,-987 700,-981 700,-975 700,-975 700,-963 700,-963 700,-957 706,-951 712,-951 712,-951 810,-951 810,-951 816,-951 822,-957 822,-963 822,-963 822,-975 822,-975 822,-981 816,-987 810,-987"/>
<text text-anchor="middle" x="761" y="-972" font-family="sans" font-size="10.00">id2sra</text>
<text text-anchor="middle" x="761" y="-961" font-family="sans" font-size="10.00">sample: GSM1596263</text>
</g>
<!-- 93&#45;&gt;75 -->
<g id="edge134" class="edge">
<title>93&#45;&gt;75</title>
<path fill="none" stroke="grey" stroke-width="2" d="M761,-950.7C761,-942.98 761,-933.71 761,-925.11"/>
<polygon fill="grey" stroke="grey" stroke-width="2" points="764.5,-925.1 761,-915.1 757.5,-925.1 764.5,-925.1"/>
</g>
</g>
</svg>
